<svg width="139" height="124" viewBox="0 0 139 124" fill="none" xmlns="http://www.w3.org/2000/svg">
<path d="M59.9781 7.83499C61.6284 7.83499 62.9662 6.49715 62.9662 4.84685C62.9662 3.19655 61.6284 1.85872 59.9781 1.85872C58.3278 1.85872 56.9899 3.19655 56.9899 4.84685C56.9899 6.49715 58.3278 7.83499 59.9781 7.83499Z" fill="#702E3E"/>
<path d="M67.9892 7.83499C69.6395 7.83499 70.9773 6.49715 70.9773 4.84685C70.9773 3.19655 69.6395 1.85872 67.9892 1.85872C66.3389 1.85872 65.001 3.19655 65.001 4.84685C65.001 6.49715 66.3389 7.83499 67.9892 7.83499Z" fill="#702E3E"/>
<path d="M76.0003 7.83499C77.6506 7.83499 78.9884 6.49715 78.9884 4.84685C78.9884 3.19655 77.6506 1.85872 76.0003 1.85872C74.35 1.85872 73.0121 3.19655 73.0121 4.84685C73.0121 6.49715 74.35 7.83499 76.0003 7.83499Z" fill="#702E3E"/>
<path d="M84.0113 7.83499C85.6616 7.83499 86.9995 6.49715 86.9995 4.84685C86.9995 3.19655 85.6616 1.85872 84.0113 1.85872C82.361 1.85872 81.0232 3.19655 81.0232 4.84685C81.0232 6.49715 82.361 7.83499 84.0113 7.83499Z" fill="#702E3E"/>
<path d="M92.0224 7.83499C93.6727 7.83499 95.0106 6.49715 95.0106 4.84685C95.0106 3.19655 93.6727 1.85872 92.0224 1.85872C90.3721 1.85872 89.0343 3.19655 89.0343 4.84685C89.0343 6.49715 90.3721 7.83499 92.0224 7.83499Z" fill="#702E3E"/>
<path d="M100.034 7.83499C101.684 7.83499 103.022 6.49715 103.022 4.84685C103.022 3.19655 101.684 1.85872 100.034 1.85872C98.3833 1.85872 97.0454 3.19655 97.0454 4.84685C97.0454 6.49715 98.3833 7.83499 100.034 7.83499Z" fill="#702E3E"/>
<path d="M108.045 7.83499C109.695 7.83499 111.033 6.49715 111.033 4.84685C111.033 3.19655 109.695 1.85872 108.045 1.85872C106.394 1.85872 105.056 3.19655 105.056 4.84685C105.056 6.49715 106.394 7.83499 108.045 7.83499Z" fill="#702E3E"/>
<path d="M116.056 7.83499C117.706 7.83499 119.044 6.49715 119.044 4.84685C119.044 3.19655 117.706 1.85872 116.056 1.85872C114.405 1.85872 113.068 3.19655 113.068 4.84685C113.068 6.49715 114.405 7.83499 116.056 7.83499Z" fill="#702E3E"/>
<path d="M124.067 7.83499C125.717 7.83499 127.055 6.49715 127.055 4.84685C127.055 3.19655 125.717 1.85872 124.067 1.85872C122.416 1.85872 121.079 3.19655 121.079 4.84685C121.079 6.49715 122.416 7.83499 124.067 7.83499Z" fill="#D3D1CF"/>
<path d="M132.078 7.83499C133.728 7.83499 135.066 6.49715 135.066 4.84685C135.066 3.19655 133.728 1.85872 132.078 1.85872C130.428 1.85872 129.09 3.19655 129.09 4.84685C129.09 6.49715 130.428 7.83499 132.078 7.83499Z" fill="#D3D1CF"/>
<path d="M59.9781 23.8572C61.6284 23.8572 62.9662 22.5193 62.9662 20.869C62.9662 19.2187 61.6284 17.8809 59.9781 17.8809C58.3278 17.8809 56.9899 19.2187 56.9899 20.869C56.9899 22.5193 58.3278 23.8572 59.9781 23.8572Z" fill="#702E3E"/>
<path d="M67.9892 23.8572C69.6395 23.8572 70.9773 22.5193 70.9773 20.869C70.9773 19.2187 69.6395 17.8809 67.9892 17.8809C66.3389 17.8809 65.001 19.2187 65.001 20.869C65.001 22.5193 66.3389 23.8572 67.9892 23.8572Z" fill="#702E3E"/>
<path d="M76.0003 23.8572C77.6506 23.8572 78.9884 22.5193 78.9884 20.869C78.9884 19.2187 77.6506 17.8809 76.0003 17.8809C74.35 17.8809 73.0121 19.2187 73.0121 20.869C73.0121 22.5193 74.35 23.8572 76.0003 23.8572Z" fill="#702E3E"/>
<path d="M84.0113 23.8572C85.6616 23.8572 86.9995 22.5193 86.9995 20.869C86.9995 19.2187 85.6616 17.8809 84.0113 17.8809C82.361 17.8809 81.0232 19.2187 81.0232 20.869C81.0232 22.5193 82.361 23.8572 84.0113 23.8572Z" fill="#702E3E"/>
<path d="M92.0224 23.8572C93.6727 23.8572 95.0106 22.5193 95.0106 20.869C95.0106 19.2187 93.6727 17.8809 92.0224 17.8809C90.3721 17.8809 89.0343 19.2187 89.0343 20.869C89.0343 22.5193 90.3721 23.8572 92.0224 23.8572Z" fill="#702E3E"/>
<path d="M100.034 23.8572C101.684 23.8572 103.022 22.5193 103.022 20.869C103.022 19.2187 101.684 17.8809 100.034 17.8809C98.3833 17.8809 97.0454 19.2187 97.0454 20.869C97.0454 22.5193 98.3833 23.8572 100.034 23.8572Z" fill="#702E3E"/>
<path d="M108.045 23.8572C109.695 23.8572 111.033 22.5193 111.033 20.869C111.033 19.2187 109.695 17.8809 108.045 17.8809C106.394 17.8809 105.056 19.2187 105.056 20.869C105.056 22.5193 106.394 23.8572 108.045 23.8572Z" fill="#702E3E"/>
<path d="M116.056 23.8572C117.706 23.8572 119.044 22.5193 119.044 20.869C119.044 19.2187 117.706 17.8809 116.056 17.8809C114.405 17.8809 113.068 19.2187 113.068 20.869C113.068 22.5193 114.405 23.8572 116.056 23.8572Z" fill="#D3D1CF"/>
<path d="M124.067 23.8572C125.717 23.8572 127.055 22.5193 127.055 20.869C127.055 19.2187 125.717 17.8809 124.067 17.8809C122.416 17.8809 121.079 19.2187 121.079 20.869C121.079 22.5193 122.416 23.8572 124.067 23.8572Z" fill="#D3D1CF"/>
<path d="M132.078 23.8572C133.728 23.8572 135.066 22.5193 135.066 20.869C135.066 19.2187 133.728 17.8809 132.078 17.8809C130.428 17.8809 129.09 19.2187 129.09 20.869C129.09 22.5193 130.428 23.8572 132.078 23.8572Z" fill="#D3D1CF"/>
<path d="M59.9781 39.8793C61.6284 39.8793 62.9662 38.5415 62.9662 36.8912C62.9662 35.2409 61.6284 33.9031 59.9781 33.9031C58.3278 33.9031 56.9899 35.2409 56.9899 36.8912C56.9899 38.5415 58.3278 39.8793 59.9781 39.8793Z" fill="#702E3E"/>
<path d="M67.9892 39.8793C69.6395 39.8793 70.9773 38.5415 70.9773 36.8912C70.9773 35.2409 69.6395 33.9031 67.9892 33.9031C66.3389 33.9031 65.001 35.2409 65.001 36.8912C65.001 38.5415 66.3389 39.8793 67.9892 39.8793Z" fill="#702E3E"/>
<path d="M76.0003 39.8793C77.6506 39.8793 78.9884 38.5415 78.9884 36.8912C78.9884 35.2409 77.6506 33.9031 76.0003 33.9031C74.35 33.9031 73.0121 35.2409 73.0121 36.8912C73.0121 38.5415 74.35 39.8793 76.0003 39.8793Z" fill="#702E3E"/>
<path d="M84.0113 39.8793C85.6616 39.8793 86.9995 38.5415 86.9995 36.8912C86.9995 35.2409 85.6616 33.9031 84.0113 33.9031C82.361 33.9031 81.0232 35.2409 81.0232 36.8912C81.0232 38.5415 82.361 39.8793 84.0113 39.8793Z" fill="#702E3E"/>
<path d="M92.0224 39.8793C93.6727 39.8793 95.0106 38.5415 95.0106 36.8912C95.0106 35.2409 93.6727 33.9031 92.0224 33.9031C90.3721 33.9031 89.0343 35.2409 89.0343 36.8912C89.0343 38.5415 90.3721 39.8793 92.0224 39.8793Z" fill="#702E3E"/>
<path d="M100.034 39.8793C101.684 39.8793 103.022 38.5415 103.022 36.8912C103.022 35.2409 101.684 33.9031 100.034 33.9031C98.3833 33.9031 97.0454 35.2409 97.0454 36.8912C97.0454 38.5415 98.3833 39.8793 100.034 39.8793Z" fill="#D3D1CF"/>
<path d="M108.045 39.8793C109.695 39.8793 111.033 38.5415 111.033 36.8912C111.033 35.2409 109.695 33.9031 108.045 33.9031C106.394 33.9031 105.056 35.2409 105.056 36.8912C105.056 38.5415 106.394 39.8793 108.045 39.8793Z" fill="#D3D1CF"/>
<path d="M116.056 39.8793C117.706 39.8793 119.044 38.5415 119.044 36.8912C119.044 35.2409 117.706 33.9031 116.056 33.9031C114.405 33.9031 113.068 35.2409 113.068 36.8912C113.068 38.5415 114.405 39.8793 116.056 39.8793Z" fill="#D3D1CF"/>
<path d="M124.067 39.8793C125.717 39.8793 127.055 38.5415 127.055 36.8912C127.055 35.2409 125.717 33.9031 124.067 33.9031C122.416 33.9031 121.079 35.2409 121.079 36.8912C121.079 38.5415 122.416 39.8793 124.067 39.8793Z" fill="#D3D1CF"/>
<path d="M132.078 39.8793C133.728 39.8793 135.066 38.5415 135.066 36.8912C135.066 35.2409 133.728 33.9031 132.078 33.9031C130.428 33.9031 129.09 35.2409 129.09 36.8912C129.09 38.5415 130.428 39.8793 132.078 39.8793Z" fill="#D3D1CF"/>
<path d="M59.9781 55.9015C61.6284 55.9015 62.9662 54.5637 62.9662 52.9134C62.9662 51.2631 61.6284 49.9252 59.9781 49.9252C58.3278 49.9252 56.9899 51.2631 56.9899 52.9134C56.9899 54.5637 58.3278 55.9015 59.9781 55.9015Z" fill="#702E3E"/>
<path d="M67.9892 55.9015C69.6395 55.9015 70.9773 54.5637 70.9773 52.9134C70.9773 51.2631 69.6395 49.9252 67.9892 49.9252C66.3389 49.9252 65.001 51.2631 65.001 52.9134C65.001 54.5637 66.3389 55.9015 67.9892 55.9015Z" fill="#702E3E"/>
<path d="M76.0003 55.9015C77.6506 55.9015 78.9884 54.5637 78.9884 52.9134C78.9884 51.2631 77.6506 49.9252 76.0003 49.9252C74.35 49.9252 73.0121 51.2631 73.0121 52.9134C73.0121 54.5637 74.35 55.9015 76.0003 55.9015Z" fill="#702E3E"/>
<path d="M84.0113 55.9015C85.6616 55.9015 86.9995 54.5637 86.9995 52.9134C86.9995 51.2631 85.6616 49.9252 84.0113 49.9252C82.361 49.9252 81.0232 51.2631 81.0232 52.9134C81.0232 54.5637 82.361 55.9015 84.0113 55.9015Z" fill="#702E3E"/>
<path d="M92.0224 55.9015C93.6727 55.9015 95.0106 54.5637 95.0106 52.9134C95.0106 51.2631 93.6727 49.9252 92.0224 49.9252C90.3721 49.9252 89.0343 51.2631 89.0343 52.9134C89.0343 54.5637 90.3721 55.9015 92.0224 55.9015Z" fill="#702E3E"/>
<path d="M100.034 55.9015C101.684 55.9015 103.022 54.5637 103.022 52.9134C103.022 51.2631 101.684 49.9252 100.034 49.9252C98.3833 49.9252 97.0454 51.2631 97.0454 52.9134C97.0454 54.5637 98.3833 55.9015 100.034 55.9015Z" fill="#702E3E"/>
<path d="M108.045 55.9015C109.695 55.9015 111.033 54.5637 111.033 52.9134C111.033 51.2631 109.695 49.9252 108.045 49.9252C106.394 49.9252 105.056 51.2631 105.056 52.9134C105.056 54.5637 106.394 55.9015 108.045 55.9015Z" fill="#702E3E"/>
<path d="M116.056 55.9015C117.706 55.9015 119.044 54.5637 119.044 52.9134C119.044 51.2631 117.706 49.9252 116.056 49.9252C114.405 49.9252 113.068 51.2631 113.068 52.9134C113.068 54.5637 114.405 55.9015 116.056 55.9015Z" fill="#D3D1CF"/>
<path d="M124.067 55.9015C125.717 55.9015 127.055 54.5637 127.055 52.9134C127.055 51.2631 125.717 49.9252 124.067 49.9252C122.416 49.9252 121.079 51.2631 121.079 52.9134C121.079 54.5637 122.416 55.9015 124.067 55.9015Z" fill="#D3D1CF"/>
<path d="M132.078 55.9015C133.728 55.9015 135.066 54.5637 135.066 52.9134C135.066 51.2631 133.728 49.9252 132.078 49.9252C130.428 49.9252 129.09 51.2631 129.09 52.9134C129.09 54.5637 130.428 55.9015 132.078 55.9015Z" fill="#D3D1CF"/>
<path d="M2.38633 0.400681H4.08468L6.23967 7.41839H4.98192L4.3891 5.47971H2.08191L1.49711 7.41839H0.231354L2.39434 0.400681H2.38633ZM3.23551 1.6424L2.37832 4.48633H4.09269L3.23551 1.6424Z" fill="black"/>
<path d="M8.50683 7.41838H7.21704V1.92278H7.82588L8.33859 2.77996C8.7792 2.1551 9.40406 1.81863 10.2132 1.78659V2.89212C9.46014 2.90815 8.89135 3.14046 8.51483 3.58107V7.41838H8.50683Z" fill="black"/>
<path d="M15.5726 4.67058C15.5726 6.59324 14.7394 7.55458 13.0731 7.55458C11.4068 7.55458 10.5737 6.59324 10.5737 4.67058C10.5737 2.74792 11.4068 1.78659 13.0731 1.78659C14.7394 1.78659 15.5726 2.74792 15.5726 4.67058ZM12.1118 6.08053C12.28 6.40098 12.6005 6.5612 13.0731 6.5612C13.5458 6.5612 13.8662 6.40098 14.0345 6.08053C14.2027 5.76009 14.2828 5.28743 14.2828 4.67058C14.2828 4.05373 14.2027 3.58108 14.0345 3.26063C13.8662 2.94019 13.5458 2.77996 13.0731 2.77996C12.6005 2.77996 12.28 2.94019 12.1118 3.26063C11.9436 3.58108 11.8635 4.05373 11.8635 4.67058C11.8635 5.28743 11.9436 5.76009 12.1118 6.08053Z" fill="black"/>
<path d="M19.49 1.78659C20.2591 1.78659 20.7958 2.0109 21.1083 2.45151C21.661 2.0109 22.2458 1.78659 22.8707 1.78659C23.4956 1.78659 23.9602 1.9388 24.2566 2.25124C24.561 2.56367 24.7052 2.98825 24.7052 3.53301V7.41838H23.4155V3.74931C23.4155 3.41284 23.3514 3.17251 23.2312 3.01229C23.111 2.85206 22.8947 2.77996 22.5903 2.77996C22.1577 2.77996 21.7572 2.93218 21.3887 3.22859C21.4047 3.35677 21.4047 3.46091 21.4047 3.53301V7.41838H20.1149V3.74931C20.1149 3.41284 20.0508 3.17251 19.9226 3.01229C19.7945 2.85206 19.5461 2.77996 19.1856 2.77996C18.8251 2.77996 18.4646 2.90814 18.1041 3.1645V7.4264H16.8143V1.93079H17.4953L17.8317 2.37941C18.3525 1.98687 18.8972 1.7946 19.474 1.7946L19.49 1.78659Z" fill="black"/>
<path d="M28.3503 1.78659C29.7442 1.78659 30.4492 2.42748 30.4492 3.70124V7.41838H29.6161L29.2476 6.74546C28.7349 7.2822 28.134 7.55458 27.4531 7.55458C26.9644 7.55458 26.5959 7.41839 26.3395 7.14601C26.0832 6.87363 25.963 6.50512 25.963 6.04849C25.963 5.59186 26.1072 5.22335 26.3956 4.93495C26.684 4.65456 27.2208 4.45428 28.0138 4.34213L29.1674 4.16588V3.70124C29.1674 3.07638 28.871 2.77196 28.2862 2.77196C27.7254 2.77196 27.397 3.05234 27.2929 3.62113L26.2915 3.32472C26.5318 2.2993 27.2208 1.78659 28.3583 1.78659H28.3503ZM27.8616 6.60927C28.2942 6.60927 28.7268 6.39297 29.1594 5.96838V4.97501L28.2382 5.13523C27.8216 5.20732 27.5492 5.31948 27.413 5.47169C27.2768 5.6239 27.2127 5.80015 27.2127 5.99241C27.2127 6.18468 27.2688 6.33689 27.389 6.44103C27.5011 6.55319 27.6614 6.60126 27.8697 6.60126L27.8616 6.60927Z" fill="black"/>
<path d="M2.38636 16.4229H4.08472L6.2397 23.4406H4.98195L4.38913 21.5019H2.08194L1.49714 23.4406H0.231384L2.39438 16.4229H2.38636ZM3.23554 17.6646L2.37835 20.5085H4.09272L3.23554 17.6646Z" fill="black"/>
<path d="M8.19441 19.2588C8.03419 19.5632 7.94607 20.0439 7.94607 20.6928C7.94607 21.3417 8.02618 21.8143 8.19441 22.1268C8.35464 22.4312 8.64304 22.5914 9.05161 22.5914C9.46017 22.5914 9.74857 22.5113 9.92481 22.3431C10.1011 22.1748 10.1972 21.9105 10.2052 21.558L11.2146 21.606C11.1745 22.2629 10.9823 22.7516 10.6458 23.0881C10.3013 23.4245 9.74056 23.5848 8.95548 23.5848C8.04221 23.5848 7.41734 23.2884 7.08087 22.6875C6.92065 22.3991 6.80851 22.0947 6.75243 21.7823C6.68834 21.4698 6.66431 21.1013 6.66431 20.6928C6.66431 20.2842 6.69635 19.9157 6.75243 19.5953C6.81652 19.2748 6.92065 18.9784 7.08087 18.698C7.40933 18.1052 8.0342 17.8168 8.95548 17.8168C9.73255 17.8168 10.2853 17.977 10.6298 18.2894C10.9663 18.6099 11.1585 19.0825 11.2066 19.7074L10.2052 19.8436C10.1892 19.4831 10.1011 19.2187 9.92481 19.0585C9.74857 18.8903 9.46017 18.8102 9.05161 18.8102C8.64304 18.8102 8.36265 18.9624 8.19441 19.2748V19.2588Z" fill="black"/>
<path d="M13.0171 17.2881C12.5364 17.2881 12.2961 17.0397 12.2961 16.543C12.2961 16.0463 12.5364 15.798 13.0171 15.798C13.4977 15.798 13.7541 16.0463 13.7541 16.543C13.7541 17.0397 13.5058 17.2881 13.0171 17.2881ZM12.3762 17.945H13.666V23.4406H12.3762V17.945Z" fill="black"/>
<path d="M16.7663 23.5768C15.5326 23.5768 14.9077 22.6154 14.9077 20.6928C14.9077 18.7701 15.6608 17.8088 17.1588 17.8088C17.5834 17.8088 18 17.8889 18.4086 18.0411V16.2146L19.6983 16.1184V23.4406H18.8652L18.5127 22.7596C17.984 23.3044 17.3992 23.5768 16.7743 23.5768H16.7663ZM17.279 22.5834C17.6796 22.5834 18.0561 22.3751 18.4166 21.9665V18.9864C18.1041 18.8582 17.7917 18.7941 17.4953 18.7941C17.0306 18.7941 16.7022 18.9544 16.5019 19.2748C16.3016 19.5953 16.2055 20.0679 16.2055 20.6848C16.2055 21.9505 16.566 22.5754 17.279 22.5754V22.5834Z" fill="black"/>
<path d="M23.4075 23.5767C22.5262 23.5767 21.8934 23.3364 21.5168 22.8638C21.1403 22.3831 20.9481 21.6621 20.9481 20.6928C20.9481 18.7701 21.7572 17.8088 23.3674 17.8088C24.2967 17.8088 24.9296 18.0972 25.274 18.674C25.5705 19.1706 25.7147 19.8115 25.7147 20.5966V20.9411H22.1978C22.1978 21.5419 22.3019 21.9665 22.4942 22.2149C22.6865 22.4632 23.0069 22.5834 23.4475 22.5834C24.1605 22.5834 24.537 22.327 24.5851 21.8143L25.6426 21.8544C25.5384 22.9999 24.7934 23.5767 23.4155 23.5767H23.4075ZM24.1445 19.1146C23.9843 18.9063 23.7199 18.8021 23.3594 18.8021C22.9989 18.8021 22.7265 18.9063 22.5583 19.1066C22.3901 19.3068 22.2779 19.6273 22.2298 20.0759H24.4489C24.4088 19.6433 24.3127 19.3309 24.1525 19.1226L24.1445 19.1146Z" fill="black"/>
<path d="M26.4277 18.8422V17.937H30.5053V18.722L27.8697 22.5273H30.5934V23.4326H26.3315V22.6475L28.9832 18.8422H26.4277Z" fill="black"/>
<path d="M3.53196 33.3663C2.93113 33.3663 2.52256 33.5666 2.31427 33.9591C2.10598 34.3517 1.99383 35.0166 1.99383 35.9459C1.99383 36.8752 2.09797 37.5401 2.31427 37.9407C2.52256 38.3412 2.93113 38.5335 3.53196 38.5335C3.9966 38.5335 4.33307 38.4053 4.52534 38.1489C4.7176 37.8926 4.82175 37.5241 4.83777 37.0354L5.89523 37.0835C5.84716 37.9086 5.64689 38.5335 5.30241 38.9581C4.95794 39.3826 4.36511 39.5909 3.53196 39.5909C2.43444 39.5909 1.68139 39.2705 1.26482 38.6296C1.05653 38.3092 0.904321 37.9326 0.816199 37.508C0.728077 37.0835 0.688019 36.5627 0.688019 35.9459C0.688019 35.329 0.728077 34.8083 0.816199 34.3837C0.904321 33.9591 1.04852 33.5826 1.26482 33.2622C1.68139 32.6213 2.43444 32.3008 3.53196 32.3008C4.31704 32.3008 4.88583 32.4771 5.2303 32.8296C5.57478 33.1821 5.79109 33.7028 5.86319 34.3837L4.80572 34.5439C4.76566 34.1594 4.64549 33.863 4.45323 33.6627C4.26096 33.4625 3.94853 33.3583 3.53196 33.3583V33.3663Z" fill="black"/>
<path d="M8.66706 39.5989C7.53749 39.5989 6.97672 39.0141 6.97672 37.8525V33.9671H8.2665V37.6362C8.2665 37.9727 8.33059 38.213 8.46678 38.3732C8.59496 38.5335 8.81926 38.6056 9.12368 38.6056C9.55628 38.6056 9.97286 38.3973 10.3654 37.9887V33.9591H11.6552V39.4547H10.822L10.4535 38.7898C9.95684 39.3186 9.36402 39.5909 8.67506 39.5909L8.66706 39.5989Z" fill="black"/>
<path d="M15.3563 39.5989C14.4751 39.5989 13.8422 39.3586 13.4657 38.8859C13.0892 38.4053 12.8969 37.6843 12.8969 36.7149C12.8969 34.7923 13.706 33.8309 15.3163 33.8309C16.2455 33.8309 16.8784 34.1193 17.2229 34.6961C17.5193 35.1928 17.6635 35.8337 17.6635 36.6188V36.9633H14.1466C14.1466 37.5641 14.2508 37.9887 14.443 38.237C14.6353 38.4854 14.9558 38.6055 15.3964 38.6055C16.1094 38.6055 16.4859 38.3492 16.5339 37.8365L17.5914 37.8765C17.4873 39.0221 16.7422 39.5989 15.3643 39.5989H15.3563ZM16.0933 35.1367C15.9331 34.9285 15.6687 34.8243 15.3082 34.8243C14.9477 34.8243 14.6754 34.9284 14.5071 35.1287C14.3389 35.329 14.2267 35.6495 14.1787 36.0981H16.3978C16.3577 35.6655 16.2616 35.353 16.1013 35.1448L16.0933 35.1367Z" fill="black"/>
<path d="M20.155 39.4627H18.8652V33.9671H19.474L19.9867 34.8243C20.4273 34.1994 21.0522 33.863 21.8613 33.8309V34.9365C21.1083 34.9525 20.5395 35.1848 20.163 35.6254V39.4627H20.155Z" fill="black"/>
<path d="M25.3542 33.8309C26.8282 33.8309 27.5652 34.7923 27.5652 36.7149C27.5652 38.6376 26.8122 39.5989 25.3141 39.5989C24.9296 39.5989 24.513 39.5348 24.0644 39.4067V41.4335L22.7746 41.6097V33.9671H23.3914L23.7279 34.3837C24.2727 34.0152 24.8174 33.8389 25.3542 33.8389V33.8309ZM25.0017 34.8243C24.6732 34.8243 24.3608 34.9124 24.0724 35.0967V38.4774C24.3768 38.5655 24.6812 38.6136 24.9937 38.6136C25.4583 38.6136 25.7868 38.4533 25.987 38.1249C26.1873 37.7964 26.2834 37.3318 26.2834 36.7149C26.2834 35.4492 25.8589 34.8243 25.0017 34.8243Z" fill="black"/>
<path d="M33.2531 36.7149C33.2531 38.6376 32.4199 39.5989 30.7536 39.5989C29.0873 39.5989 28.2542 38.6376 28.2542 36.7149C28.2542 34.7923 29.0873 33.8309 30.7536 33.8309C32.4199 33.8309 33.2531 34.7923 33.2531 36.7149ZM29.7923 38.1249C29.9605 38.4453 30.281 38.6055 30.7536 38.6055C31.2263 38.6055 31.5467 38.4453 31.7149 38.1249C31.8832 37.8044 31.9633 37.3318 31.9633 36.7149C31.9633 36.0981 31.8832 35.6254 31.7149 35.305C31.5467 34.9845 31.2263 34.8243 30.7536 34.8243C30.281 34.8243 29.9605 34.9845 29.7923 35.305C29.624 35.6254 29.5439 36.0981 29.5439 36.7149C29.5439 37.3318 29.624 37.8044 29.7923 38.1249Z" fill="black"/>
<path d="M1.04852 48.4672H2.35433V55.4849H1.04852V48.4672Z" fill="black"/>
<path d="M5.18221 50.486C5.78304 50.0614 6.39989 49.8531 7.03277 49.8531C7.66564 49.8531 8.12228 50.0053 8.40267 50.3178C8.68305 50.6302 8.82725 51.0548 8.82725 51.5995V55.4849H7.53747V51.7357C7.53747 51.4073 7.48139 51.175 7.36122 51.0468C7.24106 50.9106 7.03276 50.8465 6.74437 50.8465C6.27972 50.8465 5.85513 50.9907 5.45458 51.2791V55.4929H4.16479V49.9973H4.77365L5.19021 50.494L5.18221 50.486Z" fill="black"/>
<path d="M9.72452 50.8225V49.9893H10.6057V48.9879L11.8955 48.6595V49.9893H12.945V50.8225H11.8955V53.9308C11.8955 54.2032 11.9356 54.4034 12.0157 54.5156C12.0958 54.6278 12.216 54.6918 12.3682 54.6918C12.5204 54.6918 12.6966 54.6678 12.8809 54.6117L13.0411 55.4128C12.6646 55.557 12.3281 55.6211 12.0237 55.6211C11.7193 55.6211 11.487 55.5891 11.3107 55.517C11.1345 55.4449 10.9983 55.3648 10.9102 55.2686C10.822 55.1725 10.7499 55.0523 10.7099 54.8921C10.6378 54.6678 10.6057 54.3874 10.6057 54.059V50.8305H9.72452V50.8225Z" fill="black"/>
<path d="M15.9011 55.6211C15.0198 55.6211 14.387 55.3808 14.0104 54.9081C13.6339 54.4274 13.4417 53.7065 13.4417 52.7371C13.4417 50.8145 14.2508 49.8531 15.861 49.8531C16.7903 49.8531 17.4232 50.1415 17.7676 50.7183C18.0641 51.215 18.2082 51.8559 18.2082 52.641V52.9855H14.6914C14.6914 53.5863 14.7955 54.0109 14.9878 54.2592C15.1801 54.5076 15.5005 54.6277 15.9411 54.6277C16.6541 54.6277 17.0306 54.3714 17.0787 53.8587L18.1361 53.8987C18.032 55.0443 17.287 55.6211 15.9091 55.6211H15.9011ZM16.6381 51.1589C16.4779 50.9506 16.2135 50.8465 15.853 50.8465C15.4925 50.8465 15.2201 50.9506 15.0519 51.1509C14.8837 51.3512 14.7715 51.6716 14.7234 52.1203H16.9425C16.9024 51.6877 16.8063 51.3752 16.6461 51.1669L16.6381 51.1589Z" fill="black"/>
<path d="M20.4273 50.486C21.0282 50.0614 21.645 49.8531 22.2779 49.8531C22.9108 49.8531 23.3674 50.0053 23.6478 50.3178C23.9282 50.6302 24.0724 51.0548 24.0724 51.5995V55.4849H22.7826V51.7357C22.7826 51.4073 22.7265 51.175 22.6063 51.0468C22.4862 50.9106 22.2779 50.8465 21.9895 50.8465C21.5248 50.8465 21.1003 50.9907 20.6997 51.2791V55.4929H19.4099V49.9973H20.0188L20.4353 50.494L20.4273 50.486Z" fill="black"/>
<path d="M29.7202 53.9468C29.7202 55.0443 28.9511 55.5891 27.413 55.5891C26.74 55.5891 26.2433 55.4449 25.9149 55.1485C25.5864 54.852 25.3862 54.4355 25.298 53.8747L26.2994 53.7225C26.3715 54.3393 26.7561 54.6438 27.445 54.6438C28.134 54.6438 28.4864 54.4275 28.4864 53.9869C28.4864 53.8106 28.4143 53.6744 28.2782 53.5863C28.142 53.4982 27.8616 53.402 27.445 53.3059L27.0044 53.2018C26.4356 53.0656 26.027 52.8733 25.7787 52.6089C25.5304 52.3526 25.4102 51.9761 25.4102 51.4794C25.4102 50.3899 26.1552 49.8451 27.6373 49.8451C28.2782 49.8451 28.7588 49.9893 29.0713 50.2857C29.3917 50.5741 29.584 50.9987 29.6641 51.5595L28.6627 51.7037C28.5906 51.0948 28.2381 50.7904 27.5972 50.7904C26.9563 50.7904 26.6439 51.0067 26.6439 51.4473C26.6439 51.6236 26.708 51.7598 26.8282 51.8559C26.9563 51.952 27.2047 52.0402 27.5892 52.1283L28.0859 52.2565C28.6547 52.4007 29.0713 52.5929 29.3196 52.8493C29.576 53.1056 29.6961 53.4661 29.6961 53.9468H29.7202Z" fill="black"/>
<path d="M31.6749 49.3324C31.1942 49.3324 30.9539 49.0841 30.9539 48.5874C30.9539 48.0907 31.1942 47.8423 31.6749 47.8423C32.1555 47.8423 32.4119 48.0907 32.4119 48.5874C32.4119 49.0841 32.1635 49.3324 31.6749 49.3324ZM31.034 49.9893H32.3238V55.4849H31.034V49.9893Z" fill="black"/>
<path d="M35.4241 55.6211C34.1903 55.6211 33.5655 54.6598 33.5655 52.7371C33.5655 50.8145 34.3185 49.8531 35.8166 49.8531C36.2412 49.8531 36.6578 49.9332 37.0663 50.0854V48.2589L38.3561 48.1628V55.4849H37.523L37.1705 54.804C36.6417 55.3487 36.0569 55.6211 35.4321 55.6211H35.4241ZM35.9368 54.6277C36.3373 54.6277 36.7138 54.4194 37.0743 54.0109V51.0308C36.7619 50.9026 36.4495 50.8385 36.1531 50.8385C35.6884 50.8385 35.36 50.9987 35.1597 51.3192C34.9594 51.6396 34.8633 52.1122 34.8633 52.7291C34.8633 53.9948 35.2238 54.6197 35.9368 54.6197V54.6277Z" fill="black"/>
<path d="M42.0973 49.8531C43.4913 49.8531 44.1962 50.494 44.1962 51.7678V55.4849H43.3631L42.9946 54.812C42.4819 55.3487 41.881 55.6211 41.2001 55.6211C40.7114 55.6211 40.3429 55.4849 40.0865 55.2125C39.8302 54.9402 39.71 54.5717 39.71 54.115C39.71 53.6584 39.8542 53.2899 40.1426 53.0015C40.431 52.7211 40.9678 52.5208 41.7609 52.4087L42.9145 52.2324V51.7678C42.9145 51.1429 42.618 50.8385 42.0332 50.8385C41.4725 50.8385 41.144 51.1189 41.0399 51.6877L40.0385 51.3912C40.2788 50.3658 40.9678 49.8531 42.1053 49.8531H42.0973ZM41.6086 54.6758C42.0412 54.6758 42.4738 54.4595 42.9064 54.0349V53.0415L41.9852 53.2018C41.5686 53.2739 41.2962 53.386 41.16 53.5382C41.0238 53.6904 40.9597 53.8667 40.9597 54.0589C40.9597 54.2512 41.0158 54.4034 41.136 54.5076C41.2481 54.6197 41.4084 54.6678 41.6167 54.6678L41.6086 54.6758Z" fill="black"/>
<path d="M47.2004 55.6211C45.9667 55.6211 45.3419 54.6598 45.3419 52.7371C45.3419 50.8145 46.0949 49.8531 47.593 49.8531C48.0176 49.8531 48.4341 49.9332 48.8427 50.0854V48.2589L50.1325 48.1628V55.4849H49.2993L48.9468 54.804C48.4181 55.3487 47.8333 55.6211 47.2084 55.6211H47.2004ZM47.7131 54.6277C48.1137 54.6277 48.4902 54.4194 48.8507 54.0109V51.0308C48.5383 50.9026 48.2258 50.8385 47.9294 50.8385C47.4648 50.8385 47.1363 50.9987 46.9361 51.3192C46.7358 51.6396 46.6396 52.1122 46.6396 52.7291C46.6396 53.9948 47.0001 54.6197 47.7131 54.6197V54.6277Z" fill="black"/>
<path d="M5.83916 64.4894H7.66569L7.84994 71.5071H6.56015L6.45601 66.1076L4.88584 70.6739H3.74827L2.33831 66.2598L2.24218 71.5071H0.952393L1.12864 64.4894H2.96317L4.34108 68.9195L5.83916 64.4894Z" fill="black"/>
<path d="M11.4629 71.6433C10.5817 71.6433 9.94884 71.403 9.57232 70.9303C9.1958 70.4496 9.00354 69.7286 9.00354 68.7593C9.00354 66.8366 9.81266 65.8753 11.4229 65.8753C12.3522 65.8753 12.985 66.1637 13.3295 66.7405C13.6259 67.2372 13.7701 67.8781 13.7701 68.6632V69.0076H10.2533C10.2533 69.6085 10.3574 70.0331 10.5497 70.2814C10.7419 70.5297 11.0624 70.6499 11.503 70.6499C12.216 70.6499 12.5925 70.3936 12.6406 69.8808L13.698 69.9209C13.5939 71.0665 12.8489 71.6433 11.471 71.6433H11.4629ZM12.2 67.1811C12.0397 66.9728 11.7754 66.8687 11.4149 66.8687C11.0544 66.8687 10.782 66.9728 10.6138 67.1731C10.4455 67.3734 10.3334 67.6938 10.2853 68.1424H12.5044C12.4643 67.7098 12.3682 67.3974 12.208 67.1891L12.2 67.1811Z" fill="black"/>
<path d="M14.4831 66.9087V66.0035H18.5607V66.7886L15.9251 70.5938H18.6489V71.4991H14.387V70.714L17.0386 66.9087H14.4831Z" fill="black"/>
<path d="M20.8359 67.3253C20.6757 67.6297 20.5876 68.1104 20.5876 68.7593C20.5876 69.4082 20.6677 69.8808 20.8359 70.1933C20.9961 70.4977 21.2845 70.6579 21.6931 70.6579C22.1017 70.6579 22.39 70.5778 22.5663 70.4096C22.7425 70.2413 22.8387 69.977 22.8467 69.6245L23.8561 69.6726C23.816 70.3295 23.6238 70.8181 23.2873 71.1546C22.9428 71.4911 22.382 71.6513 21.597 71.6513C20.6837 71.6513 20.0588 71.3549 19.7224 70.754C19.5621 70.4656 19.45 70.1612 19.3939 69.8488C19.3298 69.5364 19.3058 69.1679 19.3058 68.7593C19.3058 68.3507 19.3378 67.9822 19.3939 67.6618C19.458 67.3413 19.5621 67.0449 19.7224 66.7645C20.0508 66.1717 20.6757 65.8833 21.597 65.8833C22.374 65.8833 22.9268 66.0435 23.2713 66.356C23.6077 66.6764 23.8 67.1491 23.8481 67.7739L22.8467 67.9101C22.8307 67.5496 22.7425 67.2852 22.5663 67.125C22.39 66.9568 22.1017 66.8767 21.6931 66.8767C21.2845 66.8767 21.0041 67.0289 20.8359 67.3413V67.3253Z" fill="black"/>
<path d="M26.3075 71.5071H25.0177V64.2811L26.3075 64.1049V71.5071Z" fill="black"/>
<path d="M30.0406 65.8753C31.4346 65.8753 32.1395 66.5162 32.1395 67.79V71.5071H31.3064L30.9379 70.8342C30.4252 71.3709 29.8243 71.6433 29.1434 71.6433C28.6547 71.6433 28.2862 71.5071 28.0298 71.2347C27.7735 70.9623 27.6533 70.5938 27.6533 70.1372C27.6533 69.6806 27.7975 69.3121 28.0859 69.0237C28.3743 68.7433 28.9111 68.543 29.7042 68.4308L30.8578 68.2546V67.79C30.8578 67.1651 30.5613 66.8607 29.9765 66.8607C29.4158 66.8607 29.0873 67.1411 28.9832 67.7099L27.9818 67.4134C28.2221 66.388 28.9111 65.8753 30.0486 65.8753H30.0406ZM29.5519 70.698C29.9845 70.698 30.4171 70.4817 30.8497 70.0571V69.0637L29.9285 69.2239C29.5119 69.296 29.2395 69.4082 29.1033 69.5604C28.9671 69.7126 28.903 69.8889 28.903 70.0811C28.903 70.2734 28.9591 70.4256 29.0793 70.5297C29.1914 70.6419 29.3517 70.69 29.56 70.69L29.5519 70.698Z" fill="black"/>
<path d="M5.86317 86.592C5.65488 86.9364 5.35847 87.2008 4.97394 87.3851C4.5894 87.5693 4.14078 87.6574 3.62807 87.6574C3.11536 87.6574 2.69077 87.5934 2.35431 87.4732C2.01784 87.345 1.73745 87.1848 1.52917 86.9765C1.32088 86.7682 1.14463 86.5038 1.01646 86.1834C0.792146 85.6226 0.679993 84.9016 0.679993 84.0204C0.679993 83.4756 0.720051 82.995 0.808173 82.5864C0.888284 82.1779 1.03248 81.8013 1.24077 81.4488C1.64933 80.7279 2.4184 80.3754 3.54796 80.3754C4.82974 80.3754 5.67891 80.8721 6.08748 81.8654C6.31179 82.4262 6.42394 83.1392 6.42394 84.0204C6.42394 84.5732 6.38388 85.0538 6.29576 85.4624C6.21565 85.871 6.07146 86.2475 5.86317 86.6V86.592ZM3.54796 86.6C4.13277 86.6 4.54133 86.3757 4.76564 85.919C4.99796 85.4624 5.11012 84.8295 5.11012 84.0124C5.11012 83.1953 4.99796 82.5624 4.76564 82.1058C4.53332 81.6491 4.12476 81.4248 3.54796 81.4248C2.93111 81.4248 2.51453 81.6732 2.29022 82.1779C2.08994 82.6345 1.99381 83.2433 1.99381 84.0124C1.99381 85.2942 2.25017 86.0953 2.77089 86.4077C2.97918 86.5359 3.24354 86.6 3.54796 86.6Z" fill="black"/>
<path d="M9.15575 87.5293H7.86597V82.0336H8.4748L8.98751 82.8908C9.42812 82.266 10.053 81.9295 10.8621 81.8975V83.003C10.1091 83.019 9.54028 83.2513 9.16376 83.6919V87.5293H9.15575Z" fill="black"/>
<path d="M11.8234 81.569L11.3908 80.88L13.2654 79.5983L13.8422 80.5195L11.8234 81.569ZM11.7753 82.0336H13.0651V87.5292H11.7753V82.0336Z" fill="black"/>
<path d="M18.5047 85.2541C18.3525 85.4624 18.1281 85.6226 17.8237 85.7428C17.5193 85.863 17.1668 85.919 16.7583 85.919C16.3497 85.919 16.0132 85.871 15.7409 85.7748L15.4685 86.0632C15.3563 86.1754 15.3082 86.2795 15.3082 86.3837C15.3082 86.5359 15.4124 86.616 15.6287 86.616H17.6795C18.1842 86.616 18.5848 86.7522 18.8732 87.0326C19.1616 87.313 19.3138 87.6334 19.3138 88.0019C19.3138 88.3704 19.2337 88.6668 19.0815 88.8831C18.9293 89.0994 18.705 89.2597 18.4166 89.3638C17.9279 89.54 17.303 89.6201 16.55 89.6201C15.7969 89.6201 15.2041 89.532 14.7955 89.3478C14.387 89.1635 14.1787 88.8511 14.1787 88.4105C14.1787 88.2022 14.2428 88.0099 14.3629 87.8417C14.4831 87.6735 14.6353 87.5453 14.8116 87.4492C14.419 87.329 14.2268 87.0406 14.2268 86.592C14.2268 86.2955 14.3389 86.0232 14.5712 85.7748L15.0118 85.3102C14.7074 84.9657 14.5632 84.493 14.5632 83.9082C14.5632 83.3875 14.7074 82.9389 14.9878 82.5624C15.3083 82.1218 15.8931 81.8975 16.7342 81.8975C17.1027 81.8975 17.4152 81.9455 17.6875 82.0336H19.2898V82.7947H18.6569C18.8331 83.1071 18.9132 83.4356 18.9132 83.7801C18.9132 84.1245 18.8812 84.4049 18.8171 84.6212C18.753 84.8375 18.6489 85.0538 18.4967 85.2541H18.5047ZM15.3563 88.1221C15.3563 88.3464 15.4605 88.4986 15.6687 88.5627C15.877 88.6268 16.2215 88.6588 16.7022 88.6588C17.1828 88.6588 17.5273 88.6188 17.7276 88.5467C17.9279 88.4746 18.032 88.3143 18.032 88.074C18.032 87.7135 17.7837 87.5373 17.279 87.5373H15.6367C15.4524 87.7055 15.3563 87.8978 15.3563 88.1301V88.1221ZM16.7422 82.7547C16.1094 82.7547 15.7969 83.1392 15.7969 83.9082C15.7969 84.6773 16.1094 85.0618 16.7422 85.0618C17.3751 85.0618 17.6875 84.6773 17.6875 83.9082C17.6875 83.1392 17.3751 82.7547 16.7422 82.7547Z" fill="black"/>
<path d="M22.334 87.6654C21.4528 87.6654 20.8199 87.4251 20.4434 86.9525C20.0668 86.4718 19.8746 85.7508 19.8746 84.7815C19.8746 82.8588 20.6837 81.8975 22.2939 81.8975C23.2232 81.8975 23.8561 82.1859 24.2006 82.7627C24.497 83.2593 24.6412 83.9002 24.6412 84.6853V85.0298H21.1243C21.1243 85.6306 21.2285 86.0552 21.4207 86.3036C21.613 86.5519 21.9334 86.6721 22.374 86.6721C23.087 86.6721 23.4635 86.4157 23.5116 85.903L24.5691 85.9431C24.4649 87.0886 23.7199 87.6654 22.342 87.6654H22.334ZM23.071 83.2033C22.9108 82.995 22.6464 82.8908 22.2859 82.8908C21.9254 82.8908 21.653 82.995 21.4848 83.1953C21.3166 83.3955 21.2044 83.716 21.1564 84.1646H23.3754C23.3354 83.732 23.2392 83.4196 23.079 83.2113L23.071 83.2033Z" fill="black"/>
<path d="M26.8602 82.5303C27.4611 82.1058 28.0779 81.8975 28.7108 81.8975C29.3437 81.8975 29.8003 82.0497 30.0807 82.3621C30.3611 82.6745 30.5053 83.0991 30.5053 83.6439V87.5293H29.2155V83.7801C29.2155 83.4516 29.1594 83.2193 29.0393 83.0911C28.9191 82.9549 28.7108 82.8908 28.4224 82.8908C27.9578 82.8908 27.5332 83.035 27.1326 83.3234V87.5373H25.8428V82.0417H26.4517L26.8683 82.5384L26.8602 82.5303Z" fill="black"/>
<path d="M34.1183 87.6654C33.2371 87.6654 32.6042 87.4251 32.2277 86.9525C31.8511 86.4718 31.6589 85.7508 31.6589 84.7815C31.6589 82.8588 32.468 81.8975 34.0782 81.8975C35.0075 81.8975 35.6404 82.1859 35.9849 82.7627C36.2813 83.2593 36.4255 83.9002 36.4255 84.6853V85.0298H32.9086C32.9086 85.6306 33.0127 86.0552 33.205 86.3036C33.3973 86.5519 33.7177 86.6721 34.1583 86.6721C34.8713 86.6721 35.2478 86.4157 35.2959 85.903L36.3534 85.9431C36.2492 87.0886 35.5042 87.6654 34.1263 87.6654H34.1183ZM34.8553 83.2033C34.6951 82.995 34.4307 82.8908 34.0702 82.8908C33.7097 82.8908 33.4373 82.995 33.2691 83.1953C33.1009 83.3955 32.9887 83.716 32.9407 84.1646H35.1597C35.1197 83.732 35.0235 83.4196 34.8633 83.2113L34.8553 83.2033Z" fill="black"/>
<path d="M41.5606 85.9911C41.5606 87.0887 40.7915 87.6334 39.2534 87.6334C38.5804 87.6334 38.0837 87.4892 37.7553 87.1928C37.4268 86.8964 37.2265 86.4798 37.1384 85.919L38.1398 85.7668C38.2119 86.3837 38.5965 86.6881 39.2854 86.6881C39.9744 86.6881 40.3268 86.4718 40.3268 86.0312C40.3268 85.855 40.2547 85.7188 40.1186 85.6306C39.9824 85.5425 39.702 85.4464 39.2854 85.3502L38.8448 85.2461C38.276 85.1099 37.8674 84.9177 37.6191 84.6533C37.3708 84.3969 37.2506 84.0204 37.2506 83.5237C37.2506 82.4342 37.9956 81.8895 39.4777 81.8895C40.1186 81.8895 40.5992 82.0337 40.9117 82.3301C41.2321 82.6185 41.4244 83.0431 41.5045 83.6038L40.5031 83.748C40.431 83.1392 40.0785 82.8348 39.4376 82.8348C38.7967 82.8348 38.4843 83.0511 38.4843 83.4917C38.4843 83.6679 38.5484 83.8041 38.6685 83.9002C38.7967 83.9964 39.0451 84.0845 39.4296 84.1726L39.9263 84.3008C40.4951 84.445 40.9117 84.6373 41.16 84.8936C41.4164 85.15 41.5365 85.5105 41.5365 85.9911H41.5606Z" fill="black"/>
<path d="M5.2143 106.147H6.5201V113.165H5.13418L2.35433 108.398V113.165H1.04852V106.147H2.43445L5.2143 110.922V106.147Z" fill="black"/>
<path d="M12.7687 110.417C12.7687 112.34 11.9356 113.301 10.2693 113.301C8.60297 113.301 7.76981 112.34 7.76981 110.417C7.76981 108.494 8.60297 107.533 10.2693 107.533C11.9356 107.533 12.7687 108.494 12.7687 110.417ZM9.30795 111.827C9.47618 112.147 9.79662 112.308 10.2693 112.308C10.7419 112.308 11.0624 112.147 11.2306 111.827C11.3988 111.506 11.4789 111.034 11.4789 110.417C11.4789 109.8 11.3988 109.327 11.2306 109.007C11.0624 108.687 10.7419 108.526 10.2693 108.526C9.79662 108.526 9.47618 108.687 9.30795 109.007C9.13971 109.327 9.05959 109.8 9.05959 110.417C9.05959 111.034 9.13971 111.506 9.30795 111.827Z" fill="black"/>
<path d="M13.2013 108.502V107.669H14.0825V106.668L15.3723 106.339V107.669H16.4218V108.502H15.3723V111.611C15.3723 111.883 15.4124 112.083 15.4925 112.195C15.5726 112.308 15.6928 112.372 15.845 112.372C15.9972 112.372 16.1734 112.348 16.3577 112.292L16.5179 113.093C16.1414 113.237 15.8049 113.301 15.5005 113.301C15.1961 113.301 14.9638 113.269 14.7875 113.197C14.6113 113.125 14.4751 113.045 14.387 112.948C14.2989 112.852 14.2268 112.732 14.1867 112.572C14.1146 112.348 14.0825 112.067 14.0825 111.739V108.51H13.2013V108.502Z" fill="black"/>
<path d="M19.4099 107.533C20.8038 107.533 21.5088 108.174 21.5088 109.448V113.165H20.6756L20.3071 112.492C19.7944 113.029 19.1936 113.301 18.5126 113.301C18.024 113.301 17.6555 113.165 17.3991 112.892C17.1428 112.62 17.0226 112.251 17.0226 111.795C17.0226 111.338 17.1668 110.97 17.4552 110.681C17.7436 110.401 18.2803 110.201 19.0734 110.088L20.227 109.912V109.448C20.227 108.823 19.9306 108.518 19.3458 108.518C18.785 108.518 18.4566 108.799 18.3524 109.368L17.351 109.071C17.5914 108.046 18.2803 107.533 19.4179 107.533H19.4099ZM18.9212 112.356C19.3538 112.356 19.7864 112.139 20.219 111.715V110.721L19.2977 110.882C18.8812 110.954 18.6088 111.066 18.4726 111.218C18.3364 111.37 18.2723 111.547 18.2723 111.739C18.2723 111.931 18.3284 112.083 18.4486 112.187C18.5607 112.3 18.7209 112.348 18.9292 112.348L18.9212 112.356Z" fill="black"/>
<path d="M27.1487 111.627C27.1487 112.724 26.3796 113.269 24.8415 113.269C24.1686 113.269 23.6719 113.125 23.3434 112.828C23.015 112.532 22.8147 112.115 22.7266 111.555L23.7279 111.402C23.8 112.019 24.1846 112.324 24.8735 112.324C25.5625 112.324 25.915 112.107 25.915 111.667C25.915 111.49 25.8429 111.354 25.7067 111.266C25.5705 111.178 25.2901 111.082 24.8735 110.986L24.4329 110.882C23.8641 110.745 23.4556 110.553 23.2072 110.289C22.9589 110.032 22.8387 109.656 22.8387 109.159C22.8387 108.07 23.5837 107.525 25.0658 107.525C25.7067 107.525 26.1873 107.669 26.4998 107.966C26.8202 108.254 27.0125 108.679 27.0926 109.239L26.0912 109.384C26.0191 108.775 25.6666 108.47 25.0257 108.47C24.3849 108.47 24.0724 108.687 24.0724 109.127C24.0724 109.303 24.1365 109.44 24.2567 109.536C24.3848 109.632 24.6332 109.72 25.0177 109.808L25.5144 109.936C26.0832 110.08 26.4998 110.273 26.7481 110.529C27.0045 110.785 27.1246 111.146 27.1246 111.627H27.1487Z" fill="black"/>
<path d="M59.2972 69.6885H58.3839V71.6433H57.751V66.38H59.2972C60.3867 66.38 60.9234 66.9327 60.9234 68.0383C60.9234 69.1438 60.3787 69.6966 59.2972 69.6966V69.6885ZM58.3839 69.1839H59.2651C59.9541 69.1839 60.2986 68.7993 60.2986 68.0303C60.2986 67.2612 59.9541 66.8767 59.2651 66.8767H58.3839V69.1758V69.1839Z" fill="black"/>
<path d="M62.6137 71.6433H61.9969V67.5175H62.3654L62.5897 68.2546C62.9262 67.7178 63.4149 67.4455 64.0637 67.4214V67.9902C63.4149 68.0142 62.9342 68.2866 62.6137 68.8153V71.6513V71.6433Z" fill="black"/>
<path d="M68.0933 69.5764C68.0933 71.0184 67.5005 71.7394 66.3069 71.7394C65.1132 71.7394 64.5204 71.0184 64.5204 69.5764C64.5204 68.1344 65.1132 67.4134 66.3069 67.4134C67.5005 67.4134 68.0933 68.1344 68.0933 69.5764ZM65.706 71.0985C65.8662 71.1866 66.0665 71.2347 66.3069 71.2347C66.5472 71.2347 66.7475 71.1866 66.9077 71.0985C67.0679 71.0104 67.1881 70.8822 67.2682 70.714C67.3483 70.5457 67.3964 70.3775 67.4284 70.1932C67.4604 70.017 67.4765 69.8087 67.4765 69.5684C67.4765 69.328 67.4604 69.1278 67.4284 68.9435C67.3964 68.7593 67.3403 68.591 67.2682 68.4228C67.1881 68.2546 67.0759 68.1264 66.9077 68.0383C66.7395 67.9501 66.5472 67.9021 66.3069 67.9021C66.0665 67.9021 65.8662 67.9421 65.706 68.0383C65.5458 68.1264 65.4256 68.2546 65.3455 68.4228C65.2654 68.591 65.2093 68.7593 65.1853 68.9355C65.1533 69.1117 65.1452 69.32 65.1452 69.5604C65.1452 69.8007 65.1613 70.009 65.1853 70.1852C65.2174 70.3615 65.2654 70.5377 65.3455 70.6979C65.4256 70.8582 65.5458 70.9943 65.706 71.0825V71.0985Z" fill="black"/>
<path d="M71.1135 67.4134C71.6743 67.4134 72.0428 67.6057 72.2351 67.9822C72.4113 67.822 72.6276 67.6858 72.876 67.5816C73.1243 67.4695 73.3807 67.4134 73.645 67.4134C74.4782 67.4134 74.9028 67.846 74.9028 68.7032V71.6352H74.2859V68.7352C74.2859 68.4629 74.2298 68.2626 74.1097 68.1264C73.9975 67.9902 73.8052 67.9181 73.5489 67.9181C73.1243 67.9181 72.7237 68.0783 72.3632 68.4068C72.3793 68.5029 72.3873 68.599 72.3873 68.7032V71.6352H71.7704V68.7352C71.7704 68.4629 71.7144 68.2626 71.5942 68.1264C71.482 67.9902 71.2898 67.9181 71.0254 67.9181C70.6088 67.9181 70.2243 68.0703 69.8718 68.3747V71.6432H69.2549V67.5175H69.6395L69.7997 67.9261C70.2003 67.5816 70.6489 67.4134 71.1295 67.4134H71.1135Z" fill="black"/>
<path d="M77.7307 71.7394C77.0978 71.7394 76.6492 71.5631 76.3849 71.2026C76.1125 70.8421 75.9843 70.3054 75.9843 69.5764C75.9843 68.1344 76.5611 67.4134 77.7067 67.4134C78.8523 67.4134 79.4051 68.1023 79.4051 69.4883V69.6405H76.5932C76.5932 70.2093 76.6813 70.6178 76.8495 70.8662C77.0177 71.1145 77.3141 71.2347 77.7307 71.2347C78.4117 71.2347 78.7802 70.9623 78.8283 70.4015L79.341 70.4336C79.2528 71.3068 78.7161 71.7394 77.7307 71.7394ZM78.5078 68.2466C78.3476 68.0303 78.0832 67.9181 77.7067 67.9181C77.3302 67.9181 77.0658 68.0302 76.8976 68.2546C76.7293 68.4789 76.6332 68.7913 76.6012 69.1838H78.7802C78.7561 68.7833 78.668 68.4709 78.5078 68.2466Z" fill="black"/>
<path d="M81.4719 71.7394C80.5906 71.7394 80.142 71.0184 80.142 69.5764C80.142 68.1344 80.6788 67.4134 81.7523 67.4134C82.1208 67.4134 82.5053 67.5095 82.8898 67.6938V66.1717L83.5067 66.0996V71.6352H83.0981L82.9219 71.0104C82.4813 71.4991 82.0006 71.7394 81.4719 71.7394ZM81.6721 71.2347C82.1047 71.2347 82.5133 71.0024 82.8898 70.5457V68.1905C82.5453 68.0062 82.2009 67.9101 81.8724 67.9101C81.4719 67.9101 81.1835 68.0543 81.0152 68.3507C80.847 68.6471 80.7589 69.0557 80.7589 69.5844C80.7589 70.6899 81.0633 71.2427 81.6641 71.2427L81.6721 71.2347Z" fill="black"/>
<path d="M85.3492 66.8286C85.1009 66.8286 84.9807 66.6924 84.9807 66.4281C84.9807 66.1637 85.1009 66.0275 85.3492 66.0275C85.5976 66.0275 85.7338 66.1637 85.7338 66.4281C85.7338 66.6924 85.6056 66.8286 85.3492 66.8286ZM85.0368 67.5176H85.6536V71.6433H85.0368V67.5176Z" fill="black"/>
<path d="M90.3881 69.5764C90.3881 71.0184 89.7953 71.7394 88.6017 71.7394C87.408 71.7394 86.8152 71.0184 86.8152 69.5764C86.8152 68.1344 87.408 67.4134 88.6017 67.4134C89.7953 67.4134 90.3881 68.1344 90.3881 69.5764ZM88.0008 71.0985C88.161 71.1866 88.3613 71.2347 88.6017 71.2347C88.842 71.2347 89.0423 71.1866 89.2025 71.0985C89.3627 71.0104 89.4829 70.8822 89.563 70.714C89.6431 70.5457 89.6912 70.3775 89.7232 70.1932C89.7552 70.017 89.7713 69.8087 89.7713 69.5684C89.7713 69.328 89.7552 69.1278 89.7232 68.9435C89.6912 68.7593 89.6351 68.591 89.563 68.4228C89.4829 68.2546 89.3707 68.1264 89.2025 68.0383C89.0343 67.9501 88.842 67.9021 88.6017 67.9021C88.3613 67.9021 88.161 67.9421 88.0008 68.0383C87.8406 68.1264 87.7204 68.2546 87.6403 68.4228C87.5602 68.591 87.5041 68.7593 87.4801 68.9355C87.4481 69.1117 87.44 69.32 87.44 69.5604C87.44 69.8007 87.4561 70.009 87.4801 70.1852C87.5121 70.3615 87.5602 70.5377 87.6403 70.6979C87.7204 70.8582 87.8406 70.9943 88.0008 71.0825V71.0985Z" fill="black"/>
<path d="M91.9743 71.467C91.9663 71.5231 91.9263 71.5712 91.8622 71.6192C91.7981 71.6673 91.71 71.6913 91.5978 71.6913C91.4857 71.6913 91.3976 71.6673 91.3415 71.6192C91.2774 71.5712 91.2453 71.5231 91.2373 71.467C91.2293 71.4109 91.2213 71.3469 91.2213 71.2748C91.2213 71.2027 91.2213 71.1386 91.2293 71.0985C91.2373 71.0585 91.2534 71.0104 91.2774 70.9623C91.3174 70.8582 91.4216 70.8101 91.5978 70.8101C91.7741 70.8101 91.8782 70.8502 91.9263 70.9303C91.9743 71.0104 91.9984 71.1065 91.9984 71.2187C91.9984 71.3308 91.9984 71.419 91.9824 71.467H91.9743Z" fill="black"/>
<path d="M57.751 82.4022H58.3839V87.6654H57.751V82.4022Z" fill="black"/>
<path d="M60.4507 83.9723C60.9394 83.6198 61.4121 83.4355 61.8847 83.4355C62.3574 83.4355 62.6858 83.5397 62.8781 83.756C63.0704 83.9723 63.1665 84.2927 63.1665 84.7334V87.6574H62.5496V84.7414C62.5496 84.453 62.4936 84.2447 62.3814 84.1245C62.2693 84.0043 62.085 83.9402 61.8287 83.9402C61.38 83.9402 60.9474 84.1005 60.5308 84.4209V87.6574H59.914V83.5317H60.2825L60.4587 83.9643L60.4507 83.9723Z" fill="black"/>
<path d="M65.5779 87.7616C64.6967 87.7616 64.248 87.0406 64.248 85.5986C64.248 84.1566 64.7848 83.4356 65.8583 83.4356C66.2268 83.4356 66.6113 83.5317 66.9959 83.716V82.1939L67.6127 82.1218V87.6574H67.2041L67.0279 87.0326C66.5873 87.5212 66.1066 87.7616 65.5779 87.7616ZM65.7782 87.2569C66.2108 87.2569 66.6193 87.0246 66.9959 86.5679V84.2127C66.6514 84.0284 66.3069 83.9323 65.9784 83.9323C65.5779 83.9323 65.2895 84.0765 65.1213 84.3729C64.953 84.6693 64.8649 85.0779 64.8649 85.6066C64.8649 86.7121 65.1693 87.2649 65.7702 87.2649L65.7782 87.2569Z" fill="black"/>
<path d="M69.4552 82.8508C69.2068 82.8508 69.0867 82.7146 69.0867 82.4502C69.0867 82.1858 69.2068 82.0497 69.4552 82.0497C69.7035 82.0497 69.8397 82.1858 69.8397 82.4502C69.8397 82.7146 69.7115 82.8508 69.4552 82.8508ZM69.1427 83.5397H69.7596V87.6654H69.1427V83.5397Z" fill="black"/>
<path d="M73.637 83.7159C73.9254 83.9242 74.0696 84.3088 74.0696 84.8856V87.6654H73.6611L73.5008 87.0245C73.0362 87.5212 72.5315 87.7695 71.9787 87.7695C71.6102 87.7695 71.3459 87.6734 71.1776 87.4811C71.0094 87.2889 70.9213 87.0325 70.9213 86.7041C70.9213 86.3756 71.0254 86.1112 71.2257 85.911C71.426 85.7107 71.8105 85.5665 72.3793 85.4704L73.4528 85.2941V84.8856C73.4528 84.5331 73.3807 84.2847 73.2285 84.1485C73.0763 84.0123 72.868 83.9483 72.6036 83.9483C72.0749 83.9483 71.7624 84.2046 71.6583 84.7173L71.1536 84.5651C71.2337 84.2126 71.3939 83.9322 71.6343 83.732C71.8826 83.5317 72.211 83.4355 72.6356 83.4355C73.0602 83.4355 73.3887 83.5237 73.645 83.7079L73.637 83.7159ZM72.155 87.2889C72.5876 87.2889 73.0202 87.0566 73.4528 86.5919V85.7267L72.4354 85.903C72.0909 85.9671 71.8586 86.0632 71.7304 86.1914C71.6022 86.3195 71.5381 86.4878 71.5381 86.672C71.5381 86.8563 71.5862 87.0085 71.6903 87.1207C71.7945 87.2328 71.9467 87.2889 72.155 87.2889Z" fill="black"/>
<path d="M75.2392 87.5292C75.2071 87.4171 75.1911 87.3209 75.1911 87.2408C75.1911 87.1607 75.1911 87.0966 75.2071 87.0486C75.2152 87.0005 75.2552 86.9524 75.3113 86.9044C75.3674 86.8563 75.4555 86.8323 75.5676 86.8323C75.6798 86.8323 75.7679 86.8563 75.824 86.9044C75.8801 86.9524 75.9201 87.0005 75.9281 87.0486C75.9362 87.0966 75.9442 87.1848 75.9442 87.3129C75.9442 87.4411 75.9121 87.5853 75.848 87.7375C75.7839 87.8897 75.6958 88.0259 75.5917 88.1461C75.4315 88.3223 75.2953 88.4585 75.1751 88.5466L74.9908 88.3303C75.0549 88.2663 75.111 88.2182 75.1431 88.1781C75.2392 88.066 75.2873 87.9298 75.2873 87.7616C75.2873 87.7135 75.2712 87.6334 75.2392 87.5212V87.5292Z" fill="black"/>
<path d="M80.9591 87.6654H79.2448V82.4022H80.6867C81.7602 82.4022 82.297 82.8508 82.297 83.748C82.297 84.3569 82.0486 84.7494 81.5439 84.9337C82.2329 85.0859 82.5774 85.5265 82.5774 86.2555C82.5774 87.1928 82.0406 87.6574 80.9671 87.6574L80.9591 87.6654ZM79.8776 84.7174H80.6787C81.0152 84.7174 81.2635 84.6373 81.4238 84.477C81.584 84.3168 81.6641 84.0925 81.6641 83.8201C81.6641 83.5477 81.584 83.3234 81.4238 83.1552C81.2635 82.987 81.0152 82.9069 80.6787 82.9069H79.8776V84.7174ZM79.8776 87.1607H80.9511C81.2876 87.1607 81.5359 87.0726 81.6961 86.9044C81.8564 86.7281 81.9365 86.4958 81.9365 86.2074C81.9365 85.919 81.8564 85.6787 81.6961 85.5024C81.5359 85.3262 81.2876 85.2381 80.9511 85.2381H79.8776V87.1688V87.1607Z" fill="black"/>
<path d="M84.2838 87.6654H83.6669V83.5397H84.0354L84.2598 84.2767C84.5962 83.74 85.0849 83.4676 85.7338 83.4436V84.0124C85.0849 84.0364 84.6042 84.3088 84.2838 84.8375V87.6734V87.6654Z" fill="black"/>
<path d="M88.8901 83.7159C89.1785 83.9242 89.3227 84.3088 89.3227 84.8856V87.6654H88.9142L88.7539 87.0245C88.2893 87.5212 87.7846 87.7695 87.2318 87.7695C86.8633 87.7695 86.599 87.6734 86.4307 87.4811C86.2625 87.2889 86.1744 87.0325 86.1744 86.7041C86.1744 86.3756 86.2785 86.1112 86.4788 85.911C86.6791 85.7107 87.0636 85.5665 87.6324 85.4704L88.7059 85.2941V84.8856C88.7059 84.5331 88.6338 84.2847 88.4816 84.1485C88.3294 84.0123 88.1211 83.9483 87.8567 83.9483C87.328 83.9483 87.0155 84.2046 86.9114 84.7173L86.4067 84.5651C86.4868 84.2126 86.647 83.9322 86.8874 83.732C87.1357 83.5317 87.4642 83.4355 87.8887 83.4355C88.3133 83.4355 88.6418 83.5237 88.8981 83.7079L88.8901 83.7159ZM87.4081 87.2889C87.8407 87.2889 88.2733 87.0566 88.7059 86.5919V85.7267L87.6885 85.903C87.344 85.9671 87.1117 86.0632 86.9835 86.1914C86.8553 86.3195 86.7912 86.4878 86.7912 86.672C86.7912 86.8563 86.8393 87.0085 86.9434 87.1207C87.0476 87.2328 87.1998 87.2889 87.4081 87.2889Z" fill="black"/>
<path d="M93.2001 85.7828C93.3844 85.959 93.4805 86.2234 93.4805 86.5679C93.4805 86.9124 93.3523 87.2008 93.088 87.4171C92.8316 87.6334 92.4471 87.7375 91.9344 87.7375C91.4217 87.7375 91.0532 87.6414 90.8288 87.4491C90.6045 87.2568 90.4523 86.9684 90.3962 86.5999L90.9009 86.5198C90.973 87.0085 91.3015 87.2488 91.8863 87.2488C92.5352 87.2488 92.8556 87.0325 92.8556 86.5919C92.8556 86.3997 92.7996 86.2555 92.6794 86.1673C92.5592 86.0792 92.351 85.9911 92.0465 85.919L91.638 85.8148C91.2214 85.7107 90.925 85.5665 90.7487 85.3983C90.5725 85.222 90.4844 84.9657 90.4844 84.6052C90.4844 84.2447 90.6125 83.9723 90.8609 83.756C91.1092 83.5397 91.4777 83.4355 91.9664 83.4355C92.4551 83.4355 92.8076 83.5317 93.0239 83.732C93.2402 83.9242 93.3844 84.2126 93.4485 84.5811L92.9358 84.6612C92.8717 84.1726 92.5672 83.9322 92.0145 83.9322C91.4056 83.9322 91.1092 84.1485 91.1092 84.5891C91.1092 84.7814 91.1653 84.9256 91.2775 85.0217C91.3896 85.1179 91.5819 85.198 91.8623 85.2701L92.2789 85.3742C92.7114 85.4784 93.0159 85.6226 93.2081 85.7988L93.2001 85.7828Z" fill="black"/>
<path d="M94.9225 82.8508C94.6741 82.8508 94.554 82.7146 94.554 82.4502C94.554 82.1858 94.6741 82.0497 94.9225 82.0497C95.1708 82.0497 95.307 82.1858 95.307 82.4502C95.307 82.7146 95.1788 82.8508 94.9225 82.8508ZM94.61 83.5397H95.2269V87.6654H94.61V83.5397Z" fill="black"/>
<path d="M97.3819 87.6654H96.765V82.2019L97.3819 82.1138V87.6654Z" fill="black"/>
<path d="M98.6316 87.5292C98.5996 87.4171 98.5836 87.3209 98.5836 87.2408C98.5836 87.1607 98.5836 87.0966 98.5996 87.0486C98.6076 87.0005 98.6477 86.9524 98.7037 86.9044C98.7598 86.8563 98.8479 86.8323 98.9601 86.8323C99.0723 86.8323 99.1604 86.8563 99.2164 86.9044C99.2725 86.9524 99.3126 87.0005 99.3206 87.0486C99.3286 87.0966 99.3366 87.1848 99.3366 87.3129C99.3366 87.4411 99.3046 87.5853 99.2405 87.7375C99.1764 87.8897 99.0883 88.0259 98.9841 88.1461C98.8239 88.3223 98.6877 88.4585 98.5675 88.5466L98.3833 88.3303C98.4474 88.2663 98.5035 88.2182 98.5355 88.1781C98.6316 88.066 98.6797 87.9298 98.6797 87.7616C98.6797 87.7135 98.6637 87.6334 98.6316 87.5212V87.5292Z" fill="black"/>
<path d="M105.705 82.4022H106.338V87.6654H105.705V85.2861H103.27V87.6654H102.637V82.4022H103.27V84.7815H105.705V82.4022Z" fill="black"/>
<path d="M111.065 85.5985C111.065 87.0405 110.472 87.7615 109.278 87.7615C108.085 87.7615 107.492 87.0405 107.492 85.5985C107.492 84.1565 108.085 83.4355 109.278 83.4355C110.472 83.4355 111.065 84.1565 111.065 85.5985ZM108.678 87.1207C108.838 87.2088 109.038 87.2568 109.278 87.2568C109.519 87.2568 109.719 87.2088 109.879 87.1207C110.039 87.0325 110.16 86.9044 110.24 86.7361C110.32 86.5679 110.368 86.3997 110.4 86.2154C110.432 86.0392 110.448 85.8309 110.448 85.5905C110.448 85.3502 110.432 85.1499 110.4 84.9657C110.368 84.7814 110.312 84.6132 110.24 84.445C110.16 84.2767 110.047 84.1485 109.879 84.0604C109.711 83.9723 109.519 83.9242 109.278 83.9242C109.038 83.9242 108.838 83.9643 108.678 84.0604C108.517 84.1485 108.397 84.2767 108.317 84.445C108.237 84.6132 108.181 84.7814 108.157 84.9577C108.125 85.1339 108.117 85.3422 108.117 85.5825C108.117 85.8229 108.133 86.0311 108.157 86.2074C108.189 86.3836 108.237 86.5599 108.317 86.7201C108.397 86.8803 108.517 87.0165 108.678 87.1046V87.1207Z" fill="black"/>
<path d="M112.763 83.9723C113.252 83.6198 113.725 83.4355 114.197 83.4355C114.67 83.4355 114.998 83.5397 115.191 83.756C115.383 83.9723 115.479 84.2927 115.479 84.7334V87.6574H114.862V84.7414C114.862 84.453 114.806 84.2447 114.694 84.1245C114.582 84.0043 114.397 83.9402 114.141 83.9402C113.692 83.9402 113.26 84.1005 112.843 84.4209V87.6574H112.226V83.5317H112.595L112.771 83.9643L112.763 83.9723Z" fill="black"/>
<path d="M117.89 87.7616C117.009 87.7616 116.56 87.0406 116.56 85.5986C116.56 84.1566 117.097 83.4356 118.171 83.4356C118.539 83.4356 118.924 83.5317 119.308 83.716V82.1939L119.925 82.1218V87.6574H119.516L119.34 87.0326C118.9 87.5212 118.419 87.7616 117.89 87.7616ZM118.09 87.2569C118.523 87.2569 118.932 87.0246 119.308 86.5679V84.2127C118.964 84.0284 118.619 83.9323 118.291 83.9323C117.89 83.9323 117.602 84.0765 117.434 84.3729C117.265 84.6693 117.177 85.0779 117.177 85.6066C117.177 86.7121 117.482 87.2649 118.082 87.2649L118.09 87.2569Z" fill="black"/>
<path d="M122.601 87.7615C122.176 87.7615 121.864 87.6574 121.671 87.4411C121.479 87.2248 121.383 86.9044 121.383 86.4798V83.5397H122V86.4397C122 86.7201 122.064 86.9284 122.184 87.0646C122.304 87.2008 122.497 87.2649 122.761 87.2649C123.226 87.2649 123.658 87.0245 124.067 86.5519V83.5477H124.684V87.6734H124.275L124.083 87.0646C123.634 87.5372 123.145 87.7776 122.601 87.7776V87.7615Z" fill="black"/>
<path d="M126.839 87.6654H126.222V83.5397H126.59L126.815 84.2767C127.151 83.74 127.64 83.4676 128.289 83.4436V84.0124C127.64 84.0364 127.159 84.3088 126.839 84.8375V87.6734V87.6654Z" fill="black"/>
<path d="M131.445 83.7159C131.733 83.9242 131.878 84.3088 131.878 84.8856V87.6654H131.469L131.309 87.0245C130.844 87.5212 130.339 87.7695 129.787 87.7695C129.418 87.7695 129.154 87.6734 128.986 87.4811C128.817 87.2889 128.729 87.0325 128.729 86.7041C128.729 86.3756 128.833 86.1112 129.034 85.911C129.234 85.7107 129.618 85.5665 130.187 85.4704L131.261 85.2941V84.8856C131.261 84.5331 131.189 84.2847 131.036 84.1485C130.884 84.0123 130.676 83.9483 130.412 83.9483C129.883 83.9483 129.57 84.2046 129.466 84.7173L128.962 84.5651C129.042 84.2126 129.202 83.9322 129.442 83.732C129.691 83.5317 130.019 83.4355 130.444 83.4355C130.868 83.4355 131.197 83.5237 131.453 83.7079L131.445 83.7159ZM129.963 87.2889C130.396 87.2889 130.828 87.0566 131.261 86.5919V85.7267L130.243 85.903C129.899 85.9671 129.667 86.0632 129.538 86.1914C129.41 86.3195 129.346 86.4878 129.346 86.672C129.346 86.8563 129.394 87.0085 129.498 87.1207C129.602 87.2328 129.755 87.2889 129.963 87.2889Z" fill="black"/>
<path d="M135.747 85.7828C135.931 85.959 136.027 86.2234 136.027 86.5679C136.027 86.9124 135.899 87.2008 135.635 87.4171C135.378 87.6334 134.994 87.7375 134.481 87.7375C133.969 87.7375 133.6 87.6414 133.376 87.4491C133.151 87.2568 132.999 86.9684 132.943 86.5999L133.448 86.5198C133.52 87.0085 133.848 87.2488 134.433 87.2488C135.082 87.2488 135.403 87.0325 135.403 86.5919C135.403 86.3997 135.346 86.2555 135.226 86.1673C135.106 86.0792 134.898 85.9911 134.593 85.919L134.185 85.8148C133.768 85.7107 133.472 85.5665 133.296 85.3983C133.119 85.222 133.031 84.9657 133.031 84.6052C133.031 84.2447 133.159 83.9723 133.408 83.756C133.656 83.5397 134.025 83.4355 134.513 83.4355C135.002 83.4355 135.354 83.5317 135.571 83.732C135.787 83.9242 135.931 84.2126 135.995 84.5811L135.483 84.6612C135.419 84.1726 135.114 83.9322 134.561 83.9322C133.953 83.9322 133.656 84.1485 133.656 84.5891C133.656 84.7814 133.712 84.9256 133.824 85.0217C133.936 85.1179 134.129 85.198 134.409 85.2701L134.826 85.3742C135.258 85.4784 135.563 85.6226 135.755 85.7988L135.747 85.7828Z" fill="black"/>
<path d="M136.885 87.5292C136.853 87.4171 136.837 87.3209 136.837 87.2408C136.837 87.1607 136.836 87.0966 136.853 87.0486C136.861 87.0005 136.901 86.9524 136.957 86.9044C137.013 86.8563 137.101 86.8323 137.213 86.8323C137.325 86.8323 137.413 86.8563 137.469 86.9044C137.525 86.9524 137.566 87.0005 137.574 87.0486C137.582 87.0966 137.59 87.1848 137.59 87.3129C137.59 87.4411 137.557 87.5853 137.493 87.7375C137.429 87.8897 137.341 88.0259 137.237 88.1461C137.077 88.3223 136.941 88.4585 136.82 88.5466L136.636 88.3303C136.7 88.2663 136.756 88.2182 136.788 88.1781C136.885 88.066 136.933 87.9298 136.933 87.7616C136.933 87.7135 136.917 87.6334 136.885 87.5212V87.5292Z" fill="black"/>
<path d="M59.5455 91.6309C59.0969 91.6309 58.7604 91.7591 58.5441 92.0074C58.3439 92.2237 58.2237 92.5762 58.1836 93.0729C58.1676 93.2812 58.1516 93.5376 58.1516 93.834C58.1516 94.1304 58.1596 94.3947 58.1836 94.611C58.1997 94.8273 58.2397 95.0276 58.3038 95.2199C58.3679 95.4122 58.448 95.5644 58.5441 95.6845C58.7685 95.9329 59.0969 96.0611 59.5455 96.0611C60.2826 96.0611 60.6671 95.6685 60.6911 94.8754L61.2118 94.9075C61.1798 95.4442 61.0356 95.8528 60.7792 96.1412C60.5229 96.4296 60.1143 96.5738 59.5535 96.5738C58.7604 96.5738 58.2157 96.3254 57.9273 95.8367C57.7751 95.5884 57.6709 95.308 57.6149 94.9956C57.5508 94.6751 57.5267 94.2906 57.5267 93.842C57.5267 93.3934 57.5588 93.0008 57.6149 92.6804C57.6789 92.3599 57.7831 92.0795 57.9273 91.8392C58.2157 91.3505 58.7604 91.1102 59.5535 91.1102C60.0743 91.1102 60.4668 91.2304 60.7232 91.4707C60.9795 91.711 61.1317 92.0475 61.1878 92.4881L60.6751 92.5842C60.571 91.9514 60.2024 91.6309 59.5535 91.6309H59.5455Z" fill="black"/>
<path d="M65.5538 94.4107C65.5538 95.8527 64.961 96.5737 63.7673 96.5737C62.5737 96.5737 61.9808 95.8527 61.9808 94.4107C61.9808 92.9687 62.5737 92.2477 63.7673 92.2477C64.961 92.2477 65.5538 92.9687 65.5538 94.4107ZM63.1665 95.9328C63.3267 96.021 63.527 96.069 63.7673 96.069C64.0076 96.069 64.2079 96.021 64.3681 95.9328C64.5284 95.8447 64.6485 95.7166 64.7286 95.5483C64.8087 95.3801 64.8568 95.2118 64.8889 95.0276C64.9209 94.8513 64.9369 94.6431 64.9369 94.4027C64.9369 94.1624 64.9209 93.9621 64.8889 93.7779C64.8568 93.5936 64.8007 93.4254 64.7286 93.2571C64.6485 93.0889 64.5364 92.9607 64.3681 92.8726C64.1999 92.7845 64.0076 92.7364 63.7673 92.7364C63.527 92.7364 63.3267 92.7765 63.1665 92.8726C63.0063 92.9607 62.8861 93.0889 62.806 93.2571C62.7259 93.4254 62.6698 93.5936 62.6457 93.7699C62.6137 93.9461 62.6057 94.1544 62.6057 94.3947C62.6057 94.6351 62.6217 94.8433 62.6457 95.0196C62.6778 95.1958 62.7259 95.3721 62.806 95.5323C62.8861 95.6925 63.0063 95.8287 63.1665 95.9168V95.9328Z" fill="black"/>
<path d="M67.3243 96.4776H66.7074V91.0141L67.3243 90.926V96.4776Z" fill="black"/>
<path d="M72.0588 94.4107C72.0588 95.8527 71.466 96.5737 70.2723 96.5737C69.0787 96.5737 68.4858 95.8527 68.4858 94.4107C68.4858 92.9687 69.0787 92.2477 70.2723 92.2477C71.466 92.2477 72.0588 92.9687 72.0588 94.4107ZM69.6715 95.9328C69.8317 96.021 70.032 96.069 70.2723 96.069C70.5126 96.069 70.7129 96.021 70.8731 95.9328C71.0334 95.8447 71.1535 95.7166 71.2336 95.5483C71.3137 95.3801 71.3618 95.2118 71.3939 95.0276C71.4259 94.8513 71.4419 94.6431 71.4419 94.4027C71.4419 94.1624 71.4259 93.9621 71.3939 93.7779C71.3618 93.5936 71.3057 93.4254 71.2336 93.2571C71.1535 93.0889 71.0414 92.9607 70.8731 92.8726C70.7049 92.7845 70.5126 92.7364 70.2723 92.7364C70.032 92.7364 69.8317 92.7765 69.6715 92.8726C69.5113 92.9607 69.3911 93.0889 69.311 93.2571C69.2309 93.4254 69.1748 93.5936 69.1508 93.7699C69.1187 93.9461 69.1107 94.1544 69.1107 94.3947C69.1107 94.6351 69.1267 94.8433 69.1508 95.0196C69.1828 95.1958 69.2309 95.3721 69.311 95.5323C69.3911 95.6925 69.5113 95.8287 69.6715 95.9168V95.9328Z" fill="black"/>
<path d="M75.079 92.2477C75.6397 92.2477 76.0083 92.44 76.2005 92.8165C76.3768 92.6563 76.5931 92.5201 76.8414 92.416C77.0897 92.3038 77.3461 92.2477 77.6105 92.2477C78.4436 92.2477 78.8682 92.6803 78.8682 93.5375V96.4696H78.2514V93.5696C78.2514 93.2972 78.1953 93.0969 78.0751 92.9607C77.963 92.8245 77.7707 92.7524 77.5143 92.7524C77.0898 92.7524 76.6892 92.9127 76.3287 93.2411C76.3447 93.3373 76.3527 93.4334 76.3527 93.5375V96.4696H75.7359V93.5696C75.7359 93.2972 75.6798 93.0969 75.5596 92.9607C75.4475 92.8245 75.2552 92.7524 74.9908 92.7524C74.5743 92.7524 74.1897 92.9046 73.8372 93.2091V96.4776H73.2204V92.3519H73.6049L73.7651 92.7605C74.1657 92.416 74.6143 92.2477 75.095 92.2477H75.079Z" fill="black"/>
<path d="M82.1287 96.5738C81.6801 96.5738 81.2395 96.4296 80.8229 96.1332L80.6867 96.4696H80.3182V91.0061L80.9351 90.934V92.5842C81.3517 92.3599 81.7442 92.2478 82.1287 92.2478C83.1702 92.2478 83.6829 92.9688 83.6829 94.4108C83.6829 95.8528 83.1622 96.5738 82.1287 96.5738ZM82.0166 92.7525C81.6481 92.7525 81.2876 92.8566 80.9431 93.0649V95.7326C81.2716 95.9569 81.616 96.0691 81.9605 96.0691C82.6975 96.0691 83.074 95.5163 83.074 94.4108C83.074 94.1063 83.042 93.842 82.9859 93.6017C82.9298 93.3613 82.8177 93.1691 82.6495 93.0008C82.4892 92.8326 82.2809 92.7525 82.0246 92.7525H82.0166Z" fill="black"/>
<path d="M85.149 91.663C84.9006 91.663 84.7805 91.5268 84.7805 91.2624C84.7805 90.998 84.9006 90.8618 85.149 90.8618C85.3973 90.8618 85.5335 90.998 85.5335 91.2624C85.5335 91.5268 85.4053 91.663 85.149 91.663ZM84.8365 92.3519H85.4534V96.4776H84.8365V92.3519Z" fill="black"/>
<path d="M89.3227 92.5281C89.6111 92.7364 89.7553 93.1209 89.7553 93.6977V96.4776H89.3467L89.1865 95.8367C88.7219 96.3334 88.2172 96.5817 87.6644 96.5817C87.2959 96.5817 87.0315 96.4856 86.8633 96.2933C86.6951 96.1011 86.6069 95.8447 86.6069 95.5163C86.6069 95.1878 86.7111 94.9234 86.9114 94.7232C87.1116 94.5229 87.4962 94.3787 88.065 94.2826L89.1384 94.1063V93.6977C89.1384 93.3453 89.0663 93.0969 88.9141 92.9607C88.7619 92.8245 88.5536 92.7605 88.2893 92.7605C87.7605 92.7605 87.4481 93.0168 87.344 93.5295L86.8393 93.3773C86.9194 93.0248 87.0796 92.7444 87.3199 92.5442C87.5683 92.3439 87.8967 92.2477 88.3213 92.2477C88.7459 92.2477 89.0744 92.3359 89.3307 92.5201L89.3227 92.5281ZM87.8406 96.1011C88.2732 96.1011 88.7058 95.8688 89.1384 95.4041V94.5389L88.121 94.7152C87.7766 94.7792 87.5442 94.8754 87.4161 95.0036C87.2879 95.1317 87.2238 95.3 87.2238 95.4842C87.2238 95.6685 87.2719 95.8207 87.376 95.9328C87.4801 96.045 87.6324 96.1011 87.8406 96.1011Z" fill="black"/>
<path d="M94.1374 98.24L93.5766 98.1359L94.2095 96.5016L92.6553 92.3519H93.2962L94.5139 95.6925L95.6996 92.3519H96.3324L94.1374 98.24Z" fill="black"/>
<path d="M99.3046 91.2144H102.1V91.719H99.9374V93.5536H101.948V94.0583H99.9374V95.9729H102.245V96.4776H99.3046V91.2144Z" fill="black"/>
<path d="M103.967 96.4776H103.35V91.0141L103.967 90.926V96.4776Z" fill="black"/>
<path d="M110.416 94.1464C110.624 94.3547 110.728 94.6751 110.728 95.0997C110.728 95.5243 110.576 95.8848 110.28 96.1572C109.983 96.4296 109.543 96.5738 108.974 96.5738C108.405 96.5738 107.988 96.4536 107.724 96.2213C107.46 95.989 107.292 95.6445 107.227 95.2039L107.748 95.1077C107.836 95.7406 108.229 96.0611 108.926 96.0611C109.711 96.0611 110.103 95.7486 110.103 95.1318C110.103 94.8594 110.031 94.6671 109.887 94.5309C109.743 94.4028 109.503 94.2906 109.166 94.2025L108.693 94.0663C108.197 93.9301 107.852 93.7619 107.644 93.5536C107.436 93.3453 107.34 93.0249 107.34 92.5923C107.34 92.1597 107.484 91.8072 107.772 91.5268C108.061 91.2464 108.477 91.1102 109.03 91.1102C109.583 91.1102 109.983 91.2304 110.232 91.4627C110.48 91.695 110.64 92.0395 110.704 92.4801L110.184 92.5762C110.095 91.9434 109.727 91.6229 109.086 91.6229C108.341 91.6229 107.964 91.9353 107.964 92.5522C107.964 92.8246 108.029 93.0249 108.165 93.153C108.301 93.2812 108.525 93.3934 108.838 93.4815L109.334 93.6177C109.847 93.7619 110.2 93.9381 110.416 94.1464Z" fill="black"/>
<path d="M114.229 92.5281C114.518 92.7364 114.662 93.1209 114.662 93.6977V96.4776H114.253L114.093 95.8367C113.628 96.3334 113.124 96.5817 112.571 96.5817C112.202 96.5817 111.938 96.4856 111.77 96.2933C111.602 96.1011 111.513 95.8447 111.513 95.5163C111.513 95.1878 111.618 94.9234 111.818 94.7232C112.018 94.5229 112.403 94.3787 112.971 94.2826L114.045 94.1063V93.6977C114.045 93.3453 113.973 93.0969 113.821 92.9607C113.668 92.8245 113.46 92.7605 113.196 92.7605C112.667 92.7605 112.355 93.0168 112.25 93.5295L111.746 93.3773C111.826 93.0248 111.986 92.7444 112.226 92.5442C112.475 92.3439 112.803 92.2477 113.228 92.2477C113.652 92.2477 113.981 92.3359 114.237 92.5201L114.229 92.5281ZM112.747 96.1011C113.18 96.1011 113.612 95.8688 114.045 95.4041V94.5389L113.028 94.7152C112.683 94.7792 112.451 94.8754 112.323 95.0036C112.194 95.1317 112.13 95.3 112.13 95.4842C112.13 95.6685 112.178 95.8207 112.282 95.9328C112.387 96.045 112.539 96.1011 112.747 96.1011Z" fill="black"/>
<path d="M116.745 96.4776H116.128V91.0141L116.745 90.926V96.4776Z" fill="black"/>
<path d="M119.765 96.4776H119.084L117.618 92.3519H118.243L119.42 95.7566L120.598 92.3519H121.223L119.757 96.4776H119.765Z" fill="black"/>
<path d="M124.443 92.5281C124.732 92.7364 124.876 93.1209 124.876 93.6977V96.4776H124.467L124.307 95.8367C123.843 96.3334 123.338 96.5817 122.785 96.5817C122.417 96.5817 122.152 96.4856 121.984 96.2933C121.816 96.1011 121.728 95.8447 121.728 95.5163C121.728 95.1878 121.832 94.9234 122.032 94.7232C122.232 94.5229 122.617 94.3787 123.186 94.2826L124.259 94.1063V93.6977C124.259 93.3453 124.187 93.0969 124.035 92.9607C123.883 92.8245 123.674 92.7605 123.41 92.7605C122.881 92.7605 122.569 93.0168 122.465 93.5295L121.96 93.3773C122.04 93.0248 122.2 92.7444 122.441 92.5442C122.689 92.3439 123.017 92.2477 123.442 92.2477C123.867 92.2477 124.195 92.3359 124.451 92.5201L124.443 92.5281ZM122.961 96.1011C123.394 96.1011 123.827 95.8688 124.259 95.4041V94.5389L123.242 94.7152C122.897 94.7792 122.665 94.8754 122.537 95.0036C122.409 95.1317 122.344 95.3 122.344 95.4842C122.344 95.6685 122.393 95.8207 122.497 95.9328C122.601 96.045 122.753 96.1011 122.961 96.1011Z" fill="black"/>
<path d="M127.279 96.5738C126.398 96.5738 125.949 95.8528 125.949 94.4108C125.949 92.9688 126.486 92.2478 127.56 92.2478C127.928 92.2478 128.313 92.3439 128.697 92.5282V91.0061L129.314 90.934V96.4696H128.906L128.729 95.8448C128.289 96.3334 127.808 96.5738 127.279 96.5738ZM127.48 96.0691C127.912 96.0691 128.321 95.8367 128.697 95.3801V93.0249C128.353 92.8406 128.008 92.7445 127.68 92.7445C127.279 92.7445 126.991 92.8887 126.823 93.1851C126.654 93.4815 126.566 93.8901 126.566 94.4188C126.566 95.5243 126.871 96.0771 127.472 96.0771L127.48 96.0691Z" fill="black"/>
<path d="M134.057 94.4107C134.057 95.8527 133.464 96.5737 132.27 96.5737C131.076 96.5737 130.484 95.8527 130.484 94.4107C130.484 92.9687 131.076 92.2477 132.27 92.2477C133.464 92.2477 134.057 92.9687 134.057 94.4107ZM131.669 95.9328C131.83 96.021 132.03 96.069 132.27 96.069C132.51 96.069 132.711 96.021 132.871 95.9328C133.031 95.8447 133.151 95.7166 133.231 95.5483C133.312 95.3801 133.36 95.2118 133.392 95.0276C133.424 94.8513 133.44 94.6431 133.44 94.4027C133.44 94.1624 133.424 93.9621 133.392 93.7779C133.36 93.5936 133.304 93.4254 133.231 93.2571C133.151 93.0889 133.039 92.9607 132.871 92.8726C132.703 92.7845 132.51 92.7364 132.27 92.7364C132.03 92.7364 131.83 92.7765 131.669 92.8726C131.509 92.9607 131.389 93.0889 131.309 93.2571C131.229 93.4254 131.173 93.5936 131.149 93.7699C131.117 93.9461 131.109 94.1544 131.109 94.3947C131.109 94.6351 131.125 94.8433 131.149 95.0196C131.181 95.1958 131.229 95.3721 131.309 95.5323C131.389 95.6925 131.509 95.8287 131.669 95.9168V95.9328Z" fill="black"/>
<path d="M135.827 96.4776H135.21V92.3519H135.579L135.803 93.0889C136.139 92.5522 136.628 92.2798 137.277 92.2558V92.8245C136.628 92.8486 136.147 93.121 135.827 93.6497V96.4856V96.4776Z" fill="black"/>
<path d="M138.527 96.3014C138.519 96.3575 138.479 96.4055 138.415 96.4536C138.351 96.5017 138.262 96.5257 138.15 96.5257C138.038 96.5257 137.95 96.5017 137.894 96.4536C137.83 96.4055 137.798 96.3575 137.79 96.3014C137.782 96.2453 137.774 96.1812 137.774 96.1091C137.774 96.037 137.774 95.9729 137.782 95.9329C137.79 95.8928 137.806 95.8447 137.83 95.7967C137.87 95.6925 137.974 95.6445 138.15 95.6445C138.327 95.6445 138.431 95.6845 138.479 95.7646C138.527 95.8447 138.551 95.9409 138.551 96.053C138.551 96.1652 138.551 96.2533 138.535 96.3014H138.527Z" fill="black"/>
<path d="M57.751 107.237H60.4027V107.741H58.3839V109.576H60.2345V110.08H58.3839V112.5H57.751V107.237Z" fill="black"/>
<path d="M62.109 112.5H61.4922V107.036L62.109 106.948V112.5Z" fill="black"/>
<path d="M66.8355 110.433C66.8355 111.875 66.2427 112.596 65.049 112.596C63.8554 112.596 63.2626 111.875 63.2626 110.433C63.2626 108.991 63.8554 108.27 65.049 108.27C66.2427 108.27 66.8355 108.991 66.8355 110.433ZM64.4482 111.955C64.6084 112.043 64.8087 112.091 65.049 112.091C65.2894 112.091 65.4897 112.043 65.6499 111.955C65.8101 111.867 65.9303 111.739 66.0104 111.571C66.0905 111.402 66.1386 111.234 66.1706 111.05C66.2026 110.874 66.2187 110.665 66.2187 110.425C66.2187 110.185 66.2026 109.984 66.1706 109.8C66.1386 109.616 66.0825 109.448 66.0104 109.279C65.9303 109.111 65.8181 108.983 65.6499 108.895C65.4816 108.807 65.2894 108.759 65.049 108.759C64.8087 108.759 64.6084 108.799 64.4482 108.895C64.288 108.983 64.1678 109.111 64.0877 109.279C64.0076 109.448 63.9515 109.616 63.9275 109.792C63.8955 109.968 63.8874 110.177 63.8874 110.417C63.8874 110.657 63.9035 110.866 63.9275 111.042C63.9595 111.218 64.0076 111.394 64.0877 111.554C64.1678 111.715 64.288 111.851 64.4482 111.939V111.955Z" fill="black"/>
<path d="M68.606 112.5H67.9891V108.374H68.3576L68.5819 109.111C68.9184 108.574 69.4071 108.302 70.056 108.278V108.847C69.4071 108.871 68.9264 109.143 68.606 109.672V112.508V112.5Z" fill="black"/>
<path d="M73.2124 108.55C73.5008 108.759 73.645 109.143 73.645 109.72V112.5H73.2364L73.0762 111.859C72.6116 112.356 72.1069 112.604 71.5541 112.604C71.1856 112.604 70.9212 112.508 70.753 112.316C70.5848 112.123 70.4966 111.867 70.4966 111.538C70.4966 111.21 70.6008 110.946 70.8011 110.745C71.0013 110.545 71.3859 110.401 71.9547 110.305L73.0281 110.129V109.72C73.0281 109.367 72.9561 109.119 72.8038 108.983C72.6516 108.847 72.4433 108.783 72.179 108.783C71.6502 108.783 71.3378 109.039 71.2337 109.552L70.729 109.399C70.8091 109.047 70.9693 108.767 71.2096 108.566C71.458 108.366 71.7864 108.27 72.211 108.27C72.6356 108.27 72.9641 108.358 73.2204 108.542L73.2124 108.55ZM71.7304 112.123C72.163 112.123 72.5956 111.891 73.0281 111.426V110.561L72.0107 110.737C71.6663 110.801 71.4339 110.898 71.3058 111.026C71.1776 111.154 71.1135 111.322 71.1135 111.506C71.1135 111.691 71.1616 111.843 71.2657 111.955C71.3699 112.067 71.5221 112.123 71.7304 112.123Z" fill="black"/>
<path d="M75.7279 112.5H75.111V107.036L75.7279 106.948V112.5Z" fill="black"/>
<path d="M76.9696 112.364C76.9375 112.251 76.9215 112.155 76.9215 112.075C76.9215 111.995 76.9215 111.931 76.9376 111.883C76.9456 111.835 76.9856 111.787 77.0417 111.739C77.0978 111.691 77.1859 111.667 77.2981 111.667C77.4102 111.667 77.4983 111.691 77.5544 111.739C77.6105 111.787 77.6505 111.835 77.6585 111.883C77.6666 111.931 77.6746 112.019 77.6746 112.147C77.6746 112.275 77.6425 112.42 77.5784 112.572C77.5143 112.724 77.4262 112.86 77.3221 112.98C77.1619 113.157 77.0257 113.293 76.9055 113.381L76.7213 113.165C76.7853 113.101 76.8414 113.053 76.8735 113.013C76.9696 112.9 77.0177 112.764 77.0177 112.596C77.0177 112.548 77.0016 112.468 76.9696 112.356V112.364Z" fill="black"/>
<path d="M82.273 107.397C81.8964 107.397 81.7122 107.613 81.7122 108.054V108.374H82.6655V108.799H81.7122V112.5H81.0953V108.799H80.6227V108.374H81.0953V108.054C81.0953 107.293 81.4719 106.908 82.2329 106.908C82.5133 106.908 82.7697 106.948 82.994 107.028L82.8337 107.493C82.6735 107.429 82.4813 107.389 82.273 107.389V107.397Z" fill="black"/>
<path d="M84.0274 112.5H83.4105V108.374H83.779L84.0033 109.111C84.3398 108.574 84.8285 108.302 85.4774 108.278V108.847C84.8285 108.871 84.3478 109.143 84.0274 109.672V112.508V112.5Z" fill="black"/>
<path d="M87.4481 112.596C87.0235 112.596 86.7111 112.492 86.5188 112.275C86.3265 112.059 86.2304 111.739 86.2304 111.314V108.374H86.8473V111.274C86.8473 111.554 86.9114 111.763 87.0315 111.899C87.1517 112.035 87.3439 112.099 87.6083 112.099C88.073 112.099 88.5056 111.859 88.9141 111.386V108.382H89.531V112.508H89.1224L88.9302 111.899C88.4815 112.372 87.9929 112.612 87.4481 112.612V112.596Z" fill="black"/>
<path d="M90.4443 108.799V108.374H91.1492V107.621L91.7661 107.373V108.366H92.6393V108.791H91.7661V111.522C91.7661 111.739 91.7981 111.891 91.8542 111.979C91.9183 112.067 91.9984 112.115 92.1186 112.115C92.2388 112.115 92.3749 112.099 92.5432 112.059L92.6153 112.476C92.3589 112.556 92.1346 112.588 91.9584 112.588C91.7821 112.588 91.6299 112.556 91.5178 112.5C91.4056 112.444 91.3175 112.356 91.2694 112.243C91.1893 112.067 91.1492 111.835 91.1492 111.546V108.791H90.4443V108.799Z" fill="black"/>
<path d="M95.8838 108.55C96.1722 108.759 96.3164 109.143 96.3164 109.72V112.5H95.9078L95.7476 111.859C95.283 112.356 94.7783 112.604 94.2255 112.604C93.857 112.604 93.5926 112.508 93.4244 112.316C93.2562 112.123 93.168 111.867 93.168 111.538C93.168 111.21 93.2722 110.946 93.4725 110.745C93.6727 110.545 94.0573 110.401 94.6261 110.305L95.6995 110.129V109.72C95.6995 109.367 95.6274 109.119 95.4752 108.983C95.323 108.847 95.1147 108.783 94.8504 108.783C94.3216 108.783 94.0092 109.039 93.905 109.552L93.4003 109.399C93.4805 109.047 93.6407 108.767 93.881 108.566C94.1294 108.366 94.4578 108.27 94.8824 108.27C95.307 108.27 95.6354 108.358 95.8918 108.542L95.8838 108.55ZM94.4017 112.123C94.8343 112.123 95.2669 111.891 95.6995 111.426V110.561L94.6821 110.737C94.3376 110.801 94.1053 110.898 93.9771 111.026C93.849 111.154 93.7849 111.322 93.7849 111.506C93.7849 111.691 93.833 111.843 93.9371 111.955C94.0412 112.067 94.1934 112.123 94.4017 112.123Z" fill="black"/>
<path d="M101.732 108.27C102.293 108.27 102.661 108.462 102.853 108.839C103.03 108.678 103.246 108.542 103.494 108.438C103.743 108.326 103.999 108.27 104.263 108.27C105.097 108.27 105.521 108.703 105.521 109.56V112.492H104.904V109.592C104.904 109.319 104.848 109.119 104.728 108.983C104.616 108.847 104.424 108.775 104.167 108.775C103.743 108.775 103.342 108.935 102.982 109.263C102.998 109.359 103.006 109.456 103.006 109.56V112.492H102.389V109.592C102.389 109.319 102.333 109.119 102.213 108.983C102.1 108.847 101.908 108.775 101.644 108.775C101.227 108.775 100.843 108.927 100.49 109.231V112.5H99.8733V108.374H100.258L100.418 108.783C100.819 108.438 101.267 108.27 101.748 108.27H101.732Z" fill="black"/>
<path d="M109.31 108.55C109.599 108.759 109.743 109.143 109.743 109.72V112.5H109.334L109.174 111.859C108.71 112.356 108.205 112.604 107.652 112.604C107.284 112.604 107.019 112.508 106.851 112.316C106.683 112.123 106.595 111.867 106.595 111.538C106.595 111.21 106.699 110.946 106.899 110.745C107.099 110.545 107.484 110.401 108.053 110.305L109.126 110.129V109.72C109.126 109.367 109.054 109.119 108.902 108.983C108.75 108.847 108.541 108.783 108.277 108.783C107.748 108.783 107.436 109.039 107.332 109.552L106.827 109.399C106.907 109.047 107.067 108.767 107.308 108.566C107.556 108.366 107.884 108.27 108.309 108.27C108.734 108.27 109.062 108.358 109.318 108.542L109.31 108.55ZM107.828 112.123C108.261 112.123 108.694 111.891 109.126 111.426V110.561L108.109 110.737C107.764 110.801 107.532 110.898 107.404 111.026C107.276 111.154 107.211 111.322 107.211 111.506C107.211 111.691 107.26 111.843 107.364 111.955C107.468 112.067 107.62 112.123 107.828 112.123Z" fill="black"/>
<path d="M112.146 112.596C111.265 112.596 110.816 111.875 110.816 110.433C110.816 108.991 111.353 108.27 112.427 108.27C112.795 108.27 113.18 108.366 113.564 108.55V107.028L114.181 106.956V112.492H113.773L113.596 111.867C113.156 112.356 112.675 112.596 112.146 112.596ZM112.347 112.091C112.779 112.091 113.188 111.859 113.564 111.402V109.047C113.22 108.863 112.875 108.767 112.547 108.767C112.146 108.767 111.858 108.911 111.69 109.207C111.521 109.504 111.433 109.912 111.433 110.441C111.433 111.546 111.738 112.099 112.339 112.099L112.347 112.091Z" fill="black"/>
<path d="M116.865 112.596C116.44 112.596 116.128 112.492 115.936 112.275C115.743 112.059 115.647 111.739 115.647 111.314V108.374H116.264V111.274C116.264 111.554 116.328 111.763 116.448 111.899C116.568 112.035 116.761 112.099 117.025 112.099C117.49 112.099 117.922 111.859 118.331 111.386V108.382H118.948V112.508H118.539L118.347 111.899C117.898 112.372 117.41 112.612 116.865 112.612V112.596Z" fill="black"/>
<path d="M121.095 112.5H120.478V108.374H120.846L121.071 109.111C121.407 108.574 121.896 108.302 122.545 108.278V108.847C121.896 108.871 121.415 109.143 121.095 109.672V112.508V112.5Z" fill="black"/>
<path d="M125.701 108.55C125.989 108.759 126.134 109.143 126.134 109.72V112.5H125.725L125.565 111.859C125.1 112.356 124.596 112.604 124.043 112.604C123.674 112.604 123.41 112.508 123.242 112.316C123.073 112.123 122.985 111.867 122.985 111.538C122.985 111.21 123.089 110.946 123.29 110.745C123.49 110.545 123.875 110.401 124.443 110.305L125.517 110.129V109.72C125.517 109.367 125.445 109.119 125.292 108.983C125.14 108.847 124.932 108.783 124.668 108.783C124.139 108.783 123.826 109.039 123.722 109.552L123.218 109.399C123.298 109.047 123.458 108.767 123.698 108.566C123.947 108.366 124.275 108.27 124.7 108.27C125.124 108.27 125.453 108.358 125.709 108.542L125.701 108.55ZM124.219 112.123C124.652 112.123 125.084 111.891 125.517 111.426V110.561L124.499 110.737C124.155 110.801 123.923 110.898 123.794 111.026C123.666 111.154 123.602 111.322 123.602 111.506C123.602 111.691 123.65 111.843 123.754 111.955C123.858 112.067 124.011 112.123 124.219 112.123Z" fill="black"/>
<path d="M58.5842 123.074L58.0234 122.97L58.6563 121.336L57.1021 117.186H57.743L58.9607 120.527L60.1463 117.186H60.7792L58.5842 123.074Z" fill="black"/>
<path d="M63.9996 119.245C63.9996 119.477 64.0156 119.694 64.0397 119.87C64.0717 120.054 64.1198 120.222 64.1999 120.391C64.3601 120.735 64.6565 120.903 65.0971 120.903C65.4576 120.903 65.714 120.831 65.8742 120.687C66.0344 120.543 66.1145 120.335 66.1305 120.054L66.6353 120.078C66.6032 120.503 66.467 120.831 66.2347 121.064C66.0024 121.296 65.6178 121.408 65.0811 121.408C64.3281 121.408 63.8234 121.104 63.583 120.487C63.4468 120.15 63.3828 119.782 63.3828 119.381C63.3828 118.981 63.4068 118.66 63.4548 118.428C63.5029 118.188 63.591 117.963 63.7032 117.747C63.9515 117.306 64.4162 117.082 65.0811 117.082C65.6178 117.082 66.0024 117.194 66.2347 117.411C66.467 117.627 66.6032 117.947 66.6353 118.356L66.1386 118.428C66.1225 118.148 66.0424 117.939 65.8822 117.795C65.722 117.651 65.4656 117.587 65.1051 117.587C64.6645 117.587 64.3601 117.755 64.2079 118.1C64.0717 118.38 64.0076 118.764 64.0076 119.245H63.9996Z" fill="black"/>
<path d="M70.0561 117.363C70.3445 117.571 70.4887 117.955 70.4887 118.532V121.312H70.0801L69.9199 120.671C69.4553 121.168 68.9506 121.416 68.3978 121.416C68.0293 121.416 67.7649 121.32 67.5967 121.128C67.4285 120.935 67.3403 120.679 67.3403 120.351C67.3403 120.022 67.4445 119.758 67.6448 119.558C67.845 119.357 68.2296 119.213 68.7984 119.117L69.8718 118.941V118.532C69.8718 118.18 69.7997 117.931 69.6475 117.795C69.4953 117.659 69.287 117.595 69.0227 117.595C68.4939 117.595 68.1815 117.851 68.0774 118.364L67.5727 118.212C67.6528 117.859 67.813 117.579 68.0533 117.379C68.3017 117.178 68.6301 117.082 69.0547 117.082C69.4793 117.082 69.8078 117.17 70.0641 117.354L70.0561 117.363ZM68.574 120.935C69.0066 120.935 69.4392 120.703 69.8718 120.238V119.373L68.8544 119.55C68.51 119.614 68.2776 119.71 68.1495 119.838C68.0213 119.966 67.9572 120.134 67.9572 120.319C67.9572 120.503 68.0053 120.655 68.1094 120.767C68.2135 120.879 68.3658 120.935 68.574 120.935Z" fill="black"/>
<path d="M72.195 119.245C72.195 119.477 72.2111 119.694 72.2351 119.87C72.2671 120.054 72.3152 120.222 72.3953 120.391C72.5555 120.735 72.8519 120.903 73.2926 120.903C73.6531 120.903 73.9094 120.831 74.0696 120.687C74.2299 120.543 74.31 120.335 74.326 120.054L74.8307 120.078C74.7986 120.503 74.6625 120.831 74.4301 121.064C74.1978 121.296 73.8133 121.408 73.2765 121.408C72.5235 121.408 72.0188 121.104 71.7785 120.487C71.6423 120.15 71.5782 119.782 71.5782 119.381C71.5782 118.981 71.6022 118.66 71.6503 118.428C71.6983 118.188 71.7865 117.963 71.8986 117.747C72.147 117.306 72.6116 117.082 73.2765 117.082C73.8133 117.082 74.1978 117.194 74.4301 117.411C74.6625 117.627 74.7986 117.947 74.8307 118.356L74.334 118.428C74.318 118.148 74.2379 117.939 74.0776 117.795C73.9174 117.651 73.6611 117.587 73.3006 117.587C72.86 117.587 72.5555 117.755 72.4033 118.1C72.2671 118.38 72.203 118.764 72.203 119.245H72.195Z" fill="black"/>
<path d="M78.2514 117.363C78.5398 117.571 78.684 117.955 78.684 118.532V121.312H78.2754L78.1152 120.671C77.6506 121.168 77.1459 121.416 76.5931 121.416C76.2246 121.416 75.9602 121.32 75.792 121.128C75.6238 120.935 75.5356 120.679 75.5356 120.351C75.5356 120.022 75.6398 119.758 75.8401 119.558C76.0403 119.357 76.4249 119.213 76.9937 119.117L78.0671 118.941V118.532C78.0671 118.18 77.995 117.931 77.8428 117.795C77.6906 117.659 77.4823 117.595 77.218 117.595C76.6892 117.595 76.3768 117.851 76.2727 118.364L75.768 118.212C75.8481 117.859 76.0083 117.579 76.2486 117.379C76.497 117.178 76.8254 117.082 77.25 117.082C77.6746 117.082 78.0031 117.17 78.2594 117.354L78.2514 117.363ZM76.7693 120.935C77.2019 120.935 77.6345 120.703 78.0671 120.238V119.373L77.0497 119.55C76.7053 119.614 76.4729 119.71 76.3448 119.838C76.2166 119.966 76.1525 120.134 76.1525 120.319C76.1525 120.503 76.2006 120.655 76.3047 120.767C76.4088 120.879 76.5611 120.935 76.7693 120.935Z" fill="black"/>
<path d="M83.3384 119.245C83.3384 120.687 82.7456 121.408 81.552 121.408C80.3583 121.408 79.7655 120.687 79.7655 119.245C79.7655 117.803 80.3583 117.082 81.552 117.082C82.7456 117.082 83.3384 117.803 83.3384 119.245ZM80.9511 120.767C81.1114 120.855 81.3116 120.903 81.552 120.903C81.7923 120.903 81.9926 120.855 82.1528 120.767C82.313 120.679 82.4332 120.551 82.5133 120.383C82.5934 120.214 82.6415 120.046 82.6735 119.862C82.7056 119.686 82.7216 119.477 82.7216 119.237C82.7216 118.997 82.7056 118.796 82.6735 118.612C82.6415 118.428 82.5854 118.26 82.5133 118.092C82.4332 117.923 82.321 117.795 82.1528 117.707C81.9846 117.619 81.7923 117.571 81.552 117.571C81.3116 117.571 81.1114 117.611 80.9511 117.707C80.7909 117.795 80.6708 117.923 80.5906 118.092C80.5105 118.26 80.4545 118.428 80.4304 118.604C80.3984 118.78 80.3904 118.989 80.3904 119.229C80.3904 119.469 80.4064 119.678 80.4304 119.854C80.4625 120.03 80.5105 120.206 80.5906 120.367C80.6708 120.527 80.7909 120.663 80.9511 120.751V120.767Z" fill="black"/>
<path d="M84.9247 121.136C84.9167 121.192 84.8766 121.24 84.8125 121.288C84.7484 121.336 84.6603 121.36 84.5482 121.36C84.436 121.36 84.3479 121.336 84.2918 121.288C84.2277 121.24 84.1957 121.192 84.1876 121.136C84.1796 121.08 84.1716 121.016 84.1716 120.943C84.1716 120.871 84.1716 120.807 84.1796 120.767C84.1876 120.727 84.2037 120.679 84.2277 120.631C84.2678 120.527 84.3719 120.479 84.5482 120.479C84.7244 120.479 84.8285 120.519 84.8766 120.599C84.9247 120.679 84.9487 120.775 84.9487 120.887C84.9487 121 84.9487 121.088 84.9327 121.136H84.9247Z" fill="black"/>
</svg>
