<svg width="137" height="115" viewBox="0 0 137 115" fill="none" xmlns="http://www.w3.org/2000/svg">
<path d="M59.9781 7.83497C61.6284 7.83497 62.9662 6.49714 62.9662 4.84684C62.9662 3.19653 61.6284 1.8587 59.9781 1.8587C58.3278 1.8587 56.9899 3.19653 56.9899 4.84684C56.9899 6.49714 58.3278 7.83497 59.9781 7.83497Z" fill="#702E3E"/>
<path d="M67.9892 7.83497C69.6395 7.83497 70.9773 6.49714 70.9773 4.84684C70.9773 3.19653 69.6395 1.8587 67.9892 1.8587C66.3389 1.8587 65.001 3.19653 65.001 4.84684C65.001 6.49714 66.3389 7.83497 67.9892 7.83497Z" fill="#702E3E"/>
<path d="M76.0003 7.83497C77.6506 7.83497 78.9884 6.49714 78.9884 4.84684C78.9884 3.19653 77.6506 1.8587 76.0003 1.8587C74.35 1.8587 73.0121 3.19653 73.0121 4.84684C73.0121 6.49714 74.35 7.83497 76.0003 7.83497Z" fill="#702E3E"/>
<path d="M84.0113 7.83497C85.6616 7.83497 86.9995 6.49714 86.9995 4.84684C86.9995 3.19653 85.6616 1.8587 84.0113 1.8587C82.361 1.8587 81.0232 3.19653 81.0232 4.84684C81.0232 6.49714 82.361 7.83497 84.0113 7.83497Z" fill="#702E3E"/>
<path d="M92.0224 7.83497C93.6727 7.83497 95.0106 6.49714 95.0106 4.84684C95.0106 3.19653 93.6727 1.8587 92.0224 1.8587C90.3721 1.8587 89.0343 3.19653 89.0343 4.84684C89.0343 6.49714 90.3721 7.83497 92.0224 7.83497Z" fill="#702E3E"/>
<path d="M100.034 7.83497C101.684 7.83497 103.022 6.49714 103.022 4.84684C103.022 3.19653 101.684 1.8587 100.034 1.8587C98.3833 1.8587 97.0454 3.19653 97.0454 4.84684C97.0454 6.49714 98.3833 7.83497 100.034 7.83497Z" fill="#702E3E"/>
<path d="M108.045 7.83497C109.695 7.83497 111.033 6.49714 111.033 4.84684C111.033 3.19653 109.695 1.8587 108.045 1.8587C106.394 1.8587 105.056 3.19653 105.056 4.84684C105.056 6.49714 106.394 7.83497 108.045 7.83497Z" fill="#D3D1CF"/>
<path d="M116.056 7.83497C117.706 7.83497 119.044 6.49714 119.044 4.84684C119.044 3.19653 117.706 1.8587 116.056 1.8587C114.405 1.8587 113.068 3.19653 113.068 4.84684C113.068 6.49714 114.405 7.83497 116.056 7.83497Z" fill="#D3D1CF"/>
<path d="M124.067 7.83497C125.717 7.83497 127.055 6.49714 127.055 4.84684C127.055 3.19653 125.717 1.8587 124.067 1.8587C122.416 1.8587 121.079 3.19653 121.079 4.84684C121.079 6.49714 122.416 7.83497 124.067 7.83497Z" fill="#D3D1CF"/>
<path d="M132.078 7.83497C133.728 7.83497 135.066 6.49714 135.066 4.84684C135.066 3.19653 133.728 1.8587 132.078 1.8587C130.428 1.8587 129.09 3.19653 129.09 4.84684C129.09 6.49714 130.428 7.83497 132.078 7.83497Z" fill="#D3D1CF"/>
<path d="M59.9781 23.8571C61.6284 23.8571 62.9662 22.5193 62.9662 20.869C62.9662 19.2187 61.6284 17.8809 59.9781 17.8809C58.3278 17.8809 56.9899 19.2187 56.9899 20.869C56.9899 22.5193 58.3278 23.8571 59.9781 23.8571Z" fill="#702E3E"/>
<path d="M67.9892 23.8571C69.6395 23.8571 70.9773 22.5193 70.9773 20.869C70.9773 19.2187 69.6395 17.8809 67.9892 17.8809C66.3389 17.8809 65.001 19.2187 65.001 20.869C65.001 22.5193 66.3389 23.8571 67.9892 23.8571Z" fill="#702E3E"/>
<path d="M76.0003 23.8571C77.6506 23.8571 78.9884 22.5193 78.9884 20.869C78.9884 19.2187 77.6506 17.8809 76.0003 17.8809C74.35 17.8809 73.0121 19.2187 73.0121 20.869C73.0121 22.5193 74.35 23.8571 76.0003 23.8571Z" fill="#702E3E"/>
<path d="M84.0113 23.8571C85.6616 23.8571 86.9995 22.5193 86.9995 20.869C86.9995 19.2187 85.6616 17.8809 84.0113 17.8809C82.361 17.8809 81.0232 19.2187 81.0232 20.869C81.0232 22.5193 82.361 23.8571 84.0113 23.8571Z" fill="#702E3E"/>
<path d="M92.0224 23.8571C93.6727 23.8571 95.0106 22.5193 95.0106 20.869C95.0106 19.2187 93.6727 17.8809 92.0224 17.8809C90.3721 17.8809 89.0343 19.2187 89.0343 20.869C89.0343 22.5193 90.3721 23.8571 92.0224 23.8571Z" fill="#702E3E"/>
<path d="M100.034 23.8571C101.684 23.8571 103.022 22.5193 103.022 20.869C103.022 19.2187 101.684 17.8809 100.034 17.8809C98.3833 17.8809 97.0454 19.2187 97.0454 20.869C97.0454 22.5193 98.3833 23.8571 100.034 23.8571Z" fill="#D3D1CF"/>
<path d="M108.045 23.8571C109.695 23.8571 111.033 22.5193 111.033 20.869C111.033 19.2187 109.695 17.8809 108.045 17.8809C106.394 17.8809 105.056 19.2187 105.056 20.869C105.056 22.5193 106.394 23.8571 108.045 23.8571Z" fill="#D3D1CF"/>
<path d="M116.056 23.8571C117.706 23.8571 119.044 22.5193 119.044 20.869C119.044 19.2187 117.706 17.8809 116.056 17.8809C114.405 17.8809 113.068 19.2187 113.068 20.869C113.068 22.5193 114.405 23.8571 116.056 23.8571Z" fill="#D3D1CF"/>
<path d="M124.067 23.8571C125.717 23.8571 127.055 22.5193 127.055 20.869C127.055 19.2187 125.717 17.8809 124.067 17.8809C122.416 17.8809 121.079 19.2187 121.079 20.869C121.079 22.5193 122.416 23.8571 124.067 23.8571Z" fill="#D3D1CF"/>
<path d="M132.078 23.8571C133.728 23.8571 135.066 22.5193 135.066 20.869C135.066 19.2187 133.728 17.8809 132.078 17.8809C130.428 17.8809 129.09 19.2187 129.09 20.869C129.09 22.5193 130.428 23.8571 132.078 23.8571Z" fill="#D3D1CF"/>
<path d="M59.9781 39.8793C61.6284 39.8793 62.9662 38.5415 62.9662 36.8912C62.9662 35.2409 61.6284 33.903 59.9781 33.903C58.3278 33.903 56.9899 35.2409 56.9899 36.8912C56.9899 38.5415 58.3278 39.8793 59.9781 39.8793Z" fill="#702E3E"/>
<path d="M67.9892 39.8793C69.6395 39.8793 70.9773 38.5415 70.9773 36.8912C70.9773 35.2409 69.6395 33.903 67.9892 33.903C66.3389 33.903 65.001 35.2409 65.001 36.8912C65.001 38.5415 66.3389 39.8793 67.9892 39.8793Z" fill="#702E3E"/>
<path d="M76.0003 39.8793C77.6506 39.8793 78.9884 38.5415 78.9884 36.8912C78.9884 35.2409 77.6506 33.903 76.0003 33.903C74.35 33.903 73.0121 35.2409 73.0121 36.8912C73.0121 38.5415 74.35 39.8793 76.0003 39.8793Z" fill="#702E3E"/>
<path d="M84.0113 39.8793C85.6616 39.8793 86.9995 38.5415 86.9995 36.8912C86.9995 35.2409 85.6616 33.903 84.0113 33.903C82.361 33.903 81.0232 35.2409 81.0232 36.8912C81.0232 38.5415 82.361 39.8793 84.0113 39.8793Z" fill="#702E3E"/>
<path d="M92.0224 39.8793C93.6727 39.8793 95.0106 38.5415 95.0106 36.8912C95.0106 35.2409 93.6727 33.903 92.0224 33.903C90.3721 33.903 89.0343 35.2409 89.0343 36.8912C89.0343 38.5415 90.3721 39.8793 92.0224 39.8793Z" fill="#702E3E"/>
<path d="M100.034 39.8793C101.684 39.8793 103.022 38.5415 103.022 36.8912C103.022 35.2409 101.684 33.903 100.034 33.903C98.3833 33.903 97.0454 35.2409 97.0454 36.8912C97.0454 38.5415 98.3833 39.8793 100.034 39.8793Z" fill="#702E3E"/>
<path d="M108.045 39.8793C109.695 39.8793 111.033 38.5415 111.033 36.8912C111.033 35.2409 109.695 33.903 108.045 33.903C106.394 33.903 105.056 35.2409 105.056 36.8912C105.056 38.5415 106.394 39.8793 108.045 39.8793Z" fill="#702E3E"/>
<path d="M116.056 39.8793C117.706 39.8793 119.044 38.5415 119.044 36.8912C119.044 35.2409 117.706 33.903 116.056 33.903C114.405 33.903 113.068 35.2409 113.068 36.8912C113.068 38.5415 114.405 39.8793 116.056 39.8793Z" fill="#D3D1CF"/>
<path d="M124.067 39.8793C125.717 39.8793 127.055 38.5415 127.055 36.8912C127.055 35.2409 125.717 33.903 124.067 33.903C122.416 33.903 121.079 35.2409 121.079 36.8912C121.079 38.5415 122.416 39.8793 124.067 39.8793Z" fill="#D3D1CF"/>
<path d="M132.078 39.8793C133.728 39.8793 135.066 38.5415 135.066 36.8912C135.066 35.2409 133.728 33.903 132.078 33.903C130.428 33.903 129.09 35.2409 129.09 36.8912C129.09 38.5415 130.428 39.8793 132.078 39.8793Z" fill="#D3D1CF"/>
<path d="M59.9781 55.9014C61.6284 55.9014 62.9662 54.5636 62.9662 52.9133C62.9662 51.263 61.6284 49.9252 59.9781 49.9252C58.3278 49.9252 56.9899 51.263 56.9899 52.9133C56.9899 54.5636 58.3278 55.9014 59.9781 55.9014Z" fill="#702E3E"/>
<path d="M67.9892 55.9014C69.6395 55.9014 70.9773 54.5636 70.9773 52.9133C70.9773 51.263 69.6395 49.9252 67.9892 49.9252C66.3389 49.9252 65.001 51.263 65.001 52.9133C65.001 54.5636 66.3389 55.9014 67.9892 55.9014Z" fill="#702E3E"/>
<path d="M76.0003 55.9014C77.6506 55.9014 78.9884 54.5636 78.9884 52.9133C78.9884 51.263 77.6506 49.9252 76.0003 49.9252C74.35 49.9252 73.0121 51.263 73.0121 52.9133C73.0121 54.5636 74.35 55.9014 76.0003 55.9014Z" fill="#702E3E"/>
<path d="M84.0113 55.9014C85.6616 55.9014 86.9995 54.5636 86.9995 52.9133C86.9995 51.263 85.6616 49.9252 84.0113 49.9252C82.361 49.9252 81.0232 51.263 81.0232 52.9133C81.0232 54.5636 82.361 55.9014 84.0113 55.9014Z" fill="#702E3E"/>
<path d="M92.0224 55.9014C93.6727 55.9014 95.0106 54.5636 95.0106 52.9133C95.0106 51.263 93.6727 49.9252 92.0224 49.9252C90.3721 49.9252 89.0343 51.263 89.0343 52.9133C89.0343 54.5636 90.3721 55.9014 92.0224 55.9014Z" fill="#702E3E"/>
<path d="M100.034 55.9014C101.684 55.9014 103.022 54.5636 103.022 52.9133C103.022 51.263 101.684 49.9252 100.034 49.9252C98.3833 49.9252 97.0454 51.263 97.0454 52.9133C97.0454 54.5636 98.3833 55.9014 100.034 55.9014Z" fill="#702E3E"/>
<path d="M108.045 55.9014C109.695 55.9014 111.033 54.5636 111.033 52.9133C111.033 51.263 109.695 49.9252 108.045 49.9252C106.394 49.9252 105.056 51.263 105.056 52.9133C105.056 54.5636 106.394 55.9014 108.045 55.9014Z" fill="#702E3E"/>
<path d="M116.056 55.9014C117.706 55.9014 119.044 54.5636 119.044 52.9133C119.044 51.263 117.706 49.9252 116.056 49.9252C114.405 49.9252 113.068 51.263 113.068 52.9133C113.068 54.5636 114.405 55.9014 116.056 55.9014Z" fill="#702E3E"/>
<path d="M124.067 55.9014C125.717 55.9014 127.055 54.5636 127.055 52.9133C127.055 51.263 125.717 49.9252 124.067 49.9252C122.416 49.9252 121.079 51.263 121.079 52.9133C121.079 54.5636 122.416 55.9014 124.067 55.9014Z" fill="#D3D1CF"/>
<path d="M132.078 55.9014C133.728 55.9014 135.066 54.5636 135.066 52.9133C135.066 51.263 133.728 49.9252 132.078 49.9252C130.428 49.9252 129.09 51.263 129.09 52.9133C129.09 54.5636 130.428 55.9014 132.078 55.9014Z" fill="#D3D1CF"/>
<path d="M2.38633 0.400635H4.08468L6.23967 7.41834H4.98192L4.3891 5.47966H2.08191L1.49711 7.41834H0.231354L2.39434 0.400635H2.38633ZM3.23551 1.64235L2.37832 4.48629H4.09269L3.23551 1.64235Z" fill="black"/>
<path d="M8.50683 7.41835H7.21704V1.92275H7.82588L8.33859 2.77993C8.7792 2.15507 9.40406 1.8186 10.2132 1.78656V2.89209C9.46014 2.90812 8.89135 3.14043 8.51483 3.58104V7.41835H8.50683Z" fill="black"/>
<path d="M15.5726 4.67055C15.5726 6.59321 14.7394 7.55455 13.0731 7.55455C11.4068 7.55455 10.5737 6.59321 10.5737 4.67055C10.5737 2.74789 11.4068 1.78656 13.0731 1.78656C14.7394 1.78656 15.5726 2.74789 15.5726 4.67055ZM12.1118 6.0805C12.28 6.40095 12.6005 6.56117 13.0731 6.56117C13.5458 6.56117 13.8662 6.40095 14.0345 6.0805C14.2027 5.76006 14.2828 5.2874 14.2828 4.67055C14.2828 4.0537 14.2027 3.58105 14.0345 3.2606C13.8662 2.94016 13.5458 2.77993 13.0731 2.77993C12.6005 2.77993 12.28 2.94016 12.1118 3.2606C11.9436 3.58105 11.8635 4.0537 11.8635 4.67055C11.8635 5.2874 11.9436 5.76006 12.1118 6.0805Z" fill="black"/>
<path d="M19.49 1.78656C20.2591 1.78656 20.7958 2.01087 21.1083 2.45148C21.661 2.01087 22.2458 1.78656 22.8707 1.78656C23.4956 1.78656 23.9602 1.93877 24.2566 2.2512C24.561 2.56364 24.7052 2.98822 24.7052 3.53298V7.41835H23.4155V3.74928C23.4155 3.41281 23.3514 3.17248 23.2312 3.01226C23.111 2.85203 22.8947 2.77993 22.5903 2.77993C22.1577 2.77993 21.7572 2.93215 21.3887 3.22856C21.4047 3.35674 21.4047 3.46088 21.4047 3.53298V7.41835H20.1149V3.74928C20.1149 3.41281 20.0508 3.17248 19.9226 3.01226C19.7945 2.85203 19.5461 2.77993 19.1856 2.77993C18.8251 2.77993 18.4646 2.90811 18.1041 3.16447V7.42637H16.8143V1.93076H17.4953L17.8317 2.37938C18.3525 1.98684 18.8972 1.79457 19.474 1.79457L19.49 1.78656Z" fill="black"/>
<path d="M28.3503 1.78656C29.7442 1.78656 30.4492 2.42745 30.4492 3.70121V7.41835H29.6161L29.2476 6.74542C28.7349 7.28217 28.134 7.55455 27.4531 7.55455C26.9644 7.55455 26.5959 7.41836 26.3395 7.14598C26.0832 6.8736 25.963 6.50509 25.963 6.04846C25.963 5.59183 26.1072 5.22332 26.3956 4.93492C26.684 4.65453 27.2208 4.45425 28.0138 4.3421L29.1674 4.16585V3.70121C29.1674 3.07634 28.871 2.77193 28.2862 2.77193C27.7254 2.77193 27.397 3.05231 27.2929 3.6211L26.2915 3.32469C26.5318 2.29927 27.2208 1.78656 28.3583 1.78656H28.3503ZM27.8616 6.60924C28.2942 6.60924 28.7268 6.39294 29.1594 5.96835V4.97498L28.2382 5.13519C27.8216 5.20729 27.5492 5.31945 27.413 5.47166C27.2768 5.62387 27.2127 5.80011 27.2127 5.99238C27.2127 6.18465 27.2688 6.33686 27.389 6.441C27.5011 6.55315 27.6614 6.60123 27.8697 6.60123L27.8616 6.60924Z" fill="black"/>
<path d="M2.38636 16.4229H4.08472L6.2397 23.4406H4.98195L4.38913 21.5019H2.08194L1.49714 23.4406H0.231384L2.39438 16.4229H2.38636ZM3.23554 17.6646L2.37835 20.5085H4.09272L3.23554 17.6646Z" fill="black"/>
<path d="M8.19441 19.2588C8.03419 19.5632 7.94607 20.0439 7.94607 20.6927C7.94607 21.3416 8.02618 21.8143 8.19441 22.1267C8.35464 22.4312 8.64304 22.5914 9.05161 22.5914C9.46017 22.5914 9.74857 22.5113 9.92481 22.343C10.1011 22.1748 10.1972 21.9104 10.2052 21.558L11.2146 21.606C11.1745 22.2629 10.9823 22.7516 10.6458 23.0881C10.3013 23.4245 9.74056 23.5848 8.95548 23.5848C8.04221 23.5848 7.41734 23.2883 7.08087 22.6875C6.92065 22.3991 6.80851 22.0947 6.75243 21.7823C6.68834 21.4698 6.66431 21.1013 6.66431 20.6927C6.66431 20.2842 6.69635 19.9157 6.75243 19.5952C6.81652 19.2748 6.92065 18.9784 7.08087 18.698C7.40933 18.1052 8.0342 17.8168 8.95548 17.8168C9.73255 17.8168 10.2853 17.977 10.6298 18.2894C10.9663 18.6099 11.1585 19.0825 11.2066 19.7074L10.2052 19.8436C10.1892 19.4831 10.1011 19.2187 9.92481 19.0585C9.74857 18.8903 9.46017 18.8101 9.05161 18.8101C8.64304 18.8101 8.36265 18.9624 8.19441 19.2748V19.2588Z" fill="black"/>
<path d="M13.0171 17.288C12.5364 17.288 12.2961 17.0396 12.2961 16.5429C12.2961 16.0463 12.5364 15.7979 13.0171 15.7979C13.4977 15.7979 13.7541 16.0463 13.7541 16.5429C13.7541 17.0396 13.5058 17.288 13.0171 17.288ZM12.3762 17.9449H13.666V23.4405H12.3762V17.9449Z" fill="black"/>
<path d="M16.7663 23.5767C15.5326 23.5767 14.9077 22.6154 14.9077 20.6927C14.9077 18.7701 15.6608 17.8087 17.1588 17.8087C17.5834 17.8087 18 17.8889 18.4086 18.0411V16.2145L19.6983 16.1184V23.4405H18.8652L18.5127 22.7596C17.984 23.3044 17.3992 23.5767 16.7743 23.5767H16.7663ZM17.279 22.5834C17.6796 22.5834 18.0561 22.3751 18.4166 21.9665V18.9864C18.1041 18.8582 17.7917 18.7941 17.4953 18.7941C17.0306 18.7941 16.7022 18.9543 16.5019 19.2748C16.3016 19.5952 16.2055 20.0679 16.2055 20.6847C16.2055 21.9505 16.566 22.5753 17.279 22.5753V22.5834Z" fill="black"/>
<path d="M23.4075 23.5767C22.5262 23.5767 21.8934 23.3364 21.5168 22.8637C21.1403 22.383 20.9481 21.662 20.9481 20.6927C20.9481 18.77 21.7572 17.8087 23.3674 17.8087C24.2967 17.8087 24.9296 18.0971 25.274 18.6739C25.5705 19.1706 25.7147 19.8115 25.7147 20.5966V20.9411H22.1978C22.1978 21.5419 22.3019 21.9665 22.4942 22.2148C22.6865 22.4632 23.0069 22.5833 23.4475 22.5833C24.1605 22.5833 24.537 22.327 24.5851 21.8143L25.6426 21.8543C25.5384 22.9999 24.7934 23.5767 23.4155 23.5767H23.4075ZM24.1445 19.1145C23.9843 18.9062 23.7199 18.8021 23.3594 18.8021C22.9989 18.8021 22.7265 18.9062 22.5583 19.1065C22.3901 19.3068 22.2779 19.6272 22.2298 20.0759H24.4489C24.4088 19.6433 24.3127 19.3308 24.1525 19.1225L24.1445 19.1145Z" fill="black"/>
<path d="M26.4277 18.8422V17.937H30.5053V18.722L27.8697 22.5273H30.5934V23.4326H26.3315V22.6475L28.9832 18.8422H26.4277Z" fill="black"/>
<path d="M3.53196 33.3663C2.93113 33.3663 2.52256 33.5665 2.31427 33.9591C2.10598 34.3516 1.99383 35.0165 1.99383 35.9458C1.99383 36.8751 2.09797 37.54 2.31427 37.9406C2.52256 38.3411 2.93113 38.5334 3.53196 38.5334C3.9966 38.5334 4.33307 38.4052 4.52534 38.1489C4.7176 37.8925 4.82175 37.524 4.83777 37.0353L5.89523 37.0834C5.84716 37.9085 5.64689 38.5334 5.30241 38.958C4.95794 39.3826 4.36511 39.5909 3.53196 39.5909C2.43444 39.5909 1.68139 39.2704 1.26482 38.6295C1.05653 38.3091 0.904321 37.9326 0.816199 37.508C0.728077 37.0834 0.688019 36.5627 0.688019 35.9458C0.688019 35.329 0.728077 34.8083 0.816199 34.3837C0.904321 33.9591 1.04852 33.5826 1.26482 33.2621C1.68139 32.6212 2.43444 32.3008 3.53196 32.3008C4.31704 32.3008 4.88583 32.477 5.2303 32.8295C5.57478 33.182 5.79109 33.7027 5.86319 34.3837L4.80572 34.5439C4.76566 34.1594 4.64549 33.863 4.45323 33.6627C4.26096 33.4624 3.94853 33.3583 3.53196 33.3583V33.3663Z" fill="black"/>
<path d="M8.66706 39.5989C7.53749 39.5989 6.97672 39.0141 6.97672 37.8525V33.9671H8.2665V37.6362C8.2665 37.9727 8.33059 38.213 8.46678 38.3732C8.59496 38.5334 8.81926 38.6055 9.12368 38.6055C9.55628 38.6055 9.97286 38.3972 10.3654 37.9887V33.9591H11.6552V39.4547H10.822L10.4535 38.7898C9.95684 39.3185 9.36402 39.5909 8.67506 39.5909L8.66706 39.5989Z" fill="black"/>
<path d="M15.3563 39.5989C14.4751 39.5989 13.8422 39.3586 13.4657 38.8859C13.0892 38.4053 12.8969 37.6843 12.8969 36.7149C12.8969 34.7923 13.706 33.8309 15.3163 33.8309C16.2455 33.8309 16.8784 34.1193 17.2229 34.6961C17.5193 35.1928 17.6635 35.8337 17.6635 36.6188V36.9633H14.1466C14.1466 37.5641 14.2508 37.9887 14.443 38.237C14.6353 38.4854 14.9558 38.6055 15.3964 38.6055C16.1094 38.6055 16.4859 38.3492 16.5339 37.8365L17.5914 37.8765C17.4873 39.0221 16.7422 39.5989 15.3643 39.5989H15.3563ZM16.0933 35.1367C15.9331 34.9285 15.6687 34.8243 15.3082 34.8243C14.9477 34.8243 14.6754 34.9284 14.5071 35.1287C14.3389 35.329 14.2267 35.6495 14.1787 36.0981H16.3978C16.3577 35.6655 16.2616 35.353 16.1013 35.1448L16.0933 35.1367Z" fill="black"/>
<path d="M20.155 39.4627H18.8652V33.9671H19.474L19.9867 34.8243C20.4273 34.1994 21.0522 33.863 21.8613 33.8309V34.9365C21.1083 34.9525 20.5395 35.1848 20.163 35.6254V39.4627H20.155Z" fill="black"/>
<path d="M25.3542 33.8309C26.8282 33.8309 27.5652 34.7923 27.5652 36.7149C27.5652 38.6376 26.8122 39.5989 25.3141 39.5989C24.9296 39.5989 24.513 39.5348 24.0644 39.4067V41.4335L22.7746 41.6097V33.9671H23.3914L23.7279 34.3837C24.2727 34.0152 24.8174 33.8389 25.3542 33.8389V33.8309ZM25.0017 34.8243C24.6732 34.8243 24.3608 34.9124 24.0724 35.0967V38.4774C24.3768 38.5655 24.6812 38.6136 24.9937 38.6136C25.4583 38.6136 25.7868 38.4533 25.987 38.1249C26.1873 37.7964 26.2834 37.3318 26.2834 36.7149C26.2834 35.4492 25.8589 34.8243 25.0017 34.8243Z" fill="black"/>
<path d="M33.2531 36.7149C33.2531 38.6376 32.4199 39.5989 30.7536 39.5989C29.0873 39.5989 28.2542 38.6376 28.2542 36.7149C28.2542 34.7923 29.0873 33.8309 30.7536 33.8309C32.4199 33.8309 33.2531 34.7923 33.2531 36.7149ZM29.7923 38.1249C29.9605 38.4453 30.281 38.6055 30.7536 38.6055C31.2263 38.6055 31.5467 38.4453 31.7149 38.1249C31.8832 37.8044 31.9633 37.3318 31.9633 36.7149C31.9633 36.0981 31.8832 35.6254 31.7149 35.305C31.5467 34.9845 31.2263 34.8243 30.7536 34.8243C30.281 34.8243 29.9605 34.9845 29.7923 35.305C29.624 35.6254 29.5439 36.0981 29.5439 36.7149C29.5439 37.3318 29.624 37.8044 29.7923 38.1249Z" fill="black"/>
<path d="M1.04852 48.4672H2.35433V55.4849H1.04852V48.4672Z" fill="black"/>
<path d="M5.18221 50.486C5.78304 50.0614 6.39989 49.8531 7.03277 49.8531C7.66564 49.8531 8.12228 50.0053 8.40267 50.3177C8.68305 50.6302 8.82725 51.0548 8.82725 51.5995V55.4849H7.53747V51.7357C7.53747 51.4072 7.48139 51.1749 7.36122 51.0467C7.24106 50.9106 7.03276 50.8465 6.74437 50.8465C6.27972 50.8465 5.85513 50.9907 5.45458 51.2791V55.4929H4.16479V49.9973H4.77365L5.19021 50.494L5.18221 50.486Z" fill="black"/>
<path d="M9.72452 50.8224V49.9893H10.6057V48.9879L11.8955 48.6594V49.9893H12.945V50.8224H11.8955V53.9307C11.8955 54.2031 11.9356 54.4034 12.0157 54.5155C12.0958 54.6277 12.216 54.6918 12.3682 54.6918C12.5204 54.6918 12.6966 54.6677 12.8809 54.6117L13.0411 55.4128C12.6646 55.557 12.3281 55.6211 12.0237 55.6211C11.7193 55.6211 11.487 55.589 11.3107 55.5169C11.1345 55.4448 10.9983 55.3647 10.9102 55.2686C10.822 55.1724 10.7499 55.0523 10.7099 54.8921C10.6378 54.6678 10.6057 54.3874 10.6057 54.0589V50.8304H9.72452V50.8224Z" fill="black"/>
<path d="M15.9011 55.6211C15.0198 55.6211 14.387 55.3807 14.0104 54.9081C13.6339 54.4274 13.4417 53.7064 13.4417 52.7371C13.4417 50.8144 14.2508 49.8531 15.861 49.8531C16.7903 49.8531 17.4232 50.1415 17.7676 50.7183C18.0641 51.215 18.2082 51.8559 18.2082 52.6409V52.9854H14.6914C14.6914 53.5863 14.7955 54.0108 14.9878 54.2592C15.1801 54.5075 15.5005 54.6277 15.9411 54.6277C16.6541 54.6277 17.0306 54.3713 17.0787 53.8586L18.1361 53.8987C18.032 55.0443 17.287 55.6211 15.9091 55.6211H15.9011ZM16.6381 51.1589C16.4779 50.9506 16.2135 50.8465 15.853 50.8465C15.4925 50.8465 15.2201 50.9506 15.0519 51.1509C14.8837 51.3512 14.7715 51.6716 14.7234 52.1202H16.9425C16.9024 51.6876 16.8063 51.3752 16.6461 51.1669L16.6381 51.1589Z" fill="black"/>
<path d="M20.4273 50.486C21.0282 50.0614 21.645 49.8531 22.2779 49.8531C22.9108 49.8531 23.3674 50.0053 23.6478 50.3177C23.9282 50.6302 24.0724 51.0548 24.0724 51.5995V55.4849H22.7826V51.7357C22.7826 51.4072 22.7265 51.1749 22.6063 51.0467C22.4862 50.9106 22.2779 50.8465 21.9895 50.8465C21.5248 50.8465 21.1003 50.9907 20.6997 51.2791V55.4929H19.4099V49.9973H20.0188L20.4353 50.494L20.4273 50.486Z" fill="black"/>
<path d="M29.7202 53.9467C29.7202 55.0442 28.9511 55.589 27.413 55.589C26.74 55.589 26.2433 55.4448 25.9149 55.1484C25.5864 54.852 25.3862 54.4354 25.298 53.8746L26.2994 53.7224C26.3715 54.3392 26.7561 54.6437 27.445 54.6437C28.134 54.6437 28.4864 54.4274 28.4864 53.9868C28.4864 53.8105 28.4143 53.6743 28.2782 53.5862C28.142 53.4981 27.8616 53.4019 27.445 53.3058L27.0044 53.2017C26.4356 53.0655 26.027 52.8732 25.7787 52.6089C25.5304 52.3525 25.4102 51.976 25.4102 51.4793C25.4102 50.3898 26.1552 49.845 27.6373 49.845C28.2782 49.845 28.7588 49.9892 29.0713 50.2856C29.3917 50.574 29.584 50.9986 29.6641 51.5594L28.6627 51.7036C28.5906 51.0948 28.2381 50.7903 27.5972 50.7903C26.9563 50.7903 26.6439 51.0066 26.6439 51.4472C26.6439 51.6235 26.708 51.7597 26.8282 51.8558C26.9563 51.9519 27.2047 52.0401 27.5892 52.1282L28.0859 52.2564C28.6547 52.4006 29.0713 52.5928 29.3196 52.8492C29.576 53.1055 29.6961 53.466 29.6961 53.9467H29.7202Z" fill="black"/>
<path d="M31.6749 49.3323C31.1942 49.3323 30.9539 49.084 30.9539 48.5873C30.9539 48.0906 31.1942 47.8423 31.6749 47.8423C32.1555 47.8423 32.4119 48.0906 32.4119 48.5873C32.4119 49.084 32.1635 49.3323 31.6749 49.3323ZM31.034 49.9893H32.3238V55.4849H31.034V49.9893Z" fill="black"/>
<path d="M35.4241 55.621C34.1903 55.621 33.5655 54.6597 33.5655 52.7371C33.5655 50.8144 34.3185 49.8531 35.8166 49.8531C36.2412 49.8531 36.6578 49.9332 37.0663 50.0854V48.2588L38.3561 48.1627V55.4849H37.523L37.1705 54.8039C36.6417 55.3487 36.0569 55.621 35.4321 55.621H35.4241ZM35.9368 54.6277C36.3373 54.6277 36.7138 54.4194 37.0743 54.0108V51.0307C36.7619 50.9025 36.4495 50.8384 36.1531 50.8384C35.6884 50.8384 35.36 50.9986 35.1597 51.3191C34.9594 51.6395 34.8633 52.1122 34.8633 52.729C34.8633 53.9948 35.2238 54.6197 35.9368 54.6197V54.6277Z" fill="black"/>
<path d="M42.0973 49.8531C43.4913 49.8531 44.1962 50.494 44.1962 51.7677V55.4849H43.3631L42.9946 54.812C42.4819 55.3487 41.881 55.6211 41.2001 55.6211C40.7114 55.6211 40.3429 55.4849 40.0865 55.2125C39.8302 54.9401 39.71 54.5716 39.71 54.115C39.71 53.6584 39.8542 53.2899 40.1426 53.0015C40.431 52.7211 40.9678 52.5208 41.7609 52.4086L42.9145 52.2324V51.7677C42.9145 51.1429 42.618 50.8384 42.0332 50.8384C41.4725 50.8384 41.144 51.1188 41.0399 51.6876L40.0385 51.3912C40.2788 50.3658 40.9678 49.8531 42.1053 49.8531H42.0973ZM41.6086 54.6758C42.0412 54.6758 42.4738 54.4595 42.9064 54.0349V53.0415L41.9852 53.2017C41.5686 53.2738 41.2962 53.386 41.16 53.5382C41.0238 53.6904 40.9597 53.8666 40.9597 54.0589C40.9597 54.2512 41.0158 54.4034 41.136 54.5075C41.2481 54.6197 41.4084 54.6677 41.6167 54.6677L41.6086 54.6758Z" fill="black"/>
<path d="M47.2004 55.621C45.9667 55.621 45.3418 54.6597 45.3418 52.7371C45.3418 50.8144 46.0948 49.8531 47.5929 49.8531C48.0175 49.8531 48.4341 49.9332 48.8426 50.0854V48.2588L50.1324 48.1627V55.4849H49.2993L48.9468 54.8039C48.4181 55.3487 47.8332 55.621 47.2084 55.621H47.2004ZM47.7131 54.6277C48.1136 54.6277 48.4901 54.4194 48.8506 54.0108V51.0307C48.5382 50.9025 48.2258 50.8384 47.9294 50.8384C47.4647 50.8384 47.1363 50.9986 46.936 51.3191C46.7357 51.6395 46.6396 52.1122 46.6396 52.729C46.6396 53.9948 47.0001 54.6197 47.7131 54.6197V54.6277Z" fill="black"/>
<path d="M5.83916 64.4894H7.66569L7.84994 71.5071H6.56015L6.45601 66.1076L4.88584 70.6739H3.74827L2.33831 66.2598L2.24218 71.5071H0.952393L1.12864 64.4894H2.96317L4.34108 68.9195L5.83916 64.4894Z" fill="black"/>
<path d="M11.4629 71.6432C10.5817 71.6432 9.94884 71.4029 9.57232 70.9302C9.1958 70.4496 9.00354 69.7286 9.00354 68.7592C9.00354 66.8366 9.81266 65.8752 11.4229 65.8752C12.3522 65.8752 12.985 66.1636 13.3295 66.7404C13.6259 67.2371 13.7701 67.878 13.7701 68.6631V69.0076H10.2533C10.2533 69.6084 10.3574 70.033 10.5497 70.2813C10.7419 70.5297 11.0624 70.6499 11.503 70.6499C12.216 70.6499 12.5925 70.3935 12.6406 69.8808L13.698 69.9208C13.5939 71.0664 12.8489 71.6432 11.471 71.6432H11.4629ZM12.2 67.1811C12.0397 66.9728 11.7754 66.8686 11.4149 66.8686C11.0544 66.8686 10.782 66.9728 10.6138 67.173C10.4455 67.3733 10.3334 67.6938 10.2853 68.1424H12.5044C12.4643 67.7098 12.3682 67.3974 12.208 67.1891L12.2 67.1811Z" fill="black"/>
<path d="M14.4831 66.9087V66.0035H18.5607V66.7886L15.9251 70.5938H18.6489V71.4991H14.387V70.714L17.0386 66.9087H14.4831Z" fill="black"/>
<path d="M20.8359 67.3253C20.6757 67.6297 20.5876 68.1104 20.5876 68.7593C20.5876 69.4082 20.6677 69.8808 20.8359 70.1933C20.9961 70.4977 21.2845 70.6579 21.6931 70.6579C22.1017 70.6579 22.39 70.5778 22.5663 70.4096C22.7425 70.2413 22.8387 69.977 22.8467 69.6245L23.8561 69.6726C23.816 70.3295 23.6238 70.8181 23.2873 71.1546C22.9428 71.4911 22.382 71.6513 21.597 71.6513C20.6837 71.6513 20.0588 71.3549 19.7224 70.754C19.5621 70.4656 19.45 70.1612 19.3939 69.8488C19.3298 69.5364 19.3058 69.1679 19.3058 68.7593C19.3058 68.3507 19.3378 67.9822 19.3939 67.6618C19.458 67.3413 19.5621 67.0449 19.7224 66.7645C20.0508 66.1717 20.6757 65.8833 21.597 65.8833C22.374 65.8833 22.9268 66.0435 23.2713 66.356C23.6077 66.6764 23.8 67.1491 23.8481 67.7739L22.8467 67.9101C22.8307 67.5496 22.7425 67.2852 22.5663 67.125C22.39 66.9568 22.1017 66.8767 21.6931 66.8767C21.2845 66.8767 21.0041 67.0289 20.8359 67.3413V67.3253Z" fill="black"/>
<path d="M26.3075 71.5071H25.0177V64.2811L26.3075 64.1049V71.5071Z" fill="black"/>
<path d="M30.0406 65.8752C31.4346 65.8752 32.1395 66.5161 32.1395 67.7899V71.507H31.3064L30.9379 70.8341C30.4252 71.3709 29.8243 71.6432 29.1434 71.6432C28.6547 71.6432 28.2862 71.507 28.0298 71.2347C27.7735 70.9623 27.6533 70.5938 27.6533 70.1371C27.6533 69.6805 27.7975 69.312 28.0859 69.0236C28.3743 68.7432 28.9111 68.5429 29.7042 68.4308L30.8578 68.2545V67.7899C30.8578 67.165 30.5613 66.8606 29.9765 66.8606C29.4158 66.8606 29.0873 67.141 28.9832 67.7098L27.9818 67.4134C28.2221 66.388 28.9111 65.8752 30.0486 65.8752H30.0406ZM29.5519 70.6979C29.9845 70.6979 30.4171 70.4816 30.8497 70.057V69.0637L29.9285 69.2239C29.5119 69.296 29.2395 69.4081 29.1033 69.5603C28.9671 69.7126 28.903 69.8888 28.903 70.0811C28.903 70.2733 28.9591 70.4255 29.0793 70.5297C29.1914 70.6418 29.3517 70.6899 29.56 70.6899L29.5519 70.6979Z" fill="black"/>
<path d="M5.86317 86.592C5.65488 86.9364 5.35847 87.2008 4.97394 87.3851C4.5894 87.5693 4.14078 87.6574 3.62807 87.6574C3.11536 87.6574 2.69077 87.5934 2.35431 87.4732C2.01784 87.345 1.73745 87.1848 1.52917 86.9765C1.32088 86.7682 1.14463 86.5038 1.01646 86.1834C0.792146 85.6226 0.679993 84.9016 0.679993 84.0204C0.679993 83.4756 0.720051 82.995 0.808173 82.5864C0.888284 82.1779 1.03248 81.8013 1.24077 81.4488C1.64933 80.7279 2.4184 80.3754 3.54796 80.3754C4.82974 80.3754 5.67891 80.8721 6.08748 81.8654C6.31179 82.4262 6.42394 83.1392 6.42394 84.0204C6.42394 84.5732 6.38388 85.0538 6.29576 85.4624C6.21565 85.871 6.07146 86.2475 5.86317 86.6V86.592ZM3.54796 86.6C4.13277 86.6 4.54133 86.3757 4.76564 85.919C4.99796 85.4624 5.11012 84.8295 5.11012 84.0124C5.11012 83.1953 4.99796 82.5624 4.76564 82.1058C4.53332 81.6491 4.12476 81.4248 3.54796 81.4248C2.93111 81.4248 2.51453 81.6732 2.29022 82.1779C2.08994 82.6345 1.99381 83.2433 1.99381 84.0124C1.99381 85.2942 2.25017 86.0953 2.77089 86.4077C2.97918 86.5359 3.24354 86.6 3.54796 86.6Z" fill="black"/>
<path d="M9.15575 87.5292H7.86597V82.0336H8.4748L8.98751 82.8908C9.42812 82.2659 10.053 81.9294 10.8621 81.8974V83.0029C10.1091 83.019 9.54028 83.2513 9.16376 83.6919V87.5292H9.15575Z" fill="black"/>
<path d="M11.8234 81.569L11.3908 80.88L13.2654 79.5983L13.8422 80.5195L11.8234 81.569ZM11.7753 82.0336H13.0651V87.5292H11.7753V82.0336Z" fill="black"/>
<path d="M18.5046 85.254C18.3524 85.4623 18.1281 85.6226 17.8237 85.7427C17.5193 85.8629 17.1668 85.919 16.7582 85.919C16.3497 85.919 16.0132 85.8709 15.7408 85.7748L15.4684 86.0632C15.3563 86.1753 15.3082 86.2795 15.3082 86.3836C15.3082 86.5358 15.4124 86.6159 15.6287 86.6159H17.6795C18.1842 86.6159 18.5847 86.7521 18.8731 87.0325C19.1615 87.3129 19.3138 87.6333 19.3138 88.0018C19.3138 88.3704 19.2337 88.6668 19.0814 88.8831C18.9292 89.0994 18.7049 89.2596 18.4165 89.3637C17.9278 89.54 17.303 89.6201 16.5499 89.6201C15.7969 89.6201 15.2041 89.532 14.7955 89.3477C14.3869 89.1635 14.1786 88.851 14.1786 88.4104C14.1786 88.2021 14.2427 88.0099 14.3629 87.8416C14.4831 87.6734 14.6353 87.5452 14.8115 87.4491C14.419 87.3289 14.2267 87.0405 14.2267 86.5919C14.2267 86.2955 14.3389 86.0231 14.5712 85.7748L15.0118 85.3101C14.7074 84.9656 14.5632 84.493 14.5632 83.9082C14.5632 83.3875 14.7074 82.9388 14.9878 82.5623C15.3082 82.1217 15.893 81.8974 16.7342 81.8974C17.1027 81.8974 17.4151 81.9455 17.6875 82.0336H19.2897V82.7946H18.6569C18.8331 83.1071 18.9132 83.4355 18.9132 83.78C18.9132 84.1245 18.8812 84.4049 18.8171 84.6212C18.753 84.8375 18.6488 85.0538 18.4966 85.254H18.5046ZM15.3563 88.122C15.3563 88.3463 15.4604 88.4985 15.6687 88.5626C15.877 88.6267 16.2215 88.6588 16.7021 88.6588C17.1828 88.6588 17.5273 88.6187 17.7276 88.5466C17.9278 88.4745 18.032 88.3143 18.032 88.074C18.032 87.7135 17.7836 87.5372 17.2789 87.5372H15.6367C15.4524 87.7054 15.3563 87.8977 15.3563 88.13V88.122ZM16.7422 82.7546C16.1093 82.7546 15.7969 83.1391 15.7969 83.9082C15.7969 84.6772 16.1093 85.0618 16.7422 85.0618C17.3751 85.0618 17.6875 84.6772 17.6875 83.9082C17.6875 83.1391 17.3751 82.7546 16.7422 82.7546Z" fill="black"/>
<path d="M22.334 87.6654C21.4528 87.6654 20.8199 87.425 20.4434 86.9524C20.0668 86.4717 19.8746 85.7507 19.8746 84.7814C19.8746 82.8587 20.6837 81.8974 22.2939 81.8974C23.2232 81.8974 23.8561 82.1858 24.2006 82.7626C24.497 83.2593 24.6412 83.9002 24.6412 84.6853V85.0297H21.1243C21.1243 85.6306 21.2285 86.0552 21.4207 86.3035C21.613 86.5518 21.9334 86.672 22.374 86.672C23.087 86.672 23.4635 86.4157 23.5116 85.9029L24.5691 85.943C24.4649 87.0886 23.7199 87.6654 22.342 87.6654H22.334ZM23.071 83.2032C22.9108 82.9949 22.6464 82.8908 22.2859 82.8908C21.9254 82.8908 21.653 82.9949 21.4848 83.1952C21.3166 83.3955 21.2044 83.7159 21.1564 84.1645H23.3754C23.3354 83.7319 23.2392 83.4195 23.079 83.2112L23.071 83.2032Z" fill="black"/>
<path d="M26.8602 82.5303C27.4611 82.1057 28.0779 81.8974 28.7108 81.8974C29.3437 81.8974 29.8003 82.0496 30.0807 82.362C30.3611 82.6745 30.5053 83.0991 30.5053 83.6438V87.5292H29.2155V83.78C29.2155 83.4516 29.1594 83.2192 29.0393 83.0911C28.9191 82.9549 28.7108 82.8908 28.4224 82.8908C27.9578 82.8908 27.5332 83.035 27.1326 83.3234V87.5372H25.8428V82.0416H26.4517L26.8683 82.5383L26.8602 82.5303Z" fill="black"/>
<path d="M34.1183 87.6654C33.2371 87.6654 32.6042 87.425 32.2277 86.9524C31.8511 86.4717 31.6589 85.7507 31.6589 84.7814C31.6589 82.8587 32.468 81.8974 34.0782 81.8974C35.0075 81.8974 35.6404 82.1858 35.9849 82.7626C36.2813 83.2593 36.4255 83.9002 36.4255 84.6853V85.0297H32.9086C32.9086 85.6306 33.0127 86.0552 33.205 86.3035C33.3973 86.5518 33.7177 86.672 34.1583 86.672C34.8713 86.672 35.2478 86.4157 35.2959 85.9029L36.3534 85.943C36.2492 87.0886 35.5042 87.6654 34.1263 87.6654H34.1183ZM34.8553 83.2032C34.6951 82.9949 34.4307 82.8908 34.0702 82.8908C33.7097 82.8908 33.4373 82.9949 33.2691 83.1952C33.1009 83.3955 32.9887 83.7159 32.9407 84.1645H35.1597C35.1197 83.7319 35.0235 83.4195 34.8633 83.2112L34.8553 83.2032Z" fill="black"/>
<path d="M41.5606 85.9911C41.5606 87.0886 40.7915 87.6334 39.2534 87.6334C38.5805 87.6334 38.0838 87.4892 37.7553 87.1927C37.4269 86.8963 37.2266 86.4798 37.1385 85.919L38.1399 85.7668C38.212 86.3836 38.5965 86.688 39.2855 86.688C39.9744 86.688 40.3269 86.4717 40.3269 86.0311C40.3269 85.8549 40.2548 85.7187 40.1186 85.6306C39.9824 85.5425 39.702 85.4463 39.2855 85.3502L38.8449 85.2461C38.2761 85.1099 37.8675 84.9176 37.6192 84.6532C37.3708 84.3969 37.2506 84.0203 37.2506 83.5237C37.2506 82.4342 37.9957 81.8894 39.4777 81.8894C40.1186 81.8894 40.5993 82.0336 40.9117 82.33C41.2322 82.6184 41.4244 83.043 41.5045 83.6038L40.5031 83.748C40.431 83.1391 40.0786 82.8347 39.4377 82.8347C38.7968 82.8347 38.4844 83.051 38.4844 83.4916C38.4844 83.6679 38.5484 83.804 38.6686 83.9002C38.7968 83.9963 39.0451 84.0844 39.4297 84.1726L39.9263 84.3007C40.4951 84.4449 40.9117 84.6372 41.1601 84.8936C41.4164 85.1499 41.5366 85.5104 41.5366 85.9911H41.5606Z" fill="black"/>
<path d="M5.2143 96.5337H6.5201V103.551H5.13418L2.35433 98.7848V103.551H1.04852V96.5337H2.43445L5.2143 101.308V96.5337Z" fill="black"/>
<path d="M12.7687 100.804C12.7687 102.726 11.9356 103.688 10.2693 103.688C8.60297 103.688 7.76981 102.726 7.76981 100.804C7.76981 98.881 8.60297 97.9196 10.2693 97.9196C11.9356 97.9196 12.7687 98.881 12.7687 100.804ZM9.30795 102.214C9.47618 102.534 9.79662 102.694 10.2693 102.694C10.7419 102.694 11.0624 102.534 11.2306 102.214C11.3988 101.893 11.4789 101.42 11.4789 100.804C11.4789 100.187 11.3988 99.7141 11.2306 99.3937C11.0624 99.0732 10.7419 98.913 10.2693 98.913C9.79662 98.913 9.47618 99.0732 9.30795 99.3937C9.13971 99.7141 9.05959 100.187 9.05959 100.804C9.05959 101.42 9.13971 101.893 9.30795 102.214Z" fill="black"/>
<path d="M13.2013 98.889V98.0558H14.0825V97.0544L15.3723 96.726V98.0558H16.4218V98.889H15.3723V101.997C15.3723 102.27 15.4124 102.47 15.4925 102.582C15.5726 102.694 15.6928 102.758 15.845 102.758C15.9972 102.758 16.1734 102.734 16.3577 102.678L16.5179 103.479C16.1414 103.624 15.8049 103.688 15.5005 103.688C15.1961 103.688 14.9638 103.656 14.7875 103.583C14.6113 103.511 14.4751 103.431 14.387 103.335C14.2989 103.239 14.2268 103.119 14.1867 102.959C14.1146 102.734 14.0825 102.454 14.0825 102.125V98.897H13.2013V98.889Z" fill="black"/>
<path d="M19.4099 97.9196C20.8038 97.9196 21.5088 98.5605 21.5088 99.8343V103.551H20.6756L20.3071 102.878C19.7944 103.415 19.1936 103.688 18.5126 103.688C18.024 103.688 17.6555 103.551 17.3991 103.279C17.1428 103.007 17.0226 102.638 17.0226 102.182C17.0226 101.725 17.1668 101.356 17.4552 101.068C17.7436 100.788 18.2803 100.587 19.0734 100.475L20.227 100.299V99.8343C20.227 99.2094 19.9306 98.905 19.3458 98.905C18.785 98.905 18.4566 99.1854 18.3524 99.7542L17.351 99.4577C17.5914 98.4323 18.2803 97.9196 19.4179 97.9196H19.4099ZM18.9212 102.742C19.3538 102.742 19.7864 102.526 20.219 102.101V101.108L19.2977 101.268C18.8812 101.34 18.6088 101.453 18.4726 101.605C18.3364 101.757 18.2723 101.933 18.2723 102.125C18.2723 102.318 18.3284 102.47 18.4486 102.574C18.5607 102.686 18.7209 102.734 18.9292 102.734L18.9212 102.742Z" fill="black"/>
<path d="M27.1487 102.013C27.1487 103.111 26.3796 103.656 24.8415 103.656C24.1686 103.656 23.6719 103.511 23.3434 103.215C23.015 102.918 22.8147 102.502 22.7266 101.941L23.7279 101.789C23.8 102.406 24.1846 102.71 24.8735 102.71C25.5625 102.71 25.915 102.494 25.915 102.053C25.915 101.877 25.8429 101.741 25.7067 101.653C25.5705 101.565 25.2901 101.468 24.8735 101.372L24.4329 101.268C23.8641 101.132 23.4556 100.94 23.2072 100.675C22.9589 100.419 22.8387 100.043 22.8387 99.5458C22.8387 98.4563 23.5837 97.9116 25.0658 97.9116C25.7067 97.9116 26.1873 98.0558 26.4998 98.3522C26.8202 98.6406 27.0125 99.0652 27.0926 99.6259L26.0912 99.7701C26.0191 99.1613 25.6666 98.8569 25.0257 98.8569C24.3849 98.8569 24.0724 99.0732 24.0724 99.5138C24.0724 99.69 24.1365 99.8262 24.2567 99.9223C24.3848 100.018 24.6332 100.107 25.0177 100.195L25.5144 100.323C26.0832 100.467 26.4998 100.659 26.7481 100.916C27.0045 101.172 27.1246 101.533 27.1246 102.013H27.1487Z" fill="black"/>
<path d="M59.2971 69.6885H58.3838V71.6432H57.7509V66.3799H59.2971C60.3866 66.3799 60.9233 66.9327 60.9233 68.0382C60.9233 69.1438 60.3786 69.6965 59.2971 69.6965V69.6885ZM58.3838 69.1838H59.265C59.954 69.1838 60.2984 68.7993 60.2984 68.0302C60.2984 67.2612 59.954 66.8766 59.265 66.8766H58.3838V69.1758V69.1838Z" fill="black"/>
<path d="M62.6137 71.6432H61.9968V67.5175H62.3653L62.5897 68.2545C62.9261 67.7178 63.4148 67.4454 64.0637 67.4214V67.9902C63.4148 68.0142 62.9341 68.2866 62.6137 68.8153V71.6512V71.6432Z" fill="black"/>
<path d="M68.0933 69.5764C68.0933 71.0184 67.5004 71.7394 66.3068 71.7394C65.1131 71.7394 64.5203 71.0184 64.5203 69.5764C64.5203 68.1344 65.1131 67.4134 66.3068 67.4134C67.5004 67.4134 68.0933 68.1344 68.0933 69.5764ZM65.706 71.0985C65.8662 71.1866 66.0665 71.2347 66.3068 71.2347C66.5471 71.2347 66.7474 71.1866 66.9076 71.0985C67.0678 71.0104 67.188 70.8822 67.2681 70.714C67.3482 70.5457 67.3963 70.3775 67.4283 70.1932C67.4604 70.017 67.4764 69.8087 67.4764 69.5684C67.4764 69.328 67.4604 69.1278 67.4283 68.9435C67.3963 68.7593 67.3402 68.591 67.2681 68.4228C67.188 68.2546 67.0759 68.1264 66.9076 68.0383C66.7394 67.9501 66.5471 67.9021 66.3068 67.9021C66.0665 67.9021 65.8662 67.9421 65.706 68.0383C65.5457 68.1264 65.4256 68.2546 65.3455 68.4228C65.2654 68.591 65.2093 68.7593 65.1852 68.9355C65.1532 69.1117 65.1452 69.32 65.1452 69.5604C65.1452 69.8007 65.1612 70.009 65.1852 70.1852C65.2173 70.3615 65.2654 70.5377 65.3455 70.6979C65.4256 70.8582 65.5457 70.9943 65.706 71.0825V71.0985Z" fill="black"/>
<path d="M71.1135 67.4134C71.6742 67.4134 72.0427 67.6057 72.235 67.9822C72.4113 67.822 72.6276 67.6858 72.8759 67.5816C73.1242 67.4695 73.3806 67.4134 73.645 67.4134C74.4781 67.4134 74.9027 67.846 74.9027 68.7032V71.6352H74.2858V68.7352C74.2858 68.4629 74.2298 68.2626 74.1096 68.1264C73.9975 67.9902 73.8052 67.9181 73.5488 67.9181C73.1242 67.9181 72.7237 68.0783 72.3632 68.4068C72.3792 68.5029 72.3872 68.599 72.3872 68.7032V71.6352H71.7704V68.7352C71.7704 68.4629 71.7143 68.2626 71.5941 68.1264C71.482 67.9902 71.2897 67.9181 71.0253 67.9181C70.6088 67.9181 70.2242 68.0703 69.8717 68.3747V71.6432H69.2549V67.5175H69.6394L69.7996 67.9261C70.2002 67.5816 70.6488 67.4134 71.1295 67.4134H71.1135Z" fill="black"/>
<path d="M77.7305 71.7394C77.0977 71.7394 76.6491 71.5631 76.3847 71.2026C76.1123 70.8421 75.9841 70.3054 75.9841 69.5764C75.9841 68.1344 76.5609 67.4134 77.7065 67.4134C78.8521 67.4134 79.4049 68.1023 79.4049 69.4883V69.6405H76.593C76.593 70.2093 76.6811 70.6178 76.8493 70.8662C77.0176 71.1145 77.314 71.2347 77.7305 71.2347C78.4115 71.2347 78.78 70.9623 78.8281 70.4015L79.3408 70.4336C79.2527 71.3068 78.7159 71.7394 77.7305 71.7394ZM78.5076 68.2466C78.3474 68.0303 78.083 67.9181 77.7065 67.9181C77.33 67.9181 77.0656 68.0302 76.8974 68.2546C76.7292 68.4789 76.633 68.7913 76.601 69.1838H78.78C78.756 68.7833 78.6678 68.4709 78.5076 68.2466Z" fill="black"/>
<path d="M81.4718 71.7394C80.5906 71.7394 80.142 71.0184 80.142 69.5764C80.142 68.1344 80.6787 67.4134 81.7522 67.4134C82.1207 67.4134 82.5052 67.5096 82.8898 67.6938V66.1717L83.5066 66.0996V71.6353H83.098L82.9218 71.0104C82.4812 71.4991 82.0005 71.7394 81.4718 71.7394ZM81.6721 71.2347C82.1047 71.2347 82.5132 71.0024 82.8898 70.5458V68.1905C82.5453 68.0062 82.2008 67.9101 81.8724 67.9101C81.4718 67.9101 81.1834 68.0543 81.0152 68.3507C80.8469 68.6471 80.7588 69.0557 80.7588 69.5844C80.7588 70.69 81.0632 71.2427 81.6641 71.2427L81.6721 71.2347Z" fill="black"/>
<path d="M85.3492 66.8286C85.1008 66.8286 84.9807 66.6924 84.9807 66.428C84.9807 66.1637 85.1008 66.0275 85.3492 66.0275C85.5975 66.0275 85.7337 66.1637 85.7337 66.428C85.7337 66.6924 85.6055 66.8286 85.3492 66.8286ZM85.0367 67.5175H85.6536V71.6432H85.0367V67.5175Z" fill="black"/>
<path d="M90.3881 69.5764C90.3881 71.0184 89.7952 71.7394 88.6016 71.7394C87.4079 71.7394 86.8151 71.0184 86.8151 69.5764C86.8151 68.1344 87.4079 67.4134 88.6016 67.4134C89.7952 67.4134 90.3881 68.1344 90.3881 69.5764ZM88.0008 71.0985C88.161 71.1866 88.3613 71.2347 88.6016 71.2347C88.8419 71.2347 89.0422 71.1866 89.2024 71.0985C89.3626 71.0104 89.4828 70.8822 89.5629 70.714C89.643 70.5457 89.6911 70.3775 89.7231 70.1932C89.7552 70.017 89.7712 69.8087 89.7712 69.5684C89.7712 69.328 89.7552 69.1278 89.7231 68.9435C89.6911 68.7593 89.635 68.591 89.5629 68.4228C89.4828 68.2546 89.3707 68.1264 89.2024 68.0383C89.0342 67.9501 88.8419 67.9021 88.6016 67.9021C88.3613 67.9021 88.161 67.9421 88.0008 68.0383C87.8405 68.1264 87.7204 68.2546 87.6403 68.4228C87.5602 68.591 87.5041 68.7593 87.48 68.9355C87.448 69.1117 87.44 69.32 87.44 69.5604C87.44 69.8007 87.456 70.009 87.48 70.1852C87.5121 70.3615 87.5602 70.5377 87.6403 70.6979C87.7204 70.8582 87.8405 70.9943 88.0008 71.0825V71.0985Z" fill="black"/>
<path d="M91.9743 71.467C91.9663 71.5231 91.9262 71.5712 91.8621 71.6192C91.798 71.6673 91.7099 71.6913 91.5978 71.6913C91.4856 71.6913 91.3975 71.6673 91.3414 71.6192C91.2773 71.5712 91.2453 71.5231 91.2373 71.467C91.2293 71.4109 91.2213 71.3469 91.2213 71.2748C91.2213 71.2027 91.2212 71.1386 91.2293 71.0985C91.2373 71.0585 91.2533 71.0104 91.2773 70.9623C91.3174 70.8582 91.4215 70.8101 91.5978 70.8101C91.774 70.8101 91.8782 70.8502 91.9262 70.9303C91.9743 71.0104 91.9983 71.1065 91.9983 71.2187C91.9983 71.3308 91.9983 71.419 91.9823 71.467H91.9743Z" fill="black"/>
<path d="M57.7509 82.4021H60.5468V82.9068H58.3838V84.7413H60.3946V85.246H58.3838V87.1607H60.691V87.6654H57.7509V82.4021Z" fill="black"/>
<path d="M61.1797 83.9643V83.5397H61.8847V82.7867L62.5015 82.5383V83.5317H63.3747V83.9563H62.5015V86.6881C62.5015 86.9044 62.5336 87.0566 62.5896 87.1447C62.6537 87.2328 62.7338 87.2809 62.854 87.2809C62.9742 87.2809 63.1104 87.2649 63.2786 87.2248L63.3507 87.6414C63.0943 87.7215 62.87 87.7535 62.6938 87.7535C62.5175 87.7535 62.3653 87.7215 62.2532 87.6654C62.141 87.6093 62.0529 87.5212 62.0048 87.4091C61.9247 87.2328 61.8847 87.0005 61.8847 86.7121V83.9563H61.1797V83.9643Z" fill="black"/>
<path d="M64.5844 82.8507C64.3361 82.8507 64.2159 82.7145 64.2159 82.4502C64.2159 82.1858 64.3361 82.0496 64.5844 82.0496C64.8327 82.0496 64.9689 82.1858 64.9689 82.4502C64.9689 82.7145 64.8408 82.8507 64.5844 82.8507ZM64.272 83.5397H64.8888V87.6654H64.272V83.5397Z" fill="black"/>
<path d="M69.6234 85.5985C69.6234 87.0405 69.0305 87.7615 67.8369 87.7615C66.6432 87.7615 66.0504 87.0405 66.0504 85.5985C66.0504 84.1565 66.6432 83.4355 67.8369 83.4355C69.0305 83.4355 69.6234 84.1565 69.6234 85.5985ZM67.2361 87.1207C67.3963 87.2088 67.5966 87.2568 67.8369 87.2568C68.0772 87.2568 68.2775 87.2088 68.4377 87.1207C68.5979 87.0325 68.7181 86.9044 68.7982 86.7361C68.8783 86.5679 68.9264 86.3997 68.9584 86.2154C68.9905 86.0392 69.0065 85.8309 69.0065 85.5905C69.0065 85.3502 68.9905 85.1499 68.9584 84.9657C68.9264 84.7814 68.8703 84.6132 68.7982 84.445C68.7181 84.2767 68.606 84.1485 68.4377 84.0604C68.2695 83.9723 68.0772 83.9242 67.8369 83.9242C67.5966 83.9242 67.3963 83.9643 67.2361 84.0604C67.0758 84.1485 66.9557 84.2767 66.8756 84.445C66.7954 84.6132 66.7394 84.7814 66.7153 84.9577C66.6833 85.1339 66.6753 85.3422 66.6753 85.5825C66.6753 85.8229 66.6913 86.0311 66.7153 86.2074C66.7474 86.3836 66.7954 86.5599 66.8756 86.7201C66.9557 86.8803 67.0758 87.0165 67.2361 87.1046V87.1207Z" fill="black"/>
<path d="M72.5874 83.4355C73.6289 83.4355 74.1416 84.1565 74.1416 85.5985C74.1416 87.0405 73.6048 87.7615 72.5233 87.7615C72.1708 87.7615 71.7943 87.6894 71.3938 87.5372V89.2596L70.7769 89.3477V83.5397H71.1454L71.2896 83.9002C71.7062 83.5958 72.1388 83.4355 72.5874 83.4355ZM73.2764 84.4129C73.1081 84.1005 72.8438 83.9402 72.4673 83.9402C72.0907 83.9402 71.7382 84.0604 71.4018 84.3088V87.0726C71.6982 87.2008 72.0427 87.2568 72.4192 87.2568C73.1562 87.2568 73.5327 86.7041 73.5327 85.5985C73.5327 85.1259 73.4526 84.7253 73.2844 84.4129H73.2764Z" fill="black"/>
<path d="M75.2151 83.1552L74.9348 82.8267L76.1444 81.7051L76.537 82.1698L75.2151 83.1632V83.1552ZM75.3033 83.5397H75.9201V87.6654H75.3033V83.5397Z" fill="black"/>
<path d="M79.7814 83.7159C80.0698 83.9242 80.214 84.3088 80.214 84.8856V87.6654H79.8055L79.6452 87.0245C79.1806 87.5212 78.6759 87.7695 78.1231 87.7695C77.7546 87.7695 77.4903 87.6734 77.322 87.4811C77.1538 87.2889 77.0657 87.0325 77.0657 86.7041C77.0657 86.3756 77.1698 86.1112 77.3701 85.911C77.5704 85.7107 77.9549 85.5665 78.5237 85.4704L79.5972 85.2941V84.8856C79.5972 84.5331 79.5251 84.2847 79.3729 84.1485C79.2207 84.0123 79.0124 83.9483 78.748 83.9483C78.2193 83.9483 77.9068 84.2046 77.8027 84.7173L77.298 84.5651C77.3781 84.2126 77.5383 83.9322 77.7787 83.732C78.027 83.5317 78.3555 83.4355 78.78 83.4355C79.2046 83.4355 79.5331 83.5237 79.7895 83.7079L79.7814 83.7159ZM78.2994 87.2889C78.732 87.2889 79.1646 87.0566 79.5972 86.5919V85.7267L78.5798 85.903C78.2353 85.9671 78.003 86.0632 77.8748 86.1914C77.7466 86.3195 77.6825 86.4878 77.6825 86.672C77.6825 86.8563 77.7306 87.0085 77.8347 87.1207C77.9389 87.2328 78.0911 87.2889 78.2994 87.2889Z" fill="black"/>
<path d="M81.3917 87.5292C81.3596 87.4171 81.3436 87.3209 81.3436 87.2408C81.3436 87.1607 81.3436 87.0966 81.3596 87.0486C81.3676 87.0005 81.4077 86.9524 81.4637 86.9044C81.5198 86.8563 81.608 86.8323 81.7201 86.8323C81.8323 86.8323 81.9204 86.8563 81.9765 86.9044C82.0325 86.9524 82.0726 87.0005 82.0806 87.0486C82.0886 87.0966 82.0966 87.1848 82.0966 87.3129C82.0966 87.4411 82.0646 87.5853 82.0005 87.7375C81.9364 87.8897 81.8483 88.0259 81.7441 88.1461C81.5839 88.3223 81.4477 88.4585 81.3276 88.5466L81.1433 88.3303C81.2074 88.2663 81.2635 88.2182 81.2955 88.1781C81.3916 88.066 81.4397 87.9298 81.4397 87.7616C81.4397 87.7135 81.4237 87.6334 81.3917 87.5212V87.5292Z" fill="black"/>
<path d="M87.1115 87.6654H85.3972V82.4021H86.8392C87.9126 82.4021 88.4494 82.8507 88.4494 83.748C88.4494 84.3568 88.201 84.7494 87.6963 84.9336C88.3853 85.0858 88.7298 85.5264 88.7298 86.2554C88.7298 87.1927 88.193 87.6574 87.1195 87.6574L87.1115 87.6654ZM86.03 84.7173H86.8311C87.1676 84.7173 87.416 84.6372 87.5762 84.477C87.7364 84.3167 87.8165 84.0924 87.8165 83.8201C87.8165 83.5477 87.7364 83.3234 87.5762 83.1551C87.416 82.9869 87.1676 82.9068 86.8311 82.9068H86.03V84.7173ZM86.03 87.1607H87.1035C87.44 87.1607 87.6883 87.0726 87.8485 86.9043C88.0088 86.7281 88.0889 86.4958 88.0889 86.2074C88.0889 85.919 88.0088 85.6786 87.8485 85.5024C87.6883 85.3261 87.44 85.238 87.1035 85.238H86.03V87.1687V87.1607Z" fill="black"/>
<path d="M90.4362 87.6654H89.8193V83.5397H90.1878L90.4121 84.2767C90.7486 83.7399 91.2373 83.4676 91.8862 83.4435V84.0123C91.2373 84.0364 90.7566 84.3087 90.4362 84.8375V87.6734V87.6654Z" fill="black"/>
<path d="M95.0425 83.7159C95.3309 83.9242 95.4751 84.3088 95.4751 84.8856V87.6654H95.0666L94.9064 87.0245C94.4417 87.5212 93.937 87.7695 93.3843 87.7695C93.0157 87.7695 92.7514 87.6734 92.5831 87.4811C92.4149 87.2889 92.3268 87.0325 92.3268 86.7041C92.3268 86.3756 92.4309 86.1112 92.6312 85.911C92.8315 85.7107 93.216 85.5665 93.7848 85.4704L94.8583 85.2941V84.8856C94.8583 84.5331 94.7862 84.2847 94.634 84.1485C94.4818 84.0123 94.2735 83.9483 94.0091 83.9483C93.4804 83.9483 93.1679 84.2046 93.0638 84.7173L92.5591 84.5651C92.6392 84.2126 92.7994 83.9322 93.0398 83.732C93.2881 83.5317 93.6166 83.4355 94.0412 83.4355C94.4657 83.4355 94.7942 83.5237 95.0506 83.7079L95.0425 83.7159ZM93.5605 87.2889C93.9931 87.2889 94.4257 87.0566 94.8583 86.5919V85.7267L93.8409 85.903C93.4964 85.9671 93.2641 86.0632 93.1359 86.1914C93.0077 86.3195 92.9436 86.4878 92.9436 86.672C92.9436 86.8563 92.9917 87.0085 93.0959 87.1207C93.2 87.2328 93.3522 87.2889 93.5605 87.2889Z" fill="black"/>
<path d="M99.3445 85.7828C99.5288 85.959 99.6249 86.2234 99.6249 86.5679C99.6249 86.9124 99.4967 87.2008 99.2324 87.4171C98.976 87.6334 98.5915 87.7375 98.0788 87.7375C97.5661 87.7375 97.1976 87.6414 96.9732 87.4491C96.7489 87.2568 96.5967 86.9684 96.5406 86.5999L97.0453 86.5198C97.1174 87.0085 97.4459 87.2488 98.0307 87.2488C98.6796 87.2488 99 87.0325 99 86.5919C99 86.3997 98.944 86.2555 98.8238 86.1673C98.7036 86.0792 98.4953 85.9911 98.1909 85.919L97.7824 85.8148C97.3658 85.7107 97.0694 85.5665 96.8931 85.3983C96.7169 85.222 96.6288 84.9657 96.6288 84.6052C96.6288 84.2447 96.757 83.9723 97.0053 83.756C97.2536 83.5397 97.6222 83.4355 98.1108 83.4355C98.5995 83.4355 98.952 83.5317 99.1683 83.732C99.3846 83.9242 99.5288 84.2126 99.5929 84.5811L99.0802 84.6612C99.0161 84.1726 98.7117 83.9322 98.1589 83.9322C97.55 83.9322 97.2536 84.1485 97.2536 84.5891C97.2536 84.7814 97.3097 84.9256 97.4219 85.0217C97.534 85.1179 97.7263 85.198 98.0067 85.2701L98.4232 85.3742C98.8558 85.4784 99.1603 85.6226 99.3525 85.7988L99.3445 85.7828Z" fill="black"/>
<path d="M101.075 82.8507C100.827 82.8507 100.706 82.7145 100.706 82.4502C100.706 82.1858 100.827 82.0496 101.075 82.0496C101.323 82.0496 101.459 82.1858 101.459 82.4502C101.459 82.7145 101.331 82.8507 101.075 82.8507ZM100.763 83.5397H101.379V87.6654H100.763V83.5397Z" fill="black"/>
<path d="M103.534 87.6654H102.917V82.2018L103.534 82.1137V87.6654Z" fill="black"/>
<path d="M104.776 87.5292C104.744 87.4171 104.728 87.3209 104.728 87.2408C104.728 87.1607 104.728 87.0966 104.744 87.0486C104.752 87.0005 104.792 86.9524 104.848 86.9044C104.904 86.8563 104.992 86.8323 105.104 86.8323C105.217 86.8323 105.305 86.8563 105.361 86.9044C105.417 86.9524 105.457 87.0005 105.465 87.0486C105.473 87.0966 105.481 87.1848 105.481 87.3129C105.481 87.4411 105.449 87.5853 105.385 87.7375C105.321 87.8897 105.233 88.0259 105.128 88.1461C104.968 88.3223 104.832 88.4585 104.712 88.5466L104.528 88.3303C104.592 88.2663 104.648 88.2182 104.68 88.1781C104.776 88.066 104.824 87.9298 104.824 87.7616C104.824 87.7135 104.808 87.6334 104.776 87.5212V87.5292Z" fill="black"/>
<path d="M111.754 82.4021H112.387V85.927C112.387 86.2474 112.347 86.5278 112.274 86.7601C112.194 86.9925 112.106 87.1687 111.986 87.2969C111.874 87.4251 111.73 87.5292 111.553 87.6013C111.377 87.6734 111.209 87.7215 111.057 87.7455C110.905 87.7615 110.728 87.7775 110.528 87.7775C110.328 87.7775 110.151 87.7695 109.999 87.7455C109.847 87.7295 109.687 87.6814 109.511 87.6013C109.334 87.5292 109.19 87.4251 109.078 87.2969C108.966 87.1687 108.87 86.9925 108.79 86.7601C108.709 86.5278 108.677 86.2554 108.677 85.927V82.4021H109.31V85.9029C109.31 86.4637 109.447 86.8322 109.711 87.0165C109.839 87.1046 109.967 87.1607 110.095 87.1927C110.224 87.2248 110.368 87.2328 110.536 87.2328C110.704 87.2328 110.856 87.2168 110.977 87.1927C111.105 87.1607 111.225 87.1046 111.361 87.0165C111.626 86.8402 111.762 86.4717 111.762 85.9029V82.4021H111.754Z" fill="black"/>
<path d="M115.855 86.2314C115.647 86.3196 115.399 86.3596 115.11 86.3596C114.822 86.3596 114.566 86.3196 114.349 86.2314L114.021 86.5519C113.909 86.656 113.853 86.7762 113.853 86.9124C113.853 87.0886 113.965 87.1767 114.181 87.1767H115.799C116.152 87.1767 116.424 87.2729 116.624 87.4571C116.825 87.6414 116.921 87.8737 116.921 88.1461C116.921 88.4185 116.865 88.6348 116.761 88.795C116.657 88.9552 116.504 89.0754 116.304 89.1555C115.96 89.2837 115.519 89.3478 114.974 89.3478C114.429 89.3478 114.013 89.2757 113.716 89.1315C113.42 88.9873 113.276 88.7549 113.276 88.4185C113.276 88.082 113.42 87.8176 113.708 87.6094C113.436 87.5052 113.3 87.2969 113.3 86.9925C113.3 86.7602 113.404 86.5439 113.604 86.3436L113.949 85.9991C113.692 85.7508 113.564 85.3903 113.564 84.9096C113.564 84.5251 113.66 84.1966 113.861 83.9243C113.965 83.7801 114.125 83.6679 114.333 83.5798C114.542 83.4917 114.782 83.4516 115.062 83.4516C115.343 83.4516 115.575 83.4836 115.767 83.5557H116.857V83.9643H116.344C116.528 84.2127 116.616 84.5331 116.616 84.9176C116.616 85.3022 116.52 85.6306 116.32 85.903C116.216 86.0472 116.056 86.1594 115.847 86.2475L115.855 86.2314ZM113.869 88.2502C113.869 88.4906 113.965 88.6428 114.165 88.7229C114.365 88.803 114.67 88.8351 115.086 88.8351C115.503 88.8351 115.807 88.795 116 88.7069C116.192 88.6268 116.288 88.4425 116.288 88.1781C116.288 87.9939 116.224 87.8577 116.08 87.7776C115.944 87.6975 115.783 87.6574 115.599 87.6574H114.157C113.957 87.8176 113.861 88.0179 113.861 88.2502H113.869ZM115.094 83.8762C114.477 83.8762 114.165 84.2127 114.165 84.8936C114.165 85.5745 114.477 85.911 115.094 85.911C115.711 85.911 116.024 85.5745 116.024 84.8936C116.024 84.2127 115.719 83.8762 115.094 83.8762Z" fill="black"/>
<path d="M120.269 83.7159C120.558 83.9242 120.702 84.3088 120.702 84.8856V87.6654H120.293L120.133 87.0245C119.669 87.5212 119.164 87.7695 118.611 87.7695C118.243 87.7695 117.978 87.6734 117.81 87.4811C117.642 87.2889 117.554 87.0325 117.554 86.7041C117.554 86.3756 117.658 86.1112 117.858 85.911C118.058 85.7107 118.443 85.5665 119.012 85.4704L120.085 85.2941V84.8856C120.085 84.5331 120.013 84.2847 119.861 84.1485C119.709 84.0123 119.5 83.9483 119.236 83.9483C118.707 83.9483 118.395 84.2046 118.291 84.7173L117.786 84.5651C117.866 84.2126 118.026 83.9322 118.267 83.732C118.515 83.5317 118.843 83.4355 119.268 83.4355C119.693 83.4355 120.021 83.5237 120.277 83.7079L120.269 83.7159ZM118.787 87.2889C119.22 87.2889 119.653 87.0566 120.085 86.5919V85.7267L119.068 85.903C118.723 85.9671 118.491 86.0632 118.363 86.1914C118.235 86.3195 118.171 86.4878 118.171 86.672C118.171 86.8563 118.219 87.0085 118.323 87.1207C118.427 87.2328 118.579 87.2889 118.787 87.2889Z" fill="black"/>
<path d="M122.697 83.9723C123.185 83.6198 123.658 83.4355 124.131 83.4355C124.603 83.4355 124.932 83.5397 125.124 83.756C125.316 83.9723 125.413 84.2927 125.413 84.7334V87.6574H124.796V84.7414C124.796 84.453 124.74 84.2447 124.627 84.1245C124.515 84.0043 124.331 83.9402 124.075 83.9402C123.626 83.9402 123.193 84.1005 122.777 84.4209V87.6574H122.16V83.5317H122.529L122.705 83.9643L122.697 83.9723Z" fill="black"/>
<path d="M127.824 87.7616C126.943 87.7616 126.494 87.0406 126.494 85.5986C126.494 84.1566 127.031 83.4356 128.104 83.4356C128.473 83.4356 128.857 83.5317 129.242 83.716V82.1939L129.859 82.1218V87.6574H129.45L129.274 87.0326C128.833 87.5212 128.353 87.7616 127.824 87.7616ZM128.024 87.2569C128.457 87.2569 128.865 87.0246 129.242 86.5679V84.2127C128.897 84.0284 128.553 83.9323 128.224 83.9323C127.824 83.9323 127.536 84.0765 127.367 84.3729C127.199 84.6693 127.111 85.0779 127.111 85.6066C127.111 86.7121 127.415 87.2649 128.016 87.2649L128.024 87.2569Z" fill="black"/>
<path d="M133.728 83.7159C134.016 83.9242 134.161 84.3088 134.161 84.8856V87.6654H133.752L133.592 87.0245C133.127 87.5212 132.623 87.7695 132.07 87.7695C131.701 87.7695 131.437 87.6734 131.269 87.4811C131.1 87.2889 131.012 87.0325 131.012 86.7041C131.012 86.3756 131.116 86.1112 131.317 85.911C131.517 85.7107 131.902 85.5665 132.47 85.4704L133.544 85.2941V84.8856C133.544 84.5331 133.472 84.2847 133.32 84.1485C133.167 84.0123 132.959 83.9483 132.695 83.9483C132.166 83.9483 131.854 84.2046 131.749 84.7173L131.245 84.5651C131.325 84.2126 131.485 83.9322 131.725 83.732C131.974 83.5317 132.302 83.4355 132.727 83.4355C133.151 83.4355 133.48 83.5237 133.736 83.7079L133.728 83.7159ZM132.246 87.2889C132.679 87.2889 133.111 87.0566 133.544 86.5919V85.7267L132.526 85.903C132.182 85.9671 131.95 86.0632 131.821 86.1914C131.693 86.3195 131.629 86.4878 131.629 86.672C131.629 86.8563 131.677 87.0085 131.781 87.1207C131.886 87.2328 132.038 87.2889 132.246 87.2889Z" fill="black"/>
<path d="M136.043 87.4892C136.035 87.5453 135.995 87.5933 135.931 87.6414C135.867 87.6895 135.779 87.7135 135.667 87.7135C135.555 87.7135 135.466 87.6895 135.41 87.6414C135.346 87.5933 135.314 87.5453 135.306 87.4892C135.298 87.4331 135.29 87.369 135.29 87.2969C135.29 87.2248 135.29 87.1607 135.298 87.1207C135.306 87.0806 135.322 87.0326 135.346 86.9845C135.386 86.8803 135.491 86.8323 135.667 86.8323C135.843 86.8323 135.947 86.8723 135.995 86.9524C136.043 87.0325 136.067 87.1287 136.067 87.2408C136.067 87.353 136.067 87.4411 136.051 87.4892H136.043Z" fill="black"/>
<path d="M57.7509 98.4243H60.4026V98.929H58.3838V100.764H60.2344V101.268H58.3838V103.688H57.7509V98.4243Z" fill="black"/>
<path d="M62.109 103.688H61.4921V98.224L62.109 98.1359V103.688Z" fill="black"/>
<path d="M66.8355 101.621C66.8355 103.063 66.2426 103.784 65.049 103.784C63.8553 103.784 63.2625 103.063 63.2625 101.621C63.2625 100.179 63.8553 99.4577 65.049 99.4577C66.2426 99.4577 66.8355 100.179 66.8355 101.621ZM64.4481 103.143C64.6084 103.231 64.8086 103.279 65.049 103.279C65.2893 103.279 65.4896 103.231 65.6498 103.143C65.81 103.055 65.9302 102.927 66.0103 102.758C66.0904 102.59 66.1385 102.422 66.1705 102.238C66.2026 102.061 66.2186 101.853 66.2186 101.613C66.2186 101.372 66.2026 101.172 66.1705 100.988C66.1385 100.804 66.0824 100.635 66.0103 100.467C65.9302 100.299 65.818 100.171 65.6498 100.083C65.4816 99.9944 65.2893 99.9464 65.049 99.9464C64.8086 99.9464 64.6084 99.9864 64.4481 100.083C64.2879 100.171 64.1678 100.299 64.0877 100.467C64.0075 100.635 63.9515 100.804 63.9274 100.98C63.8954 101.156 63.8874 101.364 63.8874 101.605C63.8874 101.845 63.9034 102.053 63.9274 102.23C63.9595 102.406 64.0075 102.582 64.0877 102.742C64.1678 102.902 64.2879 103.039 64.4481 103.127V103.143Z" fill="black"/>
<path d="M68.6059 103.688H67.9891V99.5618H68.3576L68.5819 100.299C68.9184 99.7621 69.407 99.4897 70.0559 99.4657V100.034C69.407 100.059 68.9264 100.331 68.6059 100.86V103.696V103.688Z" fill="black"/>
<path d="M73.2123 99.7381C73.5007 99.9464 73.6449 100.331 73.6449 100.908V103.688H73.2364L73.0762 103.047C72.6115 103.543 72.1068 103.792 71.5541 103.792C71.1855 103.792 70.9212 103.696 70.7529 103.503C70.5847 103.311 70.4966 103.055 70.4966 102.726C70.4966 102.398 70.6007 102.133 70.801 101.933C71.0013 101.733 71.3858 101.589 71.9546 101.493L73.0281 101.316V100.908C73.0281 100.555 72.956 100.307 72.8038 100.171C72.6516 100.035 72.4433 99.9704 72.1789 99.9704C71.6502 99.9704 71.3377 100.227 71.2336 100.739L70.7289 100.587C70.809 100.235 70.9692 99.9544 71.2096 99.7541C71.4579 99.5538 71.7864 99.4577 72.211 99.4577C72.6355 99.4577 72.964 99.5458 73.2204 99.7301L73.2123 99.7381ZM71.7303 103.311C72.1629 103.311 72.5955 103.079 73.0281 102.614V101.749L72.0107 101.925C71.6662 101.989 71.4339 102.085 71.3057 102.214C71.1775 102.342 71.1134 102.51 71.1134 102.694C71.1134 102.878 71.1615 103.031 71.2657 103.143C71.3698 103.255 71.522 103.311 71.7303 103.311Z" fill="black"/>
<path d="M75.7278 103.688H75.111V98.224L75.7278 98.1359V103.688Z" fill="black"/>
<path d="M76.9695 103.551C76.9375 103.439 76.9215 103.343 76.9215 103.263C76.9215 103.183 76.9215 103.119 76.9375 103.071C76.9455 103.023 76.9856 102.975 77.0416 102.927C77.0977 102.878 77.1858 102.854 77.298 102.854C77.4101 102.854 77.4983 102.878 77.5543 102.927C77.6104 102.975 77.6505 103.023 77.6585 103.071C77.6665 103.119 77.6745 103.207 77.6745 103.335C77.6745 103.463 77.6425 103.607 77.5784 103.76C77.5143 103.912 77.4262 104.048 77.322 104.168C77.1618 104.344 77.0256 104.481 76.9054 104.569L76.7212 104.353C76.7853 104.288 76.8414 104.24 76.8734 104.2C76.9695 104.088 77.0176 103.952 77.0176 103.784C77.0176 103.736 77.0016 103.656 76.9695 103.543V103.551Z" fill="black"/>
<path d="M82.2729 98.5845C81.8964 98.5845 81.7121 98.8008 81.7121 99.2414V99.5619H82.6654V99.9864H81.7121V103.688H81.0953V99.9864H80.6226V99.5619H81.0953V99.2414C81.0953 98.4804 81.4718 98.0958 82.2329 98.0958C82.5132 98.0958 82.7696 98.1359 82.9939 98.216L82.8337 98.6806C82.6735 98.6165 82.4812 98.5765 82.2729 98.5765V98.5845Z" fill="black"/>
<path d="M84.0273 103.688H83.4105V99.5618H83.779L84.0033 100.299C84.3397 99.7621 84.8284 99.4897 85.4773 99.4657V100.034C84.8284 100.059 84.3477 100.331 84.0273 100.86V103.696V103.688Z" fill="black"/>
<path d="M87.448 103.784C87.0234 103.784 86.711 103.68 86.5187 103.463C86.3265 103.247 86.2303 102.927 86.2303 102.502V99.5619H86.8472V102.462C86.8472 102.742 86.9113 102.951 87.0315 103.087C87.1516 103.223 87.3439 103.287 87.6083 103.287C88.0729 103.287 88.5055 103.047 88.9141 102.574V99.5699H89.5309V103.696H89.1223L88.9301 103.087C88.4815 103.559 87.9928 103.8 87.448 103.8V103.784Z" fill="black"/>
<path d="M90.4442 99.9865V99.5619H91.1492V98.8088L91.766 98.5605V99.5539H92.6392V99.9785H91.766V102.71C91.766 102.927 91.7981 103.079 91.8542 103.167C91.9182 103.255 91.9984 103.303 92.1185 103.303C92.2387 103.303 92.3749 103.287 92.5431 103.247L92.6152 103.664C92.3589 103.744 92.1346 103.776 91.9583 103.776C91.7821 103.776 91.6299 103.744 91.5177 103.688C91.4055 103.631 91.3174 103.543 91.2694 103.431C91.1892 103.255 91.1492 103.023 91.1492 102.734V99.9785H90.4442V99.9865Z" fill="black"/>
<path d="M96.7489 101.621C96.7489 103.063 96.1561 103.784 94.9624 103.784C93.7688 103.784 93.176 103.063 93.176 101.621C93.176 100.179 93.7688 99.4577 94.9624 99.4577C96.1561 99.4577 96.7489 100.179 96.7489 101.621ZM94.3616 103.143C94.5218 103.231 94.7221 103.279 94.9624 103.279C95.2028 103.279 95.4031 103.231 95.5633 103.143C95.7235 103.055 95.8437 102.927 95.9238 102.758C96.0039 102.59 96.0519 102.422 96.084 102.238C96.116 102.061 96.1321 101.853 96.1321 101.613C96.1321 101.372 96.116 101.172 96.084 100.988C96.0519 100.804 95.9959 100.635 95.9238 100.467C95.8437 100.299 95.7315 100.171 95.5633 100.083C95.395 99.9944 95.2028 99.9464 94.9624 99.9464C94.7221 99.9464 94.5218 99.9864 94.3616 100.083C94.2014 100.171 94.0812 100.299 94.0011 100.467C93.921 100.635 93.8649 100.804 93.8409 100.98C93.8088 101.156 93.8008 101.364 93.8008 101.605C93.8008 101.845 93.8169 102.053 93.8409 102.23C93.8729 102.406 93.921 102.582 94.0011 102.742C94.0812 102.902 94.2014 103.039 94.3616 103.127V103.143Z" fill="black"/>
<path d="M100.322 101.805C100.506 101.981 100.602 102.246 100.602 102.59C100.602 102.935 100.474 103.223 100.21 103.439C99.9533 103.656 99.5688 103.76 99.0561 103.76C98.5434 103.76 98.1749 103.664 97.9505 103.471C97.7262 103.279 97.574 102.991 97.5179 102.622L98.0226 102.542C98.0947 103.031 98.4232 103.271 99.008 103.271C99.6569 103.271 99.9774 103.055 99.9774 102.614C99.9774 102.422 99.9213 102.278 99.8011 102.189C99.6809 102.101 99.4726 102.013 99.1682 101.941L98.7597 101.837C98.3431 101.733 98.0467 101.589 97.8704 101.42C97.6942 101.244 97.6061 100.988 97.6061 100.627C97.6061 100.267 97.7343 99.9945 97.9826 99.7782C98.2309 99.5619 98.5995 99.4577 99.0881 99.4577C99.5768 99.4577 99.9293 99.5538 100.146 99.7541C100.362 99.9464 100.506 100.235 100.57 100.603L100.057 100.683C99.9934 100.195 99.689 99.9544 99.1362 99.9544C98.5274 99.9544 98.2309 100.171 98.2309 100.611C98.2309 100.804 98.287 100.948 98.3992 101.044C98.5113 101.14 98.7036 101.22 98.984 101.292L99.4006 101.396C99.8332 101.501 100.138 101.645 100.33 101.821L100.322 101.805Z" fill="black"/>
<path d="M106.25 101.805C106.434 101.981 106.53 102.246 106.53 102.59C106.53 102.935 106.402 103.223 106.138 103.439C105.882 103.656 105.497 103.76 104.984 103.76C104.472 103.76 104.103 103.664 103.879 103.471C103.654 103.279 103.502 102.991 103.446 102.622L103.951 102.542C104.023 103.031 104.351 103.271 104.936 103.271C105.585 103.271 105.906 103.055 105.906 102.614C105.906 102.422 105.849 102.278 105.729 102.189C105.609 102.101 105.401 102.013 105.096 101.941L104.688 101.837C104.271 101.733 103.975 101.589 103.799 101.42C103.622 101.244 103.534 100.988 103.534 100.627C103.534 100.267 103.662 99.9945 103.911 99.7782C104.159 99.5619 104.528 99.4577 105.016 99.4577C105.505 99.4577 105.858 99.5538 106.074 99.7541C106.29 99.9464 106.434 100.235 106.498 100.603L105.986 100.683C105.922 100.195 105.617 99.9544 105.064 99.9544C104.456 99.9544 104.159 100.171 104.159 100.611C104.159 100.804 104.215 100.948 104.327 101.044C104.44 101.14 104.632 101.22 104.912 101.292L105.329 101.396C105.761 101.501 106.066 101.645 106.258 101.821L106.25 101.805Z" fill="black"/>
<path d="M109.038 103.784C108.405 103.784 107.956 103.607 107.692 103.247C107.42 102.886 107.292 102.35 107.292 101.621C107.292 100.179 107.868 99.4577 109.014 99.4577C110.159 99.4577 110.712 100.147 110.712 101.533V101.685H107.9C107.9 102.254 107.988 102.662 108.157 102.91C108.325 103.159 108.621 103.279 109.038 103.279C109.719 103.279 110.087 103.007 110.135 102.446L110.648 102.478C110.56 103.351 110.023 103.784 109.038 103.784ZM109.815 100.291C109.655 100.075 109.39 99.9624 109.014 99.9624C108.637 99.9624 108.373 100.075 108.205 100.299C108.037 100.523 107.94 100.836 107.908 101.228H110.087C110.063 100.828 109.975 100.515 109.815 100.291Z" fill="black"/>
<path d="M112.074 101.621C112.074 101.853 112.09 102.069 112.114 102.246C112.146 102.43 112.194 102.598 112.274 102.766C112.435 103.111 112.731 103.279 113.172 103.279C113.532 103.279 113.789 103.207 113.949 103.063C114.109 102.918 114.189 102.71 114.205 102.43L114.71 102.454C114.678 102.878 114.542 103.207 114.309 103.439C114.077 103.672 113.692 103.784 113.156 103.784C112.403 103.784 111.898 103.479 111.658 102.862C111.521 102.526 111.457 102.157 111.457 101.757C111.457 101.356 111.481 101.036 111.529 100.804C111.577 100.563 111.666 100.339 111.778 100.123C112.026 99.682 112.491 99.4577 113.156 99.4577C113.692 99.4577 114.077 99.5699 114.309 99.7862C114.542 100.002 114.678 100.323 114.71 100.731L114.213 100.804C114.197 100.523 114.117 100.315 113.957 100.171C113.797 100.026 113.54 99.9624 113.18 99.9624C112.739 99.9624 112.435 100.131 112.282 100.475C112.146 100.756 112.082 101.14 112.082 101.621H112.074Z" fill="black"/>
<path d="M118.996 101.621C118.996 103.063 118.403 103.784 117.209 103.784C116.016 103.784 115.423 103.063 115.423 101.621C115.423 100.179 116.016 99.4577 117.209 99.4577C118.403 99.4577 118.996 100.179 118.996 101.621ZM116.608 103.143C116.769 103.231 116.969 103.279 117.209 103.279C117.45 103.279 117.65 103.231 117.81 103.143C117.97 103.055 118.09 102.927 118.171 102.758C118.251 102.59 118.299 102.422 118.331 102.238C118.363 102.061 118.379 101.853 118.379 101.613C118.379 101.372 118.363 101.172 118.331 100.988C118.299 100.804 118.243 100.635 118.171 100.467C118.09 100.299 117.978 100.171 117.81 100.083C117.642 99.9944 117.45 99.9464 117.209 99.9464C116.969 99.9464 116.769 99.9864 116.608 100.083C116.448 100.171 116.328 100.299 116.248 100.467C116.168 100.635 116.112 100.804 116.088 100.98C116.056 101.156 116.048 101.364 116.048 101.605C116.048 101.845 116.064 102.053 116.088 102.23C116.12 102.406 116.168 102.582 116.248 102.742C116.328 102.902 116.448 103.039 116.608 103.127V103.143Z" fill="black"/>
<path d="M122.569 101.805C122.753 101.981 122.849 102.246 122.849 102.59C122.849 102.935 122.721 103.223 122.456 103.439C122.2 103.656 121.816 103.76 121.303 103.76C120.79 103.76 120.422 103.664 120.197 103.471C119.973 103.279 119.821 102.991 119.765 102.622L120.269 102.542C120.342 103.031 120.67 103.271 121.255 103.271C121.904 103.271 122.224 103.055 122.224 102.614C122.224 102.422 122.168 102.278 122.048 102.189C121.928 102.101 121.719 102.013 121.415 101.941L121.006 101.837C120.59 101.733 120.294 101.589 120.117 101.42C119.941 101.244 119.853 100.988 119.853 100.627C119.853 100.267 119.981 99.9945 120.229 99.7782C120.478 99.5619 120.846 99.4577 121.335 99.4577C121.824 99.4577 122.176 99.5538 122.392 99.7541C122.609 99.9464 122.753 100.235 122.817 100.603L122.304 100.683C122.24 100.195 121.936 99.9544 121.383 99.9544C120.774 99.9544 120.478 100.171 120.478 100.611C120.478 100.804 120.534 100.948 120.646 101.044C120.758 101.14 120.95 101.22 121.231 101.292L121.647 101.396C122.08 101.501 122.384 101.645 122.577 101.821L122.569 101.805Z" fill="black"/>
<path d="M123.706 103.551C123.674 103.439 123.658 103.343 123.658 103.263C123.658 103.183 123.658 103.119 123.674 103.071C123.682 103.023 123.722 102.975 123.778 102.927C123.834 102.878 123.923 102.854 124.035 102.854C124.147 102.854 124.235 102.878 124.291 102.927C124.347 102.975 124.387 103.023 124.395 103.071C124.403 103.119 124.411 103.207 124.411 103.335C124.411 103.463 124.379 103.607 124.315 103.76C124.251 103.912 124.163 104.048 124.059 104.168C123.898 104.344 123.762 104.481 123.642 104.569L123.458 104.353C123.522 104.288 123.578 104.24 123.61 104.2C123.706 104.088 123.754 103.952 123.754 103.784C123.754 103.736 123.738 103.656 123.706 103.543V103.551Z" fill="black"/>
<path d="M59.1289 112.596C58.496 112.596 58.0474 112.42 57.783 112.059C57.5106 111.699 57.3824 111.162 57.3824 110.433C57.3824 108.991 57.9592 108.27 59.1048 108.27C60.2504 108.27 60.8032 108.959 60.8032 110.345V110.497H57.9913C57.9913 111.066 58.0794 111.474 58.2476 111.723C58.4159 111.971 58.7123 112.091 59.1289 112.091C59.8098 112.091 60.1783 111.819 60.2264 111.258L60.7391 111.29C60.651 112.163 60.1142 112.596 59.1289 112.596ZM59.9059 109.103C59.7457 108.887 59.4813 108.775 59.1048 108.775C58.7283 108.775 58.4639 108.887 58.2957 109.111C58.1275 109.335 58.0313 109.648 57.9993 110.04H60.1783C60.1543 109.64 60.0662 109.327 59.9059 109.103Z" fill="black"/>
<path d="M64.336 110.617C64.5203 110.793 64.6164 111.058 64.6164 111.402C64.6164 111.747 64.4883 112.035 64.2239 112.251C63.9675 112.468 63.583 112.572 63.0703 112.572C62.5576 112.572 62.1891 112.476 61.9648 112.283C61.7405 112.091 61.5882 111.803 61.5322 111.434L62.0369 111.354C62.109 111.843 62.4374 112.083 63.0222 112.083C63.6711 112.083 63.9916 111.867 63.9916 111.426C63.9916 111.234 63.9355 111.09 63.8153 111.002C63.6952 110.914 63.4869 110.825 63.1825 110.753L62.7739 110.649C62.3573 110.545 62.0609 110.401 61.8847 110.233C61.7084 110.056 61.6203 109.8 61.6203 109.44C61.6203 109.079 61.7485 108.807 61.9968 108.59C62.2452 108.374 62.6137 108.27 63.1023 108.27C63.591 108.27 63.9435 108.366 64.1598 108.566C64.3761 108.759 64.5203 109.047 64.5844 109.415L64.0717 109.496C64.0076 109.007 63.7032 108.767 63.1504 108.767C62.5416 108.767 62.2452 108.983 62.2452 109.423C62.2452 109.616 62.3012 109.76 62.4134 109.856C62.5255 109.952 62.7178 110.032 62.9982 110.104L63.4148 110.209C63.8474 110.313 64.1518 110.457 64.3441 110.633L64.336 110.617Z" fill="black"/>
<path d="M67.5645 108.27C68.606 108.27 69.1187 108.991 69.1187 110.433C69.1187 111.875 68.5819 112.596 67.5005 112.596C67.148 112.596 66.7714 112.524 66.3709 112.372V114.094L65.754 114.182V108.374H66.1225L66.2667 108.735C66.6833 108.43 67.1159 108.27 67.5645 108.27ZM68.2535 109.247C68.0853 108.935 67.8209 108.775 67.4444 108.775C67.0678 108.775 66.7154 108.895 66.3789 109.143V111.907C66.6753 112.035 67.0198 112.091 67.3963 112.091C68.1333 112.091 68.5098 111.538 68.5098 110.433C68.5098 109.96 68.4297 109.56 68.2615 109.247H68.2535Z" fill="black"/>
<path d="M71.6502 112.596C71.0173 112.596 70.5687 112.42 70.3043 112.059C70.0319 111.699 69.9037 111.162 69.9037 110.433C69.9037 108.991 70.4805 108.27 71.6261 108.27C72.7717 108.27 73.3245 108.959 73.3245 110.345V110.497H70.5126C70.5126 111.066 70.6007 111.474 70.7689 111.723C70.9372 111.971 71.2336 112.091 71.6502 112.091C72.3311 112.091 72.6996 111.819 72.7477 111.258L73.2604 111.29C73.1723 112.163 72.6355 112.596 71.6502 112.596ZM72.4272 109.103C72.267 108.887 72.0026 108.775 71.6261 108.775C71.2496 108.775 70.9852 108.887 70.817 109.111C70.6488 109.335 70.5526 109.648 70.5206 110.04H72.6996C72.6756 109.64 72.5875 109.327 72.4272 109.103Z" fill="black"/>
<path d="M74.6864 110.433C74.6864 110.665 74.7024 110.882 74.7264 111.058C74.7585 111.242 74.8065 111.41 74.8866 111.578C75.0469 111.923 75.3433 112.091 75.7839 112.091C76.1444 112.091 76.4007 112.019 76.561 111.875C76.7212 111.731 76.8013 111.522 76.8173 111.242L77.322 111.266C77.29 111.691 77.1538 112.019 76.9215 112.251C76.6891 112.484 76.3046 112.596 75.7679 112.596C75.0148 112.596 74.5101 112.291 74.2698 111.675C74.1336 111.338 74.0695 110.97 74.0695 110.569C74.0695 110.169 74.0935 109.848 74.1416 109.616C74.1897 109.375 74.2778 109.151 74.39 108.935C74.6383 108.494 75.1029 108.27 75.7679 108.27C76.3046 108.27 76.6891 108.382 76.9215 108.598C77.1538 108.815 77.29 109.135 77.322 109.544L76.8253 109.616C76.8093 109.335 76.7292 109.127 76.569 108.983C76.4088 108.839 76.1524 108.775 75.7919 108.775C75.3513 108.775 75.0469 108.943 74.8947 109.287C74.7585 109.568 74.6944 109.952 74.6944 110.433H74.6864Z" fill="black"/>
<path d="M78.7159 107.685C78.4676 107.685 78.3474 107.549 78.3474 107.285C78.3474 107.02 78.4676 106.884 78.7159 106.884C78.9643 106.884 79.1005 107.02 79.1005 107.285C79.1005 107.549 78.9723 107.685 78.7159 107.685ZM78.4035 108.374H79.0203V112.5H78.4035V108.374Z" fill="black"/>
<path d="M82.8897 108.55C83.1781 108.759 83.3223 109.143 83.3223 109.72V112.5H82.9137L82.7535 111.859C82.2889 112.356 81.7842 112.604 81.2314 112.604C80.8629 112.604 80.5985 112.508 80.4303 112.315C80.2621 112.123 80.174 111.867 80.174 111.538C80.174 111.21 80.2781 110.946 80.4784 110.745C80.6787 110.545 81.0632 110.401 81.632 110.305L82.7055 110.128V109.72C82.7055 109.367 82.6334 109.119 82.4811 108.983C82.3289 108.847 82.1206 108.783 81.8563 108.783C81.3276 108.783 81.0151 109.039 80.911 109.552L80.4063 109.399C80.4864 109.047 80.6466 108.767 80.8869 108.566C81.1353 108.366 81.4637 108.27 81.8883 108.27C82.3129 108.27 82.6414 108.358 82.8977 108.542L82.8897 108.55ZM81.4077 112.123C81.8403 112.123 82.2729 111.891 82.7055 111.426V110.561L81.688 110.737C81.3436 110.801 81.1112 110.898 80.9831 111.026C80.8549 111.154 80.7908 111.322 80.7908 111.506C80.7908 111.691 80.8389 111.843 80.943 111.955C81.0472 112.067 81.1994 112.123 81.4077 112.123Z" fill="black"/>
<path d="M87.1997 110.617C87.3839 110.793 87.4801 111.058 87.4801 111.402C87.4801 111.747 87.3519 112.035 87.0875 112.251C86.8312 112.468 86.4466 112.572 85.9339 112.572C85.4212 112.572 85.0527 112.476 84.8284 112.283C84.6041 112.091 84.4519 111.803 84.3958 111.434L84.9005 111.354C84.9726 111.843 85.3011 112.083 85.8859 112.083C86.5348 112.083 86.8552 111.867 86.8552 111.426C86.8552 111.234 86.7991 111.09 86.679 111.002C86.5588 110.914 86.3505 110.825 86.0461 110.753L85.6375 110.649C85.221 110.545 84.9245 110.401 84.7483 110.233C84.5721 110.056 84.4839 109.8 84.4839 109.44C84.4839 109.079 84.6121 108.807 84.8605 108.59C85.1088 108.374 85.4773 108.27 85.966 108.27C86.4547 108.27 86.8071 108.366 87.0234 108.566C87.2397 108.759 87.3839 109.047 87.448 109.415L86.9353 109.496C86.8712 109.007 86.5668 108.767 86.0141 108.767C85.4052 108.767 85.1088 108.983 85.1088 109.423C85.1088 109.616 85.1649 109.76 85.277 109.856C85.3892 109.952 85.5815 110.032 85.8618 110.104L86.2784 110.209C86.711 110.313 87.0154 110.457 87.2077 110.633L87.1997 110.617Z" fill="black"/>
<path d="M91.5417 114.262L90.9809 114.158L91.6138 112.524L90.0596 108.374H90.7005L91.9182 111.715L93.1038 108.374H93.7367L91.5417 114.262Z" fill="black"/>
<path d="M96.9572 110.433C96.9572 110.665 96.9732 110.882 96.9972 111.058C97.0293 111.242 97.0774 111.41 97.1575 111.578C97.3177 111.923 97.6141 112.091 98.0547 112.091C98.4152 112.091 98.6716 112.019 98.8318 111.875C98.992 111.731 99.0721 111.522 99.0881 111.242L99.5928 111.266C99.5608 111.691 99.4246 112.019 99.1923 112.251C98.9599 112.484 98.5754 112.596 98.0387 112.596C97.2856 112.596 96.7809 112.291 96.5406 111.675C96.4044 111.338 96.3403 110.97 96.3403 110.569C96.3403 110.169 96.3644 109.848 96.4124 109.616C96.4605 109.375 96.5486 109.151 96.6608 108.935C96.9091 108.494 97.3737 108.27 98.0387 108.27C98.5754 108.27 98.9599 108.382 99.1923 108.598C99.4246 108.815 99.5608 109.135 99.5928 109.544L99.0961 109.616C99.0801 109.335 99 109.127 98.8398 108.983C98.6796 108.839 98.4232 108.775 98.0627 108.775C97.6221 108.775 97.3177 108.943 97.1655 109.287C97.0293 109.568 96.9652 109.952 96.9652 110.433H96.9572Z" fill="black"/>
<path d="M103.014 108.55C103.302 108.759 103.446 109.143 103.446 109.72V112.5H103.038L102.877 111.859C102.413 112.356 101.908 112.604 101.355 112.604C100.987 112.604 100.722 112.508 100.554 112.315C100.386 112.123 100.298 111.867 100.298 111.538C100.298 111.21 100.402 110.946 100.602 110.745C100.803 110.545 101.187 110.401 101.756 110.305L102.829 110.128V109.72C102.829 109.367 102.757 109.119 102.605 108.983C102.453 108.847 102.245 108.783 101.98 108.783C101.451 108.783 101.139 109.039 101.035 109.552L100.53 109.399C100.61 109.047 100.771 108.767 101.011 108.566C101.259 108.366 101.588 108.27 102.012 108.27C102.437 108.27 102.765 108.358 103.022 108.542L103.014 108.55ZM101.532 112.123C101.964 112.123 102.397 111.891 102.829 111.426V110.561L101.812 110.737C101.467 110.801 101.235 110.898 101.107 111.026C100.979 111.154 100.915 111.322 100.915 111.506C100.915 111.691 100.963 111.843 101.067 111.955C101.171 112.067 101.323 112.123 101.532 112.123Z" fill="black"/>
<path d="M105.145 110.433C105.145 110.665 105.161 110.882 105.185 111.058C105.217 111.242 105.265 111.41 105.345 111.578C105.505 111.923 105.801 112.091 106.242 112.091C106.603 112.091 106.859 112.019 107.019 111.875C107.179 111.731 107.259 111.522 107.275 111.242L107.78 111.266C107.748 111.691 107.612 112.019 107.38 112.251C107.147 112.484 106.763 112.596 106.226 112.596C105.473 112.596 104.968 112.291 104.728 111.675C104.592 111.338 104.528 110.97 104.528 110.569C104.528 110.169 104.552 109.848 104.6 109.616C104.648 109.375 104.736 109.151 104.848 108.935C105.096 108.494 105.561 108.27 106.226 108.27C106.763 108.27 107.147 108.382 107.38 108.598C107.612 108.815 107.748 109.135 107.78 109.544L107.283 109.616C107.267 109.335 107.187 109.127 107.027 108.983C106.867 108.839 106.611 108.775 106.25 108.775C105.809 108.775 105.505 108.943 105.353 109.287C105.217 109.568 105.153 109.952 105.153 110.433H105.145Z" fill="black"/>
<path d="M111.209 108.55C111.497 108.759 111.642 109.143 111.642 109.72V112.5H111.233L111.073 111.859C110.608 112.356 110.103 112.604 109.551 112.604C109.182 112.604 108.918 112.508 108.75 112.315C108.581 112.123 108.493 111.867 108.493 111.538C108.493 111.21 108.597 110.946 108.798 110.745C108.998 110.545 109.382 110.401 109.951 110.305L111.025 110.128V109.72C111.025 109.367 110.953 109.119 110.8 108.983C110.648 108.847 110.44 108.783 110.176 108.783C109.647 108.783 109.334 109.039 109.23 109.552L108.726 109.399C108.806 109.047 108.966 108.767 109.206 108.566C109.455 108.366 109.783 108.27 110.208 108.27C110.632 108.27 110.961 108.358 111.217 108.542L111.209 108.55ZM109.727 112.123C110.16 112.123 110.592 111.891 111.025 111.426V110.561L110.007 110.737C109.663 110.801 109.431 110.898 109.302 111.026C109.174 111.154 109.11 111.322 109.11 111.506C109.11 111.691 109.158 111.843 109.262 111.955C109.366 112.067 109.519 112.123 109.727 112.123Z" fill="black"/>
<path d="M116.296 110.433C116.296 111.875 115.703 112.596 114.509 112.596C113.316 112.596 112.723 111.875 112.723 110.433C112.723 108.991 113.316 108.27 114.509 108.27C115.703 108.27 116.296 108.991 116.296 110.433ZM113.909 111.955C114.069 112.043 114.269 112.091 114.509 112.091C114.75 112.091 114.95 112.043 115.11 111.955C115.27 111.867 115.391 111.739 115.471 111.57C115.551 111.402 115.599 111.234 115.631 111.05C115.663 110.874 115.679 110.665 115.679 110.425C115.679 110.185 115.663 109.984 115.631 109.8C115.599 109.616 115.543 109.448 115.471 109.279C115.391 109.111 115.279 108.983 115.11 108.895C114.942 108.807 114.75 108.759 114.509 108.759C114.269 108.759 114.069 108.799 113.909 108.895C113.748 108.983 113.628 109.111 113.548 109.279C113.468 109.448 113.412 109.616 113.388 109.792C113.356 109.968 113.348 110.177 113.348 110.417C113.348 110.657 113.364 110.865 113.388 111.042C113.42 111.218 113.468 111.394 113.548 111.554C113.628 111.715 113.748 111.851 113.909 111.939V111.955Z" fill="black"/>
<path d="M117.874 112.324C117.866 112.38 117.826 112.428 117.762 112.476C117.698 112.524 117.61 112.548 117.498 112.548C117.385 112.548 117.297 112.524 117.241 112.476C117.177 112.428 117.145 112.38 117.137 112.324C117.129 112.267 117.121 112.203 117.121 112.131C117.121 112.059 117.121 111.995 117.129 111.955C117.137 111.915 117.153 111.867 117.177 111.819C117.217 111.715 117.321 111.667 117.498 111.667C117.674 111.667 117.778 111.707 117.826 111.787C117.874 111.867 117.898 111.963 117.898 112.075C117.898 112.187 117.898 112.275 117.882 112.324H117.874Z" fill="black"/>
</svg>
