<svg width="16" height="21" viewBox="0 0 16 21" fill="none" xmlns="http://www.w3.org/2000/svg">
<rect width="16" height="21" fill="#F5F5F5"/>
<g id="Homepage" clip-path="url(#clip0_0_1)">
<rect width="390" height="1957" transform="translate(-188 -1295)" fill="white"/>
<g id="Capa_1" clip-path="url(#clip1_0_1)">
<path id="Vector" d="M7 45C16.3888 45 24 37.3888 24 28C24 18.6112 16.3888 11 7 11C-2.38884 11 -10 18.6112 -10 28C-10 37.3888 -2.38884 45 7 45Z" fill="#67323E"/>
<g id="Group">
<path id="Vector_2" d="M9.01 20.81C7.88 20.81 6.75 20.82 5.63 20.81C4.84 20.8 4.05 20.75 3.28 20.54C2.95 20.45 2.63 20.32 2.33 20.16C1.71 19.82 1.53 19.23 1.8 18.57C2.1 17.86 2.68 17.49 3.38 17.27C4.3 16.98 5.24 16.97 6.18 17.08C6.7 17.14 7.22 17.27 7.73 17.37C7.79 17.38 7.84 17.46 7.9 17.51C7.83 17.53 7.76 17.58 7.7 17.58C6.63 17.54 5.56 17.53 4.51 17.76C4.01 17.87 3.52 17.99 3.12 18.34C2.98 18.46 2.86 18.62 2.76 18.78C2.61 19.05 2.66 19.23 2.96 19.32C3.3 19.43 3.66 19.52 4.02 19.54C4.84 19.59 5.65 19.59 6.47 19.6C7.58 19.61 8.7 19.6 9.81 19.63C10.26 19.64 10.7 19.74 11.05 20.07C11.48 20.46 11.45 21.07 10.99 21.42C10.65 21.69 10.24 21.8 9.82 21.88C9.02 22.02 8.21 22.14 7.4 22.28C7.02 22.35 6.64 22.45 6.27 22.55C6.15 22.58 6.02 22.64 5.92 22.72C5.85 22.77 5.8 22.87 5.75 22.94C5.84 23 5.93 23.09 6.02 23.1C6.45 23.13 6.89 23.11 7.32 23.14C7.55 23.16 7.8 23.2 8.01 23.29C8.57 23.53 8.68 24.05 8.28 24.51C8.15 24.66 7.99 24.8 7.83 24.92C7.57 25.12 7.29 25.3 7.04 25.51C6.88 25.65 6.77 25.84 6.63 26C6.6 26.04 6.55 26.07 6.51 26.1C6.48 26.05 6.43 26.01 6.43 25.96C6.43 25.72 6.53 25.52 6.69 25.36C6.98 25.07 7.28 24.79 7.57 24.5C7.66 24.41 7.74 24.32 7.82 24.22C7.96 24.03 7.91 23.89 7.68 23.88C7.41 23.86 7.13 23.88 6.86 23.92C6.42 23.97 5.99 24.05 5.55 23.91C4.77 23.66 4.53 22.7 5.09 22.1C5.47 21.69 5.97 21.5 6.49 21.37C6.91 21.26 7.34 21.17 7.76 21.08C8.18 20.99 8.6 20.92 9.02 20.84C9.02 20.83 9.02 20.82 9.02 20.8L9.01 20.81Z" fill="#E9E6E1"/>
</g>
</g>
<rect id="Rectangle 2" x="-188" y="-26" width="390" height="210" fill="#E8E5E0"/>
<g id="Icono_1" clip-path="url(#clip2_0_1)">
<path id="Vector_3" d="M7 28C16.3888 28 24 20.3888 24 11C24 1.61116 16.3888 -6 7 -6C-2.38884 -6 -10 1.61116 -10 11C-10 20.3888 -2.38884 28 7 28Z" fill="#702E3E"/>
<g id="Group_2">
<path id="Vector_4" d="M3.29 20.29C3.11 20.19 2.9 20.11 2.75 19.97C2.44 19.67 2.39 19.3 2.52 18.92C2.25 18.71 1.97 18.53 1.73 18.31C1.09 17.7 0.79 16.93 0.79 16.06C0.79 14.09 0.79 12.11 0.79 10.14C0.79 9.75999 1 9.54999 1.38 9.54999C4.79 9.54999 8.2 9.54999 11.61 9.54999C11.88 9.54999 12.08 9.63999 12.19 9.90999C12.21 9.95999 12.32 10.01 12.38 10.02C12.84 10.05 13.3 10.13 13.72 10.33C14.72 10.79 15.25 11.66 15.18 12.82C15.09 14.28 14.43 15.42 13.18 16.2C12.92 16.37 12.61 16.46 12.31 16.57C12.2 16.61 12.15 16.65 12.13 16.76C11.93 17.67 11.41 18.36 10.6 18.82C10.55 18.85 10.48 18.94 10.5 18.99C10.67 19.55 10.31 20.15 9.77 20.27C9.75 20.27 9.74 20.29 9.72 20.3H3.27L3.29 20.29ZM12.25 11.55V14.93C12.94 14.69 13.71 13.54 13.65 12.61C13.62 12.11 13.43 11.83 12.94 11.69C12.72 11.63 12.49 11.6 12.25 11.56V11.55Z" fill="#E9E6E1"/>
<path id="Vector_5" d="M9.01 3.81C7.88 3.81 6.75 3.82 5.63 3.81C4.84 3.8 4.05 3.75 3.28 3.54C2.95 3.45 2.63 3.32 2.33 3.16C1.71 2.82 1.53 2.23 1.8 1.57C2.1 0.860003 2.68 0.490003 3.38 0.270003C4.3 -0.0199971 5.24 -0.0299971 6.18 0.0800029C6.7 0.140003 7.22 0.270003 7.73 0.370003C7.79 0.380003 7.84 0.460003 7.9 0.510003C7.83 0.530003 7.76 0.580003 7.7 0.580003C6.63 0.540003 5.56 0.530003 4.51 0.760003C4.01 0.870003 3.52 0.990003 3.12 1.34C2.98 1.46 2.86 1.62 2.76 1.78C2.61 2.05 2.66 2.23 2.96 2.32C3.3 2.43 3.66 2.52 4.02 2.54C4.84 2.59 5.65 2.59 6.47 2.6C7.58 2.61 8.7 2.6 9.81 2.63C10.26 2.64 10.7 2.74 11.05 3.07C11.48 3.46 11.45 4.07 10.99 4.42C10.65 4.69 10.24 4.8 9.82 4.88C9.02 5.02 8.21 5.14 7.4 5.28C7.02 5.35 6.64 5.45 6.27 5.55C6.15 5.58 6.02 5.64 5.92 5.72C5.85 5.77 5.8 5.87 5.75 5.94C5.84 6 5.93 6.09 6.02 6.1C6.45 6.13 6.89 6.11 7.32 6.14C7.55 6.16 7.8 6.2 8.01 6.29C8.57 6.53 8.68 7.05 8.28 7.51C8.15 7.66 7.99 7.8 7.83 7.92C7.57 8.12 7.29 8.3 7.04 8.51C6.88 8.65 6.77 8.84 6.63 9C6.6 9.04 6.55 9.07 6.51 9.1C6.48 9.05 6.43 9.01 6.43 8.96C6.43 8.72 6.53 8.52 6.69 8.36C6.98 8.07 7.28 7.79 7.57 7.5C7.66 7.41 7.74 7.32 7.82 7.22C7.96 7.03 7.91 6.89 7.68 6.88C7.41 6.86 7.13 6.88 6.86 6.92C6.42 6.97 5.99 7.05 5.55 6.91C4.77 6.66 4.53 5.7 5.09 5.1C5.47 4.69 5.97 4.5 6.49 4.37C6.91 4.26 7.34 4.17 7.76 4.08C8.18 3.99 8.6 3.92 9.02 3.84C9.02 3.83 9.02 3.82 9.02 3.8L9.01 3.81Z" fill="#E9E6E1"/>
</g>
</g>
</g>
<defs>
<clipPath id="clip0_0_1">
<rect width="390" height="1957" fill="white" transform="translate(-188 -1295)"/>
</clipPath>
<clipPath id="clip1_0_1">
<rect width="34" height="34" fill="white" transform="translate(-10 11)"/>
</clipPath>
<clipPath id="clip2_0_1">
<rect width="34" height="34" fill="white" transform="translate(-10 -6)"/>
</clipPath>
</defs>
</svg>
