<svg width="74" height="70" viewBox="0 0 74 70" fill="none" xmlns="http://www.w3.org/2000/svg">
<g id="Group">
<path id="Vector" d="M54.9501 31.9586H53.1563V33.5791H54.9501V31.9586Z" fill="white"/>
<path id="Vector_2" d="M41.1847 31.4332L40.7284 33.0579H41.8009L41.3445 31.4332H41.1847Z" fill="white"/>
<path id="Vector_3" d="M25.165 16.6719H25.0157L24.1052 19.9087H26.0756L25.165 16.6719Z" fill="white"/>
<path id="Vector_4" d="M27.1396 32.0217H25.5688V32.7489H27.1396V32.0217Z" fill="white"/>
<path id="Vector_5" d="M21.281 32.0217H19.7102V32.7489H21.281V32.0217Z" fill="white"/>
<path id="Vector_6" d="M73.8149 0H0.185053C0.0820119 0 0 0.084074 0 0.184963V69.8382C0 69.939 0.0820119 70.0126 0.18295 69.9979L73.8149 59.6652C73.9159 59.6505 74 59.5559 74 59.455V0.184963C74 0.084074 73.9159 0 73.8149 0ZM51.2953 7.85251H52.6706V9.5403C51.8 9.45202 51.1481 8.27078 51.2953 7.85251ZM52.1301 15.1123C53.3246 15.1123 54.294 15.8816 54.294 17.0775V19.8015C54.294 20.6107 53.8503 21.2245 53.1921 21.5377L53.1753 21.5587L54.3655 23.6815H50.5383L49.4595 21.7647H47.4113V23.7005H43.4495V15.1123H52.1259H52.1301ZM45.8236 8.33594H50.5593V9.5403H47.5522V10.1751H50.1787V11.0788H47.5522V11.7136H50.5593V12.918H45.8236V8.33383V8.33594ZM40.0828 8.33594H44.8185V9.5403H41.8093V10.1751H44.4357V11.144H41.8093V12.9201H40.0828V8.33594ZM38.3185 20.9996V15.1144H41.824V22.0022C41.824 23.1981 40.8546 23.9674 39.6601 23.9674H33.5366C32.3421 23.9674 31.3706 23.1981 31.3706 22.0022V15.1144H34.8488V20.9996H38.3185ZM34.26 8.33594H38.9956V9.5403H35.9885V10.1751H38.615V11.144H35.9885V12.9201H34.26V8.33594ZM28.7715 8.4116H32.0541L33.3242 12.9264H31.5115L31.3096 12.2096H29.5138L29.3119 12.9264H27.5013L28.7715 8.4116ZM21.954 9.24393C21.954 8.74369 22.3598 8.33804 22.8624 8.33804H26.6034V9.62857H23.6447V11.6295H26.6034V12.9285H22.8624C22.3619 12.9285 21.954 12.5228 21.954 12.0226V9.24604V9.24393ZM21.9645 15.1123H28.2226L30.6451 23.7215H27.1502L26.7653 22.3532H23.4218L23.0369 23.7215H19.542L21.9645 15.1123ZM7.5451 15.1123H11.0569L13.2502 17.3319L15.4435 15.1123H18.9553V23.7005H15.3951V21.4178L13.2481 23.0972L11.1032 21.4178V23.7005H7.54299V15.1123H7.5451ZM11.5595 31.8472H10.2851V34.712H8.81944V31.8472H7.5451V30.8257H11.5595V31.8472ZM17.0774 33.9302C17.0774 34.4199 16.6821 34.7772 16.1374 34.7772H13.2523C12.7076 34.7772 12.3123 34.422 12.3123 33.9302V31.6097C12.3123 31.12 12.7076 30.7627 13.2523 30.7627H16.1374C16.6821 30.7627 17.0774 31.1179 17.0774 31.6097V33.9302ZM22.936 32.957C22.936 33.2891 22.7636 33.5602 22.4629 33.7032L22.446 33.7116L22.4019 33.7683L22.4187 33.8251L22.9129 34.7078H21.2937L20.7848 33.8061H19.6934V34.7163H17.9858V30.8299H21.9939C22.5386 30.8299 22.9339 31.1872 22.9339 31.677V32.9612L22.936 32.957ZM28.7946 32.957C28.7946 33.2891 28.6222 33.5602 28.3215 33.7032L28.3046 33.7116L28.2605 33.7683L28.2794 33.8251L28.7736 34.7078H27.1523L26.6455 33.8061H25.5541V34.7163H23.8465V30.8299H27.8546C28.3993 30.8299 28.7946 31.1872 28.7946 31.677V32.9612V32.957ZM33.7216 31.8493H31.1729V32.3895H33.3999V33.1546H31.1729V33.6926H33.7216V34.7141H29.7072V30.8278H33.7216V31.8493ZM38.6465 31.8493H36.0958V32.3895H38.3227V33.2113H36.0958V34.7163H34.6322V30.8299H38.6465V31.8514V31.8493ZM42.2677 34.7141L42.0889 34.0794H40.4445L40.2658 34.7141H38.7643L39.8578 30.8278H42.6799L43.7733 34.7141H42.2698H42.2677ZM48.3786 31.7779L46.4734 33.7326L48.3723 33.7263V34.7078L44.3643 34.7163V33.7704L46.2421 31.8451H44.3643V30.832H48.3786V31.7821V31.7779ZM50.7549 34.7141H49.2892V30.8278H50.7549V34.7141ZM56.4305 33.9302C56.4305 34.4199 56.0352 34.7772 55.4905 34.7772H52.6075C52.0629 34.7772 51.6654 34.422 51.6654 33.9302V31.6097C51.6654 31.12 52.0608 30.7627 52.6075 30.7627H55.4905C56.0352 30.7627 56.4305 31.1179 56.4305 31.6097V33.9302ZM61.53 34.7141H60.1232L58.8026 32.9003V34.7141H57.3411V30.8278H58.914L60.0685 32.3307V30.8278H61.53V34.7141ZM66.457 31.8493H63.9062V32.3895H66.1332V33.1546H63.9062V33.6926H66.457V34.7141H62.4426V30.8278H66.457V31.8493ZM66.457 28.1227H7.54299V26.6136H66.457V28.1227ZM66.457 20.4237V22.0064C66.457 23.2023 65.4876 23.9716 64.2911 23.9716H58.1675C56.971 23.9716 56.0015 23.2023 56.0015 22.0064V17.0796C56.0015 15.8837 56.971 15.1144 58.1675 15.1144H64.2911C65.4855 15.1144 66.457 15.8837 66.457 17.0796V20.4237Z" fill="white"/>
<path id="Vector_7" d="M30.4706 9.22711H30.3507L29.8734 10.9254H30.9479L30.4706 9.22711Z" fill="white"/>
<path id="Vector_8" d="M15.5949 31.9586H13.8011V33.5791H15.5949V31.9586Z" fill="white"/>
<path id="Vector_9" d="M62.9789 17.9897H59.507V21.09H62.9789V17.9897Z" fill="white"/>
<path id="Vector_10" d="M50.4478 17.9897H47.4492V19.1941H50.4478V17.9897Z" fill="white"/>
</g>
</svg>
