<svg width="140" height="132" viewBox="0 0 140 132" fill="none" xmlns="http://www.w3.org/2000/svg">
<g clip-path="url(#clip0_1_255)">
<path d="M135.3 109L4.31006 127.72V3.44995H135.3V109Z" fill="white"/>
<path d="M103.55 60.25H100.17V63.3H103.55V60.25Z" fill="#702E3E"/>
<path d="M77.61 59.26L76.75 62.33H78.77L77.91 59.26H77.61Z" fill="#702E3E"/>
<path d="M47.4199 31.4301H47.1399L45.4299 37.5401H49.1399L47.4199 31.4301Z" fill="#702E3E"/>
<path d="M51.1399 60.37H48.1799V61.74H51.1399V60.37Z" fill="#702E3E"/>
<path d="M40.0999 60.37H37.1399V61.74H40.0999V60.37Z" fill="#702E3E"/>
<path d="M139.1 0H0.35C0.16 0 0 0.16 0 0.35V131.67C0 131.86 0.16 132 0.35 131.97L139.11 112.49C139.3 112.46 139.46 112.28 139.46 112.09V0.35C139.46 0.16 139.3 0 139.11 0H139.1ZM96.66 14.8H99.25V17.98C97.61 17.81 96.38 15.59 96.66 14.8ZM98.23 28.49C100.48 28.49 102.31 29.94 102.31 32.2V37.34C102.31 38.86 101.47 40.02 100.23 40.61L100.2 40.65L102.44 44.65H95.23L93.2 41.04H89.34V44.69H81.88V28.5H98.23V28.49ZM86.34 15.71H95.26V17.98H89.59V19.18H94.54V20.88H89.59V22.08H95.26V24.35H86.34V15.71ZM75.52 15.71H84.44V17.98H78.77V19.18H83.72V21.01H78.77V24.36H75.52V15.72V15.71ZM72.2 39.59V28.49H78.8V41.48C78.8 43.74 76.97 45.18 74.72 45.18H63.18C60.93 45.18 59.1 43.73 59.1 41.48V28.49H65.66V39.59H72.2ZM64.55 15.71H73.47V17.98H67.8V19.18H72.75V21.01H67.8V24.36H64.54V15.72L64.55 15.71ZM54.21 15.85H60.4L62.79 24.36H59.37L58.99 23.01H55.61L55.23 24.36H51.82L54.21 15.85ZM41.36 17.42C41.36 16.48 42.13 15.71 43.07 15.71H50.12V18.14H44.54V21.91H50.12V24.36H43.07C42.12 24.36 41.36 23.6 41.36 22.65V17.41V17.42ZM41.38 28.49H53.17L57.73 44.72H51.14L50.41 42.14H44.11L43.38 44.72H36.8L41.37 28.49H41.38ZM14.21 28.49H20.83L24.96 32.67L29.09 28.49H35.71V44.68H29V40.38L24.95 43.55L20.91 40.38V44.68H14.2V28.49H14.21ZM21.77 60.04H19.37V65.44H16.61V60.04H14.21V58.11H21.77V60.04ZM32.17 63.97C32.17 64.89 31.43 65.57 30.4 65.57H24.96C23.93 65.57 23.19 64.9 23.19 63.97V59.6C23.19 58.68 23.94 58 24.96 58H30.4C31.43 58 32.17 58.67 32.17 59.6V63.97ZM43.21 62.13C43.21 62.75 42.88 63.27 42.32 63.54H42.29L42.21 63.66L42.24 63.77L43.17 65.43H40.12L39.16 63.73H37.1V65.45H33.88V58.12H41.43C42.46 58.12 43.2 58.79 43.2 59.72V62.14L43.21 62.13ZM54.25 62.13C54.25 62.75 53.92 63.27 53.36 63.54H53.33L53.25 63.66L53.28 63.77L54.21 65.43H51.16L50.2 63.73H48.14V65.45H44.92V58.12H52.47C53.5 58.12 54.24 58.79 54.24 59.72V62.14L54.25 62.13ZM63.53 60.04H58.73V61.06H62.93V62.5H58.73V63.52H63.53V65.45H55.96V58.12H63.53V60.05V60.04ZM72.81 60.04H68V61.06H72.2V62.61H68V65.45H65.24V58.12H72.8V60.05L72.81 60.04ZM79.63 65.44L79.29 64.24H76.19L75.85 65.44H73.02L75.08 58.11H80.4L82.46 65.44H79.63ZM91.15 59.9L87.56 63.59H91.14V65.43H83.59V63.66L87.13 60.03H83.59V58.12H91.15V59.91V59.9ZM95.63 65.44H92.87V58.11H95.63V65.44ZM106.33 63.96C106.33 64.88 105.59 65.56 104.56 65.56H99.13C98.1 65.56 97.36 64.89 97.36 63.96V59.59C97.36 58.67 98.11 57.99 99.13 57.99H104.56C105.59 57.99 106.33 58.66 106.33 59.59V63.96ZM115.94 65.44H113.29L110.8 62.02V65.44H108.05V58.11H111.01L113.19 60.94V58.11H115.94V65.44ZM125.22 60.04H120.41V61.06H124.61V62.5H120.41V63.52H125.22V65.45H117.65V58.12H125.22V60.05V60.04ZM125.22 53.01H14.22V50.16H125.24V53.01H125.22ZM125.22 38.49V41.47C125.22 43.73 123.39 45.17 121.14 45.17H109.6C107.35 45.17 105.52 43.72 105.52 41.47V32.18C105.52 29.92 107.35 28.47 109.6 28.47H121.14C123.39 28.47 125.22 29.92 125.22 32.18V38.48V38.49Z" fill="#702E3E"/>
<path d="M57.42 17.4H57.2001L56.3 20.6H58.32L57.42 17.4Z" fill="#702E3E"/>
<path d="M29.39 60.25H26.01V63.3H29.39V60.25Z" fill="#702E3E"/>
<path d="M118.68 33.92H112.14V39.77H118.68V33.92Z" fill="#702E3E"/>
<path d="M95.0699 33.92H89.4199V36.19H95.0699V33.92Z" fill="#702E3E"/>
</g>
<defs>
<clipPath id="clip0_1_255">
<rect width="139.45" height="131.97" fill="white"/>
</clipPath>
</defs>
</svg>
