<svg width="102" height="103" viewBox="0 0 102 103" fill="none" xmlns="http://www.w3.org/2000/svg">
<g id="Group 60">
<path id="Vector" d="M67.111 32.5608C67.111 32.5608 67.0773 32.5608 67.0604 32.5608C66.8578 32.5608 66.6384 32.6537 66.4781 32.814C66.3093 32.9828 66.2249 33.1938 66.2333 33.3879C66.2755 33.9365 66.5456 34.215 67.0604 34.2487C67.2883 34.2741 67.4908 34.1897 67.6512 34.0462C67.8284 33.8774 67.9297 33.6242 67.9297 33.3373C67.8959 32.8647 67.6258 32.603 67.1195 32.5608H67.111Z" fill="#E8E5E0"/>
<path id="Vector_2" d="M77.8799 31.4552V33.2191C77.8799 33.5989 77.7617 33.9027 77.5592 34.0715C77.4495 34.1643 77.2469 34.2656 76.9431 34.2065C76.5971 34.139 76.2342 33.6326 76.192 33.2613C76.1245 32.7802 76.1413 32.2907 76.1498 31.7844C76.1498 31.6662 76.1498 31.5481 76.1498 31.4299C75.1539 31.7928 74.6222 32.6874 74.791 33.7845C74.9598 34.907 75.9725 35.7594 77.095 35.675C78.2681 35.6159 79.2049 34.6876 79.2724 33.5229C79.323 32.5608 78.7323 31.7 77.8799 31.4552Z" fill="#E8E5E0"/>
<path id="Vector_3" d="M64.8577 43.5069H61.4903V47.0937C62.0558 46.8911 62.6128 46.7898 63.1613 46.7898C63.7099 46.7898 64.2838 46.8911 64.8492 47.1021V43.5069H64.8577Z" fill="#E8E5E0"/>
<path id="Vector_4" d="M61.1612 32.5608C61.1612 32.5608 61.1359 32.5608 61.119 32.5608C60.5873 32.5946 60.3088 32.8647 60.2835 33.3879C60.275 33.6242 60.351 33.8436 60.5113 34.004C60.6717 34.1643 60.8911 34.2403 61.1274 34.2487C61.6085 34.2319 61.8785 33.9871 61.9798 33.4639C61.9798 33.2107 61.8785 32.9575 61.6929 32.7803C61.541 32.6368 61.3553 32.5524 61.1612 32.5524V32.5608Z" fill="#E8E5E0"/>
<path id="Vector_5" d="M58.7053 57.3139C59.8193 56.4616 60.8236 55.913 61.8195 55.6682C61.0346 55.4066 60.2919 54.9256 59.6421 54.242C58.9416 55.1197 58.6293 56.1155 58.6969 57.3055L58.7053 57.3139Z" fill="#E8E5E0"/>
<path id="Vector_6" d="M64.8577 53.0857C65.3134 52.6384 65.575 52.0308 65.5835 51.3809C65.5835 50.7227 65.3472 50.1066 64.8999 49.6508C64.461 49.2035 63.8534 48.9504 63.212 48.9504H63.1951C61.8448 48.9504 60.773 49.9884 60.7476 51.3303C60.7392 51.9548 60.9755 52.554 61.4228 53.0182C61.8785 53.4908 62.4946 53.7609 63.1445 53.7693C63.8027 53.7524 64.4019 53.5415 64.8577 53.0942V53.0857ZM63.1951 50.9421C62.9925 51.0096 62.7562 51.1868 62.6887 51.3725C62.5706 51.7016 62.3849 51.9464 62.0811 51.7776C61.9123 51.6848 61.7773 51.305 61.811 51.0771C61.8954 50.4357 62.4777 49.9969 63.1107 49.98C63.8449 49.9631 64.461 50.5286 64.5032 51.2544C64.5539 51.997 64.0475 52.6722 63.3301 52.7228C63.1276 52.7397 62.9081 52.5203 62.6887 52.4021C62.8322 52.208 62.9588 52.0139 63.1107 51.8367C63.2542 51.6679 63.4736 51.5244 63.5411 51.3387C63.5664 51.2459 63.2542 50.9168 63.1782 50.9505L63.1951 50.9421Z" fill="#E8E5E0"/>
<path id="Vector_7" d="M39.3197 32.2739H37.2351V34.6369H39.3197V32.2739Z" fill="#E8E5E0"/>
<path id="Vector_8" d="M35.4207 32.2823H33.5049V34.6116H35.4207V32.2823Z" fill="#E8E5E0"/>
<path id="Vector_9" d="M55.186 32.5693H55.1691C54.629 32.5777 54.3421 32.8478 54.2999 33.3626C54.2661 33.8774 54.5193 34.1728 55.051 34.2487C55.2704 34.2741 55.4898 34.215 55.6671 34.0715C55.8527 33.9196 55.9709 33.7002 55.9793 33.4639C55.9962 33.236 55.9034 32.9913 55.7346 32.814C55.5742 32.6537 55.3801 32.5608 55.1776 32.5608L55.186 32.5693Z" fill="#E8E5E0"/>
<path id="Vector_10" d="M25.1835 31.1936C24.1455 31.1092 23.3268 31.6325 23.0146 32.5608H24.7615C25.04 32.5608 25.808 32.5608 25.8165 33.4048C25.8165 33.9787 25.4705 34.2741 24.7784 34.2825C24.3058 34.2825 23.8332 34.2825 23.3353 34.2825H22.9977C23.4956 35.3206 24.3986 35.8354 25.4029 35.6244C26.5592 35.3881 27.3103 34.4175 27.2343 33.2698C27.1584 32.1557 26.2975 31.278 25.192 31.1936H25.1835Z" fill="#E8E5E0"/>
<path id="Vector_11" d="M43.2356 32.2823H41.1257V34.6201H43.2356V32.2823Z" fill="#E8E5E0"/>
<path id="Vector_12" d="M46.9237 32.2654H45.0501V34.6032H46.9237V32.2654Z" fill="#E8E5E0"/>
<path id="Vector_13" d="M42.3242 54.2166C41.6997 54.9509 40.9907 55.4319 40.189 55.6851C41.3114 55.913 42.3411 56.4446 43.2947 57.2802C43.3622 56.0986 43.05 55.1196 42.3242 54.2166Z" fill="#E8E5E0"/>
<path id="Vector_14" d="M22.1031 58.3267C22.1031 58.8668 22.0946 59.3816 22.12 59.8964C22.1368 60.2509 22.3056 60.4112 22.6263 60.3859C22.9386 60.3859 23.0652 60.2425 23.0736 59.9302C23.0905 59.3985 23.0821 58.8584 23.0736 58.3098V57.9891H22.0946V58.3267H22.1031Z" fill="#E8E5E0"/>
<path id="Vector_15" d="M79.3652 60.3859C79.7112 60.4197 79.8547 60.2509 79.8716 59.9049C79.8969 59.3732 79.8885 58.8415 79.8885 58.3014V57.9976H78.9095V58.3014C78.9095 58.85 78.9095 59.3901 78.9095 59.9302C78.9095 60.2509 79.0445 60.3859 79.3568 60.3944L79.3652 60.3859Z" fill="#E8E5E0"/>
<path id="Vector_16" d="M82.2093 0.583496H19.7907C8.86149 0.583496 0 9.44499 0 20.3742V82.7928C0 93.722 8.86149 102.583 19.7907 102.583H82.2093C93.1385 102.583 102 93.722 102 82.7928V20.3742C102 9.44499 93.1385 0.583496 82.2093 0.583496ZM92.6153 72.5895C92.0667 76.4126 88.75 79.2314 84.7243 79.2989C84.1757 79.3073 83.6272 79.2989 83.0533 79.2989H82.6482C82.6735 80.607 82.5047 81.9911 81.2388 82.911C80.5383 83.4174 79.6522 83.7465 78.8673 83.7887C78.1499 83.8393 77.2553 83.5693 76.5717 83.0966C75.9979 82.7 75.483 82.0164 75.1792 81.2653C74.9767 80.7505 74.9345 80.1935 74.8923 79.6618C74.8923 79.5605 74.8754 79.4508 74.867 79.3495H27.074C27.074 80.5986 26.9305 82.1346 25.4873 83.0545C24.7447 83.5271 23.8163 83.814 22.9977 83.814H22.9639C20.5587 83.814 19.7316 82.0333 19.3096 79.3242H17.8496C12.6762 79.3158 9.19907 75.8471 9.19063 70.6906C9.19063 69.2474 9.19063 67.8127 9.19063 66.3695C9.19063 64.9433 9.46914 64.6732 10.9292 64.6732H14.9295V61.1117C14.9295 57.1029 14.9295 53.1026 14.9042 49.0938C14.9042 48.79 14.727 48.3765 14.4907 48.1317C13.6973 47.3047 12.8871 46.486 12.0685 45.6758C11.309 44.9163 10.541 44.1567 9.79828 43.3803C9.45226 43.0174 9.21595 42.4519 9.21595 41.9624C9.21595 32.8393 16.2714 24.5433 25.2932 23.0664C26.6098 22.8554 27.8926 22.7457 29.0826 22.7372C43.7167 22.7119 58.3508 22.7119 72.9849 22.7288C82.5132 22.7288 90.3028 28.9994 92.3705 38.3081C92.4887 38.8314 92.5646 39.2365 92.6068 39.6247C92.9782 42.5785 92.9275 42.722 90.8008 44.8319L90.2775 45.3467C89.307 46.3004 88.3364 47.2625 87.3912 48.2415C87.2224 48.4187 87.0874 48.6803 87.0874 48.8407C87.0705 53.4402 87.0705 58.0313 87.0705 62.6308V64.6732H88.0157C89.0875 64.6732 90.1509 64.6732 91.2143 64.6732C91.7797 64.6732 92.2017 64.6985 92.4971 64.9939C92.784 65.2893 92.8009 65.7366 92.7925 66.2851C92.784 66.8843 92.7925 67.492 92.7925 68.0912C92.8009 69.5681 92.8178 71.1041 92.6068 72.5895H92.6153Z" fill="#E8E5E0"/>
<path id="Vector_17" d="M73.4238 24.8978C60.6885 24.8556 47.7423 24.864 35.2181 24.8809H28.7196C25.1666 24.8893 21.9005 25.9105 19.0142 27.9107C14.3978 31.1177 11.8913 35.4809 11.368 41.2367H90.6066C90.0412 32.1051 82.5047 24.9315 73.4238 24.8978ZM27.7322 36.2742C26.9895 37 26.019 37.3967 24.9978 37.3967C24.9725 37.3967 24.9387 37.3967 24.9134 37.3967C23.85 37.3714 22.8457 36.9241 22.0946 36.1307C21.352 35.3543 20.9637 34.35 20.9975 33.3119C21.065 31.1092 22.9048 29.396 25.0991 29.4298C27.2765 29.4888 29.0066 31.2949 28.956 33.4554C28.9306 34.5272 28.5002 35.5315 27.7322 36.2742ZM48.696 35.1518C48.696 35.5822 48.6116 35.8944 48.4006 36.097C48.1981 36.308 47.8858 36.4008 47.4723 36.4008C42.6617 36.3924 37.7837 36.3924 32.9732 36.4008H32.9647C32.5259 36.4008 32.2136 36.2995 32.0111 36.0885C31.8001 35.8776 31.7072 35.5484 31.7241 35.1011C31.7494 34.3922 31.741 33.6664 31.741 32.9659C31.741 32.5946 31.741 32.2148 31.741 31.8435C31.741 30.7295 31.9857 30.4931 33.0744 30.4931C34.7286 30.4931 36.3827 30.4931 38.0369 30.4931H42.1891C43.9023 30.5016 45.6746 30.5016 47.4132 30.4847C47.8942 30.4678 48.2065 30.5775 48.4175 30.797C48.62 31.008 48.7213 31.3118 48.7044 31.7422C48.6791 32.8309 48.6791 33.9787 48.7044 35.1518H48.696ZM56.9752 35.2024C56.4857 35.7003 55.8358 35.9704 55.1438 35.9788H55.1353C53.6922 35.9788 52.5697 34.8564 52.5613 33.4217C52.5613 32.7212 52.8229 32.0629 53.3124 31.5734C53.7935 31.0924 54.4349 30.8223 55.1185 30.8223C56.5363 30.8223 57.701 31.9701 57.7178 33.3879C57.7178 34.0715 57.4646 34.7129 56.9836 35.2024H56.9752ZM62.9672 35.2024C62.4693 35.7003 61.811 35.9788 61.1021 35.9788C60.4016 35.9788 59.7518 35.7088 59.2707 35.2193C58.7896 34.7298 58.528 34.0799 58.5365 33.3795C58.5533 31.9869 59.6927 30.8392 61.0768 30.8223H61.1021C62.5199 30.8223 63.6846 31.9701 63.7099 33.3879C63.7183 34.0631 63.4567 34.7045 62.9757 35.194L62.9672 35.2024ZM68.9086 35.2362C68.4276 35.7172 67.7777 35.9788 67.0773 35.9788H67.0688C66.3683 35.9788 65.7101 35.7003 65.2206 35.2024C64.7395 34.7129 64.4779 34.0631 64.4863 33.3795C64.5032 32.0123 65.6847 30.8476 67.0519 30.8307C67.7355 30.8476 68.3938 31.0839 68.8749 31.565C69.3728 32.0545 69.6429 32.7043 69.6429 33.4048C69.6429 34.1053 69.3812 34.7635 68.9002 35.2446L68.9086 35.2362ZM77.0021 37.3967H76.9768C75.9303 37.3967 74.9429 36.9831 74.1918 36.232C73.4238 35.4725 73.0102 34.4682 73.0102 33.4048C73.0187 31.1852 74.7825 29.4382 77.019 29.4382C79.1542 29.4382 80.9687 31.2443 80.9771 33.3795C80.9856 35.5484 79.1626 37.3882 77.0021 37.3967Z" fill="#E8E5E0"/>
<path id="Vector_18" d="M17.0985 49.212C17.0647 52.8663 17.0647 56.5797 17.0731 60.1749V64.6226H84.9353V64.1246C84.9353 62.8081 84.9353 61.4999 84.9522 60.1834C84.9691 56.9426 84.9859 53.5837 84.9015 50.2923C84.8509 48.2415 85.4079 46.8911 86.7751 45.794C87.4925 45.2117 88.1339 44.5281 88.8175 43.8107C88.9103 43.7179 88.9947 43.6166 89.0875 43.5238H74.3015V44.7222C74.3015 45.9206 74.3015 47.1021 74.3015 48.2752C74.3099 49.7859 75.002 50.5032 76.538 50.6045C78.7238 50.748 80.3611 52.4443 80.4202 54.6386C80.4286 54.9931 80.4202 55.3391 80.4202 55.6935V55.8033C80.4202 55.8033 80.4792 55.8033 80.5045 55.8033C81.7283 55.8455 82.0068 56.1408 82.0152 57.3815V58.0397C82.0321 58.6558 82.0321 59.2972 82.0068 59.9302C81.9308 61.4155 80.7999 62.5211 79.3652 62.5211C79.3483 62.5211 79.3315 62.5211 79.3061 62.5211C77.8799 62.4958 76.7996 61.3987 76.7405 59.9133C76.7236 59.466 76.7236 59.0103 76.7321 58.563C76.7321 58.141 76.7321 57.7275 76.7321 57.3055C76.7152 56.7569 76.8334 56.3603 77.1119 56.1071C77.3735 55.8623 77.7448 55.7611 78.2343 55.8117C78.2512 55.8117 78.2681 55.8117 78.285 55.8117V55.2547C78.285 53.5161 77.7279 52.9001 75.9978 52.7313C74.8248 52.6216 73.8542 52.1152 73.1115 51.2375C72.2423 50.2079 72.1325 49.0179 72.1494 47.9883C72.1579 46.8574 72.1579 45.718 72.1494 44.5703V43.5069H67.052V44.1145C67.052 44.8656 67.052 45.5914 67.052 46.3172C67.052 46.5367 67.052 46.7645 67.052 46.984C67.0351 48.0811 67.0182 49.1192 67.5161 50.0981C67.6765 50.4104 67.6765 50.7564 67.6849 51.0687C67.6849 51.2375 67.6849 51.3978 67.7187 51.5582C67.7946 51.9295 67.879 52.3009 68.0394 52.4865C69.8876 54.5373 70.3602 57.3983 69.2378 59.7698C69.0606 60.1327 68.6723 60.5716 68.2335 60.6644C67.744 60.7657 67.2376 60.2003 67.0773 59.9724C66.1152 58.5461 64.6889 57.7275 63.1613 57.7275C61.6507 57.7275 60.2497 58.5292 59.296 59.9302C59.1104 60.2087 58.6293 60.7066 58.123 60.6644C57.6419 60.6138 57.2452 60.0737 57.0933 59.7276C56.0722 57.3308 56.3422 55.069 57.9035 53.0182L58.0723 52.7988C58.528 52.2165 58.7812 51.8536 58.6378 51.2544C58.5534 50.9083 58.6631 50.5623 58.7559 50.2585C58.7897 50.1403 58.8319 50.0138 58.8572 49.8956L58.9753 49.2795C59.0851 48.6887 59.2032 48.0811 59.2707 47.4819C59.3129 47.0852 59.3045 46.6717 59.2876 46.2413C59.2876 46.0472 59.2792 45.8531 59.2792 45.6505V43.5069H42.704V44.2496C42.704 45.161 42.704 46.0556 42.704 46.9502V47.3891C42.6955 48.2836 42.6871 49.136 43.1091 49.9294C43.4213 50.5117 43.3876 51.2797 43.3369 51.6848C43.2947 52.0139 43.3622 52.1911 43.6323 52.4697C45.4974 54.4361 45.9954 57.3561 44.856 59.7361C44.7126 60.0315 44.3159 60.6138 43.8095 60.6475C43.3285 60.6729 42.8559 60.1918 42.6533 59.8964C41.7165 58.5123 40.3156 57.719 38.8049 57.719C37.2858 57.719 35.8679 58.5208 34.9143 59.9217C34.7624 60.1496 34.2476 60.7066 33.7243 60.6475C33.2517 60.5885 32.855 60.0483 32.7116 59.7023C31.7832 57.5418 31.9351 55.4404 33.1335 53.6259L33.3699 53.2714C33.9606 52.3937 34.4754 51.6426 34.3235 50.6045C34.2898 50.3767 34.3657 50.1741 34.4332 50.0138C34.4585 49.9547 34.4839 49.8956 34.4923 49.8365C34.5345 49.6087 34.5851 49.3892 34.6358 49.1614C34.7539 48.6044 34.8721 48.0727 34.8974 47.541C34.948 46.5957 34.9312 45.6252 34.9227 44.6884C34.9227 44.3424 34.9143 43.9964 34.9143 43.6588C34.9143 43.5997 34.9143 43.5406 34.9058 43.4816H29.7746V45.3973C29.7746 46.4692 29.7831 47.5494 29.7662 48.6212C29.7155 50.8577 28.1205 52.5372 25.8671 52.7228H25.7658C25.5127 52.7482 25.2764 52.765 25.0738 52.8326C23.926 53.187 23.4197 54.2841 23.7066 55.7779C25.0485 55.9383 25.2004 56.1999 25.2004 57.7697V58.4026C25.2004 58.9006 25.2088 59.3985 25.2004 59.8964C25.1498 61.3818 24.0779 62.4789 22.6348 62.5127C21.2169 62.5211 20.0017 61.4071 19.9426 59.9217C19.9257 59.3985 19.9257 58.8837 19.9341 58.3604V57.7022C19.9341 56.1408 20.0945 55.9045 21.5376 55.7779V55.4572C21.563 52.2502 22.6601 51.0181 25.8671 50.5623C26.6689 50.4526 27.5297 49.8872 27.5719 49.0685C27.631 47.6676 27.6225 46.2328 27.6057 44.8488C27.6057 44.4015 27.6057 43.9542 27.5972 43.5153H12.8196C12.9884 43.6841 13.1488 43.8445 13.3176 44.0048C14.229 44.9078 15.0899 45.7518 15.976 46.5536C16.7609 47.2625 17.1069 48.0811 17.0985 49.2036V49.212Z" fill="#E8E5E0"/>
<path id="Vector_19" d="M21.5123 79.3664C21.4532 80.3453 21.6051 80.9867 22.3225 81.4425C22.9048 81.8138 23.504 81.8138 24.0948 81.4425C24.8122 80.9952 24.9641 80.3538 24.905 79.3579H21.5207L21.5123 79.3664Z" fill="#E8E5E0"/>
<path id="Vector_20" d="M89.9737 69.8466C89.1466 69.8466 88.3195 69.8466 87.4925 69.8466C87.062 69.8466 86.6063 69.8466 86.294 69.5343C86.1084 69.3402 86.0155 69.0786 86.024 68.741C86.0493 67.6945 86.9776 67.6945 87.4418 67.6945C88.3195 67.6945 89.1719 67.6945 90.0327 67.6945H90.6151V66.8674H11.3258V67.8549C11.3258 68.8676 11.3258 69.855 11.3258 70.8424C11.3427 74.5643 13.9252 77.1636 17.5964 77.1636C39.8514 77.1721 62.1148 77.1721 84.3698 77.1636C86.3447 77.1636 88.0832 76.3788 89.2563 74.9525C90.3872 73.5853 90.8683 71.737 90.5982 69.8466H89.9737Z" fill="#E8E5E0"/>
<path id="Vector_21" d="M77.1203 79.3495C77.0022 80.683 77.4157 81.1471 77.8799 81.4425C78.4791 81.8223 79.2133 81.797 79.7619 81.3919C80.4202 80.9024 80.5468 80.261 80.4792 79.3495H77.1203Z" fill="#E8E5E0"/>
<path id="Vector_22" d="M38.7965 53.7525H38.8133C40.1299 53.7525 41.2186 52.6806 41.2355 51.3556C41.2355 50.7311 40.9992 50.1319 40.5434 49.6677C40.0793 49.1951 39.4716 48.9419 38.8218 48.9419C37.4461 48.9419 36.4081 49.9715 36.3996 51.3303C36.3996 52.6975 37.4208 53.744 38.788 53.7525H38.7965ZM37.4039 51.1953C37.4039 51.0012 37.6234 50.7986 37.7415 50.5961C37.9356 50.7227 38.1382 50.8239 38.307 50.9758C38.4926 51.1362 38.653 51.3303 38.8218 51.5075C38.9821 51.3387 39.1256 51.1615 39.2944 51.0096C39.4716 50.8577 39.6657 50.7227 39.8514 50.5876C39.978 50.8071 40.2059 51.018 40.2059 51.2375C40.2059 51.938 39.5307 52.4865 38.7965 52.4781C38.0707 52.4781 37.4208 51.9126 37.4039 51.2037V51.1953Z" fill="#E8E5E0"/>
<path id="Vector_23" d="M40.4928 43.4731H37.117V47.1106C38.2057 46.6886 39.3197 46.6886 40.4928 47.1021V43.4731Z" fill="#E8E5E0"/>
<path id="Vector_24" d="M66.7144 54.2757C66.0308 54.9931 65.2375 55.491 64.4019 55.7273C65.3894 55.9889 66.4527 56.5206 67.6596 57.3139C67.8031 56.3265 67.4402 55.1534 66.7144 54.2757Z" fill="#E8E5E0"/>
<path id="Vector_25" d="M34.3488 57.2717C35.2772 56.4531 36.3152 55.9214 37.4546 55.6851C36.6697 55.4404 35.9608 54.9593 35.3109 54.242C34.5767 55.1703 34.2138 56.3181 34.3488 57.2633V57.2717Z" fill="#E8E5E0"/>
</g>
</svg>
