<svg width="103" height="103" viewBox="0 0 103 103" fill="none" xmlns="http://www.w3.org/2000/svg">
<g id="Group">
<path id="Vector" d="M37.619 63.5034C38.0747 63.5034 38.2182 63.3431 38.2013 62.9127C38.176 62.2628 38.2013 61.6045 38.2013 60.9463C38.2013 60.2458 38.2266 59.5369 38.2013 58.8364C38.1676 58.0262 37.7625 57.6633 36.9523 57.6464C36.7497 57.6464 36.5556 57.6464 36.3531 57.6464C36.1421 57.6464 35.9226 57.6464 35.7117 57.6464C34.5301 57.6295 34.201 57.3341 34.1757 56.1526C34.1757 56.0345 34.1588 55.9501 34.1335 55.8741C34.066 55.68 33.914 55.6209 33.6271 55.6294C32.7747 55.6547 31.9308 55.68 31.0784 55.6294C30.3694 55.5872 30.4116 55.8741 30.6058 56.372C31.205 57.9418 32.5215 59.0474 34.1335 59.3596C34.3782 59.4103 34.6314 59.444 34.893 59.4525C36.0239 59.4947 36.3531 59.8322 36.3531 60.9631C36.3531 61.402 36.3531 61.8324 36.3531 62.2713C36.3531 62.3725 36.3531 62.4485 36.3531 62.5329C36.3531 63.5372 36.4459 63.5372 37.6359 63.5203L37.619 63.5034Z" fill="#702E3E"/>
<path id="Vector_2" d="M46.6155 53.6376H37.9481C37.1295 53.6376 36.4543 54.2537 36.3615 55.0555C36.4459 55.3171 36.6822 55.4774 37.2476 55.4859C39.0368 55.5281 40.3027 56.8784 40.3618 58.6845C40.4209 60.6002 40.3871 62.516 40.3703 64.4318C40.3703 65.2673 39.9398 65.6639 39.0959 65.6808C38.3448 65.6977 37.5937 65.6977 36.8425 65.6808C36.505 65.6724 36.3699 65.7568 36.3446 66.0775V70.6348C36.353 74.3313 36.3615 78.0278 36.3699 81.7159C36.3699 81.9185 36.3699 82.121 36.3699 82.3236C36.4543 82.9312 36.8594 83.4207 37.4249 83.6232C40.6656 83.5979 43.9149 83.5895 47.1556 83.6232C47.7886 83.4038 48.2359 82.813 48.2359 82.1126V55.2496C48.2359 54.3634 47.5101 53.6376 46.6239 53.6376H46.6155Z" fill="#702E3E"/>
<path id="Vector_3" d="M32.7832 61.2416C32.3528 61.1235 32.2768 61.2838 32.2853 61.6552C32.2937 63.208 32.2684 64.7525 32.2937 66.3053C32.319 67.5291 32.3443 67.5038 33.5596 67.5038C33.8888 67.5038 34.0491 67.4278 34.1166 67.2421V62.1109C34.0322 61.5792 33.7537 61.5117 32.7832 61.2501V61.2416Z" fill="#702E3E"/>
<path id="Vector_4" d="M36.3193 50.515C36.2771 51.2155 36.4291 51.5531 37.2055 51.4265C37.5599 51.3674 37.9313 51.418 38.2942 51.418H38.8765C40.2437 51.418 40.2268 51.418 40.1846 50.0677C40.1762 49.6288 40.0074 49.5445 39.6192 49.5529C38.8428 49.5782 38.0748 49.5529 37.2983 49.5529C36.3362 49.5529 36.3784 49.5529 36.3193 50.5066V50.515Z" fill="#702E3E"/>
<path id="Vector_5" d="M33.6609 53.4435C34.0407 53.452 34.1673 53.3338 34.1588 52.954C34.1335 52.1776 34.1588 51.4012 34.1588 50.6332C34.1588 50.0508 34.1926 49.4685 34.1504 48.8862C34.0744 47.9916 34.412 47.308 35.0534 46.7004C35.9564 45.8564 36.8088 44.9618 37.6781 44.0841C38.5643 43.1895 38.5558 43.2064 37.6443 42.2865C37.3827 42.0249 37.2308 41.9236 36.9101 42.2443C34.834 44.3457 32.741 46.4303 30.6564 48.5149C30.4454 48.7258 30.2935 48.9537 30.302 49.2744C30.3188 50.5066 30.3188 51.7472 30.302 52.9794C30.302 53.3254 30.4286 53.4435 30.7746 53.4351C31.7451 53.4182 32.7157 53.4098 33.6778 53.4351L33.6609 53.4435Z" fill="#702E3E"/>
<path id="Vector_6" d="M48.6748 24.0487C48.2106 24.1415 47.9828 24.4538 47.9575 25.053C48.1853 25.88 48.4385 26.8337 48.7001 27.7874C48.717 27.8464 48.7677 27.9224 48.8183 27.9477C49.3837 28.1418 50.388 27.3738 50.2783 26.7831C50.1349 26.0319 49.9239 25.2808 49.6791 24.555C49.5272 24.1162 49.1306 23.9558 48.6748 24.0487Z" fill="#702E3E"/>
<path id="Vector_7" d="M28.5043 67.8582H19.837C18.9846 67.8582 18.2925 68.5249 18.2335 69.3688C18.2335 70.812 18.2335 72.2636 18.2335 73.7068C18.2419 76.3736 18.2588 79.0405 18.2672 81.7074C18.2672 81.9522 18.2672 82.1885 18.2503 82.4332C18.3685 82.9733 18.7567 83.4122 19.2715 83.6063C22.5292 83.5979 25.7953 83.5979 29.0529 83.6063C29.6606 83.3784 30.0994 82.7961 30.0994 82.1125C30.0825 77.8168 30.0741 73.5295 30.0741 69.2338C29.9644 68.4574 29.2977 67.8497 28.4875 67.8497L28.5043 67.8582Z" fill="#702E3E"/>
<path id="Vector_8" d="M30.918 44.0081C30.6733 43.6368 30.2935 43.4764 29.8462 43.6705C29.3567 43.8815 29.1542 44.2529 29.2808 44.7761C29.3989 45.2656 29.534 45.7467 29.669 46.2361C29.745 46.2783 29.8209 46.3205 29.9053 46.3627C30.2176 45.9914 30.4792 45.5779 30.8421 45.274C31.3485 44.8436 31.1965 44.4216 30.9265 44.0081H30.918Z" fill="#702E3E"/>
<path id="Vector_9" d="M49.5441 30.4036C48.0503 31.889 46.5649 33.3743 45.0796 34.8597C44.1597 35.7796 44.185 35.7543 45.0796 36.6742C45.4425 37.0539 45.6366 36.9358 45.932 36.632C47.046 35.4926 48.1094 34.2773 49.3331 33.2646C50.5062 32.294 50.2783 31.1378 50.2192 29.9225C49.8648 29.9732 49.7213 30.2264 49.5441 30.4036Z" fill="#702E3E"/>
<path id="Vector_10" d="M82.6523 0.544617H20.0986C9.20316 0.544617 0.375427 9.37235 0.375427 20.2678V82.8215C0.375427 93.7169 9.20316 102.545 20.0986 102.545H82.6523C93.5477 102.545 102.375 93.7169 102.375 82.8215V20.2678C102.375 9.37235 93.5477 0.544617 82.6523 0.544617ZM50.4471 82.1041C50.4471 82.1969 50.4471 82.2813 50.4302 82.3657C50.3205 84.003 49.1812 85.3533 47.6536 85.7837C47.3245 85.8766 46.9784 85.9272 46.6155 85.9272H37.9482C37.5853 85.9272 37.2392 85.8766 36.9101 85.7837C35.4247 85.3618 34.3023 84.079 34.1419 82.5008C34.1251 82.3657 34.1166 82.2307 34.1166 82.0957V69.5967H32.3359V82.0957C32.3359 82.2476 32.3274 82.3995 32.3021 82.5514C32.1165 84.0958 31.0024 85.3618 29.5424 85.7753C29.2133 85.8681 28.8672 85.9188 28.5043 85.9188H19.837C19.4741 85.9188 19.128 85.8681 18.7989 85.7753C17.3389 85.3618 16.2248 84.1043 16.0392 82.5598C16.0223 82.4079 16.0054 82.256 16.0054 82.0957V69.4617C16.0054 69.276 16.0223 69.1073 16.0476 68.93C16.3092 67.0733 17.9043 65.6386 19.837 65.6386H28.5043C29.0867 65.6386 29.6352 65.7737 30.1247 66.0015V64.8115C30.0741 63.2333 30.1078 61.6552 30.1078 60.0854C30.1078 59.79 30.0741 59.5368 29.8547 59.2921C28.6309 57.9333 28.0992 56.3129 28.0992 54.4984C28.0992 53.6039 28.0486 52.7008 28.1077 51.8062C28.2512 49.6542 27.8967 47.6034 27.2469 45.5441C26.6054 43.5186 27.7701 41.7548 29.7787 41.4678C30.9602 41.299 31.9477 41.7379 32.6313 42.6916C32.9435 43.1304 33.0617 43.0123 33.3486 42.7253C34.277 41.7717 35.2306 40.8264 36.1759 39.8981C36.9354 39.1554 37.5431 39.1554 38.3026 39.8981C39.0791 40.6661 39.8555 41.4341 40.615 42.219C41.2902 42.9194 41.2902 43.544 40.6066 44.2444C39.6107 45.2572 38.598 46.253 37.4587 47.3839C38.6824 47.3839 39.712 47.3839 40.7416 47.3839C41.8979 47.3839 42.3283 47.8059 42.3367 48.9537C42.3367 49.4854 42.3789 50.0255 42.3283 50.5572C42.3114 50.7429 42.2861 51.1058 42.5308 51.2324C42.7587 51.3421 43.5942 51.4011 44.5985 51.4349H46.6071C46.7506 51.4349 46.894 51.4433 47.0375 51.4602C48.8183 51.6628 50.2277 53.0806 50.4133 54.8529C50.4302 54.9879 50.4386 55.123 50.4386 55.258V82.121L50.4471 82.1041ZM68.5498 82.1041C68.5498 84.214 66.8366 85.9357 64.7183 85.9357H56.0509C53.941 85.9357 52.2194 84.214 52.2194 82.1041V41.3919C52.2194 41.2315 52.2278 41.0796 52.2531 40.9277C52.2531 40.7336 52.2531 40.531 52.2531 40.3369C52.2531 39.7377 52.1941 39.4255 51.4683 39.4677C50.7087 39.5183 50.2783 38.9866 50.253 38.1427C50.2277 37.2987 50.253 36.4463 50.253 35.6024C49.966 35.5095 49.8901 35.7543 49.7719 35.864C48.7001 36.9189 47.6452 37.9908 46.5733 39.0457C45.78 39.8306 45.1893 39.8137 44.3959 39.0288C43.6701 38.3115 42.9528 37.5941 42.2354 36.8683C41.3915 36.0243 41.3999 35.4505 42.2607 34.5812C43.7714 33.0705 45.2737 31.5514 46.7928 30.0576C47.0713 29.7791 47.0882 29.6188 46.9278 29.2221C46.3792 27.8802 45.9488 26.4793 45.8222 25.0277C45.6872 23.4917 46.8012 22.1413 48.2612 21.8628C49.8057 21.5675 51.2404 22.3776 51.7974 23.8714C52.135 24.7717 52.7848 25.2218 53.7469 25.2218C54.9369 25.2218 56.1269 25.2133 57.3168 25.2049C61.3594 25.1796 64.3976 28.1334 64.5073 32.2012C64.5298 32.927 64.9096 33.2899 65.6467 33.2899C66.1783 33.2899 66.7185 33.2731 67.2502 33.2984C68.0941 33.3406 68.5245 33.7963 68.533 34.6487C68.5499 35.9822 68.533 37.3156 68.533 38.649V40.9024C68.5499 41.0543 68.5667 41.2147 68.5667 41.375V82.0872L68.5498 82.1041ZM86.7539 82.1041C86.7539 84.214 85.0407 85.9357 82.9223 85.9357H74.255C72.1451 85.9357 70.4234 84.214 70.4234 82.1041V27.0531C70.4234 24.9433 72.1366 23.2216 74.255 23.2216H75.2677V13.0689C75.2677 12.5119 75.5462 12.0055 76.0104 11.7017C76.4745 11.3978 77.0569 11.3556 77.5632 11.5835L84.6356 14.7568C85.2601 15.0353 85.6399 15.6598 85.5977 16.3434C85.5555 17.027 85.0997 17.6009 84.4415 17.795L77.4873 19.888V23.2132H82.9223C85.0322 23.2132 86.7539 24.9264 86.7539 27.0447V82.0957V82.1041Z" fill="#702E3E"/>
<path id="Vector_11" d="M77.4873 13.9803V17.584L82.281 16.1408L77.4873 13.9803Z" fill="#702E3E"/>
<path id="Vector_12" d="M74.2465 25.4412H82.9139C83.8001 25.4412 84.5259 26.1586 84.5259 27.0531V82.1041C84.5259 82.9903 83.8085 83.7161 82.9139 83.7161H74.2465C73.3604 83.7161 72.6346 82.9987 72.6346 82.1041V27.0531C72.6346 26.167 73.3519 25.4412 74.2465 25.4412Z" fill="#702E3E"/>
<path id="Vector_13" d="M65.807 35.4927C65.1571 35.5264 64.4988 35.518 63.849 35.4927C62.7434 35.4674 62.3214 35.0369 62.2961 33.9314C62.2792 33.1549 62.313 32.3785 62.2539 31.6105C62.1105 29.8044 60.6504 28.0997 58.9119 27.627C58.5405 27.5258 58.4477 27.6017 58.4561 27.9646C58.473 28.8592 58.4899 29.7538 58.4561 30.6484C58.4308 31.1463 58.5659 31.3151 59.0891 31.3067C60.1272 31.2898 60.4816 31.6696 60.4816 32.6992C60.4816 33.7626 60.4816 34.826 60.4816 35.8978C60.4816 36.9527 60.8276 37.2987 61.8573 37.2987C62.4902 37.2987 63.1148 37.2987 63.7477 37.2987H65.1234C66.3724 37.2987 66.3555 37.2987 66.3386 36.0159C66.3386 35.6108 66.2289 35.4674 65.807 35.4842V35.4927Z" fill="#702E3E"/>
<path id="Vector_14" d="M54.2533 32.9355C54.2533 31.6273 54.4896 31.3657 55.7893 31.3151C56.1691 31.2982 56.2957 31.1885 56.2872 30.8087C56.2619 29.8635 56.2535 28.9183 56.2872 27.9815C56.3041 27.5173 56.1269 27.4076 55.6965 27.416C54.8019 27.4413 53.9073 27.4413 53.0127 27.416C52.5485 27.3991 52.4304 27.5933 52.4388 28.0152C52.4557 29.4668 52.4388 30.9184 52.4388 32.37C52.4388 33.6275 52.4304 34.885 52.4388 36.1425C52.4557 37.5266 52.2447 37.2649 53.6372 37.3071C54.1098 37.324 54.2617 37.189 54.2533 36.7079C54.2195 35.4504 54.2449 34.193 54.2449 32.9355H54.2533Z" fill="#702E3E"/>
<path id="Vector_15" d="M58.0342 37.3156C58.0849 37.3156 58.127 37.3156 58.1777 37.3156C58.414 37.3156 58.4309 37.2312 58.3887 37.0118C58.203 36.075 58.2874 35.1213 58.3127 34.1845C58.3296 33.6022 58.1692 33.4503 57.5869 33.4925C56.4391 33.5769 56.4391 33.5431 56.4391 34.6824V35.3407C56.4391 36.7248 56.9708 37.3859 58.0342 37.324V37.3156Z" fill="#702E3E"/>
<path id="Vector_16" d="M64.7183 39.7884H56.0509C55.1648 39.7884 54.439 40.5142 54.439 41.4003V82.1125C54.439 82.9987 55.1648 83.7245 56.0509 83.7245H64.7183C65.6044 83.7245 66.3302 82.9987 66.3302 82.1125V41.8982C66.3302 41.7294 66.3302 41.5691 66.3302 41.4003C66.3302 40.5142 65.6044 39.7884 64.7183 39.7884Z" fill="#702E3E"/>
</g>
</svg>
