<svg width="102" height="102" viewBox="0 0 102 102" fill="none" xmlns="http://www.w3.org/2000/svg">
<g id="Group 60">
<path id="Vector" d="M67.111 31.9774C67.111 31.9774 67.0773 31.9774 67.0604 31.9774C66.8578 31.9774 66.6384 32.0702 66.478 32.2305C66.3093 32.3993 66.2249 32.6103 66.2333 32.8044C66.2755 33.353 66.5456 33.6315 67.0604 33.6653C67.2882 33.6906 67.4908 33.6062 67.6511 33.4627C67.8284 33.2939 67.9296 33.0407 67.9296 32.7538C67.8959 32.2812 67.6258 32.0196 67.1194 31.9774H67.111Z" fill="#702E3E"/>
<path id="Vector_2" d="M77.8799 30.8718V32.6356C77.8799 33.0154 77.7617 33.3192 77.5592 33.488C77.4494 33.5808 77.2469 33.6821 76.9431 33.623C76.5971 33.5555 76.2342 33.0492 76.192 32.6778C76.1244 32.1968 76.1413 31.7073 76.1498 31.2009C76.1498 31.0827 76.1498 30.9646 76.1498 30.8464C75.1539 31.2093 74.6222 32.1039 74.791 33.2011C74.9598 34.3235 75.9725 35.1759 77.095 35.0915C78.2681 35.0324 79.2049 34.1041 79.2724 32.9394C79.323 31.9773 78.7323 31.1165 77.8799 30.8718Z" fill="#702E3E"/>
<path id="Vector_3" d="M64.8577 42.9234H61.4903V46.5102C62.0557 46.3076 62.6127 46.2063 63.1613 46.2063C63.7099 46.2063 64.2838 46.3076 64.8492 46.5186V42.9234H64.8577Z" fill="#702E3E"/>
<path id="Vector_4" d="M61.1612 31.9773C61.1612 31.9773 61.1359 31.9773 61.119 31.9773C60.5873 32.0111 60.3088 32.2812 60.2835 32.8044C60.275 33.0407 60.351 33.2601 60.5113 33.4205C60.6717 33.5808 60.8911 33.6568 61.1274 33.6652C61.6085 33.6484 61.8785 33.4036 61.9798 32.8804C61.9798 32.6272 61.8785 32.374 61.6929 32.1968C61.541 32.0533 61.3553 31.9689 61.1612 31.9689V31.9773Z" fill="#702E3E"/>
<path id="Vector_5" d="M58.7053 56.7304C59.8193 55.878 60.8236 55.3295 61.8195 55.0847C61.0346 54.8231 60.2919 54.342 59.6421 53.6584C58.9416 54.5362 58.6293 55.532 58.6969 56.722L58.7053 56.7304Z" fill="#702E3E"/>
<path id="Vector_6" d="M64.8577 52.5022C65.3134 52.0549 65.5751 51.4473 65.5835 50.7975C65.5835 50.1392 65.3472 49.5231 64.8999 49.0674C64.461 48.6201 63.8534 48.3669 63.212 48.3669H63.1951C61.8448 48.3669 60.773 49.4049 60.7477 50.7468C60.7392 51.3714 60.9755 51.9706 61.4228 52.4347C61.8785 52.9073 62.4946 53.1774 63.1445 53.1858C63.8028 53.169 64.402 52.958 64.8577 52.5107V52.5022ZM63.1951 50.3586C62.9926 50.4261 62.7563 50.6034 62.6887 50.789C62.5706 51.1182 62.3849 51.3629 62.0811 51.1941C61.9123 51.1013 61.7773 50.7215 61.811 50.4936C61.8954 49.8522 62.4778 49.4134 63.1107 49.3965C63.845 49.3796 64.461 49.9451 64.5032 50.6709C64.5539 51.4135 64.0475 52.0887 63.3301 52.1393C63.1276 52.1562 62.9082 51.9368 62.6887 51.8186C62.8322 51.6245 62.9588 51.4304 63.1107 51.2532C63.2542 51.0844 63.4736 50.9409 63.5411 50.7553C63.5665 50.6624 63.2542 50.3333 63.1782 50.367L63.1951 50.3586Z" fill="#702E3E"/>
<path id="Vector_7" d="M39.3197 31.6904H37.2352V34.0534H39.3197V31.6904Z" fill="#702E3E"/>
<path id="Vector_8" d="M35.4207 31.6988H33.5049V34.0281H35.4207V31.6988Z" fill="#702E3E"/>
<path id="Vector_9" d="M55.186 31.9858H55.1691C54.629 31.9942 54.3421 32.2643 54.2999 32.7791C54.2661 33.2939 54.5193 33.5893 55.051 33.6653C55.2704 33.6906 55.4898 33.6315 55.6671 33.488C55.8527 33.3361 55.9709 33.1167 55.9793 32.8804C55.9962 32.6525 55.9034 32.4078 55.7346 32.2305C55.5742 32.0702 55.3801 31.9774 55.1776 31.9774L55.186 31.9858Z" fill="#702E3E"/>
<path id="Vector_10" d="M25.1835 30.6101C24.1455 30.5258 23.3268 31.049 23.0146 31.9773H24.7615C25.04 31.9773 25.808 31.9773 25.8165 32.8213C25.8165 33.3952 25.4705 33.6906 24.7784 33.699C24.3058 33.699 23.8332 33.699 23.3353 33.699H22.9977C23.4956 34.7371 24.3986 35.2519 25.4029 35.0409C26.5592 34.8046 27.3103 33.834 27.2343 32.6863C27.1584 31.5723 26.2975 30.6945 25.192 30.6101H25.1835Z" fill="#702E3E"/>
<path id="Vector_11" d="M43.2356 31.6988H41.1257V34.0366H43.2356V31.6988Z" fill="#702E3E"/>
<path id="Vector_12" d="M46.9237 31.6819H45.0502V34.0197H46.9237V31.6819Z" fill="#702E3E"/>
<path id="Vector_13" d="M42.3242 53.6331C41.6996 54.3674 40.9907 54.8484 40.189 55.1016C41.3114 55.3295 42.341 55.8612 43.2947 56.6967C43.3622 55.5151 43.05 54.5361 42.3242 53.6331Z" fill="#702E3E"/>
<path id="Vector_14" d="M22.1031 57.7432C22.1031 58.2833 22.0947 58.7981 22.12 59.3129C22.1369 59.6674 22.3057 59.8278 22.6264 59.8024C22.9386 59.8024 23.0652 59.659 23.0736 59.3467C23.0905 58.815 23.0821 58.2749 23.0736 57.7263V57.4056H22.0947V57.7432H22.1031Z" fill="#702E3E"/>
<path id="Vector_15" d="M79.3652 59.8024C79.7112 59.8362 79.8547 59.6674 79.8716 59.3214C79.8969 58.7897 79.8885 58.258 79.8885 57.7179V57.4141H78.9095V57.7179C78.9095 58.2665 78.9095 58.8066 78.9095 59.3467C78.9095 59.6674 79.0445 59.8024 79.3568 59.8109L79.3652 59.8024Z" fill="#702E3E"/>
<path id="Vector_16" d="M82.2093 0H19.7907C8.86149 0 0 8.86149 0 19.7907V82.2093C0 93.1385 8.86149 102 19.7907 102H82.2093C93.1385 102 102 93.1385 102 82.2093V19.7907C102 8.86149 93.1385 0 82.2093 0ZM92.6153 72.006C92.0667 75.8291 88.75 78.6479 84.7243 78.7154C84.1757 78.7238 83.6272 78.7154 83.0533 78.7154H82.6482C82.6735 80.0235 82.5047 81.4076 81.2388 82.3275C80.5383 82.8339 79.6522 83.163 78.8673 83.2052C78.1499 83.2558 77.2553 82.9858 76.5717 82.5132C75.9979 82.1165 75.483 81.4329 75.1792 80.6818C74.9767 80.167 74.9345 79.61 74.8923 79.0783C74.8923 78.977 74.8754 78.8673 74.867 78.766H27.074C27.074 80.0151 26.9305 81.5511 25.4873 82.471C24.7447 82.9436 23.8163 83.2305 22.9977 83.2305H22.9639C20.5587 83.2305 19.7316 81.4498 19.3096 78.7407H17.8496C12.6762 78.7323 9.19907 75.2636 9.19063 70.1071C9.19063 68.6639 9.19063 67.2292 9.19063 65.786C9.19063 64.3598 9.46914 64.0897 10.9292 64.0897H14.9295V60.5282C14.9295 56.5194 14.9295 52.5191 14.9042 48.5103C14.9042 48.2065 14.727 47.793 14.4907 47.5482C13.6973 46.7212 12.8871 45.9025 12.0685 45.0923C11.309 44.3328 10.541 43.5732 9.79828 42.7968C9.45226 42.4339 9.21595 41.8684 9.21595 41.379C9.21595 32.2558 16.2714 23.9598 25.2932 22.4829C26.6098 22.2719 27.8926 22.1622 29.0826 22.1537C43.7167 22.1284 58.3508 22.1284 72.9849 22.1453C82.5132 22.1453 90.3028 28.4159 92.3705 37.7246C92.4887 38.2479 92.5646 38.653 92.6068 39.0412C92.9782 41.995 92.9275 42.1385 90.8008 44.2484L90.2775 44.7632C89.307 45.7169 88.3364 46.679 87.3912 47.658C87.2224 47.8352 87.0874 48.0968 87.0874 48.2572C87.0705 52.8567 87.0705 57.4478 87.0705 62.0473V64.0897H88.0157C89.0875 64.0897 90.1509 64.0897 91.2143 64.0897C91.7797 64.0897 92.2017 64.115 92.4971 64.4104C92.784 64.7058 92.8009 65.1531 92.7925 65.7016C92.784 66.3008 92.7925 66.9085 92.7925 67.5077C92.8009 68.9846 92.8178 70.5206 92.6068 72.006H92.6153Z" fill="#702E3E"/>
<path id="Vector_17" d="M73.4237 24.3142C60.6885 24.272 47.7423 24.2805 35.2181 24.2974H28.7196C25.1666 24.3058 21.9005 25.327 19.0142 27.3272C14.3978 30.5342 11.8912 34.8974 11.368 40.6531H90.6066C90.0412 31.5216 82.5047 24.348 73.4237 24.3142ZM27.7322 35.6907C26.9895 36.4165 26.019 36.8132 24.9978 36.8132C24.9725 36.8132 24.9387 36.8132 24.9134 36.8132C23.85 36.7879 22.8457 36.3406 22.0946 35.5472C21.3519 34.7708 20.9637 33.7665 20.9975 32.7284C21.065 30.5257 22.9048 28.8125 25.0991 28.8463C27.2765 28.9053 29.0066 30.7114 28.9559 32.8719C28.9306 33.9437 28.5002 34.948 27.7322 35.6907ZM48.696 34.5683C48.696 34.9987 48.6116 35.3109 48.4006 35.5135C48.198 35.7245 47.8858 35.8173 47.4722 35.8173C42.6617 35.8089 37.7837 35.8089 32.9731 35.8173H32.9647C32.5259 35.8173 32.2136 35.716 32.011 35.505C31.8001 35.2941 31.7072 34.9649 31.7241 34.5176C31.7494 33.8087 31.741 33.0829 31.741 32.3824C31.741 32.0111 31.741 31.6313 31.741 31.26C31.741 30.146 31.9857 29.9096 33.0744 29.9096C34.7286 29.9096 36.3827 29.9096 38.0369 29.9096H42.1891C43.9023 29.9181 45.6746 29.9181 47.4132 29.9012C47.8942 29.8843 48.2065 29.994 48.4175 30.2135C48.62 30.4245 48.7213 30.7283 48.7044 31.1587C48.6791 32.2474 48.6791 33.3952 48.7044 34.5683H48.696ZM56.9751 34.6189C56.4856 35.1168 55.8358 35.3869 55.1438 35.3953H55.1353C53.6922 35.3953 52.5697 34.2729 52.5613 32.8382C52.5613 32.1377 52.8229 31.4794 53.3124 30.9899C53.7934 30.5089 54.4348 30.2388 55.1184 30.2388C56.5363 30.2388 57.7009 31.3866 57.7178 32.8044C57.7178 33.488 57.4646 34.1294 56.9836 34.6189H56.9751ZM62.9672 34.6189C62.4693 35.1168 61.811 35.3953 61.1021 35.3953C60.4016 35.3953 59.7517 35.1253 59.2707 34.6358C58.7896 34.1463 58.528 33.4964 58.5364 32.796C58.5533 31.4034 59.6927 30.2557 61.0767 30.2388H61.1021C62.5199 30.2388 63.6845 31.3866 63.7099 32.8044C63.7183 33.4796 63.4567 34.121 62.9756 34.6105L62.9672 34.6189ZM68.9086 34.6527C68.4276 35.1337 67.7777 35.3953 67.0772 35.3953H67.0688C66.3683 35.3953 65.71 35.1168 65.2205 34.6189C64.7395 34.1294 64.4779 33.4796 64.4863 32.796C64.5032 31.4288 65.6847 30.2641 67.0519 30.2472C67.7355 30.2641 68.3938 30.5004 68.8749 30.9815C69.3728 31.471 69.6428 32.1208 69.6428 32.8213C69.6428 33.5218 69.3812 34.18 68.9002 34.6611L68.9086 34.6527ZM77.0021 36.8132H76.9768C75.9303 36.8132 74.9429 36.3996 74.1917 35.6485C73.4238 34.889 73.0102 33.8847 73.0102 32.8213C73.0187 30.6017 74.7825 28.8547 77.019 28.8547C79.1542 28.8547 80.9687 30.6608 80.9771 32.796C80.9855 34.9649 79.1626 36.8047 77.0021 36.8132Z" fill="#702E3E"/>
<path id="Vector_18" d="M17.0985 48.6285C17.0647 52.2828 17.0647 55.9962 17.0732 59.5914V64.0391H84.9353V63.5411C84.9353 62.2246 84.9353 60.9164 84.9522 59.5999C84.9691 56.3591 84.9859 53.0002 84.9016 49.7088C84.8509 47.658 85.4079 46.3076 86.7751 45.2105C87.4925 44.6282 88.1339 43.9446 88.8175 43.2272C88.9103 43.1344 88.9947 43.0331 89.0875 42.9403H74.3015V44.1387C74.3015 45.3371 74.3015 46.5186 74.3015 47.6917C74.31 49.2024 75.002 49.9197 76.538 50.021C78.7238 50.1645 80.3611 51.8608 80.4202 54.0551C80.4286 54.4096 80.4202 54.7556 80.4202 55.1101V55.2198C80.4202 55.2198 80.4792 55.2198 80.5046 55.2198C81.7283 55.262 82.0068 55.5573 82.0152 56.798V57.4562C82.0321 58.0723 82.0321 58.7137 82.0068 59.3467C81.9308 60.832 80.7999 61.9376 79.3652 61.9376C79.3484 61.9376 79.3315 61.9376 79.3062 61.9376C77.8799 61.9123 76.7996 60.8152 76.7405 59.3298C76.7237 58.8825 76.7237 58.4268 76.7321 57.9795C76.7321 57.5575 76.7321 57.144 76.7321 56.722C76.7152 56.1734 76.8334 55.7768 77.1119 55.5236C77.3735 55.2788 77.7448 55.1776 78.2343 55.2282C78.2512 55.2282 78.2681 55.2282 78.285 55.2282V54.6712C78.285 52.9327 77.728 52.3166 75.9979 52.1478C74.8248 52.0381 73.8542 51.5317 73.1115 50.654C72.2423 49.6244 72.1326 48.4344 72.1494 47.4048C72.1579 46.2739 72.1579 45.1345 72.1494 43.9868V42.9234H67.052V43.531C67.052 44.2822 67.052 45.0079 67.052 45.7337C67.052 45.9532 67.052 46.181 67.052 46.4005C67.0351 47.4976 67.0182 48.5357 67.5161 49.5146C67.6765 49.8269 67.6765 50.1729 67.6849 50.4852C67.6849 50.654 67.6849 50.8143 67.7187 50.9747C67.7946 51.346 67.879 51.7174 68.0394 51.903C69.8877 53.9538 70.3603 56.8148 69.2378 59.1863C69.0606 59.5492 68.6724 59.9881 68.2335 60.0809C67.744 60.1822 67.2376 59.6168 67.0773 59.3889C66.1152 57.9626 64.6889 57.144 63.1614 57.144C61.6507 57.144 60.2497 57.9457 59.2961 59.3467C59.1104 59.6252 58.6293 60.1231 58.123 60.0809C57.6419 60.0303 57.2453 59.4902 57.0933 59.1441C56.0722 56.7473 56.3422 54.4855 57.9035 52.4347L58.0723 52.2153C58.5281 51.633 58.7812 51.2701 58.6378 50.6709C58.5534 50.3248 58.6631 49.9788 58.7559 49.675C58.7897 49.5568 58.8319 49.4303 58.8572 49.3121L58.9754 48.696C59.0851 48.1053 59.2032 47.4976 59.2707 46.8984C59.3129 46.5017 59.3045 46.0882 59.2876 45.6578C59.2876 45.4637 59.2792 45.2696 59.2792 45.067V42.9234H42.704V43.6661C42.704 44.5775 42.704 45.4721 42.704 46.3667V46.8056C42.6955 47.7002 42.6871 48.5525 43.1091 49.3459C43.4213 49.9282 43.3876 50.6962 43.3369 51.1013C43.2947 51.4304 43.3623 51.6077 43.6323 51.8862C45.4975 53.8526 45.9954 56.7726 44.856 59.1526C44.7126 59.448 44.3159 60.0303 43.8095 60.064C43.3285 60.0894 42.8559 59.6083 42.6533 59.3129C41.7165 57.9288 40.3156 57.1355 38.8049 57.1355C37.2858 57.1355 35.868 57.9373 34.9143 59.3382C34.7624 59.5661 34.2476 60.1231 33.7243 60.064C33.2517 60.005 32.8551 59.4648 32.7116 59.1188C31.7832 56.9583 31.9351 54.8569 33.1336 53.0424L33.3699 52.6879C33.9606 51.8102 34.4754 51.0591 34.3235 50.021C34.2898 49.7932 34.3657 49.5906 34.4332 49.4303C34.4586 49.3712 34.4839 49.3121 34.4923 49.253C34.5345 49.0252 34.5852 48.8057 34.6358 48.5779C34.7539 48.0209 34.8721 47.4892 34.8974 46.9575C34.9481 46.0123 34.9312 45.0417 34.9227 44.1049C34.9227 43.7589 34.9143 43.4129 34.9143 43.0753C34.9143 43.0162 34.9143 42.9571 34.9059 42.8981H29.7746V44.8138C29.7746 45.8857 29.7831 46.9659 29.7662 48.0377C29.7156 50.2742 28.1205 51.9537 25.8671 52.1393H25.7659C25.5127 52.1647 25.2764 52.1815 25.0738 52.2491C23.926 52.6035 23.4197 53.7007 23.7066 55.1944C25.0485 55.3548 25.2004 55.6164 25.2004 57.1862V57.8191C25.2004 58.3171 25.2089 58.815 25.2004 59.3129C25.1498 60.7983 24.078 61.8954 22.6348 61.9292C21.217 61.9376 20.0017 60.8236 19.9426 59.3382C19.9257 58.815 19.9257 58.3002 19.9342 57.7769V57.1187C19.9342 55.5573 20.0945 55.321 21.5377 55.1944V54.8737C21.563 51.6667 22.6601 50.4346 25.8671 49.9788C26.6689 49.8691 27.5297 49.3037 27.5719 48.485C27.631 47.0841 27.6226 45.6494 27.6057 44.2653C27.6057 43.818 27.6057 43.3707 27.5972 42.9318H12.8196C12.9884 43.1006 13.1488 43.261 13.3176 43.4213C14.229 44.3243 15.0899 45.1683 15.976 45.9701C16.7609 46.679 17.1069 47.4976 17.0985 48.6201V48.6285Z" fill="#702E3E"/>
<path id="Vector_19" d="M21.5123 78.7829C21.4532 79.7618 21.6051 80.4032 22.3225 80.859C22.9048 81.2303 23.504 81.2303 24.0948 80.859C24.8122 80.4117 24.9641 79.7703 24.905 78.7744H21.5207L21.5123 78.7829Z" fill="#702E3E"/>
<path id="Vector_20" d="M89.9737 69.2631C89.1466 69.2631 88.3195 69.2631 87.4924 69.2631C87.062 69.2631 86.6063 69.2631 86.294 68.9508C86.1084 68.7567 86.0155 68.4951 86.024 68.1575C86.0493 67.111 86.9776 67.111 87.4418 67.111C88.3195 67.111 89.1719 67.111 90.0327 67.111H90.6151V66.2839H11.3258V67.2714C11.3258 68.2841 11.3258 69.2715 11.3258 70.2589C11.3427 73.9808 13.9252 76.5801 17.5964 76.5801C39.8514 76.5886 62.1148 76.5886 84.3698 76.5801C86.3447 76.5801 88.0832 75.7953 89.2563 74.369C90.3872 73.0018 90.8682 71.1535 90.5982 69.2631H89.9737Z" fill="#702E3E"/>
<path id="Vector_21" d="M77.1203 78.766C77.0022 80.0995 77.4157 80.5636 77.8799 80.859C78.4791 81.2388 79.2133 81.2135 79.7619 80.8084C80.4202 80.3189 80.5468 79.6775 80.4793 78.766H77.1203Z" fill="#702E3E"/>
<path id="Vector_22" d="M38.7965 53.169H38.8134C40.1299 53.169 41.2186 52.0971 41.2355 50.7721C41.2355 50.1476 40.9992 49.5484 40.5435 49.0842C40.0793 48.6116 39.4716 48.3584 38.8218 48.3584C37.4462 48.3584 36.4081 49.3881 36.3997 50.7468C36.3997 52.114 37.4208 53.1605 38.788 53.169H38.7965ZM37.404 50.6118C37.404 50.4177 37.6234 50.2151 37.7415 50.0126C37.9357 50.1392 38.1382 50.2404 38.307 50.3924C38.4927 50.5527 38.653 50.7468 38.8218 50.924C38.9821 50.7553 39.1256 50.578 39.2944 50.4261C39.4716 50.2742 39.6658 50.1392 39.8514 50.0041C39.978 50.2236 40.2059 50.4346 40.2059 50.654C40.2059 51.3545 39.5307 51.903 38.7965 51.8946C38.0707 51.8946 37.4208 51.3291 37.404 50.6202V50.6118Z" fill="#702E3E"/>
<path id="Vector_23" d="M40.4928 42.8896H37.117V46.5271C38.2057 46.1051 39.3197 46.1051 40.4928 46.5186V42.8896Z" fill="#702E3E"/>
<path id="Vector_24" d="M66.7144 53.6922C66.0308 54.4096 65.2375 54.9075 64.402 55.1438C65.3894 55.4054 66.4528 55.9371 67.6596 56.7304C67.8031 55.743 67.4402 54.5699 66.7144 53.6922Z" fill="#702E3E"/>
<path id="Vector_25" d="M34.3488 56.6882C35.2772 55.8696 36.3152 55.3379 37.4546 55.1016C36.6697 54.8569 35.9608 54.3758 35.3109 53.6584C34.5767 54.5868 34.2138 55.7346 34.3488 56.6798V56.6882Z" fill="#702E3E"/>
</g>
</svg>
