<svg width="136" height="116" viewBox="0 0 136 116" fill="none" xmlns="http://www.w3.org/2000/svg">
<path d="M59.9747 8.44619C61.625 8.44619 62.9628 7.10325 62.9628 5.44665C62.9628 3.79005 61.625 2.44711 59.9747 2.44711C58.3244 2.44711 56.9866 3.79005 56.9866 5.44665C56.9866 7.10325 58.3244 8.44619 59.9747 8.44619Z" fill="#702E3E"/>
<path d="M67.9856 8.44621C69.6358 8.44621 70.9736 7.10326 70.9736 5.44666C70.9736 3.79006 69.6358 2.44713 67.9856 2.44713C66.3353 2.44713 64.9975 3.79006 64.9975 5.44666C64.9975 7.10326 66.3353 8.44621 67.9856 8.44621Z" fill="#702E3E"/>
<path d="M75.9966 8.44621C77.6468 8.44621 78.9846 7.10326 78.9846 5.44666C78.9846 3.79006 77.6468 2.44713 75.9966 2.44713C74.3463 2.44713 73.0085 3.79006 73.0085 5.44666C73.0085 7.10326 74.3463 8.44621 75.9966 8.44621Z" fill="#702E3E"/>
<path d="M84.0074 8.44621C85.6577 8.44621 86.9955 7.10326 86.9955 5.44666C86.9955 3.79006 85.6577 2.44713 84.0074 2.44713C82.3572 2.44713 81.0193 3.79006 81.0193 5.44666C81.0193 7.10326 82.3572 8.44621 84.0074 8.44621Z" fill="#702E3E"/>
<path d="M92.0183 8.44621C93.6686 8.44621 95.0064 7.10326 95.0064 5.44666C95.0064 3.79006 93.6686 2.44713 92.0183 2.44713C90.3681 2.44713 89.0303 3.79006 89.0303 5.44666C89.0303 7.10326 90.3681 8.44621 92.0183 8.44621Z" fill="#702E3E"/>
<path d="M100.029 8.44621C101.679 8.44621 103.017 7.10326 103.017 5.44666C103.017 3.79006 101.679 2.44713 100.029 2.44713C98.3789 2.44713 97.0411 3.79006 97.0411 5.44666C97.0411 7.10326 98.3789 8.44621 100.029 8.44621Z" fill="#702E3E"/>
<path d="M108.04 8.44621C109.69 8.44621 111.028 7.10326 111.028 5.44666C111.028 3.79006 109.69 2.44713 108.04 2.44713C106.39 2.44713 105.052 3.79006 105.052 5.44666C105.052 7.10326 106.39 8.44621 108.04 8.44621Z" fill="#D3D1CF"/>
<path d="M116.051 8.44621C117.701 8.44621 119.039 7.10326 119.039 5.44666C119.039 3.79006 117.701 2.44713 116.051 2.44713C114.401 2.44713 113.063 3.79006 113.063 5.44666C113.063 7.10326 114.401 8.44621 116.051 8.44621Z" fill="#D3D1CF"/>
<path d="M124.062 8.44621C125.712 8.44621 127.05 7.10326 127.05 5.44666C127.05 3.79006 125.712 2.44713 124.062 2.44713C122.412 2.44713 121.074 3.79006 121.074 5.44666C121.074 7.10326 122.412 8.44621 124.062 8.44621Z" fill="#D3D1CF"/>
<path d="M132.073 8.44621C133.723 8.44621 135.061 7.10326 135.061 5.44666C135.061 3.79006 133.723 2.44713 132.073 2.44713C130.423 2.44713 129.085 3.79006 129.085 5.44666C129.085 7.10326 130.423 8.44621 132.073 8.44621Z" fill="#D3D1CF"/>
<path d="M59.9747 24.5294C61.625 24.5294 62.9628 23.1865 62.9628 21.5299C62.9628 19.8733 61.625 18.5303 59.9747 18.5303C58.3244 18.5303 56.9866 19.8733 56.9866 21.5299C56.9866 23.1865 58.3244 24.5294 59.9747 24.5294Z" fill="#702E3E"/>
<path d="M67.9856 24.5294C69.6358 24.5294 70.9736 23.1865 70.9736 21.5299C70.9736 19.8733 69.6358 18.5303 67.9856 18.5303C66.3353 18.5303 64.9975 19.8733 64.9975 21.5299C64.9975 23.1865 66.3353 24.5294 67.9856 24.5294Z" fill="#702E3E"/>
<path d="M75.9966 24.5294C77.6468 24.5294 78.9846 23.1865 78.9846 21.5299C78.9846 19.8733 77.6468 18.5303 75.9966 18.5303C74.3463 18.5303 73.0085 19.8733 73.0085 21.5299C73.0085 23.1865 74.3463 24.5294 75.9966 24.5294Z" fill="#702E3E"/>
<path d="M84.0074 24.5294C85.6577 24.5294 86.9955 23.1865 86.9955 21.5299C86.9955 19.8733 85.6577 18.5303 84.0074 18.5303C82.3572 18.5303 81.0193 19.8733 81.0193 21.5299C81.0193 23.1865 82.3572 24.5294 84.0074 24.5294Z" fill="#702E3E"/>
<path d="M92.0183 24.5294C93.6686 24.5294 95.0064 23.1865 95.0064 21.5299C95.0064 19.8733 93.6686 18.5303 92.0183 18.5303C90.3681 18.5303 89.0303 19.8733 89.0303 21.5299C89.0303 23.1865 90.3681 24.5294 92.0183 24.5294Z" fill="#702E3E"/>
<path d="M100.029 24.5294C101.679 24.5294 103.017 23.1865 103.017 21.5299C103.017 19.8733 101.679 18.5303 100.029 18.5303C98.3789 18.5303 97.0411 19.8733 97.0411 21.5299C97.0411 23.1865 98.3789 24.5294 100.029 24.5294Z" fill="#702E3E"/>
<path d="M108.04 24.5294C109.69 24.5294 111.028 23.1865 111.028 21.5299C111.028 19.8733 109.69 18.5303 108.04 18.5303C106.39 18.5303 105.052 19.8733 105.052 21.5299C105.052 23.1865 106.39 24.5294 108.04 24.5294Z" fill="#702E3E"/>
<path d="M116.051 24.5294C117.701 24.5294 119.039 23.1865 119.039 21.5299C119.039 19.8733 117.701 18.5303 116.051 18.5303C114.401 18.5303 113.063 19.8733 113.063 21.5299C113.063 23.1865 114.401 24.5294 116.051 24.5294Z" fill="#702E3E"/>
<path d="M124.062 24.5294C125.712 24.5294 127.05 23.1865 127.05 21.5299C127.05 19.8733 125.712 18.5303 124.062 18.5303C122.412 18.5303 121.074 19.8733 121.074 21.5299C121.074 23.1865 122.412 24.5294 124.062 24.5294Z" fill="#702E3E"/>
<path d="M132.073 24.5294C133.723 24.5294 135.061 23.1865 135.061 21.5299C135.061 19.8733 133.723 18.5303 132.073 18.5303C130.423 18.5303 129.085 19.8733 129.085 21.5299C129.085 23.1865 130.423 24.5294 132.073 24.5294Z" fill="#D3D1CF"/>
<path d="M59.9747 40.6128C61.625 40.6128 62.9628 39.2699 62.9628 37.6133C62.9628 35.9567 61.625 34.6137 59.9747 34.6137C58.3244 34.6137 56.9866 35.9567 56.9866 37.6133C56.9866 39.2699 58.3244 40.6128 59.9747 40.6128Z" fill="#702E3E"/>
<path d="M67.9856 40.6128C69.6358 40.6128 70.9736 39.2699 70.9736 37.6133C70.9736 35.9567 69.6358 34.6137 67.9856 34.6137C66.3353 34.6137 64.9975 35.9567 64.9975 37.6133C64.9975 39.2699 66.3353 40.6128 67.9856 40.6128Z" fill="#702E3E"/>
<path d="M75.9966 40.6128C77.6468 40.6128 78.9846 39.2699 78.9846 37.6133C78.9846 35.9567 77.6468 34.6137 75.9966 34.6137C74.3463 34.6137 73.0085 35.9567 73.0085 37.6133C73.0085 39.2699 74.3463 40.6128 75.9966 40.6128Z" fill="#702E3E"/>
<path d="M84.0074 40.6128C85.6577 40.6128 86.9955 39.2699 86.9955 37.6133C86.9955 35.9567 85.6577 34.6137 84.0074 34.6137C82.3572 34.6137 81.0193 35.9567 81.0193 37.6133C81.0193 39.2699 82.3572 40.6128 84.0074 40.6128Z" fill="#702E3E"/>
<path d="M92.0183 40.6128C93.6686 40.6128 95.0064 39.2699 95.0064 37.6133C95.0064 35.9567 93.6686 34.6137 92.0183 34.6137C90.3681 34.6137 89.0303 35.9567 89.0303 37.6133C89.0303 39.2699 90.3681 40.6128 92.0183 40.6128Z" fill="#D3D1CF"/>
<path d="M100.029 40.6128C101.679 40.6128 103.017 39.2699 103.017 37.6133C103.017 35.9567 101.679 34.6137 100.029 34.6137C98.3789 34.6137 97.0411 35.9567 97.0411 37.6133C97.0411 39.2699 98.3789 40.6128 100.029 40.6128Z" fill="#D3D1CF"/>
<path d="M108.04 40.6128C109.69 40.6128 111.028 39.2699 111.028 37.6133C111.028 35.9567 109.69 34.6137 108.04 34.6137C106.39 34.6137 105.052 35.9567 105.052 37.6133C105.052 39.2699 106.39 40.6128 108.04 40.6128Z" fill="#D3D1CF"/>
<path d="M116.051 40.6128C117.701 40.6128 119.039 39.2699 119.039 37.6133C119.039 35.9567 117.701 34.6137 116.051 34.6137C114.401 34.6137 113.063 35.9567 113.063 37.6133C113.063 39.2699 114.401 40.6128 116.051 40.6128Z" fill="#D3D1CF"/>
<path d="M124.062 40.6128C125.712 40.6128 127.05 39.2699 127.05 37.6133C127.05 35.9567 125.712 34.6137 124.062 34.6137C122.412 34.6137 121.074 35.9567 121.074 37.6133C121.074 39.2699 122.412 40.6128 124.062 40.6128Z" fill="#D3D1CF"/>
<path d="M132.073 40.6128C133.723 40.6128 135.061 39.2699 135.061 37.6133C135.061 35.9567 133.723 34.6137 132.073 34.6137C130.423 34.6137 129.085 35.9567 129.085 37.6133C129.085 39.2699 130.423 40.6128 132.073 40.6128Z" fill="#D3D1CF"/>
<path d="M59.9747 56.6961C61.625 56.6961 62.9628 55.3532 62.9628 53.6966C62.9628 52.04 61.625 50.697 59.9747 50.697C58.3244 50.697 56.9866 52.04 56.9866 53.6966C56.9866 55.3532 58.3244 56.6961 59.9747 56.6961Z" fill="#702E3E"/>
<path d="M67.9856 56.6961C69.6358 56.6961 70.9736 55.3532 70.9736 53.6966C70.9736 52.04 69.6358 50.697 67.9856 50.697C66.3353 50.697 64.9975 52.04 64.9975 53.6966C64.9975 55.3532 66.3353 56.6961 67.9856 56.6961Z" fill="#702E3E"/>
<path d="M75.9966 56.6961C77.6468 56.6961 78.9846 55.3532 78.9846 53.6966C78.9846 52.04 77.6468 50.697 75.9966 50.697C74.3463 50.697 73.0085 52.04 73.0085 53.6966C73.0085 55.3532 74.3463 56.6961 75.9966 56.6961Z" fill="#702E3E"/>
<path d="M84.0074 56.6961C85.6577 56.6961 86.9955 55.3532 86.9955 53.6966C86.9955 52.04 85.6577 50.697 84.0074 50.697C82.3572 50.697 81.0193 52.04 81.0193 53.6966C81.0193 55.3532 82.3572 56.6961 84.0074 56.6961Z" fill="#702E3E"/>
<path d="M92.0183 56.6961C93.6686 56.6961 95.0064 55.3532 95.0064 53.6966C95.0064 52.04 93.6686 50.697 92.0183 50.697C90.3681 50.697 89.0303 52.04 89.0303 53.6966C89.0303 55.3532 90.3681 56.6961 92.0183 56.6961Z" fill="#702E3E"/>
<path d="M100.029 56.6961C101.679 56.6961 103.017 55.3532 103.017 53.6966C103.017 52.04 101.679 50.697 100.029 50.697C98.3789 50.697 97.0411 52.04 97.0411 53.6966C97.0411 55.3532 98.3789 56.6961 100.029 56.6961Z" fill="#D3D1CF"/>
<path d="M108.04 56.6961C109.69 56.6961 111.028 55.3532 111.028 53.6966C111.028 52.04 109.69 50.697 108.04 50.697C106.39 50.697 105.052 52.04 105.052 53.6966C105.052 55.3532 106.39 56.6961 108.04 56.6961Z" fill="#D3D1CF"/>
<path d="M116.051 56.6961C117.701 56.6961 119.039 55.3532 119.039 53.6966C119.039 52.04 117.701 50.697 116.051 50.697C114.401 50.697 113.063 52.04 113.063 53.6966C113.063 55.3532 114.401 56.6961 116.051 56.6961Z" fill="#D3D1CF"/>
<path d="M124.062 56.6961C125.712 56.6961 127.05 55.3532 127.05 53.6966C127.05 52.04 125.712 50.697 124.062 50.697C122.412 50.697 121.074 52.04 121.074 53.6966C121.074 55.3532 122.412 56.6961 124.062 56.6961Z" fill="#D3D1CF"/>
<path d="M132.073 56.6961C133.723 56.6961 135.061 55.3532 135.061 53.6966C135.061 52.04 133.723 50.697 132.073 50.697C130.423 50.697 129.085 52.04 129.085 53.6966C129.085 55.3532 130.423 56.6961 132.073 56.6961Z" fill="#D3D1CF"/>
<path d="M2.38429 0.983582H4.08261L6.23755 8.02807H4.97983L4.38702 6.08199H2.07989L1.49509 8.02807H0.22937L2.39231 0.983582H2.38429ZM3.23346 2.23004L2.37629 5.08483H4.09062L3.23346 2.23004Z" fill="black"/>
<path d="M8.50466 8.02806H7.2149V2.51148H7.82373L8.33643 3.37194C8.77703 2.74469 9.40187 2.40694 10.211 2.37477V3.48452C9.45795 3.50061 8.88918 3.73381 8.51267 4.1761V8.02806H8.50466Z" fill="black"/>
<path d="M15.5703 5.26977C15.5703 7.19977 14.7371 8.16477 13.0709 8.16477C11.4046 8.16477 10.5714 7.19977 10.5714 5.26977C10.5714 3.33977 11.4046 2.37477 13.0709 2.37477C14.7371 2.37477 15.5703 3.33977 15.5703 5.26977ZM12.1095 6.6851C12.2778 7.00677 12.5982 7.1676 13.0709 7.1676C13.5435 7.1676 13.8639 7.00677 14.0322 6.6851C14.2004 6.36344 14.2805 5.88898 14.2805 5.26977C14.2805 4.65056 14.2004 4.17611 14.0322 3.85444C13.8639 3.53277 13.5435 3.37194 13.0709 3.37194C12.5982 3.37194 12.2778 3.53277 12.1095 3.85444C11.9413 4.17611 11.8612 4.65056 11.8612 5.26977C11.8612 5.88898 11.9413 6.36344 12.1095 6.6851Z" fill="black"/>
<path d="M19.4876 2.37477C20.2566 2.37477 20.7934 2.59994 21.1058 3.04223C21.6585 2.59994 22.2433 2.37477 22.8682 2.37477C23.493 2.37477 23.9577 2.52756 24.2541 2.84119C24.5585 3.15481 24.7027 3.58102 24.7027 4.12785V8.02806H23.4129V4.34498C23.4129 4.00723 23.3488 3.76598 23.2287 3.60514C23.1085 3.44431 22.8922 3.37194 22.5878 3.37194C22.1552 3.37194 21.7547 3.52473 21.3862 3.82227C21.4022 3.95094 21.4022 4.05548 21.4022 4.12785V8.02806H20.1124V4.34498C20.1124 4.00723 20.0484 3.76598 19.9202 3.60514C19.792 3.44431 19.5437 3.37194 19.1832 3.37194C18.8227 3.37194 18.4622 3.5006 18.1017 3.75794V8.0361H16.812V2.51952H17.4929L17.8293 2.96985C18.35 2.57581 18.8948 2.38281 19.4716 2.38281L19.4876 2.37477Z" fill="black"/>
<path d="M28.3476 2.37477C29.7415 2.37477 30.4465 3.0181 30.4465 4.29673V8.02806H29.6134L29.2449 7.35256C28.7322 7.89135 28.1313 8.16477 27.4504 8.16477C26.9618 8.16477 26.5933 8.02806 26.3369 7.75464C26.0806 7.48123 25.9604 7.11131 25.9604 6.65293C25.9604 6.19456 26.1046 5.82464 26.393 5.53514C26.6814 5.25369 27.2181 5.05265 28.0112 4.94006L29.1647 4.76315V4.29673C29.1647 3.66948 28.8683 3.3639 28.2835 3.3639C27.7228 3.3639 27.3943 3.64535 27.2902 4.21631L26.2888 3.91877C26.5292 2.88944 27.2181 2.37477 28.3557 2.37477H28.3476ZM27.859 7.21585C28.2916 7.21585 28.7242 6.99873 29.1567 6.57252V5.57535L28.2355 5.73619C27.8189 5.80856 27.5465 5.92114 27.4104 6.07393C27.2742 6.22673 27.2101 6.40364 27.2101 6.59664C27.2101 6.78964 27.2662 6.94243 27.3863 7.04697C27.4985 7.15956 27.6587 7.20781 27.867 7.20781L27.859 7.21585Z" fill="black"/>
<path d="M2.38429 17.0669H4.08261L6.23755 24.1114H4.97983L4.38702 22.1653H2.07989L1.49509 24.1114H0.22937L2.39231 17.0669H2.38429ZM3.23346 18.3133L2.37629 21.1681H4.09062L3.23346 18.3133Z" fill="black"/>
<path d="M8.19218 19.9137C8.03196 20.2192 7.94385 20.7017 7.94385 21.3531C7.94385 22.0045 8.02395 22.4789 8.19218 22.7926C8.3524 23.0982 8.6408 23.259 9.04936 23.259C9.45791 23.259 9.7463 23.1786 9.92254 23.0097C10.0988 22.8408 10.1949 22.5754 10.2029 22.2216L11.2123 22.2699C11.1722 22.9293 10.98 23.4198 10.6435 23.7576C10.2991 24.0953 9.7383 24.2562 8.95323 24.2562C8.03999 24.2562 7.41513 23.9586 7.07867 23.3555C6.91845 23.066 6.80631 22.7604 6.75023 22.4468C6.68614 22.1332 6.66211 21.7632 6.66211 21.3531C6.66211 20.943 6.69415 20.5731 6.75023 20.2514C6.81432 19.9297 6.91845 19.6322 7.07867 19.3507C7.40711 18.7557 8.03197 18.4662 8.95323 18.4662C9.73029 18.4662 10.283 18.627 10.6275 18.9406C10.964 19.2623 11.1562 19.7367 11.2043 20.364L10.2029 20.5007C10.1869 20.1388 10.0988 19.8734 9.92254 19.7126C9.7463 19.5437 9.45791 19.4633 9.04936 19.4633C8.6408 19.4633 8.36041 19.6161 8.19218 19.9297V19.9137Z" fill="black"/>
<path d="M13.0148 17.9353C12.5341 17.9353 12.2938 17.686 12.2938 17.1875C12.2938 16.6889 12.5341 16.4396 13.0148 16.4396C13.4954 16.4396 13.7518 16.6889 13.7518 17.1875C13.7518 17.686 13.5034 17.9353 13.0148 17.9353ZM12.3739 18.5948H13.6637V24.1113H12.3739V18.5948Z" fill="black"/>
<path d="M16.7639 24.2481C15.5302 24.2481 14.9053 23.2831 14.9053 21.3531C14.9053 19.4231 15.6584 18.4581 17.1564 18.4581C17.581 18.4581 17.9975 18.5385 18.4061 18.6913V16.8578L19.6959 16.7613V24.1114H18.8627L18.5102 23.4279C17.9815 23.9747 17.3967 24.2481 16.7719 24.2481H16.7639ZM17.2766 23.2509C17.6771 23.2509 18.0536 23.0419 18.4141 22.6317V19.6402C18.1017 19.5116 17.7893 19.4472 17.4929 19.4472C17.0282 19.4472 16.6998 19.6081 16.4995 19.9297C16.2992 20.2514 16.2031 20.7259 16.2031 21.3451C16.2031 22.6157 16.5636 23.2429 17.2766 23.2429V23.2509Z" fill="black"/>
<path d="M23.4049 24.2481C22.5237 24.2481 21.8908 24.0069 21.5143 23.5324C21.1378 23.0499 20.9456 22.3262 20.9456 21.3531C20.9456 19.4231 21.7546 18.4581 23.3648 18.4581C24.2941 18.4581 24.927 18.7476 25.2714 19.3266C25.5678 19.8252 25.712 20.4686 25.712 21.2566V21.6024H22.1953C22.1953 22.2056 22.2994 22.6318 22.4917 22.8811C22.6839 23.1304 23.0044 23.251 23.445 23.251C24.1579 23.251 24.5344 22.9936 24.5825 22.479L25.6399 22.5192C25.5358 23.6691 24.7908 24.2481 23.4129 24.2481H23.4049ZM24.1419 19.7689C23.9817 19.5599 23.7173 19.4553 23.3568 19.4553C22.9963 19.4553 22.724 19.5599 22.5557 19.7609C22.3875 19.9619 22.2754 20.2836 22.2273 20.7339H24.4463C24.4063 20.2997 24.3101 19.9861 24.1499 19.777L24.1419 19.7689Z" fill="black"/>
<path d="M26.425 19.4955V18.5868H30.5026V19.3749L27.867 23.1946H30.5907V24.1034H26.3289V23.3153L28.9805 19.4955H26.425Z" fill="black"/>
<path d="M3.52985 34.0751C2.92903 34.0751 2.52047 34.2761 2.31219 34.6702C2.1039 35.0642 1.99176 35.7316 1.99176 36.6645C1.99176 37.5973 2.09589 38.2648 2.31219 38.6669C2.52047 39.0689 2.92903 39.2619 3.52985 39.2619C3.99448 39.2619 4.33094 39.1333 4.5232 38.8759C4.71547 38.6186 4.81961 38.2487 4.83563 37.7581L5.89306 37.8064C5.845 38.6347 5.64473 39.2619 5.30026 39.6881C4.95579 40.1143 4.36298 40.3234 3.52985 40.3234C2.43235 40.3234 1.67933 40.0018 1.26276 39.3584C1.05448 39.0368 0.902271 38.6588 0.814151 38.2326C0.726032 37.8064 0.685974 37.2837 0.685974 36.6645C0.685974 36.0453 0.726032 35.5226 0.814151 35.0964C0.902271 34.6702 1.04647 34.2922 1.26276 33.9705C1.67933 33.3272 2.43235 33.0055 3.52985 33.0055C4.31492 33.0055 4.88369 33.1824 5.22815 33.5363C5.57262 33.8901 5.78892 34.4128 5.86102 35.0964L4.80358 35.2572C4.76352 34.8712 4.64336 34.5737 4.4511 34.3726C4.25883 34.1716 3.94641 34.067 3.52985 34.067V34.0751Z" fill="black"/>
<path d="M8.66485 40.3315C7.53531 40.3315 6.97455 39.7444 6.97455 38.5784V34.6782H8.2643V38.3613C8.2643 38.699 8.32839 38.9403 8.46458 39.1011C8.59275 39.2619 8.81705 39.3343 9.12146 39.3343C9.55405 39.3343 9.97062 39.1252 10.3632 38.7151V34.6702H11.6529V40.1867H10.8198L10.4513 39.5193C9.9546 40.05 9.36179 40.3234 8.67286 40.3234L8.66485 40.3315Z" fill="black"/>
<path d="M15.3539 40.3314C14.4727 40.3314 13.8399 40.0902 13.4634 39.6157C13.0868 39.1332 12.8946 38.4095 12.8946 37.4364C12.8946 35.5064 13.7037 34.5414 15.3139 34.5414C16.2432 34.5414 16.876 34.8309 17.2205 35.4099C17.5169 35.9085 17.6611 36.5519 17.6611 37.3399V37.6857H14.1443C14.1443 38.2889 14.2484 38.7151 14.4407 38.9644C14.633 39.2136 14.9534 39.3343 15.394 39.3343C16.107 39.3343 16.4835 39.0769 16.5315 38.5623L17.589 38.6025C17.4848 39.7524 16.7398 40.3314 15.362 40.3314H15.3539ZM16.0909 35.8522C15.9307 35.6432 15.6664 35.5386 15.3059 35.5386C14.9454 35.5386 14.673 35.6431 14.5048 35.8442C14.3366 36.0452 14.2244 36.3669 14.1763 36.8172H16.3954C16.3553 36.383 16.2592 36.0694 16.099 35.8603L16.0909 35.8522Z" fill="black"/>
<path d="M20.1525 40.1947H18.8627V34.6781H19.4716L19.9843 35.5386C20.4249 34.9114 21.0497 34.5736 21.8588 34.5414V35.6512C21.1058 35.6673 20.537 35.9005 20.1605 36.3428V40.1947H20.1525Z" fill="black"/>
<path d="M25.3515 34.5414C26.8256 34.5414 27.5626 35.5064 27.5626 37.4364C27.5626 39.3664 26.8095 40.3314 25.3115 40.3314C24.927 40.3314 24.5104 40.2671 24.0618 40.1384V42.173L22.772 42.3499V34.6781H23.3889L23.7253 35.0963C24.2701 34.7264 24.8148 34.5495 25.3515 34.5495V34.5414ZM24.9991 35.5386C24.6706 35.5386 24.3582 35.6271 24.0698 35.812V39.2056C24.3742 39.2941 24.6786 39.3423 24.991 39.3423C25.4557 39.3423 25.7841 39.1815 25.9844 38.8518C26.1847 38.5221 26.2808 38.0557 26.2808 37.4364C26.2808 36.1659 25.8562 35.5386 24.9991 35.5386Z" fill="black"/>
<path d="M33.2503 37.4364C33.2503 39.3664 32.4172 40.3314 30.7509 40.3314C29.0847 40.3314 28.2515 39.3664 28.2515 37.4364C28.2515 35.5064 29.0847 34.5414 30.7509 34.5414C32.4172 34.5414 33.2503 35.5064 33.2503 37.4364ZM29.7896 38.8518C29.9578 39.1734 30.2783 39.3343 30.7509 39.3343C31.2236 39.3343 31.544 39.1734 31.7122 38.8518C31.8805 38.5301 31.9606 38.0557 31.9606 37.4364C31.9606 36.8172 31.8805 36.3428 31.7122 36.0211C31.544 35.6994 31.2236 35.5386 30.7509 35.5386C30.2783 35.5386 29.9578 35.6994 29.7896 36.0211C29.6214 36.3428 29.5413 36.8172 29.5413 37.4364C29.5413 38.0557 29.6214 38.5301 29.7896 38.8518Z" fill="black"/>
<path d="M1.04645 49.2336H2.35223V56.278H1.04645V49.2336Z" fill="black"/>
<path d="M5.18011 51.2601C5.78093 50.8338 6.39776 50.6248 7.03062 50.6248C7.66349 50.6248 8.12011 50.7775 8.40049 51.0912C8.68088 51.4048 8.82507 51.831 8.82507 52.3778V56.278H7.53532V52.5146C7.53532 52.1848 7.47924 51.9516 7.35907 51.823C7.23891 51.6863 7.03062 51.6219 6.74223 51.6219C6.2776 51.6219 5.85302 51.7667 5.45248 52.0562V56.2861H4.16272V50.7695H4.77156L5.18811 51.2681L5.18011 51.2601Z" fill="black"/>
<path d="M9.72229 51.5978V50.7614H10.6035V49.7562L11.8933 49.4265V50.7614H12.9427V51.5978H11.8933V54.7179C11.8933 54.9913 11.9333 55.1924 12.0134 55.305C12.0935 55.4175 12.2137 55.4819 12.3659 55.4819C12.5181 55.4819 12.6943 55.4578 12.8786 55.4015L13.0388 56.2056C12.6623 56.3504 12.3258 56.4147 12.0214 56.4147C11.717 56.4147 11.4847 56.3825 11.3085 56.3102C11.1322 56.2378 10.996 56.1574 10.9079 56.0609C10.8198 55.9644 10.7477 55.8438 10.7076 55.6829C10.6355 55.4578 10.6035 55.1763 10.6035 54.8466V51.6058H9.72229V51.5978Z" fill="black"/>
<path d="M15.8987 56.4147C15.0175 56.4147 14.3846 56.1735 14.0081 55.699C13.6316 55.2165 13.4393 54.4928 13.4393 53.5198C13.4393 51.5898 14.2484 50.6248 15.8586 50.6248C16.7879 50.6248 17.4208 50.9143 17.7652 51.4933C18.0616 51.9918 18.2058 52.6352 18.2058 53.4233V53.769H14.689C14.689 54.3722 14.7932 54.7984 14.9854 55.0477C15.1777 55.297 15.4981 55.4176 15.9387 55.4176C16.6517 55.4176 17.0282 55.1603 17.0763 54.6456L18.1337 54.6858C18.0296 55.8358 17.2846 56.4147 15.9067 56.4147H15.8987ZM16.6357 51.9356C16.4755 51.7265 16.2111 51.6219 15.8506 51.6219C15.4901 51.6219 15.2178 51.7265 15.0495 51.9275C14.8813 52.1285 14.7691 52.4502 14.7211 52.9005H16.9401C16.9 52.4663 16.8039 52.1527 16.6437 51.9436L16.6357 51.9356Z" fill="black"/>
<path d="M20.4248 51.2601C21.0256 50.8338 21.6425 50.6248 22.2753 50.6248C22.9082 50.6248 23.3648 50.7775 23.6452 51.0912C23.9256 51.4048 24.0698 51.831 24.0698 52.3778V56.278H22.78V52.5146C22.78 52.1848 22.7239 51.9516 22.6038 51.823C22.4836 51.6863 22.2753 51.6219 21.9869 51.6219C21.5223 51.6219 21.0977 51.7667 20.6972 52.0562V56.2861H19.4074V50.7695H20.0162L20.4328 51.2681L20.4248 51.2601Z" fill="black"/>
<path d="M29.7175 54.734C29.7175 55.8357 28.9484 56.3825 27.4103 56.3825C26.7374 56.3825 26.2408 56.2378 25.9123 55.9402C25.5839 55.6427 25.3836 55.2245 25.2955 54.6616L26.2968 54.5088C26.3689 55.128 26.7535 55.4336 27.4424 55.4336C28.1313 55.4336 28.4838 55.2165 28.4838 54.7742C28.4838 54.5973 28.4117 54.4606 28.2755 54.3721C28.1393 54.2837 27.859 54.1872 27.4424 54.0907L27.0018 53.9861C26.433 53.8494 26.0245 53.6564 25.7761 53.391C25.5278 53.1337 25.4076 52.7557 25.4076 52.2572C25.4076 51.1635 26.1526 50.6167 27.6347 50.6167C28.2755 50.6167 28.7562 50.7614 29.0686 51.059C29.389 51.3485 29.5813 51.7747 29.6614 52.3376L28.66 52.4823C28.588 51.8712 28.2355 51.5656 27.5946 51.5656C26.9537 51.5656 26.6413 51.7827 26.6413 52.225C26.6413 52.4019 26.7054 52.5386 26.8256 52.6351C26.9537 52.7316 27.2021 52.8201 27.5866 52.9085L28.0833 53.0372C28.652 53.182 29.0686 53.375 29.3169 53.6323C29.5733 53.8896 29.6935 54.2515 29.6935 54.734H29.7175Z" fill="black"/>
<path d="M31.6722 50.1021C31.1915 50.1021 30.9512 49.8528 30.9512 49.3542C30.9512 48.8556 31.1915 48.6064 31.6722 48.6064C32.1528 48.6064 32.4092 48.8556 32.4092 49.3542C32.4092 49.8528 32.1608 50.1021 31.6722 50.1021ZM31.0313 50.7615H32.321V56.2781H31.0313V50.7615Z" fill="black"/>
<path d="M35.4213 56.4148C34.1876 56.4148 33.5627 55.4498 33.5627 53.5198C33.5627 51.5898 34.3158 50.6248 35.8138 50.6248C36.2384 50.6248 36.6549 50.7052 37.0635 50.858V49.0245L38.3533 48.928V56.2781H37.5201L37.1677 55.5945C36.6389 56.1414 36.0541 56.4148 35.4293 56.4148H35.4213ZM35.934 55.4176C36.3345 55.4176 36.711 55.2085 37.0715 54.7984V51.8069C36.7591 51.6782 36.4467 51.6139 36.1503 51.6139C35.6856 51.6139 35.3572 51.7747 35.1569 52.0964C34.9566 52.4181 34.8605 52.8925 34.8605 53.5117C34.8605 54.7823 35.221 55.4096 35.934 55.4096V55.4176Z" fill="black"/>
<path d="M42.0943 50.6248C43.4882 50.6248 44.1931 51.2681 44.1931 52.5467V56.278H43.36L42.9915 55.6025C42.4788 56.1413 41.878 56.4147 41.1971 56.4147C40.7084 56.4147 40.3399 56.278 40.0835 56.0046C39.8272 55.7312 39.707 55.3613 39.707 54.9029C39.707 54.4446 39.8512 54.0746 40.1396 53.7851C40.428 53.5037 40.9647 53.3026 41.7578 53.19L42.9114 53.0131V52.5467C42.9114 51.9195 42.615 51.6139 42.0302 51.6139C41.4694 51.6139 41.141 51.8953 41.0368 52.4663L40.0355 52.1688C40.2758 51.1394 40.9647 50.6248 42.1023 50.6248H42.0943ZM41.6056 55.4658C42.0382 55.4658 42.4708 55.2487 42.9034 54.8225V53.8253L41.9821 53.9862C41.5656 54.0586 41.2932 54.1711 41.157 54.3239C41.0208 54.4767 40.9567 54.6536 40.9567 54.8466C40.9567 55.0396 41.0128 55.1924 41.133 55.297C41.2451 55.4095 41.4053 55.4578 41.6136 55.4578L41.6056 55.4658Z" fill="black"/>
<path d="M47.1973 56.4148C45.9637 56.4148 45.3388 55.4498 45.3388 53.5198C45.3388 51.5898 46.0918 50.6248 47.5899 50.6248C48.0144 50.6248 48.431 50.7052 48.8396 50.858V49.0245L50.1293 48.928V56.2781H49.2962L48.9437 55.5945C48.415 56.1414 47.8302 56.4148 47.2053 56.4148H47.1973ZM47.71 55.4176C48.1106 55.4176 48.4871 55.2085 48.8476 54.7984V51.8069C48.5351 51.6782 48.2227 51.6139 47.9263 51.6139C47.4617 51.6139 47.1332 51.7747 46.933 52.0964C46.7327 52.4181 46.6366 52.8925 46.6366 53.5117C46.6366 54.7823 46.9971 55.4096 47.71 55.4096V55.4176Z" fill="black"/>
<path d="M5.83697 65.3169H7.66346L7.84771 72.3614H6.55795L6.4538 66.9413L4.88367 71.525H3.74613L2.3362 67.0941L2.24007 72.3614H0.950317L1.12656 65.3169H2.96105L4.33893 69.7639L5.83697 65.3169Z" fill="black"/>
<path d="M11.4607 72.498C10.5795 72.498 9.94659 72.2568 9.57008 71.7823C9.19357 71.2998 9.00131 70.5761 9.00131 69.6031C9.00131 67.6731 9.81042 66.7081 11.4206 66.7081C12.3499 66.7081 12.9827 66.9976 13.3272 67.5766C13.6236 68.0751 13.7678 68.7185 13.7678 69.5065V69.8523H10.251C10.251 70.4555 10.3551 70.8817 10.5474 71.131C10.7397 71.3803 11.0601 71.5009 11.5007 71.5009C12.2137 71.5009 12.5902 71.2436 12.6383 70.7289L13.6957 70.7691C13.5916 71.9191 12.8465 72.498 11.4687 72.498H11.4607ZM12.1977 68.0188C12.0374 67.8098 11.7731 67.7052 11.4126 67.7052C11.0521 67.7052 10.7797 67.8098 10.6115 68.0108C10.4433 68.2118 10.3311 68.5335 10.283 68.9838H12.5021C12.462 68.5496 12.3659 68.236 12.2057 68.0269L12.1977 68.0188Z" fill="black"/>
<path d="M14.4807 67.7455V66.8368H18.5583V67.6248L15.9227 71.4446H18.6464V72.3533H14.3846V71.5653L17.0362 67.7455H14.4807Z" fill="black"/>
<path d="M20.8334 68.1636C20.6732 68.4691 20.585 68.9517 20.585 69.603C20.585 70.2544 20.6651 70.7289 20.8334 71.0425C20.9936 71.3481 21.282 71.5089 21.6905 71.5089C22.0991 71.5089 22.3875 71.4285 22.5637 71.2596C22.74 71.0907 22.8361 70.8254 22.8441 70.4715L23.8535 70.5198C23.8134 71.1792 23.6212 71.6697 23.2847 72.0075C22.9402 72.3452 22.3795 72.5061 21.5944 72.5061C20.6812 72.5061 20.0563 72.2085 19.7199 71.6054C19.5596 71.3159 19.4475 71.0103 19.3914 70.6967C19.3273 70.3831 19.3033 70.0132 19.3033 69.603C19.3033 69.1929 19.3353 68.823 19.3914 68.5013C19.4555 68.1796 19.5596 67.8821 19.7199 67.6007C20.0483 67.0056 20.6731 66.7161 21.5944 66.7161C22.3715 66.7161 22.9242 66.8769 23.2687 67.1905C23.6051 67.5122 23.7974 67.9866 23.8455 68.6139L22.8441 68.7506C22.8281 68.3887 22.74 68.1234 22.5637 67.9625C22.3875 67.7936 22.0991 67.7132 21.6905 67.7132C21.282 67.7132 21.0016 67.866 20.8334 68.1797V68.1636Z" fill="black"/>
<path d="M26.3049 72.3614H25.0151V65.1078L26.3049 64.9309V72.3614Z" fill="black"/>
<path d="M30.0379 66.7081C31.4318 66.7081 32.1368 67.3514 32.1368 68.63V72.3613H31.3037L30.9352 71.6858C30.4225 72.2246 29.8217 72.498 29.1407 72.498C28.6521 72.498 28.2836 72.3613 28.0272 72.0879C27.7709 71.8145 27.6507 71.4446 27.6507 70.9862C27.6507 70.5278 27.7949 70.1579 28.0833 69.8684C28.3717 69.587 28.9084 69.3859 29.7015 69.2733L30.8551 69.0964V68.63C30.8551 68.0028 30.5586 67.6972 29.9739 67.6972C29.4131 67.6972 29.0847 67.9786 28.9805 68.5496L27.9791 68.2521C28.2195 67.2227 28.9084 66.7081 30.046 66.7081H30.0379ZM29.5493 71.5491C29.9819 71.5491 30.4145 71.332 30.8471 70.9058V69.9086L29.9258 70.0695C29.5092 70.1418 29.2369 70.2544 29.1007 70.4072C28.9645 70.56 28.9004 70.7369 28.9004 70.9299C28.9004 71.1229 28.9565 71.2757 29.0766 71.3803C29.1888 71.4928 29.349 71.5411 29.5573 71.5411L29.5493 71.5491Z" fill="black"/>
<path d="M5.861 87.5038C5.65272 87.8496 5.35632 88.115 4.97179 88.3C4.58727 88.4849 4.13865 88.5734 3.62595 88.5734C3.11326 88.5734 2.68868 88.5091 2.35222 88.3884C2.01577 88.2598 1.73539 88.0989 1.5271 87.8898C1.31882 87.6808 1.14258 87.4154 1.0144 87.0937C0.790099 86.5308 0.677948 85.807 0.677948 84.9225C0.677948 84.3756 0.718005 83.8931 0.806125 83.483C0.886234 83.0729 1.03043 82.6949 1.23871 82.3411C1.64726 81.6173 2.41632 81.2635 3.54585 81.2635C4.8276 81.2635 5.67675 81.7621 6.08531 82.7593C6.30961 83.3222 6.42176 84.0379 6.42176 84.9225C6.42176 85.4773 6.38171 85.9598 6.29359 86.37C6.21348 86.7801 6.06929 87.158 5.861 87.5119V87.5038ZM3.54585 87.5119C4.13065 87.5119 4.5392 87.2867 4.7635 86.8283C4.99582 86.37 5.10798 85.7347 5.10798 84.9144C5.10798 84.0942 4.99582 83.4589 4.7635 83.0005C4.53119 82.5421 4.12264 82.317 3.54585 82.317C2.92901 82.317 2.51244 82.5663 2.28814 83.0729C2.08786 83.5313 1.99174 84.1424 1.99174 84.9144C1.99174 86.2011 2.24809 87.0053 2.76879 87.3189C2.97708 87.4476 3.24144 87.5119 3.54585 87.5119Z" fill="black"/>
<path d="M9.15346 88.4447H7.86371V82.9281H8.47253L8.98523 83.7886C9.42583 83.1614 10.0507 82.8236 10.8598 82.7914V83.9012C10.1068 83.9173 9.53798 84.1505 9.16147 84.5928V88.4447H9.15346Z" fill="black"/>
<path d="M11.8211 82.4617L11.3885 81.7701L13.2631 80.4834L13.8399 81.4082L11.8211 82.4617ZM11.773 82.9281H13.0628V88.4447H11.773V82.9281Z" fill="black"/>
<path d="M18.5022 86.1609C18.35 86.37 18.1257 86.5308 17.8213 86.6514C17.5169 86.7721 17.1644 86.8284 16.7558 86.8284C16.3473 86.8284 16.0108 86.7801 15.7385 86.6836L15.4661 86.9731C15.3539 87.0857 15.3059 87.1902 15.3059 87.2948C15.3059 87.4476 15.41 87.528 15.6263 87.528H17.6771C18.1818 87.528 18.5823 87.6647 18.8707 87.9462C19.1591 88.2276 19.3113 88.5493 19.3113 88.9192C19.3113 89.2891 19.2312 89.5866 19.079 89.8038C18.9268 90.0209 18.7025 90.1817 18.4141 90.2863C17.9254 90.4632 17.3006 90.5436 16.5476 90.5436C15.7945 90.5436 15.2017 90.4551 14.7932 90.2702C14.3846 90.0852 14.1763 89.7716 14.1763 89.3293C14.1763 89.1202 14.2404 88.9272 14.3606 88.7584C14.4808 88.5895 14.633 88.4608 14.8092 88.3643C14.4167 88.2437 14.2244 87.9542 14.2244 87.5039C14.2244 87.2063 14.3366 86.9329 14.5689 86.6836L15.0095 86.2172C14.7051 85.8714 14.5609 85.3969 14.5609 84.8099C14.5609 84.2872 14.7051 83.8369 14.9854 83.4589C15.3059 83.0166 15.8907 82.7914 16.7318 82.7914C17.1003 82.7914 17.4127 82.8397 17.6851 82.9281H19.2873V83.6921H18.6544C18.8307 84.0057 18.9108 84.3354 18.9108 84.6812C18.9108 85.027 18.8787 85.3085 18.8147 85.5256C18.7506 85.7427 18.6464 85.9599 18.4942 86.1609H18.5022ZM15.3539 89.0398C15.3539 89.265 15.4581 89.4178 15.6664 89.4821C15.8746 89.5464 16.2191 89.5786 16.6998 89.5786C17.1804 89.5786 17.5249 89.5384 17.7252 89.466C17.9254 89.3936 18.0296 89.2328 18.0296 88.9916C18.0296 88.6297 17.7812 88.4528 17.2766 88.4528H15.6343C15.4501 88.6217 15.3539 88.8146 15.3539 89.0479V89.0398ZM16.7398 83.6519C16.107 83.6519 15.7945 84.0379 15.7945 84.8099C15.7945 85.5819 16.107 85.9679 16.7398 85.9679C17.3727 85.9679 17.6851 85.5819 17.6851 84.8099C17.6851 84.0379 17.3727 83.6519 16.7398 83.6519Z" fill="black"/>
<path d="M22.3315 88.5814C21.4503 88.5814 20.8174 88.3402 20.4409 87.8657C20.0644 87.3832 19.8721 86.6595 19.8721 85.6864C19.8721 83.7564 20.6812 82.7914 22.2914 82.7914C23.2207 82.7914 23.8536 83.0809 24.198 83.6599C24.4944 84.1585 24.6386 84.8019 24.6386 85.5899V85.9357H21.1218C21.1218 86.5389 21.226 86.9651 21.4182 87.2144C21.6105 87.4636 21.9309 87.5843 22.3715 87.5843C23.0845 87.5843 23.461 87.3269 23.5091 86.8123L24.5665 86.8525C24.4624 88.0024 23.7174 88.5814 22.3395 88.5814H22.3315ZM23.0685 84.1022C22.9083 83.8932 22.6439 83.7886 22.2834 83.7886C21.9229 83.7886 21.6506 83.8931 21.4823 84.0942C21.3141 84.2952 21.2019 84.6169 21.1539 85.0672H23.3729C23.3328 84.633 23.2367 84.3194 23.0765 84.1103L23.0685 84.1022Z" fill="black"/>
<path d="M26.8576 83.4267C27.4584 83.0005 28.0752 82.7914 28.7081 82.7914C29.341 82.7914 29.7976 82.9442 30.078 83.2579C30.3584 83.5715 30.5025 83.9977 30.5025 84.5445V88.4447H29.2128V84.6812C29.2128 84.3515 29.1567 84.1183 29.0366 83.9897C28.9164 83.8529 28.7081 83.7886 28.4197 83.7886C27.9551 83.7886 27.5305 83.9334 27.13 84.2229V88.4528H25.8402V82.9362H26.449L26.8656 83.4348L26.8576 83.4267Z" fill="black"/>
<path d="M34.1155 88.5814C33.2343 88.5814 32.6014 88.3402 32.2249 87.8657C31.8484 87.3832 31.6561 86.6595 31.6561 85.6864C31.6561 83.7564 32.4652 82.7914 34.0754 82.7914C35.0047 82.7914 35.6375 83.0809 35.982 83.6599C36.2784 84.1585 36.4226 84.8019 36.4226 85.5899V85.9357H32.9058C32.9058 86.5389 33.01 86.9651 33.2022 87.2144C33.3945 87.4636 33.7149 87.5843 34.1555 87.5843C34.8685 87.5843 35.245 87.3269 35.2931 86.8123L36.3505 86.8525C36.2464 88.0024 35.5014 88.5814 34.1235 88.5814H34.1155ZM34.8525 84.1022C34.6923 83.8932 34.4279 83.7886 34.0674 83.7886C33.7069 83.7886 33.4345 83.8931 33.2663 84.0942C33.0981 84.2952 32.9859 84.6169 32.9379 85.0672H35.1569C35.1168 84.633 35.0207 84.3194 34.8605 84.1103L34.8525 84.1022Z" fill="black"/>
<path d="M41.5576 86.9007C41.5576 88.0024 40.7885 88.5492 39.2504 88.5492C38.5775 88.5492 38.0808 88.4045 37.7524 88.1069C37.424 87.8094 37.2237 87.3912 37.1356 86.8283L38.1369 86.6755C38.209 87.2947 38.5935 87.6003 39.2825 87.6003C39.9714 87.6003 40.3239 87.3832 40.3239 86.9409C40.3239 86.764 40.2518 86.6273 40.1156 86.5388C39.9794 86.4504 39.6991 86.3538 39.2825 86.2573L38.8419 86.1528C38.2731 86.0161 37.8646 85.8231 37.6162 85.5577C37.3679 85.3004 37.2477 84.9224 37.2477 84.4238C37.2477 83.3302 37.9927 82.7834 39.4747 82.7834C40.1156 82.7834 40.5963 82.9281 40.9087 83.2256C41.2291 83.5151 41.4214 83.9414 41.5015 84.5043L40.5001 84.649C40.428 84.0378 40.0756 83.7323 39.4347 83.7323C38.7938 83.7323 38.4814 83.9494 38.4814 84.3917C38.4814 84.5686 38.5455 84.7053 38.6656 84.8018C38.7938 84.8983 39.0422 84.9868 39.4267 85.0752L39.9234 85.2039C40.4921 85.3486 40.9087 85.5416 41.157 85.799C41.4134 86.0563 41.5335 86.4182 41.5335 86.9007H41.5576Z" fill="black"/>
<path d="M5.21213 107.134H6.5179V114.178H5.13201L2.35223 109.393V114.178H1.04645V107.134H2.43234L5.21213 111.926V107.134Z" fill="black"/>
<path d="M12.7664 111.42C12.7664 113.35 11.9333 114.315 10.267 114.315C8.60075 114.315 7.76761 113.35 7.76761 111.42C7.76761 109.49 8.60075 108.525 10.267 108.525C11.9333 108.525 12.7664 109.49 12.7664 111.42ZM9.30571 112.835C9.47394 113.157 9.79438 113.318 10.267 113.318C10.7397 113.318 11.0601 113.157 11.2283 112.835C11.3966 112.513 11.4767 112.039 11.4767 111.42C11.4767 110.801 11.3966 110.326 11.2283 110.004C11.0601 109.683 10.7397 109.522 10.267 109.522C9.79438 109.522 9.47394 109.683 9.30571 110.004C9.13748 110.326 9.05736 110.801 9.05736 111.42C9.05736 112.039 9.13748 112.513 9.30571 112.835Z" fill="black"/>
<path d="M13.199 109.498V108.661H14.0802V107.656L15.3699 107.327V108.661H16.4194V109.498H15.3699V112.618C15.3699 112.891 15.41 113.092 15.4901 113.205C15.5702 113.318 15.6904 113.382 15.8426 113.382C15.9948 113.382 16.171 113.358 16.3553 113.301L16.5155 114.106C16.139 114.25 15.8025 114.315 15.4981 114.315C15.1937 114.315 14.9614 114.283 14.7851 114.21C14.6089 114.138 14.4727 114.057 14.3846 113.961C14.2965 113.864 14.2244 113.744 14.1843 113.583C14.1122 113.358 14.0802 113.076 14.0802 112.747V109.506H13.199V109.498Z" fill="black"/>
<path d="M19.4074 108.525C20.8013 108.525 21.5063 109.168 21.5063 110.447V114.178H20.6732L20.3047 113.503C19.792 114.041 19.1912 114.315 18.5102 114.315C18.0216 114.315 17.6531 114.178 17.3967 113.905C17.1404 113.631 17.0202 113.261 17.0202 112.803C17.0202 112.345 17.1644 111.975 17.4528 111.685C17.7412 111.404 18.2779 111.203 19.071 111.09L20.2246 110.913V110.447C20.2246 109.819 19.9282 109.514 19.3434 109.514C18.7826 109.514 18.4542 109.795 18.35 110.366L17.3487 110.069C17.589 109.039 18.2779 108.525 19.4155 108.525H19.4074ZM18.9188 113.366C19.3514 113.366 19.784 113.149 20.2166 112.722V111.725L19.2953 111.886C18.8787 111.959 18.6064 112.071 18.4702 112.224C18.334 112.377 18.2699 112.554 18.2699 112.747C18.2699 112.94 18.326 113.092 18.4461 113.197C18.5583 113.31 18.7185 113.358 18.9268 113.358L18.9188 113.366Z" fill="black"/>
<path d="M27.1459 112.634C27.1459 113.736 26.3769 114.283 24.8388 114.283C24.1659 114.283 23.6692 114.138 23.3408 113.84C23.0123 113.543 22.8121 113.125 22.7239 112.562L23.7253 112.409C23.7974 113.028 24.1819 113.334 24.8709 113.334C25.5598 113.334 25.9123 113.117 25.9123 112.674C25.9123 112.497 25.8402 112.361 25.704 112.272C25.5678 112.184 25.2874 112.087 24.8709 111.991L24.4303 111.886C23.8615 111.749 23.4529 111.556 23.2046 111.291C22.9562 111.034 22.8361 110.656 22.8361 110.157C22.8361 109.064 23.5811 108.517 25.0631 108.517C25.704 108.517 26.1846 108.661 26.4971 108.959C26.8175 109.249 27.0098 109.675 27.0899 110.238L26.0885 110.382C26.0164 109.771 25.6639 109.466 25.0231 109.466C24.3822 109.466 24.0698 109.683 24.0698 110.125C24.0698 110.302 24.1338 110.439 24.254 110.535C24.3822 110.632 24.6305 110.72 25.015 110.809L25.5117 110.937C26.0805 111.082 26.4971 111.275 26.7454 111.532C27.0018 111.79 27.1219 112.152 27.1219 112.634H27.1459Z" fill="black"/>
<path d="M57.7477 72.498V67.2147H58.3805V71.9914H60.3432V72.498H57.7477Z" fill="black"/>
<path d="M62.37 72.5945C61.9454 72.5945 61.633 72.49 61.4407 72.2728C61.2485 72.0557 61.1523 71.734 61.1523 71.3078V68.3566H61.7692V71.2676C61.7692 71.5491 61.8333 71.7582 61.9534 71.8949C62.0736 72.0316 62.2659 72.0959 62.5302 72.0959C62.9949 72.0959 63.4274 71.8547 63.836 71.3802V68.3646H64.4528V72.5061H64.0443L63.852 71.8949C63.4034 72.3693 62.9147 72.6106 62.37 72.6106V72.5945Z" fill="black"/>
<path d="M65.6063 68.831V68.3566H68.5703V68.7747L66.2792 72.0155H68.6665V72.49H65.5262V72.0718L67.8333 68.831H65.6143H65.6063Z" fill="black"/>
<path d="M73.6893 68.252C74.2501 68.252 74.6186 68.445 74.8109 68.8229C74.9871 68.6621 75.2034 68.5254 75.4517 68.4208C75.7001 68.3083 75.9564 68.252 76.2208 68.252C77.0539 68.252 77.4785 68.6862 77.4785 69.5467V72.4899H76.8617V69.5788C76.8617 69.3054 76.8056 69.1044 76.6854 68.9677C76.5733 68.831 76.381 68.7586 76.1247 68.7586C75.7001 68.7586 75.2995 68.9194 74.939 69.2491C74.9551 69.3456 74.9631 69.4421 74.9631 69.5467V72.4899H74.3462V69.5788C74.3462 69.3054 74.2902 69.1044 74.17 68.9677C74.0578 68.831 73.8656 68.7586 73.6012 68.7586C73.1847 68.7586 72.8001 68.9114 72.4477 69.2169V72.4979H71.8308V68.3565H72.2153L72.3756 68.7666C72.7761 68.4208 73.2247 68.252 73.7054 68.252H73.6893Z" fill="black"/>
<path d="M80.3064 72.5945C79.6735 72.5945 79.2249 72.4175 78.9605 72.0557C78.6882 71.6938 78.56 71.155 78.56 70.4232C78.56 68.9757 79.1368 68.252 80.2823 68.252C81.4279 68.252 81.9806 68.9435 81.9806 70.3347V70.4875H79.1688C79.1688 71.0585 79.2569 71.4686 79.4252 71.7179C79.5934 71.9672 79.8898 72.0878 80.3064 72.0878C80.9873 72.0878 81.3558 71.8144 81.4039 71.2515L81.9166 71.2837C81.8284 72.1602 81.2917 72.5945 80.3064 72.5945ZM81.0834 69.0883C80.9232 68.8712 80.6588 68.7586 80.2823 68.7586C79.9058 68.7586 79.6415 68.8712 79.4732 69.0963C79.305 69.3215 79.2089 69.6351 79.1768 70.0292H81.3558C81.3318 69.6271 81.2436 69.3135 81.0834 69.0883Z" fill="black"/>
<path d="M84.0475 72.5945C83.1663 72.5945 82.7177 71.8707 82.7177 70.4232C82.7177 68.9757 83.2544 68.252 84.3278 68.252C84.6963 68.252 85.0809 68.3485 85.4654 68.5334V67.0055L86.0822 66.9332V72.4899H85.6737L85.4974 71.8627C85.0568 72.3532 84.5762 72.5945 84.0475 72.5945ZM84.2477 72.0879C84.6803 72.0879 85.0889 71.8547 85.4654 71.3963V69.032C85.1209 68.8471 84.7764 68.7506 84.448 68.7506C84.0475 68.7506 83.7591 68.8953 83.5908 69.1929C83.4226 69.4904 83.3345 69.9005 83.3345 70.4313C83.3345 71.541 83.6389 72.0959 84.2397 72.0959L84.2477 72.0879Z" fill="black"/>
<path d="M87.9248 67.665C87.6764 67.665 87.5563 67.5283 87.5563 67.2629C87.5563 66.9975 87.6764 66.8608 87.9248 66.8608C88.1731 66.8608 88.3093 66.9975 88.3093 67.2629C88.3093 67.5283 88.1811 67.665 87.9248 67.665ZM87.6124 68.3566H88.2292V72.498H87.6124V68.3566Z" fill="black"/>
<path d="M92.0984 68.5334C92.3868 68.7425 92.531 69.1285 92.531 69.7075V72.4979H92.1224L91.9622 71.8546C91.4976 72.3532 90.9929 72.6025 90.4401 72.6025C90.0716 72.6025 89.8073 72.506 89.639 72.313C89.4708 72.12 89.3827 71.8627 89.3827 71.533C89.3827 71.2032 89.4868 70.9379 89.6871 70.7368C89.8874 70.5358 90.2719 70.391 90.8407 70.2945L91.9141 70.1176V69.7075C91.9141 69.3537 91.842 69.1044 91.6898 68.9677C91.5376 68.831 91.3293 68.7666 91.065 68.7666C90.5363 68.7666 90.2238 69.024 90.1197 69.5386L89.615 69.3858C89.6951 69.032 89.8553 68.7505 90.0957 68.5495C90.344 68.3485 90.6724 68.252 91.097 68.252C91.5216 68.252 91.85 68.3404 92.1064 68.5254L92.0984 68.5334ZM90.6164 72.12C91.049 72.12 91.4816 71.8868 91.9141 71.4204V70.5519L90.8968 70.7288C90.5523 70.7931 90.32 70.8896 90.1918 71.0183C90.0636 71.147 89.9995 71.3158 89.9995 71.5008C89.9995 71.6857 90.0476 71.8385 90.1517 71.9511C90.2559 72.0637 90.4081 72.12 90.6164 72.12Z" fill="black"/>
<path d="M94.4215 72.321C94.4135 72.3773 94.3735 72.4256 94.3094 72.4738C94.2453 72.5221 94.1572 72.5462 94.045 72.5462C93.9329 72.5462 93.8448 72.5221 93.7887 72.4738C93.7246 72.4256 93.6925 72.3773 93.6845 72.321C93.6765 72.2648 93.6685 72.2004 93.6685 72.1281C93.6685 72.0557 93.6685 71.9913 93.6765 71.9511C93.6845 71.9109 93.7006 71.8627 93.7246 71.8144C93.7646 71.7099 93.8688 71.6616 94.045 71.6616C94.2213 71.6616 94.3254 71.7018 94.3735 71.7823C94.4215 71.8627 94.4456 71.9592 94.4456 72.0718C94.4456 72.1843 94.4456 72.2728 94.4296 72.321H94.4215Z" fill="black"/>
<path d="M59.462 88.5813H57.7477V83.298H59.1896C60.2631 83.298 60.7998 83.7483 60.7998 84.649C60.7998 85.2601 60.5515 85.6542 60.0468 85.8391C60.7358 85.9919 61.0802 86.4342 61.0802 87.166C61.0802 88.1069 60.5435 88.5733 59.47 88.5733L59.462 88.5813ZM58.3805 85.622H59.1816C59.5181 85.622 59.7664 85.5416 59.9266 85.3808C60.0869 85.2199 60.167 84.9948 60.167 84.7213C60.167 84.4479 60.0869 84.2228 59.9266 84.0539C59.7664 83.885 59.5181 83.8046 59.1816 83.8046H58.3805V85.622ZM58.3805 88.0747H59.454C59.7905 88.0747 60.0388 87.9863 60.199 87.8174C60.3592 87.6405 60.4393 87.4073 60.4393 87.1178C60.4393 86.8283 60.3592 86.587 60.199 86.4101C60.0388 86.2332 59.7905 86.1447 59.454 86.1447H58.3805V88.0828V88.0747Z" fill="black"/>
<path d="M62.7866 88.5813H62.1697V84.4398H62.5382L62.7625 85.1797C63.099 84.6409 63.5877 84.3675 64.2366 84.3433V84.9143C63.5877 84.9384 63.107 85.2118 62.7866 85.7426V88.5893V88.5813Z" fill="black"/>
<path d="M67.3928 84.6168C67.6812 84.8259 67.8254 85.2119 67.8254 85.7909V88.5813H67.4169L67.2566 87.938C66.792 88.4366 66.2873 88.6859 65.7346 88.6859C65.3661 88.6859 65.1017 88.5894 64.9335 88.3964C64.7652 88.2034 64.6771 87.946 64.6771 87.6163C64.6771 87.2866 64.7813 87.0212 64.9815 86.8202C65.1818 86.6192 65.5663 86.4744 66.1351 86.3779L67.2086 86.201V85.7909C67.2086 85.437 67.1365 85.1877 66.9843 85.051C66.8321 84.9143 66.6238 84.85 66.3594 84.85C65.8307 84.85 65.5183 85.1073 65.4141 85.622L64.9094 85.4692C64.9895 85.1154 65.1498 84.8339 65.3901 84.6329C65.6384 84.4318 65.9669 84.3353 66.3915 84.3353C66.816 84.3353 67.1445 84.4238 67.4008 84.6087L67.3928 84.6168ZM65.9108 88.2034C66.3434 88.2034 66.776 87.9702 67.2086 87.5037V86.6352L66.1912 86.8122C65.8467 86.8765 65.6144 86.973 65.4862 87.1017C65.358 87.2303 65.294 87.3992 65.294 87.5842C65.294 87.7691 65.342 87.9219 65.4462 88.0345C65.5503 88.1471 65.7025 88.2034 65.9108 88.2034Z" fill="black"/>
<path d="M71.7027 86.6915C71.8869 86.8685 71.9831 87.1338 71.9831 87.4796C71.9831 87.8254 71.8549 88.1149 71.5905 88.332C71.3342 88.5492 70.9497 88.6537 70.437 88.6537C69.9243 88.6537 69.5558 88.5572 69.3314 88.3642C69.1071 88.1712 68.9549 87.8817 68.8989 87.5118L69.4035 87.4314C69.4756 87.9219 69.8041 88.1632 70.3889 88.1632C71.0378 88.1632 71.3582 87.946 71.3582 87.5037C71.3582 87.3107 71.3021 87.166 71.182 87.0775C71.0618 86.9891 70.8535 86.9006 70.5491 86.8282L70.1405 86.7237C69.724 86.6192 69.4276 86.4744 69.2513 86.3055C69.0751 86.1286 68.987 85.8713 68.987 85.5094C68.987 85.1475 69.1151 84.8741 69.3635 84.657C69.6118 84.4399 69.9803 84.3353 70.469 84.3353C70.9577 84.3353 71.3101 84.4318 71.5264 84.6329C71.7427 84.8259 71.8869 85.1154 71.951 85.4853L71.4383 85.5657C71.3742 85.0752 71.0698 84.8339 70.5171 84.8339C69.9082 84.8339 69.6118 85.051 69.6118 85.4933C69.6118 85.6863 69.6679 85.8311 69.7801 85.9276C69.8922 86.0241 70.0845 86.1045 70.3648 86.1769L70.7814 86.2814C71.214 86.3859 71.5184 86.5307 71.7107 86.7076L71.7027 86.6915Z" fill="black"/>
<path d="M73.425 83.7482C73.1767 83.7482 73.0565 83.6115 73.0565 83.3461C73.0565 83.0808 73.1767 82.9441 73.425 82.9441C73.6734 82.9441 73.8095 83.0808 73.8095 83.3461C73.8095 83.6115 73.6814 83.7482 73.425 83.7482ZM73.1126 84.4398H73.7294V88.5813H73.1126V84.4398Z" fill="black"/>
<path d="M75.8843 88.5813H75.2675V83.0969L75.8843 83.0084V88.5813Z" fill="black"/>
<path d="M77.134 88.4446C77.102 88.332 77.086 88.2355 77.086 88.1551C77.086 88.0747 77.086 88.0104 77.102 87.9621C77.11 87.9139 77.15 87.8656 77.2061 87.8174C77.2622 87.7691 77.3503 87.745 77.4625 87.745C77.5746 87.745 77.6627 87.7691 77.7188 87.8174C77.7749 87.8656 77.815 87.9139 77.823 87.9621C77.831 88.0104 77.839 88.0988 77.839 88.2275C77.839 88.3562 77.8069 88.5009 77.7429 88.6537C77.6788 88.8065 77.5906 88.9432 77.4865 89.0638C77.3263 89.2408 77.1901 89.3775 77.0699 89.4659L76.8857 89.2488C76.9498 89.1845 77.0058 89.1362 77.0379 89.096C77.134 88.9834 77.1821 88.8467 77.1821 88.6778C77.1821 88.6296 77.1661 88.5492 77.134 88.4366V88.4446Z" fill="black"/>
<path d="M84.2077 83.298H84.8406V88.5813H84.2077V86.193H81.7724V88.5813H81.1395V83.298H81.7724V85.6863H84.2077V83.298Z" fill="black"/>
<path d="M89.5751 86.5066C89.5751 87.9541 88.9822 88.6778 87.7886 88.6778C86.595 88.6778 86.0022 87.9541 86.0022 86.5066C86.0022 85.0591 86.595 84.3353 87.7886 84.3353C88.9822 84.3353 89.5751 85.0591 89.5751 86.5066ZM87.1878 88.0345C87.348 88.123 87.5483 88.1712 87.7886 88.1712C88.029 88.1712 88.2292 88.123 88.3894 88.0345C88.5497 87.946 88.6698 87.8174 88.7499 87.6485C88.8301 87.4796 88.8781 87.3107 88.9102 87.1258C88.9422 86.9489 88.9582 86.7398 88.9582 86.4985C88.9582 86.2573 88.9422 86.0562 88.9102 85.8713C88.8781 85.6863 88.822 85.5175 88.7499 85.3486C88.6698 85.1797 88.5577 85.051 88.3894 84.9626C88.2212 84.8741 88.029 84.8259 87.7886 84.8259C87.5483 84.8259 87.348 84.8661 87.1878 84.9626C87.0276 85.051 86.9074 85.1797 86.8273 85.3486C86.7472 85.5175 86.6911 85.6863 86.6671 85.8632C86.6351 86.0402 86.627 86.2492 86.627 86.4905C86.627 86.7317 86.6431 86.9408 86.6671 87.1177C86.6991 87.2947 86.7472 87.4716 86.8273 87.6324C86.9074 87.7932 87.0276 87.93 87.1878 88.0184V88.0345Z" fill="black"/>
<path d="M91.2652 84.8741C91.7539 84.5203 92.2265 84.3353 92.6992 84.3353C93.1718 84.3353 93.5003 84.4399 93.6925 84.657C93.8848 84.8741 93.9809 85.1958 93.9809 85.6381V88.5733H93.3641V85.6461C93.3641 85.3566 93.308 85.1475 93.1959 85.0269C93.0837 84.9063 92.8995 84.842 92.6431 84.842C92.1945 84.842 91.7619 85.0028 91.3453 85.3244V88.5733H90.7285V84.4318H91.097L91.2733 84.8661L91.2652 84.8741Z" fill="black"/>
<path d="M96.3923 88.6778C95.5111 88.6778 95.0625 87.954 95.0625 86.5065C95.0625 85.059 95.5992 84.3353 96.6727 84.3353C97.0412 84.3353 97.4257 84.4318 97.8102 84.6167V83.0888L98.4271 83.0164V88.5732H98.0185L97.8423 87.946C97.4017 88.4365 96.921 88.6778 96.3923 88.6778ZM96.5926 88.1712C97.0252 88.1712 97.4337 87.9379 97.8102 87.4796V85.1153C97.4658 84.9304 97.1213 84.8339 96.7929 84.8339C96.3923 84.8339 96.1039 84.9786 95.9357 85.2762C95.7675 85.5737 95.6793 85.9838 95.6793 86.5146C95.6793 87.6243 95.9838 88.1792 96.5846 88.1792L96.5926 88.1712Z" fill="black"/>
<path d="M101.103 88.6778C100.678 88.6778 100.366 88.5733 100.173 88.3561C99.9811 88.139 99.885 87.8173 99.885 87.3911V84.4398H100.502V87.3509C100.502 87.6324 100.566 87.8415 100.686 87.9782C100.806 88.1149 100.999 88.1792 101.263 88.1792C101.727 88.1792 102.16 87.938 102.569 87.4635V84.4479H103.185V88.5893H102.777L102.585 87.9782C102.136 88.4526 101.647 88.6939 101.103 88.6939V88.6778Z" fill="black"/>
<path d="M105.34 88.5813H104.724V84.4398H105.092L105.316 85.1797C105.653 84.6409 106.142 84.3675 106.79 84.3433V84.9143C106.142 84.9384 105.661 85.2118 105.34 85.7426V88.5893V88.5813Z" fill="black"/>
<path d="M109.947 84.6168C110.235 84.8259 110.379 85.2119 110.379 85.7909V88.5813H109.971L109.811 87.938C109.346 88.4366 108.841 88.6859 108.288 88.6859C107.92 88.6859 107.656 88.5894 107.487 88.3964C107.319 88.2034 107.231 87.946 107.231 87.6163C107.231 87.2866 107.335 87.0212 107.535 86.8202C107.736 86.6192 108.12 86.4744 108.689 86.3779L109.762 86.201V85.7909C109.762 85.437 109.69 85.1877 109.538 85.051C109.386 84.9143 109.178 84.85 108.913 84.85C108.385 84.85 108.072 85.1073 107.968 85.622L107.463 85.4692C107.543 85.1154 107.704 84.8339 107.944 84.6329C108.192 84.4318 108.521 84.3353 108.945 84.3353C109.37 84.3353 109.698 84.4238 109.955 84.6087L109.947 84.6168ZM108.465 88.2034C108.897 88.2034 109.33 87.9702 109.762 87.5037V86.6352L108.745 86.8122C108.401 86.8765 108.168 86.973 108.04 87.1017C107.912 87.2303 107.848 87.3992 107.848 87.5842C107.848 87.7691 107.896 87.9219 108 88.0345C108.104 88.1471 108.256 88.2034 108.465 88.2034Z" fill="black"/>
<path d="M114.257 86.6915C114.441 86.8685 114.537 87.1338 114.537 87.4796C114.537 87.8254 114.409 88.1149 114.144 88.332C113.888 88.5492 113.504 88.6537 112.991 88.6537C112.478 88.6537 112.11 88.5572 111.885 88.3642C111.661 88.1712 111.509 87.8817 111.453 87.5118L111.957 87.4314C112.03 87.9219 112.358 88.1632 112.943 88.1632C113.592 88.1632 113.912 87.946 113.912 87.5037C113.912 87.3107 113.856 87.166 113.736 87.0775C113.616 86.9891 113.407 86.9006 113.103 86.8282L112.694 86.7237C112.278 86.6192 111.981 86.4744 111.805 86.3055C111.629 86.1286 111.541 85.8713 111.541 85.5094C111.541 85.1475 111.669 84.8741 111.917 84.657C112.166 84.4399 112.534 84.3353 113.023 84.3353C113.512 84.3353 113.864 84.4318 114.08 84.6329C114.297 84.8259 114.441 85.1154 114.505 85.4853L113.992 85.5657C113.928 85.0752 113.624 84.8339 113.071 84.8339C112.462 84.8339 112.166 85.051 112.166 85.4933C112.166 85.6863 112.222 85.8311 112.334 85.9276C112.446 86.0241 112.638 86.1045 112.919 86.1769L113.335 86.2814C113.768 86.3859 114.072 86.5307 114.265 86.7076L114.257 86.6915Z" fill="black"/>
<path d="M115.386 88.4446C115.354 88.332 115.338 88.2355 115.338 88.1551C115.338 88.0747 115.338 88.0104 115.354 87.9621C115.362 87.9139 115.402 87.8656 115.458 87.8174C115.514 87.7691 115.602 87.745 115.715 87.745C115.827 87.745 115.915 87.7691 115.971 87.8174C116.027 87.8656 116.067 87.9139 116.075 87.9621C116.083 88.0104 116.091 88.0988 116.091 88.2275C116.091 88.3562 116.059 88.5009 115.995 88.6537C115.931 88.8065 115.843 88.9432 115.739 89.0638C115.578 89.2408 115.442 89.3775 115.322 89.4659L115.138 89.2488C115.202 89.1845 115.258 89.1362 115.29 89.096C115.386 88.9834 115.434 88.8467 115.434 88.6778C115.434 88.6296 115.418 88.5492 115.386 88.4366V88.4446Z" fill="black"/>
<path d="M57.7477 92.1438H60.5435V92.6504H58.3805V94.4919H60.3913V94.9985H58.3805V96.9205H60.6877V97.4271H57.7477V92.1438Z" fill="black"/>
<path d="M62.402 97.4272H61.7852V91.9428L62.402 91.8543V97.4272Z" fill="black"/>
<path d="M68.8508 95.087C69.0591 95.2961 69.1632 95.6178 69.1632 96.044C69.1632 96.4702 69.011 96.8321 68.7146 97.1055C68.4182 97.3789 67.9776 97.5236 67.4089 97.5236C66.8401 97.5236 66.4235 97.403 66.1591 97.1698C65.8948 96.9366 65.7266 96.5908 65.6625 96.1485L66.1832 96.052C66.2713 96.6873 66.6638 97.009 67.3608 97.009C68.1459 97.009 68.5384 96.6954 68.5384 96.0761C68.5384 95.8027 68.4663 95.6097 68.3221 95.473C68.1779 95.3444 67.9376 95.2318 67.6011 95.1433L67.1285 95.0066C66.6318 94.8699 66.2873 94.701 66.079 94.4919C65.8708 94.2829 65.7746 93.9612 65.7746 93.5269C65.7746 93.0927 65.9188 92.7389 66.2072 92.4574C66.4956 92.1759 66.9122 92.0392 67.4649 92.0392C68.0177 92.0392 68.4182 92.1599 68.6666 92.3931C68.9149 92.6263 69.0751 92.9721 69.1392 93.4144L68.6185 93.5109C68.5304 92.8756 68.1619 92.5539 67.521 92.5539C66.776 92.5539 66.3995 92.8675 66.3995 93.4867C66.3995 93.7601 66.4636 93.9612 66.5997 94.0899C66.7359 94.2185 66.9602 94.3311 67.2727 94.4196L67.7693 94.5563C68.282 94.701 68.6345 94.8779 68.8508 95.087Z" fill="black"/>
<path d="M72.6721 93.4626C72.9604 93.6717 73.1047 94.0577 73.1047 94.6367V97.4272H72.6961L72.5359 96.7838C72.0712 97.2824 71.5666 97.5317 71.0138 97.5317C70.6453 97.5317 70.3809 97.4352 70.2127 97.2422C70.0445 97.0492 69.9564 96.7919 69.9564 96.4622C69.9564 96.1325 70.0605 95.8671 70.2608 95.6661C70.4611 95.465 70.8456 95.3203 71.4144 95.2238L72.4878 95.0469V94.6367C72.4878 94.2829 72.4157 94.0336 72.2635 93.8969C72.1113 93.7602 71.903 93.6958 71.6387 93.6958C71.1099 93.6958 70.7975 93.9532 70.6934 94.4679L70.1887 94.3151C70.2688 93.9612 70.429 93.6798 70.6693 93.4787C70.9177 93.2777 71.2461 93.1812 71.6707 93.1812C72.0953 93.1812 72.4237 93.2696 72.6801 93.4546L72.6721 93.4626ZM71.19 97.0492C71.6226 97.0492 72.0552 96.816 72.4878 96.3496V95.4811L71.4704 95.658C71.126 95.7223 70.8936 95.8188 70.7655 95.9475C70.6373 96.0762 70.5732 96.2451 70.5732 96.43C70.5732 96.615 70.6213 96.7678 70.7254 96.8804C70.8296 96.9929 70.9818 97.0492 71.19 97.0492Z" fill="black"/>
<path d="M75.1794 97.4272H74.5626V91.9428L75.1794 91.8543V97.4272Z" fill="black"/>
<path d="M78.1996 97.4272H77.5187L76.0527 93.2857H76.6775L77.8551 96.7034L79.0327 93.2857H79.6576L78.1916 97.4272H78.1996Z" fill="black"/>
<path d="M82.8779 93.4626C83.1663 93.6717 83.3104 94.0577 83.3104 94.6367V97.4272H82.9019L82.7417 96.7838C82.2771 97.2824 81.7724 97.5317 81.2196 97.5317C80.8511 97.5317 80.5867 97.4352 80.4185 97.2422C80.2503 97.0492 80.1622 96.7919 80.1622 96.4622C80.1622 96.1325 80.2663 95.8671 80.4666 95.6661C80.6668 95.465 81.0514 95.3203 81.6201 95.2238L82.6936 95.0469V94.6367C82.6936 94.2829 82.6215 94.0336 82.4693 93.8969C82.3171 93.7602 82.1088 93.6958 81.8445 93.6958C81.3157 93.6958 81.0033 93.9532 80.8992 94.4679L80.3945 94.3151C80.4746 93.9612 80.6348 93.6798 80.8751 93.4787C81.1235 93.2777 81.4519 93.1812 81.8765 93.1812C82.3011 93.1812 82.6295 93.2696 82.8859 93.4546L82.8779 93.4626ZM81.3958 97.0492C81.8284 97.0492 82.261 96.816 82.6936 96.3496V95.4811L81.6762 95.658C81.3318 95.7223 81.0994 95.8188 80.9713 95.9475C80.8431 96.0762 80.779 96.2451 80.779 96.43C80.779 96.615 80.8271 96.7678 80.9312 96.8804C81.0354 96.9929 81.1876 97.0492 81.3958 97.0492Z" fill="black"/>
<path d="M85.7218 97.5236C84.8406 97.5236 84.392 96.7999 84.392 95.3524C84.392 93.9049 84.9287 93.1811 86.0022 93.1811C86.3707 93.1811 86.7552 93.2776 87.1397 93.4626V91.9347L87.7565 91.8623V97.4191H87.348L87.1718 96.7918C86.7312 97.2824 86.2505 97.5236 85.7218 97.5236ZM85.9221 97.017C86.3546 97.017 86.7632 96.7838 87.1397 96.3254V93.9612C86.7952 93.7762 86.4508 93.6797 86.1223 93.6797C85.7218 93.6797 85.4334 93.8245 85.2652 94.122C85.0969 94.4196 85.0088 94.8297 85.0088 95.3604C85.0088 96.4702 85.3132 97.025 85.914 97.025L85.9221 97.017Z" fill="black"/>
<path d="M92.491 95.3524C92.491 96.7999 91.8981 97.5237 90.7045 97.5237C89.5109 97.5237 88.9181 96.7999 88.9181 95.3524C88.9181 93.9049 89.5109 93.1812 90.7045 93.1812C91.8981 93.1812 92.491 93.9049 92.491 95.3524ZM90.1037 96.8804C90.2639 96.9688 90.4642 97.0171 90.7045 97.0171C90.9448 97.0171 91.1451 96.9688 91.3053 96.8804C91.4656 96.7919 91.5857 96.6632 91.6658 96.4944C91.7459 96.3255 91.794 96.1566 91.8261 95.9716C91.8581 95.7947 91.8741 95.5856 91.8741 95.3444C91.8741 95.1031 91.8581 94.9021 91.8261 94.7171C91.794 94.5322 91.7379 94.3633 91.6658 94.1944C91.5857 94.0256 91.4736 93.8969 91.3053 93.8084C91.1371 93.72 90.9448 93.6717 90.7045 93.6717C90.4642 93.6717 90.2639 93.7119 90.1037 93.8084C89.9435 93.8969 89.8233 94.0256 89.7432 94.1944C89.6631 94.3633 89.607 94.5322 89.583 94.7091C89.551 94.886 89.5429 95.0951 89.5429 95.3364C89.5429 95.5776 89.559 95.7867 89.583 95.9636C89.615 96.1405 89.6631 96.3174 89.7432 96.4783C89.8233 96.6391 89.9435 96.7758 90.1037 96.8643V96.8804Z" fill="black"/>
<path d="M94.2614 97.4271H93.6445V93.2857H94.013L94.2373 94.0255C94.5738 93.4867 95.0625 93.2133 95.7113 93.1892V93.7601C95.0625 93.7843 94.5818 94.0577 94.2614 94.5884V97.4352V97.4271Z" fill="black"/>
<path d="M96.2561 97.2904C96.2241 97.1778 96.2081 97.0813 96.2081 97.0009C96.2081 96.9205 96.2081 96.8562 96.2241 96.8079C96.2321 96.7597 96.2722 96.7114 96.3282 96.6632C96.3843 96.6149 96.4724 96.5908 96.5846 96.5908C96.6968 96.5908 96.7849 96.6149 96.8409 96.6632C96.897 96.7114 96.9371 96.7597 96.9451 96.8079C96.9531 96.8562 96.9611 96.9446 96.9611 97.0733C96.9611 97.2019 96.9291 97.3467 96.865 97.4995C96.8009 97.6523 96.7128 97.789 96.6086 97.9096C96.4484 98.0865 96.3122 98.2232 96.1921 98.3117L96.0078 98.0946C96.0719 98.0302 96.128 97.982 96.16 97.9418C96.2562 97.8292 96.3042 97.6925 96.3042 97.5236C96.3042 97.4754 96.2882 97.395 96.2561 97.2824V97.2904Z" fill="black"/>
<path d="M102.048 92.5619C101.599 92.5619 101.263 92.6906 101.047 92.9399C100.846 93.157 100.726 93.5109 100.686 94.0094C100.67 94.2185 100.654 94.4758 100.654 94.7734C100.654 95.0709 100.662 95.3363 100.686 95.5534C100.702 95.7706 100.742 95.9716 100.806 96.1646C100.87 96.3576 100.95 96.5104 101.047 96.631C101.271 96.8803 101.599 97.009 102.048 97.009C102.785 97.009 103.169 96.6149 103.193 95.8188L103.714 95.851C103.682 96.3898 103.538 96.7999 103.282 97.0894C103.025 97.3789 102.617 97.5236 102.056 97.5236C101.263 97.5236 100.718 97.2743 100.43 96.7838C100.278 96.5345 100.173 96.2531 100.117 95.9394C100.053 95.6178 100.029 95.2318 100.029 94.7814C100.029 94.3311 100.061 93.9371 100.117 93.6154C100.181 93.2937 100.286 93.0123 100.43 92.771C100.718 92.2805 101.263 92.0392 102.056 92.0392C102.577 92.0392 102.969 92.1599 103.226 92.4011C103.482 92.6424 103.634 92.9801 103.69 93.4224L103.177 93.5189C103.073 92.8836 102.705 92.5619 102.056 92.5619H102.048Z" fill="black"/>
<path d="M108.056 95.3524C108.056 96.7999 107.463 97.5237 106.27 97.5237C105.076 97.5237 104.483 96.7999 104.483 95.3524C104.483 93.9049 105.076 93.1812 106.27 93.1812C107.463 93.1812 108.056 93.9049 108.056 95.3524ZM105.669 96.8804C105.829 96.9688 106.029 97.0171 106.27 97.0171C106.51 97.0171 106.71 96.9688 106.871 96.8804C107.031 96.7919 107.151 96.6632 107.231 96.4944C107.311 96.3255 107.359 96.1566 107.391 95.9716C107.423 95.7947 107.439 95.5856 107.439 95.3444C107.439 95.1031 107.423 94.9021 107.391 94.7171C107.359 94.5322 107.303 94.3633 107.231 94.1944C107.151 94.0256 107.039 93.8969 106.871 93.8084C106.702 93.72 106.51 93.6717 106.27 93.6717C106.029 93.6717 105.829 93.7119 105.669 93.8084C105.509 93.8969 105.389 94.0256 105.308 94.1944C105.228 94.3633 105.172 94.5322 105.148 94.7091C105.116 94.886 105.108 95.0951 105.108 95.3364C105.108 95.5776 105.124 95.7867 105.148 95.9636C105.18 96.1405 105.228 96.3174 105.308 96.4783C105.389 96.6391 105.509 96.7758 105.669 96.8643V96.8804Z" fill="black"/>
<path d="M109.827 97.4272H109.21V91.9428L109.827 91.8543V97.4272Z" fill="black"/>
<path d="M114.561 95.3524C114.561 96.7999 113.968 97.5237 112.775 97.5237C111.581 97.5237 110.988 96.7999 110.988 95.3524C110.988 93.9049 111.581 93.1812 112.775 93.1812C113.968 93.1812 114.561 93.9049 114.561 95.3524ZM112.174 96.8804C112.334 96.9688 112.534 97.0171 112.775 97.0171C113.015 97.0171 113.215 96.9688 113.375 96.8804C113.536 96.7919 113.656 96.6632 113.736 96.4944C113.816 96.3255 113.864 96.1566 113.896 95.9716C113.928 95.7947 113.944 95.5856 113.944 95.3444C113.944 95.1031 113.928 94.9021 113.896 94.7171C113.864 94.5322 113.808 94.3633 113.736 94.1944C113.656 94.0256 113.544 93.8969 113.375 93.8084C113.207 93.72 113.015 93.6717 112.775 93.6717C112.534 93.6717 112.334 93.7119 112.174 93.8084C112.014 93.8969 111.893 94.0256 111.813 94.1944C111.733 94.3633 111.677 94.5322 111.653 94.7091C111.621 94.886 111.613 95.0951 111.613 95.3364C111.613 95.5776 111.629 95.7867 111.653 95.9636C111.685 96.1405 111.733 96.3174 111.813 96.4783C111.893 96.6391 112.014 96.7758 112.174 96.8643V96.8804Z" fill="black"/>
<path d="M117.581 93.1812C118.142 93.1812 118.51 93.3742 118.703 93.7521C118.879 93.5913 119.095 93.4546 119.344 93.3501C119.592 93.2375 119.848 93.1812 120.113 93.1812C120.946 93.1812 121.37 93.6154 121.37 94.4759V97.4191H120.754V94.5081C120.754 94.2346 120.697 94.0336 120.577 93.8969C120.465 93.7602 120.273 93.6878 120.016 93.6878C119.592 93.6878 119.191 93.8486 118.831 94.1784C118.847 94.2749 118.855 94.3713 118.855 94.4759V97.4191H118.238V94.5081C118.238 94.2346 118.182 94.0336 118.062 93.8969C117.95 93.7602 117.757 93.6878 117.493 93.6878C117.076 93.6878 116.692 93.8406 116.339 94.1462V97.4272H115.723V93.2857H116.107L116.267 93.6958C116.668 93.3501 117.117 93.1812 117.597 93.1812H117.581Z" fill="black"/>
<path d="M124.631 97.5236C124.182 97.5236 123.742 97.3789 123.325 97.0813L123.189 97.4191H122.82V91.9347L123.437 91.8623V93.5189C123.854 93.2937 124.246 93.1811 124.631 93.1811C125.672 93.1811 126.185 93.9049 126.185 95.3524C126.185 96.7999 125.664 97.5236 124.631 97.5236ZM124.519 93.6878C124.15 93.6878 123.79 93.7923 123.445 94.0014V96.6793C123.774 96.9044 124.118 97.017 124.463 97.017C125.2 97.017 125.576 96.4621 125.576 95.3524C125.576 95.0468 125.544 94.7814 125.488 94.5402C125.432 94.2989 125.32 94.1059 125.151 93.9371C124.991 93.7682 124.783 93.6878 124.527 93.6878H124.519Z" fill="black"/>
<path d="M127.651 92.5941C127.402 92.5941 127.282 92.4574 127.282 92.192C127.282 91.9266 127.402 91.7899 127.651 91.7899C127.899 91.7899 128.035 91.9266 128.035 92.192C128.035 92.4574 127.907 92.5941 127.651 92.5941ZM127.338 93.2857H127.955V97.4271H127.338V93.2857Z" fill="black"/>
<path d="M131.824 93.4626C132.113 93.6717 132.257 94.0577 132.257 94.6367V97.4272H131.849L131.688 96.7838C131.224 97.2824 130.719 97.5317 130.166 97.5317C129.798 97.5317 129.533 97.4352 129.365 97.2422C129.197 97.0492 129.109 96.7919 129.109 96.4622C129.109 96.1325 129.213 95.8671 129.413 95.6661C129.613 95.465 129.998 95.3203 130.567 95.2238L131.64 95.0469V94.6367C131.64 94.2829 131.568 94.0336 131.416 93.8969C131.264 93.7602 131.055 93.6958 130.791 93.6958C130.262 93.6958 129.95 93.9532 129.846 94.4679L129.341 94.3151C129.421 93.9612 129.581 93.6798 129.822 93.4787C130.07 93.2777 130.399 93.1812 130.823 93.1812C131.248 93.1812 131.576 93.2696 131.832 93.4546L131.824 93.4626ZM130.342 97.0492C130.775 97.0492 131.208 96.816 131.64 96.3496V95.4811L130.623 95.658C130.278 95.7223 130.046 95.8188 129.918 95.9475C129.79 96.0762 129.726 96.2451 129.726 96.43C129.726 96.615 129.774 96.7678 129.878 96.8804C129.982 96.9929 130.134 97.0492 130.342 97.0492Z" fill="black"/>
<path d="M134.148 97.2502C134.14 97.3065 134.1 97.3547 134.036 97.403C133.971 97.4512 133.883 97.4754 133.771 97.4754C133.659 97.4754 133.571 97.4512 133.515 97.403C133.451 97.3547 133.419 97.3065 133.411 97.2502C133.403 97.1939 133.395 97.1296 133.395 97.0572C133.395 96.9848 133.395 96.9205 133.403 96.8803C133.411 96.8401 133.427 96.7918 133.451 96.7436C133.491 96.639 133.595 96.5908 133.771 96.5908C133.947 96.5908 134.052 96.631 134.1 96.7114C134.148 96.7918 134.172 96.8883 134.172 97.0009C134.172 97.1135 134.172 97.2019 134.156 97.2502H134.148Z" fill="black"/>
<path d="M57.7477 108.227H60.3993V108.734H58.3805V110.575H60.2311V111.082H58.3805V113.51H57.7477V108.227Z" fill="black"/>
<path d="M62.1055 113.51H61.4887V108.026L62.1055 107.938V113.51Z" fill="black"/>
<path d="M66.832 111.436C66.832 112.883 66.2392 113.607 65.0456 113.607C63.852 113.607 63.2592 112.883 63.2592 111.436C63.2592 109.988 63.852 109.264 65.0456 109.264C66.2392 109.264 66.832 109.988 66.832 111.436ZM64.4448 112.964C64.605 113.052 64.8053 113.1 65.0456 113.1C65.2859 113.1 65.4862 113.052 65.6464 112.964C65.8066 112.875 65.9268 112.747 66.0069 112.578C66.087 112.409 66.1351 112.24 66.1671 112.055C66.1992 111.878 66.2152 111.669 66.2152 111.428C66.2152 111.186 66.1992 110.985 66.1671 110.8C66.1351 110.615 66.079 110.447 66.0069 110.278C65.9268 110.109 65.8146 109.98 65.6464 109.892C65.4782 109.803 65.2859 109.755 65.0456 109.755C64.8053 109.755 64.605 109.795 64.4448 109.892C64.2845 109.98 64.1644 110.109 64.0843 110.278C64.0042 110.447 63.9481 110.616 63.9241 110.792C63.892 110.969 63.884 111.178 63.884 111.42C63.884 111.661 63.9 111.87 63.9241 112.047C63.9561 112.224 64.0042 112.401 64.0843 112.562C64.1644 112.722 64.2845 112.859 64.4448 112.948V112.964Z" fill="black"/>
<path d="M68.6025 113.511H67.9857V109.369H68.3542L68.5785 110.109C68.9149 109.57 69.4036 109.297 70.0525 109.273V109.844C69.4036 109.868 68.9229 110.141 68.6025 110.672V113.519V113.511Z" fill="black"/>
<path d="M73.2087 109.546C73.4971 109.755 73.6413 110.141 73.6413 110.72V113.51H73.2328L73.0726 112.867C72.6079 113.366 72.1032 113.615 71.5505 113.615C71.182 113.615 70.9176 113.519 70.7494 113.326C70.5812 113.133 70.493 112.875 70.493 112.545C70.493 112.216 70.5972 111.95 70.7975 111.749C70.9977 111.548 71.3823 111.404 71.951 111.307L73.0245 111.13V110.72C73.0245 110.366 72.9524 110.117 72.8002 109.98C72.648 109.843 72.4397 109.779 72.1753 109.779C71.6466 109.779 71.3342 110.037 71.23 110.551L70.7254 110.398C70.8055 110.045 70.9657 109.763 71.206 109.562C71.4543 109.361 71.7828 109.264 72.2074 109.264C72.632 109.264 72.9604 109.353 73.2168 109.538L73.2087 109.546ZM71.7267 113.133C72.1593 113.133 72.5919 112.899 73.0245 112.433V111.564L72.0071 111.741C71.6626 111.806 71.4303 111.902 71.3022 112.031C71.174 112.159 71.1099 112.328 71.1099 112.513C71.1099 112.698 71.158 112.851 71.2621 112.964C71.3662 113.076 71.5184 113.133 71.7267 113.133Z" fill="black"/>
<path d="M75.7242 113.51H75.1074V108.026L75.7242 107.938V113.51Z" fill="black"/>
<path d="M80.1782 115.28L79.6174 115.175L80.2503 113.535L78.6962 109.369H79.337L80.5547 112.722L81.7403 109.369H82.3732L80.1782 115.28Z" fill="black"/>
<path d="M86.643 108.388C86.2665 108.388 86.0823 108.605 86.0823 109.047V109.369H87.0356V109.795H86.0823V113.51H85.4654V109.795H84.9928V109.369H85.4654V109.047C85.4654 108.283 85.8419 107.897 86.603 107.897C86.8834 107.897 87.1397 107.938 87.364 108.018L87.2038 108.484C87.0436 108.42 86.8513 108.38 86.643 108.38V108.388Z" fill="black"/>
<path d="M88.4054 113.511H87.7886V109.369H88.1571L88.3814 110.109C88.7178 109.57 89.2065 109.297 89.8554 109.273V109.844C89.2065 109.868 88.7259 110.141 88.4054 110.672V113.519V113.511Z" fill="black"/>
<path d="M91.8181 113.607C91.3935 113.607 91.0811 113.502 90.8888 113.285C90.6965 113.068 90.6004 112.747 90.6004 112.32V109.369H91.2172V112.28C91.2172 112.562 91.2813 112.771 91.4015 112.907C91.5217 113.044 91.7139 113.108 91.9783 113.108C92.4429 113.108 92.8755 112.867 93.284 112.393V109.377H93.9009V113.519H93.4923L93.3001 112.907C92.8515 113.382 92.3628 113.623 91.8181 113.623V113.607Z" fill="black"/>
<path d="M94.8221 109.795V109.369H95.5271V108.613L96.1439 108.364V109.361H97.0171V109.787H96.1439V112.529C96.1439 112.746 96.176 112.899 96.2321 112.988C96.2961 113.076 96.3763 113.124 96.4964 113.124C96.6166 113.124 96.7528 113.108 96.921 113.068L96.9931 113.486C96.7367 113.567 96.5124 113.599 96.3362 113.599C96.16 113.599 96.0078 113.567 95.8956 113.51C95.7834 113.454 95.6953 113.366 95.6473 113.253C95.5672 113.076 95.5271 112.843 95.5271 112.553V109.787H94.8221V109.795Z" fill="black"/>
<path d="M100.254 109.546C100.542 109.755 100.686 110.141 100.686 110.72V113.51H100.278L100.117 112.867C99.6527 113.366 99.148 113.615 98.5953 113.615C98.2268 113.615 97.9624 113.519 97.7942 113.326C97.626 113.133 97.5378 112.875 97.5378 112.545C97.5378 112.216 97.642 111.95 97.8423 111.749C98.0425 111.548 98.4271 111.404 98.9958 111.307L100.069 111.13V110.72C100.069 110.366 99.9972 110.117 99.845 109.98C99.6928 109.843 99.4845 109.779 99.2201 109.779C98.6914 109.779 98.379 110.037 98.2749 110.551L97.7702 110.398C97.8503 110.045 98.0105 109.763 98.2508 109.562C98.4992 109.361 98.8276 109.264 99.2522 109.264C99.6768 109.264 100.005 109.353 100.262 109.538L100.254 109.546ZM98.7715 113.133C99.2041 113.133 99.6367 112.899 100.069 112.433V111.564L99.0519 111.741C98.7074 111.806 98.4751 111.902 98.347 112.031C98.2188 112.159 98.1547 112.328 98.1547 112.513C98.1547 112.698 98.2028 112.851 98.3069 112.964C98.411 113.076 98.5632 113.133 98.7715 113.133Z" fill="black"/>
<path d="M106.102 109.264C106.662 109.264 107.031 109.458 107.223 109.835C107.399 109.675 107.616 109.538 107.864 109.433C108.112 109.321 108.369 109.264 108.633 109.264C109.466 109.264 109.891 109.699 109.891 110.559V113.502H109.274V110.591C109.274 110.318 109.218 110.117 109.098 109.98C108.985 109.843 108.793 109.771 108.537 109.771C108.112 109.771 107.712 109.932 107.351 110.262C107.367 110.358 107.375 110.455 107.375 110.559V113.502H106.758V110.591C106.758 110.318 106.702 110.117 106.582 109.98C106.47 109.843 106.278 109.771 106.013 109.771C105.597 109.771 105.212 109.924 104.86 110.229V113.51H104.243V109.369H104.628L104.788 109.779C105.188 109.433 105.637 109.264 106.118 109.264H106.102Z" fill="black"/>
<path d="M113.68 109.546C113.968 109.755 114.112 110.141 114.112 110.72V113.51H113.704L113.544 112.867C113.079 113.366 112.574 113.615 112.022 113.615C111.653 113.615 111.389 113.519 111.22 113.326C111.052 113.133 110.964 112.875 110.964 112.545C110.964 112.216 111.068 111.95 111.269 111.749C111.469 111.548 111.853 111.404 112.422 111.307L113.496 111.13V110.72C113.496 110.366 113.423 110.117 113.271 109.98C113.119 109.843 112.911 109.779 112.646 109.779C112.118 109.779 111.805 110.037 111.701 110.551L111.196 110.398C111.277 110.045 111.437 109.763 111.677 109.562C111.925 109.361 112.254 109.264 112.678 109.264C113.103 109.264 113.431 109.353 113.688 109.538L113.68 109.546ZM112.198 113.133C112.63 113.133 113.063 112.899 113.496 112.433V111.564L112.478 111.741C112.134 111.806 111.901 111.902 111.773 112.031C111.645 112.159 111.581 112.328 111.581 112.513C111.581 112.698 111.629 112.851 111.733 112.964C111.837 113.076 111.99 113.133 112.198 113.133Z" fill="black"/>
<path d="M116.524 113.607C115.642 113.607 115.194 112.883 115.194 111.436C115.194 109.988 115.731 109.265 116.804 109.265C117.172 109.265 117.557 109.361 117.942 109.546V108.018L118.558 107.946V113.502H118.15L117.974 112.875C117.533 113.366 117.052 113.607 116.524 113.607ZM116.724 113.1C117.156 113.1 117.565 112.867 117.942 112.409V110.045C117.597 109.86 117.253 109.763 116.924 109.763C116.524 109.763 116.235 109.908 116.067 110.205C115.899 110.503 115.811 110.913 115.811 111.444C115.811 112.554 116.115 113.108 116.716 113.108L116.724 113.1Z" fill="black"/>
<path d="M121.234 113.607C120.81 113.607 120.497 113.502 120.305 113.285C120.113 113.068 120.016 112.747 120.016 112.32V109.369H120.633V112.28C120.633 112.562 120.697 112.771 120.818 112.907C120.938 113.044 121.13 113.108 121.394 113.108C121.859 113.108 122.292 112.867 122.7 112.393V109.377H123.317V113.519H122.908L122.716 112.907C122.268 113.382 121.779 113.623 121.234 113.623V113.607Z" fill="black"/>
<path d="M125.464 113.511H124.847V109.369H125.216L125.44 110.109C125.776 109.57 126.265 109.297 126.914 109.273V109.844C126.265 109.868 125.784 110.141 125.464 110.672V113.519V113.511Z" fill="black"/>
<path d="M130.078 109.546C130.367 109.755 130.511 110.141 130.511 110.72V113.51H130.102L129.942 112.867C129.477 113.366 128.973 113.615 128.42 113.615C128.051 113.615 127.787 113.519 127.619 113.326C127.451 113.133 127.362 112.875 127.362 112.545C127.362 112.216 127.467 111.95 127.667 111.749C127.867 111.548 128.252 111.404 128.82 111.307L129.894 111.13V110.72C129.894 110.366 129.822 110.117 129.67 109.98C129.517 109.843 129.309 109.779 129.045 109.779C128.516 109.779 128.204 110.037 128.099 110.551L127.595 110.398C127.675 110.045 127.835 109.763 128.075 109.562C128.324 109.361 128.652 109.264 129.077 109.264C129.501 109.264 129.83 109.353 130.086 109.538L130.078 109.546ZM128.596 113.133C129.029 113.133 129.461 112.899 129.894 112.433V111.564L128.877 111.741C128.532 111.806 128.3 111.902 128.172 112.031C128.043 112.159 127.979 112.328 127.979 112.513C127.979 112.698 128.027 112.851 128.132 112.964C128.236 113.076 128.388 113.133 128.596 113.133Z" fill="black"/>
<path d="M132.393 113.334C132.385 113.39 132.345 113.438 132.281 113.486C132.217 113.535 132.129 113.559 132.017 113.559C131.905 113.559 131.816 113.535 131.76 113.486C131.696 113.438 131.664 113.39 131.656 113.334C131.648 113.277 131.64 113.213 131.64 113.141C131.64 113.068 131.64 113.004 131.648 112.964C131.656 112.923 131.672 112.875 131.696 112.827C131.736 112.722 131.841 112.674 132.017 112.674C132.193 112.674 132.297 112.714 132.345 112.795C132.393 112.875 132.417 112.972 132.417 113.084C132.417 113.197 132.417 113.285 132.401 113.334H132.393Z" fill="black"/>
</svg>
