<svg width="142" height="115" viewBox="0 0 142 115" fill="none" xmlns="http://www.w3.org/2000/svg">
<path d="M59.9781 7.83491C61.6284 7.83491 62.9662 6.49708 62.9662 4.84677C62.9662 3.19647 61.6284 1.85864 59.9781 1.85864C58.3278 1.85864 56.9899 3.19647 56.9899 4.84677C56.9899 6.49708 58.3278 7.83491 59.9781 7.83491Z" fill="#702E3E"/>
<path d="M67.9892 7.83491C69.6395 7.83491 70.9773 6.49708 70.9773 4.84677C70.9773 3.19647 69.6395 1.85864 67.9892 1.85864C66.3389 1.85864 65.001 3.19647 65.001 4.84677C65.001 6.49708 66.3389 7.83491 67.9892 7.83491Z" fill="#702E3E"/>
<path d="M76.0003 7.83491C77.6506 7.83491 78.9884 6.49708 78.9884 4.84677C78.9884 3.19647 77.6506 1.85864 76.0003 1.85864C74.35 1.85864 73.0121 3.19647 73.0121 4.84677C73.0121 6.49708 74.35 7.83491 76.0003 7.83491Z" fill="#702E3E"/>
<path d="M84.0113 7.83491C85.6616 7.83491 86.9995 6.49708 86.9995 4.84677C86.9995 3.19647 85.6616 1.85864 84.0113 1.85864C82.361 1.85864 81.0232 3.19647 81.0232 4.84677C81.0232 6.49708 82.361 7.83491 84.0113 7.83491Z" fill="#702E3E"/>
<path d="M92.0224 7.83491C93.6727 7.83491 95.0106 6.49708 95.0106 4.84677C95.0106 3.19647 93.6727 1.85864 92.0224 1.85864C90.3721 1.85864 89.0343 3.19647 89.0343 4.84677C89.0343 6.49708 90.3721 7.83491 92.0224 7.83491Z" fill="#702E3E"/>
<path d="M100.034 7.83491C101.684 7.83491 103.022 6.49708 103.022 4.84677C103.022 3.19647 101.684 1.85864 100.034 1.85864C98.3833 1.85864 97.0454 3.19647 97.0454 4.84677C97.0454 6.49708 98.3833 7.83491 100.034 7.83491Z" fill="#702E3E"/>
<path d="M108.045 7.83491C109.695 7.83491 111.033 6.49708 111.033 4.84677C111.033 3.19647 109.695 1.85864 108.045 1.85864C106.394 1.85864 105.056 3.19647 105.056 4.84677C105.056 6.49708 106.394 7.83491 108.045 7.83491Z" fill="#D3D1CF"/>
<path d="M116.056 7.83491C117.706 7.83491 119.044 6.49708 119.044 4.84677C119.044 3.19647 117.706 1.85864 116.056 1.85864C114.405 1.85864 113.068 3.19647 113.068 4.84677C113.068 6.49708 114.405 7.83491 116.056 7.83491Z" fill="#D3D1CF"/>
<path d="M124.067 7.83491C125.717 7.83491 127.055 6.49708 127.055 4.84677C127.055 3.19647 125.717 1.85864 124.067 1.85864C122.416 1.85864 121.079 3.19647 121.079 4.84677C121.079 6.49708 122.416 7.83491 124.067 7.83491Z" fill="#D3D1CF"/>
<path d="M132.078 7.83491C133.728 7.83491 135.066 6.49708 135.066 4.84677C135.066 3.19647 133.728 1.85864 132.078 1.85864C130.428 1.85864 129.09 3.19647 129.09 4.84677C129.09 6.49708 130.428 7.83491 132.078 7.83491Z" fill="#D3D1CF"/>
<path d="M59.9781 23.8571C61.6284 23.8571 62.9662 22.5193 62.9662 20.869C62.9662 19.2187 61.6284 17.8809 59.9781 17.8809C58.3278 17.8809 56.9899 19.2187 56.9899 20.869C56.9899 22.5193 58.3278 23.8571 59.9781 23.8571Z" fill="#702E3E"/>
<path d="M67.9892 23.8571C69.6395 23.8571 70.9773 22.5193 70.9773 20.869C70.9773 19.2187 69.6395 17.8809 67.9892 17.8809C66.3389 17.8809 65.001 19.2187 65.001 20.869C65.001 22.5193 66.3389 23.8571 67.9892 23.8571Z" fill="#D3D1CF"/>
<path d="M76.0003 23.8571C77.6506 23.8571 78.9884 22.5193 78.9884 20.869C78.9884 19.2187 77.6506 17.8809 76.0003 17.8809C74.35 17.8809 73.0121 19.2187 73.0121 20.869C73.0121 22.5193 74.35 23.8571 76.0003 23.8571Z" fill="#D3D1CF"/>
<path d="M84.0113 23.8571C85.6616 23.8571 86.9995 22.5193 86.9995 20.869C86.9995 19.2187 85.6616 17.8809 84.0113 17.8809C82.361 17.8809 81.0232 19.2187 81.0232 20.869C81.0232 22.5193 82.361 23.8571 84.0113 23.8571Z" fill="#D3D1CF"/>
<path d="M92.0224 23.8571C93.6727 23.8571 95.0106 22.5193 95.0106 20.869C95.0106 19.2187 93.6727 17.8809 92.0224 17.8809C90.3721 17.8809 89.0343 19.2187 89.0343 20.869C89.0343 22.5193 90.3721 23.8571 92.0224 23.8571Z" fill="#D3D1CF"/>
<path d="M100.034 23.8571C101.684 23.8571 103.022 22.5193 103.022 20.869C103.022 19.2187 101.684 17.8809 100.034 17.8809C98.3833 17.8809 97.0454 19.2187 97.0454 20.869C97.0454 22.5193 98.3833 23.8571 100.034 23.8571Z" fill="#D3D1CF"/>
<path d="M108.045 23.8571C109.695 23.8571 111.033 22.5193 111.033 20.869C111.033 19.2187 109.695 17.8809 108.045 17.8809C106.394 17.8809 105.056 19.2187 105.056 20.869C105.056 22.5193 106.394 23.8571 108.045 23.8571Z" fill="#D3D1CF"/>
<path d="M116.056 23.8571C117.706 23.8571 119.044 22.5193 119.044 20.869C119.044 19.2187 117.706 17.8809 116.056 17.8809C114.405 17.8809 113.068 19.2187 113.068 20.869C113.068 22.5193 114.405 23.8571 116.056 23.8571Z" fill="#D3D1CF"/>
<path d="M124.067 23.8571C125.717 23.8571 127.055 22.5193 127.055 20.869C127.055 19.2187 125.717 17.8809 124.067 17.8809C122.416 17.8809 121.079 19.2187 121.079 20.869C121.079 22.5193 122.416 23.8571 124.067 23.8571Z" fill="#D3D1CF"/>
<path d="M132.078 23.8571C133.728 23.8571 135.066 22.5193 135.066 20.869C135.066 19.2187 133.728 17.8809 132.078 17.8809C130.428 17.8809 129.09 19.2187 129.09 20.869C129.09 22.5193 130.428 23.8571 132.078 23.8571Z" fill="#D3D1CF"/>
<path d="M59.9781 39.8792C61.6284 39.8792 62.9662 38.5414 62.9662 36.8911C62.9662 35.2408 61.6284 33.903 59.9781 33.903C58.3278 33.903 56.9899 35.2408 56.9899 36.8911C56.9899 38.5414 58.3278 39.8792 59.9781 39.8792Z" fill="#702E3E"/>
<path d="M67.9892 39.8792C69.6395 39.8792 70.9773 38.5414 70.9773 36.8911C70.9773 35.2408 69.6395 33.903 67.9892 33.903C66.3389 33.903 65.001 35.2408 65.001 36.8911C65.001 38.5414 66.3389 39.8792 67.9892 39.8792Z" fill="#702E3E"/>
<path d="M76.0003 39.8792C77.6506 39.8792 78.9884 38.5414 78.9884 36.8911C78.9884 35.2408 77.6506 33.903 76.0003 33.903C74.35 33.903 73.0121 35.2408 73.0121 36.8911C73.0121 38.5414 74.35 39.8792 76.0003 39.8792Z" fill="#702E3E"/>
<path d="M84.0113 39.8792C85.6616 39.8792 86.9995 38.5414 86.9995 36.8911C86.9995 35.2408 85.6616 33.903 84.0113 33.903C82.361 33.903 81.0232 35.2408 81.0232 36.8911C81.0232 38.5414 82.361 39.8792 84.0113 39.8792Z" fill="#702E3E"/>
<path d="M92.0224 39.8792C93.6727 39.8792 95.0106 38.5414 95.0106 36.8911C95.0106 35.2408 93.6727 33.903 92.0224 33.903C90.3721 33.903 89.0343 35.2408 89.0343 36.8911C89.0343 38.5414 90.3721 39.8792 92.0224 39.8792Z" fill="#702E3E"/>
<path d="M100.034 39.8792C101.684 39.8792 103.022 38.5414 103.022 36.8911C103.022 35.2408 101.684 33.903 100.034 33.903C98.3833 33.903 97.0454 35.2408 97.0454 36.8911C97.0454 38.5414 98.3833 39.8792 100.034 39.8792Z" fill="#702E3E"/>
<path d="M108.045 39.8792C109.695 39.8792 111.033 38.5414 111.033 36.8911C111.033 35.2408 109.695 33.903 108.045 33.903C106.394 33.903 105.056 35.2408 105.056 36.8911C105.056 38.5414 106.394 39.8792 108.045 39.8792Z" fill="#702E3E"/>
<path d="M116.056 39.8792C117.706 39.8792 119.044 38.5414 119.044 36.8911C119.044 35.2408 117.706 33.903 116.056 33.903C114.405 33.903 113.068 35.2408 113.068 36.8911C113.068 38.5414 114.405 39.8792 116.056 39.8792Z" fill="#702E3E"/>
<path d="M124.067 39.8792C125.717 39.8792 127.055 38.5414 127.055 36.8911C127.055 35.2408 125.717 33.903 124.067 33.903C122.416 33.903 121.079 35.2408 121.079 36.8911C121.079 38.5414 122.416 39.8792 124.067 39.8792Z" fill="#702E3E"/>
<path d="M132.078 39.8792C133.728 39.8792 135.066 38.5414 135.066 36.8911C135.066 35.2408 133.728 33.903 132.078 33.903C130.428 33.903 129.09 35.2408 129.09 36.8911C129.09 38.5414 130.428 39.8792 132.078 39.8792Z" fill="#D3D1CF"/>
<path d="M59.9781 55.9014C61.6284 55.9014 62.9662 54.5636 62.9662 52.9133C62.9662 51.263 61.6284 49.9252 59.9781 49.9252C58.3278 49.9252 56.9899 51.263 56.9899 52.9133C56.9899 54.5636 58.3278 55.9014 59.9781 55.9014Z" fill="#702E3E"/>
<path d="M67.9892 55.9014C69.6395 55.9014 70.9773 54.5636 70.9773 52.9133C70.9773 51.263 69.6395 49.9252 67.9892 49.9252C66.3389 49.9252 65.001 51.263 65.001 52.9133C65.001 54.5636 66.3389 55.9014 67.9892 55.9014Z" fill="#702E3E"/>
<path d="M76.0003 55.9014C77.6506 55.9014 78.9884 54.5636 78.9884 52.9133C78.9884 51.263 77.6506 49.9252 76.0003 49.9252C74.35 49.9252 73.0121 51.263 73.0121 52.9133C73.0121 54.5636 74.35 55.9014 76.0003 55.9014Z" fill="#702E3E"/>
<path d="M84.0113 55.9014C85.6616 55.9014 86.9995 54.5636 86.9995 52.9133C86.9995 51.263 85.6616 49.9252 84.0113 49.9252C82.361 49.9252 81.0232 51.263 81.0232 52.9133C81.0232 54.5636 82.361 55.9014 84.0113 55.9014Z" fill="#702E3E"/>
<path d="M92.0224 55.9014C93.6727 55.9014 95.0106 54.5636 95.0106 52.9133C95.0106 51.263 93.6727 49.9252 92.0224 49.9252C90.3721 49.9252 89.0343 51.263 89.0343 52.9133C89.0343 54.5636 90.3721 55.9014 92.0224 55.9014Z" fill="#702E3E"/>
<path d="M100.034 55.9014C101.684 55.9014 103.022 54.5636 103.022 52.9133C103.022 51.263 101.684 49.9252 100.034 49.9252C98.3833 49.9252 97.0454 51.263 97.0454 52.9133C97.0454 54.5636 98.3833 55.9014 100.034 55.9014Z" fill="#702E3E"/>
<path d="M108.045 55.9014C109.695 55.9014 111.033 54.5636 111.033 52.9133C111.033 51.263 109.695 49.9252 108.045 49.9252C106.394 49.9252 105.056 51.263 105.056 52.9133C105.056 54.5636 106.394 55.9014 108.045 55.9014Z" fill="#702E3E"/>
<path d="M116.056 55.9014C117.706 55.9014 119.044 54.5636 119.044 52.9133C119.044 51.263 117.706 49.9252 116.056 49.9252C114.405 49.9252 113.068 51.263 113.068 52.9133C113.068 54.5636 114.405 55.9014 116.056 55.9014Z" fill="#702E3E"/>
<path d="M124.067 55.9014C125.717 55.9014 127.055 54.5636 127.055 52.9133C127.055 51.263 125.717 49.9252 124.067 49.9252C122.416 49.9252 121.079 51.263 121.079 52.9133C121.079 54.5636 122.416 55.9014 124.067 55.9014Z" fill="#702E3E"/>
<path d="M132.078 55.9014C133.728 55.9014 135.066 54.5636 135.066 52.9133C135.066 51.263 133.728 49.9252 132.078 49.9252C130.428 49.9252 129.09 51.263 129.09 52.9133C129.09 54.5636 130.428 55.9014 132.078 55.9014Z" fill="#702E3E"/>
<path d="M2.38633 0.400635H4.08468L6.23967 7.41834H4.98192L4.3891 5.47966H2.08191L1.49711 7.41834H0.231354L2.39434 0.400635H2.38633ZM3.23551 1.64235L2.37832 4.48629H4.09269L3.23551 1.64235Z" fill="black"/>
<path d="M8.50683 7.41829H7.21704V1.92269H7.82588L8.33058 2.77987C8.77119 2.15501 9.39605 1.81854 10.2052 1.7865V2.89203C9.44412 2.90806 8.88335 3.14037 8.50683 3.58098V7.41829Z" fill="black"/>
<path d="M15.5726 4.67049C15.5726 6.59315 14.7394 7.55449 13.0731 7.55449C11.4068 7.55449 10.5737 6.59315 10.5737 4.67049C10.5737 2.74783 11.4068 1.7865 13.0731 1.7865C14.7394 1.7865 15.5726 2.74783 15.5726 4.67049ZM12.1118 6.08044C12.28 6.40089 12.6005 6.56111 13.0731 6.56111C13.5458 6.56111 13.8662 6.40089 14.0345 6.08044C14.2027 5.76 14.2828 5.28734 14.2828 4.67049C14.2828 4.05364 14.1947 3.58099 14.0345 3.26054C13.8662 2.9401 13.5458 2.77987 13.0731 2.77987C12.6005 2.77987 12.28 2.9401 12.1118 3.26054C11.9436 3.58099 11.8635 4.05364 11.8635 4.67049C11.8635 5.28734 11.9436 5.76 12.1118 6.08044Z" fill="black"/>
<path d="M19.49 1.7865C20.2591 1.7865 20.7958 2.01081 21.1083 2.45142C21.661 2.01081 22.2458 1.7865 22.8707 1.7865C23.4956 1.7865 23.9602 1.93871 24.2566 2.25114C24.561 2.56358 24.7052 2.98816 24.7052 3.53292V7.41829H23.4155V3.74922C23.4155 3.41275 23.3514 3.17242 23.2312 3.01219C23.111 2.85197 22.8947 2.77987 22.5903 2.77987C22.1577 2.77987 21.7572 2.93209 21.3887 3.2285C21.4047 3.35667 21.4047 3.46082 21.4047 3.53292V7.41829H20.1149V3.74922C20.1149 3.41275 20.0508 3.17242 19.9226 3.01219C19.7945 2.85197 19.5461 2.77987 19.1856 2.77987C18.8251 2.77987 18.4646 2.90805 18.1041 3.16441V7.4263H16.8143V1.9307H17.4953L17.8317 2.37932C18.3525 1.98677 18.8972 1.79451 19.474 1.79451L19.49 1.7865Z" fill="black"/>
<path d="M28.3503 1.7865C29.7442 1.7865 30.4492 2.42739 30.4492 3.70115V7.41829H29.6161L29.2476 6.74536C28.7349 7.28211 28.134 7.55449 27.4531 7.55449C26.9644 7.55449 26.5959 7.4183 26.3395 7.14592C26.0832 6.87354 25.963 6.50503 25.963 6.0484C25.963 5.59177 26.1072 5.22326 26.3956 4.93486C26.684 4.65447 27.2208 4.45419 28.0138 4.34204L29.1674 4.16579V3.70115C29.1674 3.07628 28.871 2.77187 28.2862 2.77187C27.7254 2.77187 27.397 3.05225 27.2929 3.62104L26.2915 3.32463C26.5318 2.29921 27.2208 1.7865 28.3583 1.7865H28.3503ZM27.8616 6.60918C28.2942 6.60918 28.7268 6.39288 29.1594 5.96829V4.97491L28.2382 5.13513C27.8216 5.20723 27.5412 5.31939 27.413 5.4716C27.2768 5.62381 27.2127 5.80005 27.2127 5.99232C27.2127 6.18459 27.2688 6.33679 27.389 6.44094C27.5011 6.55309 27.6614 6.60116 27.8697 6.60116L27.8616 6.60918Z" fill="black"/>
<path d="M2.38636 16.4229H4.08472L6.2397 23.4406H4.98195L4.38913 21.5019H2.08194L1.49714 23.4406H0.231384L2.39438 16.4229H2.38636ZM3.23554 17.6646L2.37835 20.5085H4.09272L3.23554 17.6646Z" fill="black"/>
<path d="M8.19441 19.2588C8.03419 19.5632 7.95409 20.0439 7.95409 20.6927C7.95409 21.3416 8.03419 21.8143 8.19441 22.1267C8.36265 22.4312 8.64304 22.5914 9.05161 22.5914C9.46017 22.5914 9.74857 22.5113 9.92481 22.343C10.1011 22.1748 10.1972 21.9104 10.2132 21.558L11.2226 21.606C11.1826 22.2629 10.9903 22.7516 10.6538 23.0881C10.3174 23.4245 9.74857 23.5848 8.96348 23.5848C8.05022 23.5848 7.42536 23.2883 7.08889 22.6875C6.92867 22.3991 6.81651 22.0947 6.76044 21.7823C6.69635 21.4698 6.66431 21.1013 6.66431 20.6927C6.66431 20.2842 6.69635 19.9157 6.76044 19.5952C6.82452 19.2748 6.92867 18.9784 7.08889 18.698C7.41735 18.1052 8.04221 17.8168 8.96348 17.8168C9.74056 17.8168 10.2933 17.977 10.6378 18.2894C10.9743 18.6099 11.1665 19.0825 11.2146 19.7074L10.2132 19.8436C10.1972 19.4831 10.1091 19.2187 9.92481 19.0585C9.74857 18.8903 9.46017 18.8101 9.05161 18.8101C8.64304 18.8101 8.36265 18.9624 8.19441 19.2748V19.2588Z" fill="black"/>
<path d="M13.0171 17.288C12.5364 17.288 12.2961 17.0397 12.2961 16.543C12.2961 16.0463 12.5364 15.798 13.0171 15.798C13.4977 15.798 13.7621 16.0463 13.7621 16.543C13.7621 17.0397 13.5138 17.288 13.0171 17.288ZM12.3762 17.9449H13.666V23.4406H12.3762V17.9449Z" fill="black"/>
<path d="M16.7663 23.5767C15.5326 23.5767 14.9077 22.6154 14.9077 20.6927C14.9077 18.7701 15.6608 17.8087 17.1588 17.8087C17.5834 17.8087 18 17.8889 18.4086 18.0411V16.2145L19.6983 16.1184V23.4405H18.8652L18.5127 22.7596C17.984 23.3044 17.3992 23.5767 16.7743 23.5767H16.7663ZM17.271 22.5834C17.6715 22.5834 18.0481 22.3751 18.4086 21.9665V18.9864C18.0961 18.8582 17.7837 18.7941 17.4873 18.7941C17.0226 18.7941 16.6942 18.9543 16.4939 19.2748C16.2936 19.5952 16.1975 20.0679 16.1975 20.6847C16.1975 21.9505 16.558 22.5753 17.271 22.5753V22.5834Z" fill="black"/>
<path d="M23.4075 23.5767C22.5262 23.5767 21.8934 23.3364 21.5168 22.8637C21.1403 22.383 20.9481 21.662 20.9481 20.6927C20.9481 18.77 21.7572 17.8087 23.3754 17.8087C24.3047 17.8087 24.9376 18.0971 25.282 18.6739C25.5785 19.1706 25.7227 19.8115 25.7227 20.5966V20.9411H22.2058C22.2058 21.5419 22.3099 21.9665 22.5022 22.2148C22.6945 22.4632 23.0069 22.5833 23.4555 22.5833C24.1685 22.5833 24.545 22.327 24.5931 21.8143L25.6506 21.8543C25.5464 22.9999 24.8014 23.5767 23.4155 23.5767H23.4075ZM24.1445 19.1145C23.9843 18.9062 23.7199 18.8021 23.3594 18.8021C22.9989 18.8021 22.7265 18.9062 22.5583 19.1065C22.3901 19.3068 22.2779 19.6272 22.2298 20.0759H24.4489C24.4088 19.6433 24.3127 19.3308 24.1525 19.1225L24.1445 19.1145Z" fill="black"/>
<path d="M26.4277 18.8421V17.9369H30.5053V18.722L27.8697 22.5272H30.5934V23.4325H26.3315V22.6474L28.9832 18.8421H26.4277Z" fill="black"/>
<path d="M3.53196 33.3663C2.93113 33.3663 2.52256 33.5665 2.31427 33.9591C2.10598 34.3516 1.99383 35.0165 1.99383 35.9458C1.99383 36.8751 2.09797 37.54 2.31427 37.9406C2.52256 38.3411 2.93113 38.5334 3.53196 38.5334C3.9966 38.5334 4.33307 38.4052 4.52534 38.1489C4.7176 37.8925 4.82976 37.524 4.83777 37.0353L5.89523 37.0834C5.84716 37.9085 5.64689 38.5334 5.30241 38.958C4.95794 39.3826 4.36511 39.5909 3.53196 39.5909C2.43444 39.5909 1.68139 39.2704 1.26482 38.6295C1.05653 38.3091 0.904321 37.9326 0.816199 37.508C0.728077 37.0834 0.688019 36.5627 0.688019 35.9458C0.688019 35.329 0.728077 34.8083 0.816199 34.3837C0.904321 33.9591 1.04852 33.5826 1.26482 33.2621C1.68139 32.6212 2.43444 32.3008 3.53196 32.3008C4.31704 32.3008 4.88583 32.477 5.2303 32.8295C5.57478 33.182 5.79109 33.7027 5.86319 34.3837L4.80572 34.5439C4.76566 34.1594 4.6455 33.863 4.44522 33.6627C4.24494 33.4624 3.94053 33.3583 3.52395 33.3583L3.53196 33.3663Z" fill="black"/>
<path d="M8.66706 39.5989C7.53749 39.5989 6.97672 39.0141 6.97672 37.8525V33.9671H8.2665V37.6362C8.2665 37.9727 8.33059 38.213 8.46678 38.3732C8.59496 38.5334 8.81926 38.6055 9.12368 38.6055C9.55628 38.6055 9.97286 38.3972 10.3654 37.9887V33.9591H11.6552V39.4547H10.822L10.4535 38.7898C9.95684 39.3185 9.356 39.5909 8.67506 39.5909L8.66706 39.5989Z" fill="black"/>
<path d="M15.3563 39.5989C14.4751 39.5989 13.8422 39.3586 13.4657 38.8859C13.0892 38.4053 12.8969 37.6843 12.8969 36.7149C12.8969 34.7923 13.706 33.8309 15.3243 33.8309C16.2536 33.8309 16.8864 34.1193 17.2309 34.6961C17.5273 35.1928 17.6715 35.8337 17.6715 36.6188V36.9633H14.1546C14.1546 37.5641 14.2588 37.9887 14.4511 38.237C14.6433 38.4854 14.9558 38.6055 15.4044 38.6055C16.1174 38.6055 16.4939 38.3492 16.542 37.8365L17.5994 37.8765C17.4953 39.0221 16.7502 39.5989 15.3643 39.5989H15.3563ZM16.0933 35.1367C15.9331 34.9285 15.6687 34.8243 15.3082 34.8243C14.9477 34.8243 14.6754 34.9284 14.5071 35.1287C14.3389 35.329 14.2267 35.6495 14.1787 36.0981H16.3978C16.3577 35.6655 16.2616 35.353 16.1013 35.1448L16.0933 35.1367Z" fill="black"/>
<path d="M20.155 39.4627H18.8652V33.9671H19.474L19.9787 34.8243C20.4193 34.1994 21.0442 33.863 21.8533 33.8309V34.9365C21.0923 34.9525 20.5315 35.1848 20.155 35.6254V39.4627Z" fill="black"/>
<path d="M25.3542 33.8309C26.8282 33.8309 27.5652 34.7923 27.5652 36.7149C27.5652 38.6376 26.8122 39.5989 25.3141 39.5989C24.9296 39.5989 24.513 39.5348 24.0644 39.4067V41.4335L22.7746 41.6097V33.9671H23.3914L23.7279 34.3837C24.2727 34.0152 24.8174 33.8389 25.3542 33.8389V33.8309ZM25.0017 34.8243C24.6732 34.8243 24.3608 34.9124 24.0724 35.0967V38.4774C24.3768 38.5655 24.6812 38.6136 24.9937 38.6136C25.4583 38.6136 25.7868 38.4533 25.987 38.1249C26.1873 37.7964 26.2834 37.3318 26.2834 36.7149C26.2834 35.4492 25.8589 34.8243 25.0017 34.8243Z" fill="black"/>
<path d="M33.2531 36.7149C33.2531 38.6376 32.4199 39.5989 30.7536 39.5989C29.0873 39.5989 28.2542 38.6376 28.2542 36.7149C28.2542 34.7923 29.0873 33.8309 30.7536 33.8309C32.4199 33.8309 33.2531 34.7923 33.2531 36.7149ZM29.7923 38.1249C29.9605 38.4453 30.281 38.6055 30.7536 38.6055C31.2263 38.6055 31.5467 38.4453 31.7149 38.1249C31.8832 37.8044 31.9633 37.3318 31.9633 36.7149C31.9633 36.0981 31.8832 35.6254 31.7149 35.305C31.5467 34.9845 31.2263 34.8243 30.7536 34.8243C30.281 34.8243 29.9605 34.9845 29.7923 35.305C29.624 35.6254 29.5439 36.0981 29.5439 36.7149C29.5439 37.3318 29.624 37.8044 29.7923 38.1249Z" fill="black"/>
<path d="M1.04852 48.4672H2.35433V55.4849H1.04852V48.4672Z" fill="black"/>
<path d="M5.18225 50.4859C5.78308 50.0613 6.39993 49.853 7.03281 49.853C7.66568 49.853 8.12232 50.0052 8.40271 50.3177C8.6831 50.6301 8.8273 51.0547 8.8273 51.5995V55.4848H7.53751V51.7356C7.53751 51.4072 7.48143 51.1749 7.36126 51.0467C7.2411 50.9105 7.03281 50.8464 6.7364 50.8464C6.27176 50.8464 5.84717 50.9906 5.44662 51.279V55.4928H4.15683V49.9972H4.76567L5.18225 50.4939V50.4859Z" fill="black"/>
<path d="M9.72452 50.8224V49.9893H10.6057V48.9879L11.8955 48.6594V49.9893H12.945V50.8224H11.8955V53.9307C11.8955 54.2031 11.9356 54.4034 12.0157 54.5155C12.0958 54.6277 12.216 54.6918 12.3762 54.6918C12.5364 54.6918 12.7046 54.6677 12.8889 54.6117L13.0571 55.4128C12.6806 55.557 12.3441 55.6211 12.0397 55.6211C11.7353 55.6211 11.503 55.589 11.3267 55.5169C11.1505 55.4448 11.0143 55.3647 10.9262 55.2686C10.8381 55.1724 10.766 55.0523 10.7259 54.8921C10.6538 54.6678 10.6218 54.3874 10.6218 54.0589V50.8304H9.74054L9.72452 50.8224Z" fill="black"/>
<path d="M15.9011 55.621C15.0199 55.621 14.387 55.3807 14.0024 54.908C13.6259 54.4274 13.4337 53.7064 13.4337 52.737C13.4337 50.8144 14.2428 49.853 15.853 49.853C16.7823 49.853 17.4152 50.1414 17.7596 50.7182C18.056 51.2149 18.2002 51.8558 18.2002 52.6409V52.9854H14.6834C14.6834 53.5862 14.7875 54.0108 14.9798 54.2591C15.1721 54.5075 15.4925 54.6276 15.9331 54.6276C16.6461 54.6276 17.0226 54.3713 17.0707 53.8586L18.1282 53.8986C18.024 55.0442 17.287 55.621 15.9011 55.621ZM16.6381 51.1588C16.4779 50.9506 16.2135 50.8464 15.853 50.8464C15.4925 50.8464 15.2201 50.9505 15.0519 51.1508C14.8837 51.3511 14.7715 51.6715 14.7234 52.1202H16.9425C16.9025 51.6876 16.8063 51.3751 16.6461 51.1668L16.6381 51.1588Z" fill="black"/>
<path d="M20.4354 50.4859C21.0362 50.0613 21.6531 49.853 22.2859 49.853C22.9188 49.853 23.3754 50.0052 23.6558 50.3177C23.9362 50.6301 24.0804 51.0547 24.0804 51.5995V55.4848H22.7906V51.7356C22.7906 51.4072 22.7346 51.1749 22.6144 51.0467C22.4942 50.9185 22.2859 50.8464 21.9975 50.8464C21.5329 50.8464 21.1083 50.9906 20.7078 51.279V55.4928H19.418V49.9972H20.0268L20.4434 50.4939L20.4354 50.4859Z" fill="black"/>
<path d="M29.7122 53.9468C29.7122 55.0443 28.9432 55.589 27.405 55.589C26.7321 55.589 26.2354 55.4448 25.9069 55.1484C25.5785 54.852 25.3782 54.4354 25.2901 53.8747L26.2915 53.7225C26.3636 54.3393 26.7481 54.6437 27.4371 54.6437C28.126 54.6437 28.4785 54.4274 28.4785 53.9868C28.4785 53.8106 28.4064 53.6744 28.2702 53.5863C28.134 53.4981 27.8536 53.402 27.4371 53.3059L26.9965 53.2017C26.4277 53.0656 26.0191 52.8733 25.7708 52.6089C25.5224 52.3445 25.4023 51.976 25.4023 51.4793C25.4023 50.3898 26.1473 49.8451 27.6293 49.8451C28.2702 49.8451 28.7509 49.9893 29.0633 50.2857C29.3757 50.5741 29.576 50.9987 29.6561 51.5595L28.6548 51.7037C28.5827 51.0948 28.2302 50.7904 27.5973 50.7904C26.9644 50.7904 26.636 51.0067 26.636 51.4473C26.636 51.6236 26.7 51.7597 26.8202 51.8559C26.9484 51.952 27.1967 52.0401 27.5893 52.1282L28.086 52.2564C28.6547 52.4006 29.0713 52.5929 29.3197 52.8493C29.576 53.1056 29.6962 53.4661 29.6962 53.9468H29.7122Z" fill="black"/>
<path d="M31.6749 49.3323C31.1942 49.3323 30.9539 49.084 30.9539 48.5873C30.9539 48.0906 31.1942 47.8423 31.6749 47.8423C32.1555 47.8423 32.4119 48.0906 32.4119 48.5873C32.4119 49.084 32.1635 49.3323 31.6749 49.3323ZM31.034 49.9893H32.3238V55.4849H31.034V49.9893Z" fill="black"/>
<path d="M35.4241 55.621C34.1903 55.621 33.5655 54.6597 33.5655 52.7371C33.5655 50.8144 34.3185 49.8531 35.8166 49.8531C36.2412 49.8531 36.6578 49.9332 37.0663 50.0854V48.2588L38.3561 48.1627V55.4849H37.523L37.1705 54.8039C36.6417 55.3487 36.0569 55.621 35.4321 55.621H35.4241ZM35.9288 54.6277C36.3293 54.6277 36.7058 54.4194 37.0663 54.0108V51.0307C36.7539 50.9025 36.4415 50.8384 36.1451 50.8384C35.6804 50.8384 35.352 50.9986 35.1517 51.3191C34.9514 51.6395 34.8553 52.1122 34.8553 52.729C34.8553 53.9948 35.2158 54.6197 35.9288 54.6197V54.6277Z" fill="black"/>
<path d="M42.0973 49.853C43.4912 49.853 44.1962 50.4939 44.1962 51.7677V55.4848H43.3631L42.9945 54.8119C42.4818 55.3486 41.881 55.621 41.2001 55.621C40.7114 55.621 40.3429 55.4848 40.0945 55.2124C39.8382 54.9401 39.718 54.5716 39.718 54.1149C39.718 53.6583 39.8622 53.2898 40.1506 53.0014C40.439 52.721 40.9758 52.5207 41.7689 52.4086L42.9225 52.2323V51.7677C42.9225 51.1428 42.626 50.8384 42.0412 50.8384C41.4564 50.8384 41.152 51.1188 41.0479 51.6876L40.0465 51.3912C40.2868 50.3657 40.9758 49.853 42.1133 49.853H42.0973ZM41.6086 54.6757C42.0412 54.6757 42.4738 54.4594 42.9064 54.0348V53.0414L41.9852 53.2017C41.5686 53.2738 41.2962 53.3859 41.16 53.5381C41.0238 53.6903 40.9597 53.8666 40.9597 54.0588C40.9597 54.2511 41.0158 54.4033 41.128 54.5075C41.2401 54.6116 41.4003 54.6677 41.6086 54.6677V54.6757Z" fill="black"/>
<path d="M47.2004 55.621C45.9667 55.621 45.3418 54.6597 45.3418 52.7371C45.3418 50.8144 46.0948 49.8531 47.5929 49.8531C48.0175 49.8531 48.4341 49.9332 48.8426 50.0854V48.2588L50.1324 48.1627V55.4849H49.2993L48.9388 54.8039C48.41 55.3487 47.8252 55.621 47.2004 55.621ZM47.7131 54.6277C48.1136 54.6277 48.4901 54.4194 48.8506 54.0108V51.0307C48.5382 50.9025 48.2258 50.8384 47.9294 50.8384C47.4647 50.8384 47.1363 50.9986 46.936 51.3191C46.7357 51.6395 46.6396 52.1122 46.6396 52.729C46.6396 53.9948 47.0001 54.6197 47.7131 54.6197V54.6277Z" fill="black"/>
<path d="M5.83916 64.4894H7.66569L7.84994 71.5071H6.56015L6.45601 66.1076L4.88584 70.6739H3.74827L2.33831 66.2598L2.24218 71.5071H0.952393L1.12063 64.4894H2.95516L4.33307 68.9195L5.83114 64.4894H5.83916Z" fill="black"/>
<path d="M11.4629 71.6432C10.5817 71.6432 9.94884 71.4029 9.57232 70.9302C9.1958 70.4496 9.00354 69.7286 9.00354 68.7592C9.00354 66.8366 9.81266 65.8752 11.4309 65.8752C12.3602 65.8752 12.9931 66.1636 13.3375 66.7404C13.634 67.2371 13.7781 67.878 13.7781 68.6631V69.0076H10.2613C10.2613 69.6084 10.3654 70.033 10.5577 70.2813C10.75 70.5297 11.0624 70.6499 11.511 70.6499C12.224 70.6499 12.6005 70.3935 12.6486 69.8808L13.706 69.9208C13.6019 71.0664 12.8569 71.6432 11.471 71.6432H11.4629ZM12.2 67.1811C12.0397 66.9728 11.7754 66.8686 11.4149 66.8686C11.0544 66.8686 10.782 66.9728 10.6138 67.173C10.4455 67.3733 10.3334 67.6938 10.2853 68.1424H12.5044C12.4643 67.7098 12.3682 67.3974 12.208 67.1891L12.2 67.1811Z" fill="black"/>
<path d="M14.4831 66.9087V66.0034H18.5607V66.7885L15.9251 70.5938H18.6489V71.499H14.387V70.7139L17.0386 66.9087H14.4831Z" fill="black"/>
<path d="M20.8359 67.3253C20.6757 67.6297 20.5956 68.1104 20.5956 68.7593C20.5956 69.4082 20.6757 69.8808 20.8359 70.1933C21.0041 70.4977 21.2845 70.6579 21.6931 70.6579C22.1017 70.6579 22.39 70.5778 22.5663 70.4096C22.7425 70.2413 22.8387 69.977 22.8547 69.6245L23.8641 69.6726C23.824 70.3295 23.6318 70.8181 23.2953 71.1546C22.9588 71.4911 22.3901 71.6513 21.605 71.6513C20.6917 71.6513 20.0668 71.3549 19.7304 70.754C19.5702 70.4656 19.458 70.1612 19.4019 69.8488C19.3378 69.5364 19.3058 69.1679 19.3058 68.7593C19.3058 68.3507 19.3378 67.9822 19.4019 67.6618C19.466 67.3413 19.5702 67.0449 19.7304 66.7645C20.0588 66.1717 20.6837 65.8833 21.605 65.8833C22.382 65.8833 22.9348 66.0435 23.2793 66.356C23.6157 66.6764 23.808 67.1491 23.8561 67.7739L22.8547 67.9101C22.8387 67.5496 22.7505 67.2852 22.5663 67.125C22.39 66.9568 22.1017 66.8767 21.6931 66.8767C21.2845 66.8767 21.0041 67.0289 20.8359 67.3413V67.3253Z" fill="black"/>
<path d="M26.3075 71.5071H25.0177V64.2811L26.3075 64.1049V71.5071Z" fill="black"/>
<path d="M30.0406 65.8752C31.4346 65.8752 32.1395 66.5161 32.1395 67.7899V71.507H31.3064L30.9379 70.8341C30.4252 71.3709 29.8243 71.6432 29.1434 71.6432C28.6547 71.6432 28.2862 71.507 28.0298 71.2347C27.7735 70.9623 27.6533 70.5938 27.6533 70.1371C27.6533 69.6805 27.7975 69.312 28.0859 69.0236C28.3743 68.7432 28.9111 68.5429 29.7042 68.4308L30.8578 68.2545V67.7899C30.8578 67.165 30.5613 66.8606 29.9765 66.8606C29.4158 66.8606 29.0873 67.141 28.9832 67.7098L27.9818 67.4134C28.2221 66.388 28.9111 65.8752 30.0486 65.8752H30.0406ZM29.5519 70.6979C29.9845 70.6979 30.4171 70.4816 30.8497 70.057V69.0637L29.9285 69.2239C29.5119 69.296 29.2315 69.4081 29.1033 69.5603C28.9671 69.7126 28.903 69.8888 28.903 70.0811C28.903 70.2733 28.9591 70.4255 29.0793 70.5297C29.1914 70.6418 29.3517 70.6899 29.56 70.6899L29.5519 70.6979Z" fill="black"/>
<path d="M5.86319 86.5918C5.6549 86.9363 5.3665 87.2007 4.97396 87.3849C4.58942 87.5692 4.1408 87.6573 3.62809 87.6573C3.11538 87.6573 2.69079 87.5932 2.35433 87.4731C2.01786 87.3449 1.73747 87.1847 1.52919 86.9764C1.3209 86.7681 1.15266 86.5037 1.02448 86.1833C0.800173 85.6225 0.688019 84.9015 0.688019 84.0203C0.688019 83.4755 0.728077 82.9949 0.816199 82.5863C0.89631 82.1777 1.0405 81.8012 1.24879 81.4487C1.65736 80.7277 2.42643 80.3752 3.55599 80.3752C4.83776 80.3752 5.68694 80.8719 6.0955 81.8653C6.31981 82.4261 6.43197 83.1391 6.43197 84.0203C6.43197 84.573 6.39192 85.0537 6.3038 85.4623C6.21568 85.8708 6.07147 86.2474 5.87119 86.5998L5.86319 86.5918ZM3.54798 86.5998C4.13279 86.5998 4.54135 86.3755 4.76566 85.9189C4.98997 85.4623 5.11014 84.8294 5.11014 84.0123C5.11014 83.1951 4.99798 82.5623 4.76566 82.1056C4.53334 81.649 4.12478 81.4247 3.54798 81.4247C2.93113 81.4247 2.51455 81.673 2.29024 82.1777C2.08996 82.6344 1.99383 83.2432 1.99383 84.0123C1.99383 85.294 2.25019 86.0952 2.77091 86.4076C2.97919 86.5358 3.24356 86.5998 3.54798 86.5998Z" fill="black"/>
<path d="M9.15575 87.5293H7.86597V82.0336H8.4748L8.98751 82.8908C9.42812 82.266 10.053 81.9295 10.8621 81.8975V83.003C10.1091 83.019 9.54028 83.2513 9.16376 83.6919V87.5293H9.15575Z" fill="black"/>
<path d="M11.8234 81.569L11.3908 80.88L13.2654 79.5983L13.8422 80.5195L11.8234 81.569ZM11.7753 82.0336H13.0651V87.5292H11.7753V82.0336Z" fill="black"/>
<path d="M18.5046 85.2541C18.3524 85.4624 18.1281 85.6226 17.8237 85.7428C17.5193 85.863 17.1668 85.919 16.7662 85.919C16.3657 85.919 16.0212 85.871 15.7488 85.7748L15.4765 86.0632C15.3723 86.1754 15.3162 86.2795 15.3162 86.3837C15.3162 86.5359 15.4204 86.616 15.6367 86.616H17.6795C18.1842 86.616 18.5847 86.7522 18.8731 87.0326C19.1696 87.3049 19.3138 87.6334 19.3138 88.0019C19.3138 88.3704 19.2337 88.6668 19.0814 88.8831C18.9292 89.0994 18.7049 89.2597 18.4165 89.3638C17.9278 89.54 17.311 89.6201 16.5499 89.6201C15.7889 89.6201 15.2041 89.532 14.7955 89.3478C14.3869 89.1635 14.1786 88.8511 14.1786 88.4105C14.1786 88.2022 14.2427 88.0099 14.3629 87.8417C14.4831 87.6735 14.6353 87.5453 14.8115 87.4492C14.419 87.329 14.2267 87.0406 14.2267 86.592C14.2267 86.2955 14.3389 86.0232 14.5712 85.7748L15.0118 85.3102C14.7074 84.9657 14.5632 84.493 14.5632 83.9082C14.5632 83.3875 14.7074 82.9389 14.9878 82.5624C15.3082 82.1218 15.893 81.8975 16.7342 81.8975C17.1027 81.8975 17.4151 81.9455 17.6875 82.0336H19.2977V82.7947H18.6649C18.8411 83.1071 18.9212 83.4356 18.9212 83.7801C18.9212 84.1245 18.8892 84.4049 18.8251 84.6212C18.761 84.8375 18.6569 85.0538 18.5046 85.2541ZM15.3563 88.1221C15.3563 88.3464 15.4604 88.4986 15.6687 88.5627C15.877 88.6268 16.2215 88.6588 16.7021 88.6588C17.1828 88.6588 17.5273 88.6188 17.7276 88.5467C17.9278 88.4746 18.032 88.3143 18.032 88.074C18.032 87.7135 17.7836 87.5373 17.2789 87.5373H15.6367C15.4524 87.7055 15.3563 87.8978 15.3563 88.1301V88.1221ZM16.7422 82.7547C16.1093 82.7547 15.7969 83.1392 15.7969 83.9082C15.7969 84.6773 16.1093 85.0618 16.7422 85.0618C17.3751 85.0618 17.6875 84.6773 17.6875 83.9082C17.6875 83.1392 17.3751 82.7547 16.7422 82.7547Z" fill="black"/>
<path d="M22.334 87.6654C21.4528 87.6654 20.8199 87.4251 20.4354 86.9525C20.0588 86.4718 19.8666 85.7508 19.8666 84.7815C19.8666 82.8588 20.6757 81.8975 22.2859 81.8975C23.2152 81.8975 23.8481 82.1859 24.1926 82.7627C24.489 83.2593 24.6332 83.9002 24.6332 84.6853V85.0298H21.1163C21.1163 85.6306 21.2204 86.0552 21.4127 86.3036C21.605 86.5519 21.9254 86.6721 22.366 86.6721C23.079 86.6721 23.4555 86.4157 23.5036 85.903L24.5611 85.9431C24.4569 87.0886 23.7199 87.6654 22.334 87.6654ZM23.071 83.2033C22.9108 82.995 22.6464 82.8908 22.2859 82.8908C21.9254 82.8908 21.6531 82.995 21.4848 83.1953C21.3166 83.3955 21.2044 83.716 21.1564 84.1646H23.3754C23.3354 83.732 23.2392 83.4196 23.079 83.2113L23.071 83.2033Z" fill="black"/>
<path d="M26.8602 82.5303C27.4611 82.1058 28.0779 81.8975 28.7108 81.8975C29.3437 81.8975 29.8003 82.0497 30.0807 82.3621C30.3611 82.6745 30.5053 83.0991 30.5053 83.6439V87.5293H29.2155V83.7801C29.2155 83.4516 29.1594 83.2193 29.0393 83.0911C28.9191 82.9629 28.7108 82.8908 28.4224 82.8908C27.9578 82.8908 27.5332 83.035 27.1326 83.3234V87.5373H25.8428V82.0417H26.4517L26.8683 82.5384L26.8602 82.5303Z" fill="black"/>
<path d="M34.1183 87.6654C33.2371 87.6654 32.6042 87.4251 32.2277 86.9525C31.8511 86.4718 31.6589 85.7508 31.6589 84.7815C31.6589 82.8588 32.468 81.8975 34.0862 81.8975C35.0155 81.8975 35.6484 82.1859 35.9929 82.7627C36.2893 83.2593 36.4335 83.9002 36.4335 84.6853V85.0298H32.9166C32.9166 85.6306 33.0208 86.0552 33.213 86.3036C33.4053 86.5519 33.7177 86.6721 34.1663 86.6721C34.8793 86.6721 35.2559 86.4157 35.3039 85.903L36.3614 85.9431C36.2572 87.0886 35.5122 87.6654 34.1263 87.6654H34.1183ZM34.8553 83.2033C34.6951 82.995 34.4307 82.8908 34.0702 82.8908C33.7097 82.8908 33.4373 82.995 33.2691 83.1953C33.1009 83.3955 32.9887 83.716 32.9407 84.1646H35.1597C35.1197 83.732 35.0235 83.4196 34.8633 83.2113L34.8553 83.2033Z" fill="black"/>
<path d="M41.5606 85.9911C41.5606 87.0886 40.7915 87.6334 39.2534 87.6334C38.5805 87.6334 38.0838 87.4892 37.7553 87.1927C37.4269 86.8963 37.2266 86.4798 37.1385 85.919L38.1399 85.7668C38.212 86.3836 38.5965 86.688 39.2935 86.688C39.9904 86.688 40.3349 86.4717 40.3349 86.0311C40.3349 85.8549 40.2628 85.7187 40.1266 85.6306C39.9904 85.5425 39.71 85.4463 39.2935 85.3502L38.8529 85.2461C38.2841 85.1099 37.8755 84.9176 37.6272 84.6532C37.3788 84.3969 37.2587 84.0203 37.2587 83.5237C37.2587 82.4342 38.0037 81.8894 39.4938 81.8894C40.1346 81.8894 40.6153 82.0336 40.9277 82.33C41.2482 82.6184 41.4404 83.043 41.5206 83.6038L40.5192 83.748C40.4471 83.1391 40.0946 82.8347 39.4537 82.8347C38.8128 82.8347 38.5004 83.051 38.5004 83.4916C38.5004 83.6679 38.5645 83.804 38.6846 83.9002C38.8048 83.9963 39.0612 84.0844 39.4457 84.1726L39.9424 84.3007C40.5112 84.4449 40.9277 84.6372 41.1761 84.8936C41.4244 85.1499 41.5526 85.5104 41.5526 85.9911H41.5606Z" fill="black"/>
<path d="M5.2143 96.5337H6.5201V103.551H5.13418L2.35433 98.7848V103.551H1.04852V96.5337H2.43445L5.2143 101.308V96.5337Z" fill="black"/>
<path d="M12.7687 100.804C12.7687 102.726 11.9356 103.688 10.2693 103.688C8.60297 103.688 7.76981 102.726 7.76981 100.804C7.76981 98.8809 8.60297 97.9196 10.2693 97.9196C11.9356 97.9196 12.7687 98.8809 12.7687 100.804ZM9.30795 102.213C9.47618 102.534 9.79662 102.694 10.2693 102.694C10.7419 102.694 11.0624 102.534 11.2306 102.213C11.3988 101.893 11.4789 101.42 11.4789 100.804C11.4789 100.187 11.3908 99.714 11.2306 99.3936C11.0624 99.0731 10.7419 98.9129 10.2693 98.9129C9.79662 98.9129 9.47618 99.0731 9.30795 99.3936C9.13971 99.714 9.05959 100.187 9.05959 100.804C9.05959 101.42 9.13971 101.893 9.30795 102.213Z" fill="black"/>
<path d="M13.2013 98.889V98.0558H14.0825V97.0544L15.3723 96.726V98.0558H16.4218V98.889H15.3723V101.997C15.3723 102.27 15.4124 102.47 15.4925 102.582C15.5726 102.694 15.6928 102.758 15.853 102.758C16.0132 102.758 16.1815 102.734 16.3657 102.678L16.5339 103.479C16.1574 103.624 15.821 103.688 15.5165 103.688C15.2121 103.688 14.9798 103.656 14.8035 103.583C14.6273 103.511 14.4911 103.431 14.403 103.335C14.3149 103.239 14.2428 103.119 14.2027 102.959C14.1306 102.734 14.0986 102.454 14.0986 102.125V98.897H13.2174L13.2013 98.889Z" fill="black"/>
<path d="M19.4099 97.9196C20.8038 97.9196 21.5088 98.5604 21.5088 99.8342V103.551H20.6756L20.3071 102.878C19.7944 103.415 19.1936 103.688 18.5126 103.688C18.024 103.688 17.6555 103.551 17.3991 103.279C17.1428 103.007 17.0226 102.638 17.0226 102.181C17.0226 101.725 17.1668 101.356 17.4552 101.068C17.7436 100.788 18.2803 100.587 19.0734 100.475L20.227 100.299V99.8342C20.227 99.2093 19.9306 98.9049 19.3458 98.9049C18.785 98.9049 18.4566 99.1853 18.3524 99.7541L17.351 99.4577C17.5914 98.4323 18.2803 97.9196 19.4179 97.9196H19.4099ZM18.9212 102.742C19.3538 102.742 19.7864 102.526 20.219 102.101V101.108L19.2977 101.268C18.8812 101.34 18.6008 101.452 18.4726 101.605C18.3364 101.757 18.2723 101.933 18.2723 102.125C18.2723 102.318 18.3284 102.47 18.4486 102.574C18.5607 102.686 18.7209 102.734 18.9292 102.734L18.9212 102.742Z" fill="black"/>
<path d="M27.1487 102.013C27.1487 103.111 26.3796 103.656 24.8415 103.656C24.1686 103.656 23.6719 103.511 23.3434 103.215C23.015 102.919 22.8147 102.502 22.7266 101.941L23.7279 101.789C23.8 102.406 24.1846 102.71 24.8735 102.71C25.5625 102.71 25.915 102.494 25.915 102.053C25.915 101.877 25.8429 101.741 25.7067 101.653C25.5705 101.565 25.2901 101.469 24.8735 101.372L24.4329 101.268C23.8641 101.132 23.4556 100.94 23.2072 100.675C22.9589 100.411 22.8387 100.043 22.8387 99.5459C22.8387 98.4564 23.5837 97.9116 25.0658 97.9116C25.7067 97.9116 26.1873 98.0558 26.4998 98.3522C26.8122 98.6406 27.0125 99.0652 27.0926 99.626L26.0912 99.7702C26.0191 99.1613 25.6666 98.8569 25.0337 98.8569C24.4009 98.8569 24.0724 99.0732 24.0724 99.5138C24.0724 99.6901 24.1365 99.8263 24.2567 99.9224C24.3848 100.019 24.6332 100.107 25.0257 100.195L25.5224 100.323C26.0912 100.467 26.5078 100.659 26.7561 100.916C27.0125 101.172 27.1327 101.533 27.1327 102.013H27.1487Z" fill="black"/>
<path d="M58.8245 66.38H59.6656L61.388 71.6433H60.7632L60.2505 70.0571H58.2477L57.735 71.6433H57.1101L58.8245 66.38ZM59.2491 66.9408L58.4079 69.5524H60.0902L59.2571 66.9408H59.2491Z" fill="black"/>
<path d="M62.8941 71.6432H62.2773V66.1797L62.8941 66.0916V71.6432Z" fill="black"/>
<path d="M63.8154 67.9422V67.5176H64.5204V66.7646L65.1373 66.5162V67.5096H66.0105V67.9342H65.1373V70.666C65.1373 70.8823 65.1693 71.0345 65.2254 71.1226C65.2895 71.2107 65.3696 71.2588 65.4897 71.2588C65.6099 71.2588 65.7461 71.2428 65.9143 71.2027L65.9864 71.6193C65.7301 71.6994 65.5058 71.7314 65.3295 71.7314C65.1533 71.7314 65.0011 71.6994 64.8889 71.6433C64.7768 71.5872 64.6886 71.4991 64.6406 71.387C64.5605 71.2107 64.5204 70.9784 64.5204 70.69V67.9342H63.8154V67.9422Z" fill="black"/>
<path d="M68.0613 71.7394C67.6367 71.7394 67.3243 71.6353 67.132 71.419C66.9398 71.2027 66.8436 70.8822 66.8436 70.4576V67.5176H67.4605V70.4176C67.4605 70.698 67.5246 70.9063 67.6447 71.0425C67.7649 71.1786 67.9572 71.2427 68.2215 71.2427C68.6862 71.2427 69.1188 71.0024 69.5273 70.5297V67.5256H70.1442V71.6513H69.7356L69.5434 71.0425C69.0947 71.5151 68.6061 71.7554 68.0613 71.7554V71.7394Z" fill="black"/>
<path d="M72.2911 71.6432H71.6743V67.5175H72.0428L72.2671 68.2545C72.6035 67.7178 73.0922 67.4454 73.7411 67.4214V67.9902C73.0922 68.0142 72.6116 68.2866 72.2911 68.8153V71.6512V71.6432Z" fill="black"/>
<path d="M76.8975 67.6938C77.1859 67.9021 77.3301 68.2867 77.3301 68.8635V71.6433H76.9216L76.7613 71.0024C76.2967 71.4991 75.792 71.7475 75.2392 71.7475C74.8707 71.7475 74.6063 71.6513 74.4381 71.4591C74.2699 71.2668 74.1818 71.0104 74.1818 70.682C74.1818 70.3535 74.2859 70.0892 74.4862 69.8889C74.6865 69.6886 75.071 69.5444 75.6398 69.4483L76.7133 69.272V68.8635C76.7133 68.511 76.6412 68.2626 76.4889 68.1264C76.3367 67.9902 76.1284 67.9262 75.8641 67.9262C75.3354 67.9262 75.0229 68.1825 74.9188 68.6952L74.4141 68.543C74.4942 68.1905 74.6544 67.9101 74.8947 67.7099C75.1431 67.5096 75.4715 67.4135 75.8961 67.4135C76.3207 67.4135 76.6492 67.5016 76.9055 67.6858L76.8975 67.6938ZM75.4155 71.2668C75.8481 71.2668 76.2807 71.0345 76.7133 70.5698V69.7046L75.6959 69.8809C75.3514 69.945 75.1191 70.0411 74.9909 70.1693C74.8627 70.2974 74.7986 70.4657 74.7986 70.6499C74.7986 70.8342 74.8467 70.9864 74.9508 71.0986C75.055 71.2107 75.2072 71.2668 75.4155 71.2668Z" fill="black"/>
<path d="M82.7456 67.4135C83.3064 67.4135 83.6749 67.6057 83.8671 67.9822C84.0434 67.822 84.2597 67.6858 84.508 67.5817C84.7564 67.4695 85.0127 67.4135 85.2771 67.4135C86.1102 67.4135 86.5348 67.8461 86.5348 68.7032V71.6353H85.918V68.7353C85.918 68.4629 85.8619 68.2626 85.7417 68.1264C85.6296 67.9902 85.4373 67.9182 85.181 67.9182C84.7564 67.9182 84.3558 68.0784 83.9953 68.4068C84.0114 68.503 84.0194 68.5991 84.0194 68.7032V71.6353H83.4025V68.7353C83.4025 68.4629 83.3464 68.2626 83.2263 68.1264C83.1141 67.9902 82.9218 67.9182 82.6575 67.9182C82.2409 67.9182 81.8564 68.0704 81.5039 68.3748V71.6433H80.887V67.5176H81.2716L81.4318 67.9262C81.8323 67.5817 82.281 67.4135 82.7616 67.4135H82.7456Z" fill="black"/>
<path d="M89.3628 71.7394C88.7299 71.7394 88.2813 71.5632 88.0169 71.2027C87.7446 70.8422 87.6164 70.3055 87.6164 69.5764C87.6164 68.1344 88.1932 67.4135 89.3388 67.4135C90.4844 67.4135 91.0371 68.1024 91.0371 69.4883V69.6405H88.2252C88.2252 70.2093 88.3133 70.6179 88.4816 70.8662C88.6498 71.1146 88.9462 71.2347 89.3628 71.2347C90.0437 71.2347 90.4123 70.9624 90.4603 70.4016L90.973 70.4336C90.8849 71.3068 90.3482 71.7394 89.3628 71.7394ZM90.1399 68.2466C89.9797 68.0303 89.7153 67.9182 89.3388 67.9182C88.9623 67.9182 88.6979 68.0303 88.5297 68.2546C88.3614 68.4789 88.2653 68.7914 88.2332 69.1839H90.4123C90.3882 68.7834 90.3001 68.4709 90.1399 68.2466Z" fill="black"/>
<path d="M93.104 71.7394C92.2227 71.7394 91.7741 71.0184 91.7741 69.5764C91.7741 68.1344 92.3109 67.4134 93.3843 67.4134C93.7529 67.4134 94.1374 67.5096 94.5219 67.6938V66.1717L95.1388 66.0996V71.6353H94.7302L94.554 71.0104C94.1133 71.4991 93.6327 71.7394 93.104 71.7394ZM93.3042 71.2347C93.7368 71.2347 94.1454 71.0024 94.5219 70.5458V68.1905C94.1774 68.0062 93.833 67.9101 93.5045 67.9101C93.104 67.9101 92.8156 68.0543 92.6473 68.3507C92.4791 68.6471 92.391 69.0557 92.391 69.5844C92.391 70.69 92.6954 71.2427 93.2962 71.2427L93.3042 71.2347Z" fill="black"/>
<path d="M96.9894 66.8286C96.741 66.8286 96.6208 66.6924 96.6208 66.428C96.6208 66.1637 96.741 66.0275 96.9894 66.0275C97.2377 66.0275 97.3739 66.1637 97.3739 66.428C97.3739 66.6924 97.2457 66.8286 96.9894 66.8286ZM96.6769 67.5175H97.2938V71.6432H96.6769V67.5175Z" fill="black"/>
<path d="M101.163 67.6938C101.451 67.9021 101.596 68.2867 101.596 68.8635V71.6433H101.187L101.027 71.0024C100.562 71.4991 100.058 71.7475 99.5048 71.7475C99.1363 71.7475 98.8719 71.6513 98.7037 71.4591C98.5355 71.2668 98.4473 71.0104 98.4473 70.682C98.4473 70.3535 98.5515 70.0892 98.7518 69.8889C98.952 69.6886 99.3366 69.5444 99.9054 69.4483L100.979 69.272V68.8635C100.979 68.511 100.907 68.2626 100.755 68.1264C100.602 67.9902 100.394 67.9262 100.13 67.9262C99.6009 67.9262 99.2885 68.1825 99.1844 68.6952L98.6797 68.543C98.7598 68.1905 98.92 67.9101 99.1603 67.7099C99.4087 67.5096 99.7371 67.4135 100.162 67.4135C100.586 67.4135 100.915 67.5016 101.171 67.6858L101.163 67.6938ZM99.681 71.2668C100.114 71.2668 100.546 71.0345 100.979 70.5698V69.7046L99.9614 69.8809C99.617 69.945 99.3846 70.0411 99.2565 70.1693C99.1283 70.2974 99.0642 70.4657 99.0642 70.6499C99.0642 70.8342 99.1122 70.9864 99.2164 71.0986C99.3205 71.2107 99.4728 71.2668 99.681 71.2668Z" fill="black"/>
<path d="M103.478 71.467C103.47 71.523 103.43 71.5711 103.366 71.6192C103.302 71.6672 103.214 71.6913 103.102 71.6913C102.99 71.6913 102.902 71.6672 102.845 71.6192C102.781 71.5711 102.749 71.523 102.741 71.467C102.733 71.4109 102.725 71.3468 102.725 71.2747C102.725 71.2026 102.725 71.1385 102.733 71.0985C102.741 71.0584 102.757 71.0103 102.781 70.9623C102.821 70.8581 102.926 70.8101 103.102 70.8101C103.278 70.8101 103.382 70.8501 103.43 70.9302C103.478 71.0103 103.502 71.1065 103.502 71.2186C103.502 71.3308 103.502 71.4189 103.486 71.467H103.478Z" fill="black"/>
<path d="M59.4654 87.6655H57.751V82.4022H59.193C60.2665 82.4022 60.8033 82.8508 60.8033 83.7481C60.8033 84.3569 60.5549 84.7495 60.0502 84.9337C60.7392 85.0859 61.0837 85.5265 61.0837 86.2556C61.0837 87.1928 60.5469 87.6575 59.4734 87.6575L59.4654 87.6655ZM58.3839 84.7174H59.185C59.5215 84.7174 59.7698 84.6373 59.9301 84.4771C60.0903 84.3169 60.1704 84.0926 60.1704 83.8202C60.1704 83.5478 60.0903 83.3235 59.9301 83.1553C59.7698 82.987 59.5215 82.9069 59.185 82.9069H58.3839V84.7174ZM58.3839 87.1608H59.4574C59.7939 87.1608 60.0422 87.0727 60.2024 86.9044C60.3627 86.7282 60.4428 86.4959 60.4428 86.2075C60.4428 85.9191 60.3627 85.6788 60.2024 85.5025C60.0422 85.3263 59.7939 85.2381 59.4574 85.2381H58.3839V87.1688V87.1608Z" fill="black"/>
<path d="M62.79 87.6654H62.1732V83.5397H62.5417L62.766 84.2768C63.1024 83.74 63.5911 83.4676 64.24 83.4436V84.0124C63.5911 84.0364 63.1105 84.3088 62.79 84.8375V87.6735V87.6654Z" fill="black"/>
<path d="M67.3964 83.7159C67.6848 83.9242 67.829 84.3088 67.829 84.8856V87.6654H67.4204L67.2602 87.0245C66.7955 87.5212 66.2908 87.7695 65.7381 87.7695C65.3696 87.7695 65.1052 87.6734 64.937 87.4811C64.7687 87.2889 64.6806 87.0325 64.6806 86.7041C64.6806 86.3756 64.7848 86.1112 64.985 85.911C65.1853 85.7107 65.5698 85.5665 66.1386 85.4704L67.2121 85.2941V84.8856C67.2121 84.5331 67.14 84.2847 66.9878 84.1485C66.8356 84.0123 66.6273 83.9483 66.3629 83.9483C65.8342 83.9483 65.5218 84.2046 65.4176 84.7173L64.9129 84.5651C64.993 84.2126 65.1533 83.9322 65.3936 83.732C65.6419 83.5317 65.9704 83.4355 66.395 83.4355C66.8196 83.4355 67.148 83.5237 67.4044 83.7079L67.3964 83.7159ZM65.9143 87.2889C66.3469 87.2889 66.7795 87.0566 67.2121 86.5919V85.7267L66.1947 85.903C65.8502 85.9671 65.6179 86.0632 65.4897 86.1914C65.3615 86.3195 65.2975 86.4878 65.2975 86.672C65.2975 86.8563 65.3455 87.0085 65.4497 87.1207C65.5538 87.2328 65.706 87.2889 65.9143 87.2889Z" fill="black"/>
<path d="M71.7063 85.7828C71.8905 85.959 71.9867 86.2234 71.9867 86.5679C71.9867 86.9124 71.8585 87.2008 71.5941 87.4171C71.3378 87.6334 70.9532 87.7375 70.4405 87.7375C69.9278 87.7375 69.5593 87.6414 69.335 87.4491C69.1107 87.2568 68.9585 86.9684 68.9024 86.5999L69.4071 86.5198C69.4792 87.0085 69.8077 87.2488 70.3925 87.2488C71.0414 87.2488 71.3618 87.0325 71.3618 86.5919C71.3618 86.3997 71.3057 86.2555 71.1856 86.1673C71.0654 86.0792 70.8571 85.9911 70.5527 85.919L70.1441 85.8148C69.7275 85.7107 69.4311 85.5665 69.2549 85.3983C69.0786 85.222 68.9905 84.9657 68.9905 84.6052C68.9905 84.2447 69.1187 83.9723 69.367 83.756C69.6154 83.5397 69.9839 83.4355 70.4726 83.4355C70.9612 83.4355 71.3137 83.5317 71.53 83.732C71.7463 83.9242 71.8905 84.2126 71.9546 84.5811L71.4419 84.6612C71.3778 84.1726 71.0734 83.9322 70.5206 83.9322C69.9118 83.9322 69.6154 84.1485 69.6154 84.5891C69.6154 84.7814 69.6715 84.9256 69.7836 85.0217C69.8958 85.1179 70.088 85.198 70.3684 85.2701L70.785 85.3742C71.2176 85.4784 71.522 85.6226 71.7143 85.7988L71.7063 85.7828Z" fill="black"/>
<path d="M73.4287 82.8508C73.1804 82.8508 73.0602 82.7146 73.0602 82.4502C73.0602 82.1859 73.1804 82.0497 73.4287 82.0497C73.677 82.0497 73.8132 82.1859 73.8132 82.4502C73.8132 82.7146 73.6851 82.8508 73.4287 82.8508ZM73.1163 83.5397H73.7331V87.6655H73.1163V83.5397Z" fill="black"/>
<path d="M75.8881 87.6654H75.2712V82.2019L75.8881 82.1138V87.6654Z" fill="black"/>
<path d="M77.1379 87.5292C77.1058 87.4171 77.0898 87.3209 77.0898 87.2408C77.0898 87.1607 77.0898 87.0966 77.1058 87.0486C77.1138 87.0005 77.1539 86.9524 77.21 86.9044C77.2661 86.8563 77.3542 86.8323 77.4663 86.8323C77.5785 86.8323 77.6666 86.8563 77.7227 86.9044C77.7788 86.9524 77.8188 87.0005 77.8268 87.0486C77.8348 87.0966 77.8428 87.1848 77.8428 87.3129C77.8428 87.4411 77.8108 87.5853 77.7467 87.7375C77.6826 87.8897 77.5945 88.0259 77.4904 88.1461C77.3301 88.3223 77.194 88.4585 77.0738 88.5466L76.8895 88.3303C76.9536 88.2663 77.0097 88.2182 77.0417 88.1781C77.1379 88.066 77.1859 87.9298 77.1859 87.7616C77.1859 87.7135 77.1699 87.6334 77.1379 87.5212V87.5292Z" fill="black"/>
<path d="M83.01 87.6655H82.1688L80.5586 82.4022H81.2075L82.5854 87.0647L83.9713 82.4022H84.6122L83.01 87.6655Z" fill="black"/>
<path d="M85.8619 82.8508C85.6136 82.8508 85.4934 82.7146 85.4934 82.4502C85.4934 82.1859 85.6136 82.0497 85.8619 82.0497C86.1103 82.0497 86.2465 82.1859 86.2465 82.4502C86.2465 82.7146 86.1183 82.8508 85.8619 82.8508ZM85.5495 83.5397H86.1663V87.6655H85.5495V83.5397Z" fill="black"/>
<path d="M89.0744 87.7615C88.4415 87.7615 87.9929 87.5853 87.7285 87.2248C87.4561 86.8643 87.3279 86.3275 87.3279 85.5985C87.3279 84.1565 87.9047 83.4355 89.0503 83.4355C90.1959 83.4355 90.7487 84.1245 90.7487 85.5104V85.6626H87.9368C87.9368 86.2314 88.0249 86.64 88.1931 86.8883C88.3614 87.1367 88.6578 87.2568 89.0744 87.2568C89.7553 87.2568 90.1238 86.9845 90.1719 86.4237L90.6846 86.4557C90.5965 87.3289 90.0597 87.7615 89.0744 87.7615ZM89.8514 84.2687C89.6912 84.0524 89.4268 83.9402 89.0503 83.9402C88.6738 83.9402 88.4094 84.0524 88.2412 84.2767C88.073 84.501 87.9768 84.8135 87.9448 85.206H90.1238C90.0998 84.8054 90.0117 84.493 89.8514 84.2687Z" fill="black"/>
<path d="M91.2534 83.9643V83.5397H91.9583V82.7867L92.5752 82.5383V83.5317H93.4484V83.9563H92.5752V86.6881C92.5752 86.9044 92.6072 87.0566 92.6633 87.1447C92.7274 87.2328 92.8075 87.2809 92.9277 87.2809C93.0478 87.2809 93.184 87.2649 93.3523 87.2248L93.4244 87.6414C93.168 87.7215 92.9437 87.7535 92.7675 87.7535C92.5912 87.7535 92.439 87.7215 92.3268 87.6654C92.2147 87.6093 92.1266 87.5212 92.0785 87.4091C91.9984 87.2328 91.9583 87.0005 91.9583 86.7121V83.9563H91.2534V83.9643Z" fill="black"/>
<path d="M94.8984 83.9723C95.3871 83.6198 95.8598 83.4355 96.3324 83.4355C96.8051 83.4355 97.1335 83.5397 97.3258 83.756C97.5181 83.9723 97.6142 84.2927 97.6142 84.7334V87.6574H96.9973V84.7414C96.9973 84.453 96.9413 84.2447 96.8291 84.1245C96.717 84.0043 96.5327 83.9402 96.2763 83.9402C95.8277 83.9402 95.3951 84.1005 94.9785 84.4209V87.6574H94.3617V83.5317H94.7302L94.9064 83.9643L94.8984 83.9723Z" fill="black"/>
<path d="M101.403 83.7159C101.692 83.9242 101.836 84.3088 101.836 84.8856V87.6654H101.427L101.267 87.0245C100.803 87.5212 100.298 87.7695 99.7451 87.7695C99.3766 87.7695 99.1123 87.6734 98.944 87.4811C98.7758 87.2889 98.6877 87.0325 98.6877 86.7041C98.6877 86.3756 98.7918 86.1112 98.9921 85.911C99.1924 85.7107 99.5769 85.5665 100.146 85.4704L101.219 85.2941V84.8856C101.219 84.5331 101.147 84.2847 100.995 84.1485C100.843 84.0123 100.634 83.9483 100.37 83.9483C99.8413 83.9483 99.5288 84.2046 99.4247 84.7173L98.92 84.5651C99.0001 84.2126 99.1603 83.9322 99.4007 83.732C99.649 83.5317 99.9775 83.4355 100.402 83.4355C100.827 83.4355 101.155 83.5237 101.411 83.7079L101.403 83.7159ZM99.9214 87.2889C100.354 87.2889 100.787 87.0566 101.219 86.5919V85.7267L100.202 85.903C99.8573 85.9671 99.625 86.0632 99.4968 86.1914C99.3686 86.3195 99.3045 86.4878 99.3045 86.672C99.3045 86.8563 99.3526 87.0085 99.4567 87.1207C99.5609 87.2328 99.7131 87.2889 99.9214 87.2889Z" fill="black"/>
<path d="M105.161 83.4355C105.721 83.4355 106.09 83.6278 106.282 84.0043C106.458 83.8441 106.675 83.7079 106.923 83.6038C107.171 83.4916 107.428 83.4355 107.692 83.4355C108.525 83.4355 108.95 83.8681 108.95 84.7253V87.6574H108.333V84.7574C108.333 84.485 108.277 84.2847 108.157 84.1485C108.045 84.0123 107.852 83.9402 107.596 83.9402C107.171 83.9402 106.771 84.1005 106.41 84.4289C106.426 84.5251 106.434 84.6212 106.434 84.7253V87.6574H105.818V84.7574C105.818 84.485 105.761 84.2847 105.641 84.1485C105.529 84.0123 105.337 83.9402 105.073 83.9402C104.656 83.9402 104.271 84.0925 103.919 84.3969V87.6654H103.302V83.5397H103.687L103.847 83.9483C104.247 83.6038 104.696 83.4355 105.177 83.4355H105.161Z" fill="black"/>
<path d="M110.119 87.5292C110.087 87.4171 110.071 87.3209 110.071 87.2408C110.071 87.1607 110.071 87.0966 110.087 87.0486C110.095 87.0005 110.136 86.9524 110.192 86.9044C110.248 86.8563 110.336 86.8323 110.448 86.8323C110.56 86.8323 110.648 86.8563 110.704 86.9044C110.76 86.9524 110.8 87.0005 110.808 87.0486C110.816 87.0966 110.824 87.1848 110.824 87.3129C110.824 87.4411 110.792 87.5853 110.728 87.7375C110.664 87.8897 110.576 88.0259 110.472 88.1461C110.312 88.3223 110.176 88.4585 110.055 88.5466L109.871 88.3303C109.935 88.2663 109.991 88.2182 110.023 88.1781C110.12 88.066 110.168 87.9298 110.168 87.7616C110.168 87.7135 110.152 87.6334 110.119 87.5212V87.5292Z" fill="black"/>
<path d="M117.097 82.4022H117.73V85.9271C117.73 86.2475 117.69 86.5279 117.618 86.7603C117.538 86.9926 117.45 87.1688 117.329 87.297C117.217 87.4252 117.073 87.5293 116.897 87.6014C116.721 87.6735 116.552 87.7216 116.4 87.7456C116.248 87.7616 116.072 87.7777 115.871 87.7777C115.671 87.7777 115.495 87.7696 115.343 87.7456C115.19 87.7296 115.03 87.6815 114.854 87.6014C114.678 87.5293 114.534 87.4252 114.421 87.297C114.309 87.1688 114.213 86.9926 114.133 86.7603C114.053 86.5279 114.021 86.2555 114.021 85.9271V82.4022H114.654V85.9031C114.654 86.4638 114.79 86.8323 115.054 87.0166C115.182 87.1047 115.311 87.1608 115.439 87.1928C115.567 87.2249 115.711 87.2329 115.879 87.2329C116.048 87.2329 116.2 87.2169 116.32 87.1928C116.448 87.1608 116.568 87.1047 116.705 87.0166C116.969 86.8404 117.105 86.4718 117.105 85.9031V82.4022H117.097Z" fill="black"/>
<path d="M121.199 86.2315C120.991 86.3196 120.742 86.3597 120.454 86.3597C120.165 86.3597 119.909 86.3196 119.693 86.2315L119.364 86.5519C119.252 86.6561 119.196 86.7763 119.196 86.9124C119.196 87.0887 119.308 87.1768 119.525 87.1768H121.143C121.495 87.1768 121.768 87.2729 121.968 87.4572C122.168 87.6415 122.264 87.8738 122.264 88.1462C122.264 88.4185 122.208 88.6348 122.104 88.7951C122 88.9553 121.848 89.0754 121.647 89.1556C121.303 89.2837 120.862 89.3478 120.318 89.3478C119.773 89.3478 119.356 89.2757 119.06 89.1315C118.763 88.9873 118.619 88.755 118.619 88.4185C118.619 88.0821 118.763 87.8177 119.052 87.6094C118.779 87.5053 118.643 87.297 118.643 86.9926C118.643 86.7602 118.747 86.5439 118.948 86.3437L119.292 85.9992C119.036 85.7508 118.908 85.3903 118.908 84.9097C118.908 84.5251 119.004 84.1967 119.204 83.9243C119.308 83.7801 119.468 83.668 119.677 83.5798C119.885 83.4917 120.125 83.4517 120.406 83.4517C120.686 83.4517 120.918 83.4837 121.111 83.5558H122.2V83.9644H121.688C121.872 84.2127 121.96 84.5332 121.96 84.9177C121.96 85.3022 121.864 85.6307 121.663 85.9031C121.559 86.0473 121.399 86.1594 121.191 86.2475L121.199 86.2315ZM119.212 88.2503C119.212 88.4906 119.308 88.6428 119.509 88.723C119.709 88.8031 120.013 88.8351 120.43 88.8351C120.846 88.8351 121.151 88.7951 121.343 88.7069C121.535 88.6268 121.631 88.4426 121.631 88.1782C121.631 87.9939 121.567 87.8578 121.423 87.7776C121.287 87.6975 121.127 87.6575 120.942 87.6575H119.5C119.3 87.8177 119.204 88.018 119.204 88.2503H119.212ZM120.438 83.8762C119.821 83.8762 119.509 84.2127 119.509 84.8937C119.509 85.5746 119.821 85.9111 120.438 85.9111C121.055 85.9111 121.367 85.5746 121.367 84.8937C121.367 84.2127 121.063 83.8762 120.438 83.8762Z" fill="black"/>
<path d="M125.613 83.7159C125.901 83.9242 126.046 84.3088 126.046 84.8856V87.6654H125.637L125.477 87.0245C125.012 87.5212 124.507 87.7695 123.955 87.7695C123.586 87.7695 123.322 87.6734 123.154 87.4811C122.985 87.2889 122.897 87.0325 122.897 86.7041C122.897 86.3756 123.001 86.1112 123.202 85.911C123.402 85.7107 123.786 85.5665 124.355 85.4704L125.429 85.2941V84.8856C125.429 84.5331 125.357 84.2847 125.204 84.1485C125.052 84.0123 124.844 83.9483 124.579 83.9483C124.051 83.9483 123.738 84.2046 123.634 84.7173L123.129 84.5651C123.21 84.2126 123.37 83.9322 123.61 83.732C123.858 83.5317 124.187 83.4355 124.612 83.4355C125.036 83.4355 125.365 83.5237 125.621 83.7079L125.613 83.7159ZM124.131 87.2889C124.563 87.2889 124.996 87.0566 125.429 86.5919V85.7267L124.411 85.903C124.067 85.9671 123.834 86.0632 123.706 86.1914C123.578 86.3195 123.514 86.4878 123.514 86.672C123.514 86.8563 123.562 87.0085 123.666 87.1207C123.77 87.2328 123.923 87.2889 124.131 87.2889Z" fill="black"/>
<path d="M128.04 83.9723C128.529 83.6198 129.002 83.4355 129.474 83.4355C129.947 83.4355 130.275 83.5397 130.468 83.756C130.66 83.9723 130.756 84.2927 130.756 84.7334V87.6574H130.139V84.7414C130.139 84.453 130.083 84.2447 129.971 84.1245C129.859 84.0043 129.675 83.9402 129.418 83.9402C128.97 83.9402 128.537 84.1005 128.12 84.4209V87.6574H127.504V83.5317H127.872L128.048 83.9643L128.04 83.9723Z" fill="black"/>
<path d="M133.167 87.7615C132.286 87.7615 131.838 87.0405 131.838 85.5985C131.838 84.1565 132.374 83.4355 133.448 83.4355C133.816 83.4355 134.201 83.5317 134.585 83.7159V82.1938L135.202 82.1217V87.6574H134.794L134.617 87.0325C134.177 87.5212 133.696 87.7615 133.167 87.7615ZM133.368 87.2568C133.8 87.2568 134.209 87.0245 134.585 86.5679V84.2126C134.241 84.0283 133.896 83.9322 133.568 83.9322C133.167 83.9322 132.879 84.0764 132.711 84.3728C132.542 84.6692 132.454 85.0778 132.454 85.6065C132.454 86.7121 132.759 87.2648 133.36 87.2648L133.368 87.2568Z" fill="black"/>
<path d="M139.072 83.7159C139.36 83.9242 139.504 84.3088 139.504 84.8856V87.6654H139.096L138.935 87.0245C138.471 87.5212 137.966 87.7695 137.413 87.7695C137.045 87.7695 136.78 87.6734 136.612 87.4811C136.444 87.2889 136.356 87.0325 136.356 86.7041C136.356 86.3756 136.46 86.1112 136.66 85.911C136.86 85.7107 137.245 85.5665 137.814 85.4704L138.887 85.2941V84.8856C138.887 84.5331 138.815 84.2847 138.663 84.1485C138.511 84.0123 138.302 83.9483 138.038 83.9483C137.509 83.9483 137.197 84.2046 137.093 84.7173L136.588 84.5651C136.668 84.2126 136.828 83.9322 137.069 83.732C137.317 83.5317 137.646 83.4355 138.07 83.4355C138.495 83.4355 138.823 83.5237 139.08 83.7079L139.072 83.7159ZM137.589 87.2889C138.022 87.2889 138.455 87.0566 138.887 86.5919V85.7267L137.87 85.903C137.525 85.9671 137.293 86.0632 137.165 86.1914C137.037 86.3195 136.973 86.4878 136.973 86.672C136.973 86.8563 137.021 87.0085 137.125 87.1207C137.229 87.2328 137.381 87.2889 137.589 87.2889Z" fill="black"/>
<path d="M141.387 87.4892C141.379 87.5453 141.339 87.5933 141.275 87.6414C141.211 87.6895 141.122 87.7135 141.01 87.7135C140.898 87.7135 140.81 87.6895 140.754 87.6414C140.69 87.5933 140.658 87.5453 140.65 87.4892C140.642 87.4331 140.634 87.369 140.634 87.2969C140.634 87.2248 140.634 87.1607 140.642 87.1207C140.65 87.0806 140.666 87.0326 140.69 86.9845C140.73 86.8803 140.834 86.8323 141.01 86.8323C141.186 86.8323 141.291 86.8723 141.339 86.9524C141.387 87.0325 141.411 87.1287 141.411 87.2408C141.411 87.353 141.411 87.4411 141.395 87.4892H141.387Z" fill="black"/>
<path d="M57.751 98.4244H60.5469V98.9291H58.3839V100.764H60.3947V101.268H58.3839V103.183H60.6911V103.688H57.751V98.4244Z" fill="black"/>
<path d="M64.2079 101.805C64.3922 101.981 64.4883 102.246 64.4883 102.59C64.4883 102.935 64.3601 103.223 64.0958 103.439C63.8394 103.656 63.4549 103.76 62.9422 103.76C62.4295 103.76 62.061 103.664 61.8366 103.471C61.6123 103.279 61.4601 102.991 61.4041 102.622L61.9087 102.542C61.9808 103.031 62.3093 103.271 62.8941 103.271C63.543 103.271 63.8635 103.055 63.8635 102.614C63.8635 102.422 63.8074 102.278 63.6872 102.19C63.567 102.101 63.3588 102.013 63.0543 101.941L62.6458 101.837C62.2292 101.733 61.9328 101.589 61.7565 101.42C61.5803 101.244 61.4922 100.988 61.4922 100.627C61.4922 100.267 61.6203 99.9945 61.8687 99.7782C62.117 99.5619 62.4855 99.4578 62.9742 99.4578C63.4629 99.4578 63.8154 99.5539 64.0317 99.7542C64.248 99.9464 64.3922 100.235 64.4563 100.603L63.9436 100.683C63.8795 100.195 63.575 99.9545 63.0223 99.9545C62.4134 99.9545 62.117 100.171 62.117 100.611C62.117 100.804 62.1731 100.948 62.2853 101.044C62.3974 101.14 62.5897 101.22 62.8701 101.292L63.2867 101.396C63.7192 101.501 64.0237 101.645 64.2159 101.821L64.2079 101.805Z" fill="black"/>
<path d="M67.4364 99.4578C68.4779 99.4578 68.9906 100.179 68.9906 101.621C68.9906 103.063 68.4538 103.784 67.3723 103.784C67.0199 103.784 66.6433 103.712 66.2428 103.559V105.282L65.6259 105.37V99.5619H65.9944L66.1386 99.9224C66.5552 99.618 66.9878 99.4578 67.4364 99.4578ZM68.1254 100.435C67.9572 100.123 67.6928 99.9625 67.3163 99.9625C66.9397 99.9625 66.5872 100.083 66.2508 100.331V103.095C66.5472 103.223 66.8917 103.279 67.2682 103.279C68.0052 103.279 68.3817 102.726 68.3817 101.621C68.3817 101.148 68.3016 100.748 68.1334 100.435H68.1254Z" fill="black"/>
<path d="M71.522 103.784C70.8892 103.784 70.4406 103.608 70.1762 103.247C69.9038 102.887 69.7756 102.35 69.7756 101.621C69.7756 100.179 70.3524 99.4578 71.498 99.4578C72.6436 99.4578 73.1964 100.147 73.1964 101.533V101.685H70.3845C70.3845 102.254 70.4726 102.662 70.6408 102.911C70.8091 103.159 71.1055 103.279 71.522 103.279C72.203 103.279 72.5715 103.007 72.6196 102.446L73.1323 102.478C73.0442 103.351 72.5074 103.784 71.522 103.784ZM72.2991 100.291C72.1389 100.075 71.8745 99.9625 71.498 99.9625C71.1215 99.9625 70.8571 100.075 70.6889 100.299C70.5207 100.523 70.4245 100.836 70.3925 101.228H72.5715C72.5475 100.828 72.4593 100.515 72.2991 100.291Z" fill="black"/>
<path d="M74.5583 101.621C74.5583 101.853 74.5743 102.069 74.5983 102.246C74.6304 102.43 74.6784 102.598 74.7585 102.766C74.9188 103.111 75.2152 103.279 75.6558 103.279C76.0163 103.279 76.2726 103.207 76.4329 103.063C76.5931 102.919 76.6732 102.71 76.6892 102.43L77.1939 102.454C77.1619 102.879 77.0257 103.207 76.7934 103.439C76.561 103.672 76.1765 103.784 75.6398 103.784C74.8867 103.784 74.382 103.479 74.1417 102.862C74.0055 102.526 73.9414 102.158 73.9414 101.757C73.9414 101.356 73.9654 101.036 74.0135 100.804C74.0616 100.563 74.1497 100.339 74.2618 100.123C74.5102 99.6821 74.9748 99.4578 75.6398 99.4578C76.1765 99.4578 76.561 99.5699 76.7934 99.7862C77.0257 100.003 77.1619 100.323 77.1939 100.732L76.6972 100.804C76.6812 100.523 76.6011 100.315 76.4409 100.171C76.2806 100.027 76.0243 99.9625 75.6638 99.9625C75.2232 99.9625 74.9188 100.131 74.7665 100.475C74.6304 100.756 74.5663 101.14 74.5663 101.621H74.5583Z" fill="black"/>
<path d="M78.5879 98.873C78.3395 98.873 78.2194 98.7368 78.2194 98.4725C78.2194 98.2081 78.3395 98.0719 78.5879 98.0719C78.8362 98.0719 78.9724 98.2081 78.9724 98.4725C78.9724 98.7368 78.8442 98.873 78.5879 98.873ZM78.2754 99.562H78.8923V103.688H78.2754V99.562Z" fill="black"/>
<path d="M82.7617 99.7382C83.0501 99.9464 83.1943 100.331 83.1943 100.908V103.688H82.7857L82.6255 103.047C82.1608 103.543 81.6561 103.792 81.1034 103.792C80.7349 103.792 80.4705 103.696 80.3023 103.503C80.134 103.311 80.0459 103.055 80.0459 102.726C80.0459 102.398 80.15 102.133 80.3503 101.933C80.5506 101.733 80.9351 101.589 81.5039 101.493L82.5774 101.316V100.908C82.5774 100.555 82.5053 100.307 82.3531 100.171C82.2009 100.035 81.9926 99.9705 81.7282 99.9705C81.1995 99.9705 80.8871 100.227 80.7829 100.74L80.2782 100.587C80.3583 100.235 80.5186 99.9545 80.7589 99.7542C81.0072 99.5539 81.3357 99.4578 81.7603 99.4578C82.1849 99.4578 82.5133 99.5459 82.7697 99.7301L82.7617 99.7382ZM81.2796 103.311C81.7122 103.311 82.1448 103.079 82.5774 102.614V101.749L81.56 101.925C81.2155 101.989 80.9832 102.085 80.855 102.214C80.7268 102.342 80.6628 102.51 80.6628 102.694C80.6628 102.879 80.7108 103.031 80.815 103.143C80.9191 103.255 81.0713 103.311 81.2796 103.311Z" fill="black"/>
<path d="M87.0716 101.805C87.2559 101.981 87.352 102.246 87.352 102.59C87.352 102.935 87.2239 103.223 86.9595 103.439C86.7031 103.656 86.3186 103.76 85.8059 103.76C85.2932 103.76 84.9247 103.664 84.7004 103.471C84.476 103.279 84.3238 102.991 84.2678 102.622L84.7725 102.542C84.8446 103.031 85.173 103.271 85.7578 103.271C86.4067 103.271 86.7272 103.055 86.7272 102.614C86.7272 102.422 86.6711 102.278 86.5509 102.19C86.4308 102.101 86.2225 102.013 85.918 101.941L85.5095 101.837C85.0929 101.733 84.7965 101.589 84.6203 101.42C84.444 101.244 84.3559 100.988 84.3559 100.627C84.3559 100.267 84.4841 99.9945 84.7324 99.7782C84.9807 99.5619 85.3493 99.4578 85.8379 99.4578C86.3266 99.4578 86.6791 99.5539 86.8954 99.7542C87.1117 99.9464 87.2559 100.235 87.32 100.603L86.8073 100.683C86.7432 100.195 86.4388 99.9545 85.886 99.9545C85.2772 99.9545 84.9807 100.171 84.9807 100.611C84.9807 100.804 85.0368 100.948 85.149 101.044C85.2611 101.14 85.4534 101.22 85.7338 101.292L86.1504 101.396C86.583 101.501 86.8874 101.645 87.0796 101.821L87.0716 101.805Z" fill="black"/>
<path d="M88.2012 103.551C88.1691 103.439 88.1531 103.343 88.1531 103.263C88.1531 103.183 88.1531 103.119 88.1691 103.071C88.1771 103.023 88.2172 102.975 88.2733 102.927C88.3293 102.879 88.4175 102.854 88.5296 102.854C88.6418 102.854 88.7299 102.879 88.786 102.927C88.842 102.975 88.8821 103.023 88.8901 103.071C88.8981 103.119 88.9061 103.207 88.9061 103.335C88.9061 103.463 88.8741 103.608 88.81 103.76C88.7459 103.912 88.6578 104.048 88.5537 104.168C88.3934 104.345 88.2572 104.481 88.1371 104.569L87.9528 104.353C88.0169 104.288 88.073 104.24 88.105 104.2C88.2012 104.088 88.2492 103.952 88.2492 103.784C88.2492 103.736 88.2332 103.656 88.2012 103.543V103.551Z" fill="black"/>
<path d="M94.0733 99.4578C94.6341 99.4578 95.0026 99.65 95.1948 100.027C95.3711 99.8663 95.5874 99.7301 95.8357 99.626C96.0841 99.5138 96.3404 99.4578 96.6048 99.4578C97.4379 99.4578 97.8625 99.8904 97.8625 100.748V103.68H97.2457V100.78C97.2457 100.507 97.1896 100.307 97.0694 100.171C96.9573 100.035 96.765 99.9625 96.5087 99.9625C96.0841 99.9625 95.6835 100.123 95.323 100.451C95.339 100.547 95.3471 100.643 95.3471 100.748V103.68H94.7302V100.78C94.7302 100.507 94.6741 100.307 94.554 100.171C94.4418 100.035 94.2495 99.9625 93.9852 99.9625C93.5686 99.9625 93.1841 100.115 92.8316 100.419V103.688H92.2147V99.5619H92.5993L92.7595 99.9705C93.16 99.626 93.6086 99.4578 94.0893 99.4578H94.0733Z" fill="black"/>
<path d="M101.652 99.7382C101.94 99.9464 102.084 100.331 102.084 100.908V103.688H101.676L101.516 103.047C101.051 103.543 100.546 103.792 99.9935 103.792C99.625 103.792 99.3606 103.696 99.1924 103.503C99.0241 103.311 98.936 103.055 98.936 102.726C98.936 102.398 99.0402 102.133 99.2404 101.933C99.4407 101.733 99.8252 101.589 100.394 101.493L101.468 101.316V100.908C101.468 100.555 101.395 100.307 101.243 100.171C101.091 100.035 100.883 99.9705 100.618 99.9705C100.09 99.9705 99.7772 100.227 99.673 100.74L99.1683 100.587C99.2484 100.235 99.4087 99.9545 99.649 99.7542C99.8974 99.5539 100.226 99.4578 100.65 99.4578C101.075 99.4578 101.403 99.5459 101.66 99.7301L101.652 99.7382ZM100.17 103.311C100.602 103.311 101.035 103.079 101.468 102.614V101.749L100.45 101.925C100.106 101.989 99.8733 102.085 99.7451 102.214C99.617 102.342 99.5529 102.51 99.5529 102.694C99.5529 102.879 99.6009 103.031 99.7051 103.143C99.8092 103.255 99.9614 103.311 100.17 103.311Z" fill="black"/>
<path d="M104.488 103.784C103.606 103.784 103.158 103.063 103.158 101.621C103.158 100.179 103.695 99.4577 104.768 99.4577C105.137 99.4577 105.521 99.5539 105.906 99.7381V98.216L106.523 98.1439V103.68H106.114L105.938 103.055C105.497 103.543 105.016 103.784 104.488 103.784ZM104.688 103.279C105.121 103.279 105.529 103.047 105.906 102.59V100.235C105.561 100.051 105.217 99.9544 104.888 99.9544C104.488 99.9544 104.199 100.099 104.031 100.395C103.863 100.691 103.775 101.1 103.775 101.629C103.775 102.734 104.079 103.287 104.68 103.287L104.688 103.279Z" fill="black"/>
<path d="M109.439 103.784C108.806 103.784 108.357 103.608 108.093 103.247C107.82 102.887 107.692 102.35 107.692 101.621C107.692 100.179 108.269 99.4578 109.415 99.4578C110.56 99.4578 111.113 100.147 111.113 101.533V101.685H108.301C108.301 102.254 108.389 102.662 108.557 102.911C108.726 103.159 109.022 103.279 109.439 103.279C110.119 103.279 110.488 103.007 110.536 102.446L111.049 102.478C110.961 103.351 110.424 103.784 109.439 103.784ZM110.216 100.291C110.055 100.075 109.791 99.9625 109.415 99.9625C109.038 99.9625 108.774 100.075 108.605 100.299C108.437 100.523 108.341 100.836 108.309 101.228H110.488C110.464 100.828 110.376 100.515 110.216 100.291Z" fill="black"/>
<path d="M112.851 103.688H112.234V99.5619H112.603L112.827 100.299C113.164 99.7622 113.652 99.4899 114.301 99.4658V100.035C113.652 100.059 113.172 100.331 112.851 100.86V103.696V103.688Z" fill="black"/>
<path d="M117.458 99.7382C117.746 99.9464 117.89 100.331 117.89 100.908V103.688H117.482L117.321 103.047C116.857 103.543 116.352 103.792 115.799 103.792C115.431 103.792 115.166 103.696 114.998 103.503C114.83 103.311 114.742 103.055 114.742 102.726C114.742 102.398 114.846 102.133 115.046 101.933C115.247 101.733 115.631 101.589 116.2 101.493L117.273 101.316V100.908C117.273 100.555 117.201 100.307 117.049 100.171C116.897 100.035 116.689 99.9705 116.424 99.9705C115.895 99.9705 115.583 100.227 115.479 100.74L114.974 100.587C115.054 100.235 115.215 99.9545 115.455 99.7542C115.703 99.5539 116.032 99.4578 116.456 99.4578C116.881 99.4578 117.209 99.5459 117.466 99.7301L117.458 99.7382ZM115.976 103.311C116.408 103.311 116.841 103.079 117.273 102.614V101.749L116.256 101.925C115.912 101.989 115.679 102.085 115.551 102.214C115.423 102.342 115.359 102.51 115.359 102.694C115.359 102.879 115.407 103.031 115.511 103.143C115.615 103.255 115.767 103.311 115.976 103.311Z" fill="black"/>
<path d="M58.5842 114.262L58.0234 114.158L58.6563 112.524L57.1021 108.374H57.743L58.9607 111.715L60.1463 108.374H60.7792L58.5842 114.262Z" fill="black"/>
<path d="M63.1425 108.799V108.374H63.8475V107.621L64.4643 107.373V108.366H65.3375V108.791H64.4643V111.522C64.4643 111.739 64.4964 111.891 64.5525 111.979C64.6166 112.067 64.6967 112.115 64.8168 112.115C64.937 112.115 65.0732 112.099 65.2414 112.059L65.3135 112.476C65.0572 112.556 64.8329 112.588 64.6566 112.588C64.4804 112.588 64.3282 112.556 64.216 112.5C64.1038 112.444 64.0157 112.356 63.9677 112.243C63.8875 112.067 63.8475 111.835 63.8475 111.546V108.791H63.1425V108.799Z" fill="black"/>
<path d="M68.582 108.55C68.8704 108.759 69.0146 109.143 69.0146 109.72V112.5H68.6061L68.4458 111.859C67.9812 112.356 67.4765 112.604 66.9237 112.604C66.5552 112.604 66.2909 112.508 66.1226 112.315C65.9544 112.123 65.8663 111.867 65.8663 111.538C65.8663 111.21 65.9704 110.946 66.1707 110.745C66.371 110.545 66.7555 110.401 67.3243 110.305L68.3978 110.128V109.72C68.3978 109.367 68.3257 109.119 68.1735 108.983C68.0213 108.847 67.813 108.783 67.5486 108.783C67.0199 108.783 66.7074 109.039 66.6033 109.552L66.0986 109.399C66.1787 109.047 66.3389 108.767 66.5793 108.566C66.8276 108.366 67.1561 108.27 67.5806 108.27C68.0052 108.27 68.3337 108.358 68.59 108.542L68.582 108.55ZM67.1 112.123C67.5326 112.123 67.9652 111.891 68.3978 111.426V110.561L67.3804 110.737C67.0359 110.801 66.8036 110.898 66.6754 111.026C66.5472 111.154 66.4831 111.322 66.4831 111.506C66.4831 111.691 66.5312 111.843 66.6353 111.955C66.7395 112.067 66.8917 112.123 67.1 112.123Z" fill="black"/>
<path d="M72.2751 112.596C71.8265 112.596 71.3859 112.452 70.9693 112.155L70.8331 112.492H70.4646V107.028L71.0814 106.956V108.606C71.498 108.382 71.8906 108.27 72.2751 108.27C73.3165 108.27 73.8293 108.991 73.8293 110.433C73.8293 111.875 73.3085 112.596 72.2751 112.596ZM72.1629 108.775C71.7944 108.775 71.4339 108.879 71.0895 109.087V111.755C71.4179 111.979 71.7624 112.091 72.1069 112.091C72.8439 112.091 73.2204 111.539 73.2204 110.433C73.2204 110.129 73.1884 109.864 73.1323 109.624C73.0762 109.384 72.9641 109.191 72.7958 109.023C72.6356 108.855 72.4273 108.775 72.171 108.775H72.1629Z" fill="black"/>
<path d="M77.3221 108.55C77.6105 108.759 77.7547 109.143 77.7547 109.72V112.5H77.3461L77.1859 111.859C76.7213 112.356 76.2165 112.604 75.6638 112.604C75.2953 112.604 75.0309 112.508 74.8627 112.315C74.6944 112.123 74.6063 111.867 74.6063 111.538C74.6063 111.21 74.7105 110.946 74.9107 110.745C75.111 110.545 75.4955 110.401 76.0643 110.305L77.1378 110.128V109.72C77.1378 109.367 77.0657 109.119 76.9135 108.983C76.7613 108.847 76.553 108.783 76.2886 108.783C75.7599 108.783 75.4475 109.039 75.3433 109.552L74.8386 109.399C74.9188 109.047 75.079 108.767 75.3193 108.566C75.5677 108.366 75.8961 108.27 76.3207 108.27C76.7453 108.27 77.0737 108.358 77.3301 108.542L77.3221 108.55ZM75.84 112.123C76.2726 112.123 76.7052 111.891 77.1378 111.426V110.561L76.1204 110.737C75.7759 110.801 75.5436 110.898 75.4154 111.026C75.2873 111.154 75.2232 111.322 75.2232 111.506C75.2232 111.691 75.2712 111.843 75.3754 111.955C75.4795 112.067 75.6317 112.123 75.84 112.123Z" fill="black"/>
<path d="M79.4611 110.433C79.4611 110.665 79.4771 110.882 79.5012 111.058C79.5332 111.242 79.5813 111.41 79.6614 111.578C79.8216 111.923 80.118 112.091 80.5586 112.091C80.9191 112.091 81.1755 112.019 81.3357 111.875C81.4959 111.731 81.576 111.522 81.592 111.242L82.0967 111.266C82.0647 111.691 81.9285 112.019 81.6962 112.251C81.4639 112.484 81.0793 112.596 80.5426 112.596C79.7896 112.596 79.2848 112.291 79.0445 111.675C78.9083 111.338 78.8442 110.97 78.8442 110.569C78.8442 110.169 78.8683 109.848 78.9163 109.616C78.9644 109.375 79.0525 109.151 79.1647 108.935C79.413 108.494 79.8777 108.27 80.5426 108.27C81.0793 108.27 81.4639 108.382 81.6962 108.598C81.9285 108.815 82.0647 109.135 82.0967 109.544L81.6001 109.616C81.584 109.335 81.5039 109.127 81.3437 108.983C81.1835 108.839 80.9271 108.775 80.5666 108.775C80.126 108.775 79.8216 108.943 79.6694 109.287C79.5332 109.568 79.4691 109.952 79.4691 110.433H79.4611Z" fill="black"/>
<path d="M86.3826 110.433C86.3826 111.875 85.7898 112.596 84.5962 112.596C83.4025 112.596 82.8097 111.875 82.8097 110.433C82.8097 108.991 83.4025 108.27 84.5962 108.27C85.7898 108.27 86.3826 108.991 86.3826 110.433ZM83.9953 111.955C84.1556 112.043 84.3558 112.091 84.5962 112.091C84.8365 112.091 85.0368 112.043 85.197 111.955C85.3572 111.867 85.4774 111.739 85.5575 111.57C85.6376 111.402 85.6857 111.234 85.7177 111.05C85.7498 110.874 85.7658 110.665 85.7658 110.425C85.7658 110.185 85.7498 109.984 85.7177 109.8C85.6857 109.616 85.6296 109.448 85.5575 109.279C85.4774 109.111 85.3652 108.983 85.197 108.895C85.0288 108.807 84.8365 108.759 84.5962 108.759C84.3558 108.759 84.1556 108.799 83.9953 108.895C83.8351 108.983 83.7149 109.111 83.6348 109.279C83.5547 109.448 83.4986 109.616 83.4746 109.792C83.4426 109.968 83.4346 110.177 83.4346 110.417C83.4346 110.657 83.4506 110.865 83.4746 111.042C83.5066 111.218 83.5547 111.394 83.6348 111.554C83.7149 111.715 83.8351 111.851 83.9953 111.939V111.955Z" fill="black"/>
<path d="M87.9608 112.324C87.9528 112.38 87.9127 112.428 87.8487 112.476C87.7846 112.524 87.6964 112.548 87.5843 112.548C87.4721 112.548 87.384 112.524 87.3279 112.476C87.2638 112.428 87.2318 112.38 87.2238 112.324C87.2158 112.267 87.2078 112.203 87.2078 112.131C87.2078 112.059 87.2078 111.995 87.2158 111.955C87.2238 111.915 87.2398 111.867 87.2638 111.819C87.3039 111.715 87.408 111.667 87.5843 111.667C87.7605 111.667 87.8647 111.707 87.9127 111.787C87.9608 111.867 87.9848 111.963 87.9848 112.075C87.9848 112.187 87.9848 112.275 87.9688 112.324H87.9608Z" fill="black"/>
</svg>
