<svg width="135" height="115" viewBox="0 0 135 115" fill="none" xmlns="http://www.w3.org/2000/svg">
<g id="Group">
<g id="Group_2">
<path id="Vector" d="M59.8578 7.83503C61.5081 7.83503 62.846 6.4972 62.846 4.8469C62.846 3.1966 61.5081 1.85876 59.8578 1.85876C58.2075 1.85876 56.8697 3.1966 56.8697 4.8469C56.8697 6.4972 58.2075 7.83503 59.8578 7.83503Z" fill="#702E3E"/>
<path id="Vector_2" d="M67.8689 7.83503C69.5192 7.83503 70.8571 6.4972 70.8571 4.8469C70.8571 3.1966 69.5192 1.85876 67.8689 1.85876C66.2186 1.85876 64.8808 3.1966 64.8808 4.8469C64.8808 6.4972 66.2186 7.83503 67.8689 7.83503Z" fill="#702E3E"/>
<path id="Vector_3" d="M75.88 7.83503C77.5303 7.83503 78.8681 6.4972 78.8681 4.8469C78.8681 3.1966 77.5303 1.85876 75.88 1.85876C74.2297 1.85876 72.8918 3.1966 72.8918 4.8469C72.8918 6.4972 74.2297 7.83503 75.88 7.83503Z" fill="#702E3E"/>
<path id="Vector_4" d="M83.8911 7.83503C85.5414 7.83503 86.8792 6.4972 86.8792 4.8469C86.8792 3.1966 85.5414 1.85876 83.8911 1.85876C82.2408 1.85876 80.903 3.1966 80.903 4.8469C80.903 6.4972 82.2408 7.83503 83.8911 7.83503Z" fill="#702E3E"/>
<path id="Vector_5" d="M91.9022 7.83503C93.5525 7.83503 94.8903 6.4972 94.8903 4.8469C94.8903 3.1966 93.5525 1.85876 91.9022 1.85876C90.2519 1.85876 88.9141 3.1966 88.9141 4.8469C88.9141 6.4972 90.2519 7.83503 91.9022 7.83503Z" fill="#702E3E"/>
<path id="Vector_6" d="M99.9133 7.83503C101.564 7.83503 102.901 6.4972 102.901 4.8469C102.901 3.1966 101.564 1.85876 99.9133 1.85876C98.263 1.85876 96.9251 3.1966 96.9251 4.8469C96.9251 6.4972 98.263 7.83503 99.9133 7.83503Z" fill="#702E3E"/>
<path id="Vector_7" d="M107.924 7.83503C109.575 7.83503 110.912 6.4972 110.912 4.8469C110.912 3.1966 109.575 1.85876 107.924 1.85876C106.274 1.85876 104.936 3.1966 104.936 4.8469C104.936 6.4972 106.274 7.83503 107.924 7.83503Z" fill="#702E3E"/>
<path id="Vector_8" d="M115.935 7.83503C117.586 7.83503 118.924 6.4972 118.924 4.8469C118.924 3.1966 117.586 1.85876 115.935 1.85876C114.285 1.85876 112.947 3.1966 112.947 4.8469C112.947 6.4972 114.285 7.83503 115.935 7.83503Z" fill="#702E3E"/>
<path id="Vector_9" d="M123.947 7.83503C125.597 7.83503 126.935 6.4972 126.935 4.8469C126.935 3.1966 125.597 1.85876 123.947 1.85876C122.296 1.85876 120.958 3.1966 120.958 4.8469C120.958 6.4972 122.296 7.83503 123.947 7.83503Z" fill="#702E3E"/>
<path id="Vector_10" d="M131.958 7.83503C133.608 7.83503 134.946 6.4972 134.946 4.8469C134.946 3.1966 133.608 1.85876 131.958 1.85876C130.307 1.85876 128.969 3.1966 128.969 4.8469C128.969 6.4972 130.307 7.83503 131.958 7.83503Z" fill="#702E3E"/>
<path id="Vector_11" d="M59.8578 23.8573C61.5081 23.8573 62.846 22.5194 62.846 20.8691C62.846 19.2188 61.5081 17.881 59.8578 17.881C58.2075 17.881 56.8697 19.2188 56.8697 20.8691C56.8697 22.5194 58.2075 23.8573 59.8578 23.8573Z" fill="#702E3E"/>
<path id="Vector_12" d="M67.8689 23.8573C69.5192 23.8573 70.8571 22.5194 70.8571 20.8691C70.8571 19.2188 69.5192 17.881 67.8689 17.881C66.2186 17.881 64.8808 19.2188 64.8808 20.8691C64.8808 22.5194 66.2186 23.8573 67.8689 23.8573Z" fill="#702E3E"/>
<path id="Vector_13" d="M75.88 23.8573C77.5303 23.8573 78.8681 22.5194 78.8681 20.8691C78.8681 19.2188 77.5303 17.881 75.88 17.881C74.2297 17.881 72.8918 19.2188 72.8918 20.8691C72.8918 22.5194 74.2297 23.8573 75.88 23.8573Z" fill="#702E3E"/>
<path id="Vector_14" d="M83.8911 23.8573C85.5414 23.8573 86.8792 22.5194 86.8792 20.8691C86.8792 19.2188 85.5414 17.881 83.8911 17.881C82.2408 17.881 80.903 19.2188 80.903 20.8691C80.903 22.5194 82.2408 23.8573 83.8911 23.8573Z" fill="#702E3E"/>
<path id="Vector_15" d="M91.9022 23.8573C93.5525 23.8573 94.8903 22.5194 94.8903 20.8691C94.8903 19.2188 93.5525 17.881 91.9022 17.881C90.2519 17.881 88.9141 19.2188 88.9141 20.8691C88.9141 22.5194 90.2519 23.8573 91.9022 23.8573Z" fill="#702E3E"/>
<path id="Vector_16" d="M99.9133 23.8573C101.564 23.8573 102.901 22.5194 102.901 20.8691C102.901 19.2188 101.564 17.881 99.9133 17.881C98.263 17.881 96.9251 19.2188 96.9251 20.8691C96.9251 22.5194 98.263 23.8573 99.9133 23.8573Z" fill="#702E3E"/>
<path id="Vector_17" d="M107.924 23.8573C109.575 23.8573 110.912 22.5194 110.912 20.8691C110.912 19.2188 109.575 17.881 107.924 17.881C106.274 17.881 104.936 19.2188 104.936 20.8691C104.936 22.5194 106.274 23.8573 107.924 23.8573Z" fill="#702E3E"/>
<path id="Vector_18" d="M115.935 23.8573C117.586 23.8573 118.924 22.5194 118.924 20.8691C118.924 19.2188 117.586 17.881 115.935 17.881C114.285 17.881 112.947 19.2188 112.947 20.8691C112.947 22.5194 114.285 23.8573 115.935 23.8573Z" fill="#D3D1CF"/>
<path id="Vector_19" d="M123.947 23.8573C125.597 23.8573 126.935 22.5194 126.935 20.8691C126.935 19.2188 125.597 17.881 123.947 17.881C122.296 17.881 120.958 19.2188 120.958 20.8691C120.958 22.5194 122.296 23.8573 123.947 23.8573Z" fill="#D3D1CF"/>
<path id="Vector_20" d="M131.958 23.8573C133.608 23.8573 134.946 22.5194 134.946 20.8691C134.946 19.2188 133.608 17.881 131.958 17.881C130.307 17.881 128.969 19.2188 128.969 20.8691C128.969 22.5194 130.307 23.8573 131.958 23.8573Z" fill="#D3D1CF"/>
<path id="Vector_21" d="M59.8578 39.8794C61.5081 39.8794 62.846 38.5415 62.846 36.8912C62.846 35.2409 61.5081 33.9031 59.8578 33.9031C58.2075 33.9031 56.8697 35.2409 56.8697 36.8912C56.8697 38.5415 58.2075 39.8794 59.8578 39.8794Z" fill="#702E3E"/>
<path id="Vector_22" d="M67.8689 39.8794C69.5192 39.8794 70.8571 38.5415 70.8571 36.8912C70.8571 35.2409 69.5192 33.9031 67.8689 33.9031C66.2186 33.9031 64.8808 35.2409 64.8808 36.8912C64.8808 38.5415 66.2186 39.8794 67.8689 39.8794Z" fill="#702E3E"/>
<path id="Vector_23" d="M75.88 39.8794C77.5303 39.8794 78.8681 38.5415 78.8681 36.8912C78.8681 35.2409 77.5303 33.9031 75.88 33.9031C74.2297 33.9031 72.8918 35.2409 72.8918 36.8912C72.8918 38.5415 74.2297 39.8794 75.88 39.8794Z" fill="#702E3E"/>
<path id="Vector_24" d="M83.8911 39.8794C85.5414 39.8794 86.8792 38.5415 86.8792 36.8912C86.8792 35.2409 85.5414 33.9031 83.8911 33.9031C82.2408 33.9031 80.903 35.2409 80.903 36.8912C80.903 38.5415 82.2408 39.8794 83.8911 39.8794Z" fill="#702E3E"/>
<path id="Vector_25" d="M91.9022 39.8794C93.5525 39.8794 94.8903 38.5415 94.8903 36.8912C94.8903 35.2409 93.5525 33.9031 91.9022 33.9031C90.2519 33.9031 88.9141 35.2409 88.9141 36.8912C88.9141 38.5415 90.2519 39.8794 91.9022 39.8794Z" fill="#D3D1CF"/>
<path id="Vector_26" d="M99.9133 39.8794C101.564 39.8794 102.901 38.5415 102.901 36.8912C102.901 35.2409 101.564 33.9031 99.9133 33.9031C98.263 33.9031 96.9251 35.2409 96.9251 36.8912C96.9251 38.5415 98.263 39.8794 99.9133 39.8794Z" fill="#D3D1CF"/>
<path id="Vector_27" d="M107.924 39.8794C109.575 39.8794 110.912 38.5415 110.912 36.8912C110.912 35.2409 109.575 33.9031 107.924 33.9031C106.274 33.9031 104.936 35.2409 104.936 36.8912C104.936 38.5415 106.274 39.8794 107.924 39.8794Z" fill="#D3D1CF"/>
<path id="Vector_28" d="M115.935 39.8794C117.586 39.8794 118.924 38.5415 118.924 36.8912C118.924 35.2409 117.586 33.9031 115.935 33.9031C114.285 33.9031 112.947 35.2409 112.947 36.8912C112.947 38.5415 114.285 39.8794 115.935 39.8794Z" fill="#D3D1CF"/>
<path id="Vector_29" d="M123.947 39.8794C125.597 39.8794 126.935 38.5415 126.935 36.8912C126.935 35.2409 125.597 33.9031 123.947 33.9031C122.296 33.9031 120.958 35.2409 120.958 36.8912C120.958 38.5415 122.296 39.8794 123.947 39.8794Z" fill="#D3D1CF"/>
<path id="Vector_30" d="M131.958 39.8794C133.608 39.8794 134.946 38.5415 134.946 36.8912C134.946 35.2409 133.608 33.9031 131.958 33.9031C130.307 33.9031 128.969 35.2409 128.969 36.8912C128.969 38.5415 130.307 39.8794 131.958 39.8794Z" fill="#D3D1CF"/>
<path id="Vector_31" d="M59.8578 55.9016C61.5081 55.9016 62.846 54.5637 62.846 52.9134C62.846 51.2631 61.5081 49.9253 59.8578 49.9253C58.2075 49.9253 56.8697 51.2631 56.8697 52.9134C56.8697 54.5637 58.2075 55.9016 59.8578 55.9016Z" fill="#702E3E"/>
<path id="Vector_32" d="M67.8689 55.9016C69.5192 55.9016 70.8571 54.5637 70.8571 52.9134C70.8571 51.2631 69.5192 49.9253 67.8689 49.9253C66.2186 49.9253 64.8808 51.2631 64.8808 52.9134C64.8808 54.5637 66.2186 55.9016 67.8689 55.9016Z" fill="#702E3E"/>
<path id="Vector_33" d="M75.88 55.9016C77.5303 55.9016 78.8681 54.5637 78.8681 52.9134C78.8681 51.2631 77.5303 49.9253 75.88 49.9253C74.2297 49.9253 72.8918 51.2631 72.8918 52.9134C72.8918 54.5637 74.2297 55.9016 75.88 55.9016Z" fill="#702E3E"/>
<path id="Vector_34" d="M83.8911 55.9016C85.5414 55.9016 86.8792 54.5637 86.8792 52.9134C86.8792 51.2631 85.5414 49.9253 83.8911 49.9253C82.2408 49.9253 80.903 51.2631 80.903 52.9134C80.903 54.5637 82.2408 55.9016 83.8911 55.9016Z" fill="#702E3E"/>
<path id="Vector_35" d="M91.9022 55.9016C93.5525 55.9016 94.8903 54.5637 94.8903 52.9134C94.8903 51.2631 93.5525 49.9253 91.9022 49.9253C90.2519 49.9253 88.9141 51.2631 88.9141 52.9134C88.9141 54.5637 90.2519 55.9016 91.9022 55.9016Z" fill="#702E3E"/>
<path id="Vector_36" d="M99.9133 55.9016C101.564 55.9016 102.901 54.5637 102.901 52.9134C102.901 51.2631 101.564 49.9253 99.9133 49.9253C98.263 49.9253 96.9251 51.2631 96.9251 52.9134C96.9251 54.5637 98.263 55.9016 99.9133 55.9016Z" fill="#D3D1CF"/>
<path id="Vector_37" d="M107.924 55.9016C109.575 55.9016 110.912 54.5637 110.912 52.9134C110.912 51.2631 109.575 49.9253 107.924 49.9253C106.274 49.9253 104.936 51.2631 104.936 52.9134C104.936 54.5637 106.274 55.9016 107.924 55.9016Z" fill="#D3D1CF"/>
<path id="Vector_38" d="M115.935 55.9016C117.586 55.9016 118.924 54.5637 118.924 52.9134C118.924 51.2631 117.586 49.9253 115.935 49.9253C114.285 49.9253 112.947 51.2631 112.947 52.9134C112.947 54.5637 114.285 55.9016 115.935 55.9016Z" fill="#D3D1CF"/>
<path id="Vector_39" d="M123.947 55.9016C125.597 55.9016 126.935 54.5637 126.935 52.9134C126.935 51.2631 125.597 49.9253 123.947 49.9253C122.296 49.9253 120.958 51.2631 120.958 52.9134C120.958 54.5637 122.296 55.9016 123.947 55.9016Z" fill="#D3D1CF"/>
<path id="Vector_40" d="M131.958 55.9016C133.608 55.9016 134.946 54.5637 134.946 52.9134C134.946 51.2631 133.608 49.9253 131.958 49.9253C130.307 49.9253 128.969 51.2631 128.969 52.9134C128.969 54.5637 130.307 55.9016 131.958 55.9016Z" fill="#D3D1CF"/>
</g>
<g id="Group_3">
<path id="Vector_41" d="M2.26615 0.400757H3.96451L6.11949 7.41846H4.86174L4.26892 5.47978H1.96173L1.37693 7.41846H0.111176L2.27417 0.400757H2.26615ZM3.11533 1.64247L2.25814 4.48641H3.97251L3.11533 1.64247Z" fill="black"/>
<path id="Vector_42" d="M8.38659 7.41841H7.0968V1.92281H7.70564L8.21835 2.77999C8.65896 2.15513 9.28382 1.81867 10.0929 1.78662V2.89215C9.3399 2.90818 8.77112 3.14049 8.39459 3.5811V7.41841H8.38659Z" fill="black"/>
<path id="Vector_43" d="M15.4524 4.67061C15.4524 6.59327 14.6192 7.55461 12.9529 7.55461C11.2866 7.55461 10.4535 6.59327 10.4535 4.67061C10.4535 2.74795 11.2866 1.78662 12.9529 1.78662C14.6192 1.78662 15.4524 2.74795 15.4524 4.67061ZM11.9916 6.08056C12.1598 6.40101 12.4803 6.56123 12.9529 6.56123C13.4256 6.56123 13.746 6.40101 13.9143 6.08056C14.0825 5.76012 14.1626 5.28746 14.1626 4.67061C14.1626 4.05376 14.0825 3.58111 13.9143 3.26066C13.746 2.94022 13.4256 2.77999 12.9529 2.77999C12.4803 2.77999 12.1598 2.94022 11.9916 3.26066C11.8234 3.58111 11.7432 4.05376 11.7432 4.67061C11.7432 5.28746 11.8234 5.76012 11.9916 6.08056Z" fill="black"/>
<path id="Vector_44" d="M19.3699 1.78662C20.1389 1.78662 20.6757 2.01093 20.9881 2.45154C21.5409 2.01093 22.1257 1.78662 22.7505 1.78662C23.3754 1.78662 23.84 1.93883 24.1364 2.25127C24.4409 2.5637 24.5851 2.98828 24.5851 3.53304V7.41841H23.2953V3.74934C23.2953 3.41288 23.2312 3.17254 23.111 3.01232C22.9909 2.85209 22.7746 2.77999 22.4701 2.77999C22.0375 2.77999 21.637 2.93221 21.2685 3.22862C21.2845 3.3568 21.2845 3.46094 21.2845 3.53304V7.41841H19.9947V3.74934C19.9947 3.41288 19.9306 3.17254 19.8025 3.01232C19.6743 2.85209 19.4259 2.77999 19.0654 2.77999C18.7049 2.77999 18.3444 2.90817 17.9839 3.16453V7.42643H16.6942V1.93082H17.3751L17.7116 2.37944C18.2323 1.9869 18.777 1.79463 19.3538 1.79463L19.3699 1.78662Z" fill="black"/>
<path id="Vector_45" d="M28.2301 1.78662C29.624 1.78662 30.329 2.42751 30.329 3.70127V7.41841H29.4958L29.1273 6.74549C28.6146 7.28223 28.0138 7.55461 27.3328 7.55461C26.8442 7.55461 26.4757 7.41842 26.2193 7.14604C25.9629 6.87366 25.8428 6.50515 25.8428 6.04852C25.8428 5.59189 25.987 5.22338 26.2754 4.93498C26.5638 4.65459 27.1005 4.45432 27.8936 4.34216L29.0472 4.16592V3.70127C29.0472 3.07641 28.7508 2.77199 28.166 2.77199C27.6052 2.77199 27.2768 3.05237 27.1726 3.62116L26.1712 3.32475C26.4116 2.29933 27.1005 1.78662 28.2381 1.78662H28.2301ZM27.7414 6.6093C28.174 6.6093 28.6066 6.393 29.0392 5.96841V4.97504L28.1179 5.13526C27.7013 5.20736 27.429 5.31951 27.2928 5.47172C27.1566 5.62393 27.0925 5.80018 27.0925 5.99244C27.0925 6.18471 27.1486 6.33692 27.2687 6.44106C27.3809 6.55322 27.5411 6.60129 27.7494 6.60129L27.7414 6.6093Z" fill="black"/>
<path id="Vector_46" d="M2.26615 16.423H3.96451L6.11949 23.4407H4.86174L4.26892 21.502H1.96173L1.37693 23.4407H0.111176L2.27417 16.423H2.26615ZM3.11533 17.6647L2.25814 20.5086H3.97251L3.11533 17.6647Z" fill="black"/>
<path id="Vector_47" d="M8.07421 19.2589C7.91398 19.5633 7.82586 20.044 7.82586 20.6929C7.82586 21.3418 7.90597 21.8144 8.07421 22.1269C8.23443 22.4313 8.52283 22.5915 8.9314 22.5915C9.33996 22.5915 9.62836 22.5114 9.8046 22.3432C9.98085 22.1749 10.077 21.9106 10.085 21.5581L11.0944 21.6061C11.0543 22.2631 10.8621 22.7517 10.5256 23.0882C10.1811 23.4247 9.62036 23.5849 8.83527 23.5849C7.92201 23.5849 7.29713 23.2885 6.96067 22.6876C6.80044 22.3992 6.6883 22.0948 6.63222 21.7824C6.56813 21.47 6.5441 21.1014 6.5441 20.6929C6.5441 20.2843 6.57614 19.9158 6.63222 19.5954C6.69631 19.2749 6.80044 18.9785 6.96067 18.6981C7.28912 18.1053 7.91399 17.8169 8.83527 17.8169C9.61234 17.8169 10.1651 17.9771 10.5096 18.2895C10.846 18.61 11.0383 19.0826 11.0864 19.7075L10.085 19.8437C10.069 19.4832 9.98085 19.2188 9.8046 19.0586C9.62836 18.8904 9.33996 18.8103 8.9314 18.8103C8.52283 18.8103 8.24244 18.9625 8.07421 19.2749V19.2589Z" fill="black"/>
<path id="Vector_48" d="M12.8969 17.2882C12.4162 17.2882 12.1759 17.0398 12.1759 16.5431C12.1759 16.0464 12.4162 15.7981 12.8969 15.7981C13.3775 15.7981 13.6339 16.0464 13.6339 16.5431C13.6339 17.0398 13.3855 17.2882 12.8969 17.2882ZM12.256 17.9451H13.5458V23.4407H12.256V17.9451Z" fill="black"/>
<path id="Vector_49" d="M16.6461 23.5769C15.4123 23.5769 14.7875 22.6155 14.7875 20.6929C14.7875 18.7702 15.5405 17.8089 17.0386 17.8089C17.4632 17.8089 17.8798 17.889 18.2883 18.0412V16.2147L19.5781 16.1185V23.4407H18.745L18.3925 22.7597C17.8637 23.3045 17.2789 23.5769 16.6541 23.5769H16.6461ZM17.1588 22.5835C17.5593 22.5835 17.9358 22.3752 18.2963 21.9666V18.9865C17.9839 18.8583 17.6715 18.7942 17.3751 18.7942C16.9104 18.7942 16.582 18.9545 16.3817 19.2749C16.1814 19.5953 16.0853 20.068 16.0853 20.6849C16.0853 21.9506 16.4458 22.5755 17.1588 22.5755V22.5835Z" fill="black"/>
<path id="Vector_50" d="M23.2872 23.5768C22.406 23.5768 21.7731 23.3365 21.3966 22.8638C21.0201 22.3832 20.8278 21.6622 20.8278 20.6928C20.8278 18.7702 21.6369 17.8088 23.2472 17.8088C24.1764 17.8088 24.8093 18.0972 25.1538 18.674C25.4502 19.1707 25.5944 19.8116 25.5944 20.5967V20.9412H22.0775C22.0775 21.542 22.1817 21.9666 22.374 22.2149C22.5662 22.4633 22.8867 22.5835 23.3273 22.5835C24.0403 22.5835 24.4168 22.3271 24.4648 21.8144L25.5223 21.8544C25.4182 23 24.6731 23.5768 23.2952 23.5768H23.2872ZM24.0242 19.1146C23.864 18.9064 23.5997 18.8022 23.2392 18.8022C22.8787 18.8022 22.6063 18.9064 22.438 19.1066C22.2698 19.3069 22.1577 19.6274 22.1096 20.076H24.3287C24.2886 19.6434 24.1925 19.3309 24.0323 19.1227L24.0242 19.1146Z" fill="black"/>
<path id="Vector_51" d="M26.3074 18.8423V17.937H30.3851V18.7221L27.7494 22.5274H30.4732V23.4326H26.2113V22.6475L28.863 18.8423H26.3074Z" fill="black"/>
<path id="Vector_52" d="M3.41175 33.3664C2.81092 33.3664 2.40235 33.5667 2.19406 33.9592C1.98577 34.3517 1.87362 35.0167 1.87362 35.946C1.87362 36.8752 1.97776 37.5402 2.19406 37.9407C2.40235 38.3413 2.81092 38.5335 3.41175 38.5335C3.87639 38.5335 4.21286 38.4054 4.40513 38.149C4.59739 37.8926 4.70154 37.5241 4.71756 37.0355L5.77502 37.0835C5.72695 37.9087 5.52668 38.5335 5.1822 38.9581C4.83773 39.3827 4.2449 39.591 3.41175 39.591C2.31423 39.591 1.56119 39.2706 1.14461 38.6297C0.936321 38.3092 0.784112 37.9327 0.69599 37.5081C0.607868 37.0835 0.56781 36.5628 0.56781 35.946C0.56781 35.3291 0.607868 34.8084 0.69599 34.3838C0.784112 33.9592 0.92831 33.5827 1.14461 33.2622C1.56119 32.6214 2.31423 32.3009 3.41175 32.3009C4.19684 32.3009 4.76562 32.4772 5.1101 32.8296C5.45457 33.1821 5.67088 33.7028 5.74298 34.3838L4.68551 34.544C4.64545 34.1595 4.52528 33.8631 4.33302 33.6628C4.14075 33.4625 3.82833 33.3584 3.41175 33.3584V33.3664Z" fill="black"/>
<path id="Vector_53" d="M8.54682 39.599C7.41725 39.599 6.85648 39.0142 6.85648 37.8526V33.9672H8.14626V37.6363C8.14626 37.9728 8.21035 38.2131 8.34654 38.3733C8.47472 38.5336 8.69902 38.6057 9.00344 38.6057C9.43604 38.6057 9.85262 38.3974 10.2452 37.9888V33.9592H11.5349V39.4548H10.7018L10.3333 38.7899C9.8366 39.3186 9.24378 39.591 8.55482 39.591L8.54682 39.599Z" fill="black"/>
<path id="Vector_54" d="M15.2361 39.599C14.3549 39.599 13.722 39.3587 13.3455 38.886C12.969 38.4054 12.7767 37.6844 12.7767 36.7151C12.7767 34.7924 13.5858 33.8311 15.1961 33.8311C16.1253 33.8311 16.7582 34.1195 17.1027 34.6963C17.3991 35.1929 17.5433 35.8338 17.5433 36.6189V36.9634H14.0264C14.0264 37.5642 14.1306 37.9888 14.3228 38.2372C14.5151 38.4855 14.8355 38.6057 15.2762 38.6057C15.9891 38.6057 16.3657 38.3493 16.4137 37.8366L17.4712 37.8767C17.3671 39.0222 16.622 39.599 15.2441 39.599H15.2361ZM15.9731 35.1369C15.8129 34.9286 15.5485 34.8244 15.188 34.8244C14.8275 34.8244 14.5552 34.9286 14.3869 35.1288C14.2187 35.3291 14.1065 35.6496 14.0585 36.0982H16.2775C16.2375 35.6656 16.1414 35.3532 15.9811 35.1449L15.9731 35.1369Z" fill="black"/>
<path id="Vector_55" d="M20.0348 39.4628H18.745V33.9672H19.3538L19.8665 34.8244C20.3072 34.1996 20.932 33.8631 21.7411 33.8311V34.9366C20.9881 34.9526 20.4193 35.1849 20.0428 35.6255V39.4628H20.0348Z" fill="black"/>
<path id="Vector_56" d="M25.2339 33.8311C26.708 33.8311 27.445 34.7924 27.445 36.7151C27.445 38.6377 26.6919 39.599 25.1939 39.599C24.8093 39.599 24.3928 39.535 23.9441 39.4068V41.4336L22.6544 41.6098V33.9672H23.2712L23.6077 34.3838C24.1524 34.0153 24.6972 33.8391 25.2339 33.8391V33.8311ZM24.8814 34.8244C24.553 34.8244 24.2405 34.9126 23.9521 35.0968V38.4775C24.2566 38.5656 24.561 38.6137 24.8734 38.6137C25.3381 38.6137 25.6665 38.4535 25.8668 38.125C26.0671 37.7965 26.1632 37.3319 26.1632 36.7151C26.1632 35.4493 25.7386 34.8244 24.8814 34.8244Z" fill="black"/>
<path id="Vector_57" d="M33.1328 36.7151C33.1328 38.6377 32.2997 39.599 30.6334 39.599C28.9671 39.599 28.1339 38.6377 28.1339 36.7151C28.1339 34.7924 28.9671 33.8311 30.6334 33.8311C32.2997 33.8311 33.1328 34.7924 33.1328 36.7151ZM29.672 38.125C29.8403 38.4454 30.1607 38.6057 30.6334 38.6057C31.106 38.6057 31.4265 38.4454 31.5947 38.125C31.7629 37.8046 31.843 37.3319 31.843 36.7151C31.843 36.0982 31.7629 35.6255 31.5947 35.3051C31.4265 34.9846 31.106 34.8244 30.6334 34.8244C30.1607 34.8244 29.8403 34.9846 29.672 35.3051C29.5038 35.6255 29.4237 36.0982 29.4237 36.7151C29.4237 37.3319 29.5038 37.8046 29.672 38.125Z" fill="black"/>
<path id="Vector_58" d="M0.928284 48.4673H2.23409V55.485H0.928284V48.4673Z" fill="black"/>
<path id="Vector_59" d="M5.062 50.486C5.66283 50.0614 6.27968 49.8531 6.91256 49.8531C7.54543 49.8531 8.00207 50.0054 8.28246 50.3178C8.56285 50.6302 8.70704 51.0548 8.70704 51.5996V55.4849H7.41726V51.7358C7.41726 51.4073 7.36118 51.175 7.24101 51.0468C7.12085 50.9106 6.91256 50.8465 6.62416 50.8465C6.15951 50.8465 5.73493 50.9907 5.33437 51.2791V55.493H4.04459V49.9974H4.65344L5.07 50.494L5.062 50.486Z" fill="black"/>
<path id="Vector_60" d="M9.60428 50.8225V49.9894H10.4855V48.988L11.7753 48.6595V49.9894H12.8247V50.8225H11.7753V53.9308C11.7753 54.2032 11.8153 54.4035 11.8954 54.5157C11.9756 54.6278 12.0957 54.6919 12.2479 54.6919C12.4002 54.6919 12.5764 54.6679 12.7606 54.6118L12.9209 55.4129C12.5443 55.5571 12.2079 55.6212 11.9035 55.6212C11.599 55.6212 11.3667 55.5891 11.1905 55.517C11.0142 55.4449 10.8781 55.3648 10.7899 55.2687C10.7018 55.1726 10.6297 55.0524 10.5897 54.8922C10.5176 54.6679 10.4855 54.3875 10.4855 54.059V50.8306H9.60428V50.8225Z" fill="black"/>
<path id="Vector_61" d="M15.7809 55.6211C14.8996 55.6211 14.2668 55.3808 13.8902 54.9081C13.5137 54.4275 13.3214 53.7065 13.3214 52.7371C13.3214 50.8145 14.1306 49.8531 15.7408 49.8531C16.6701 49.8531 17.303 50.1415 17.6474 50.7183C17.9438 51.215 18.088 51.8559 18.088 52.641V52.9855H14.5712C14.5712 53.5863 14.6753 54.0109 14.8676 54.2592C15.0599 54.5076 15.3803 54.6278 15.8209 54.6278C16.5339 54.6278 16.9104 54.3714 16.9585 53.8587L18.0159 53.8988C17.9118 55.0443 17.1668 55.6211 15.7889 55.6211H15.7809ZM16.5179 51.159C16.3576 50.9507 16.0933 50.8465 15.7328 50.8465C15.3723 50.8465 15.0999 50.9507 14.9317 51.1509C14.7634 51.3512 14.6513 51.6717 14.6032 52.1203H16.8223C16.7822 51.6877 16.6861 51.3753 16.5259 51.167L16.5179 51.159Z" fill="black"/>
<path id="Vector_62" d="M20.3071 50.486C20.908 50.0614 21.5248 49.8531 22.1577 49.8531C22.7906 49.8531 23.2472 50.0054 23.5276 50.3178C23.808 50.6302 23.9522 51.0548 23.9522 51.5996V55.4849H22.6624V51.7358C22.6624 51.4073 22.6063 51.175 22.4862 51.0468C22.366 50.9106 22.1577 50.8465 21.8693 50.8465C21.4047 50.8465 20.9801 50.9907 20.5795 51.2791V55.493H19.2897V49.9974H19.8986L20.3152 50.494L20.3071 50.486Z" fill="black"/>
<path id="Vector_63" d="M29.6 53.9469C29.6 55.0444 28.8309 55.5892 27.2928 55.5892C26.6199 55.5892 26.1232 55.445 25.7947 55.1486C25.4663 54.8521 25.266 54.4356 25.1779 53.8748L26.1792 53.7226C26.2513 54.3394 26.6359 54.6438 27.3248 54.6438C28.0138 54.6438 28.3663 54.4276 28.3663 53.9869C28.3663 53.8107 28.2942 53.6745 28.158 53.5864C28.0218 53.4983 27.7414 53.4021 27.3248 53.306L26.8842 53.2019C26.3154 53.0657 25.9069 52.8734 25.6585 52.609C25.4102 52.3527 25.29 51.9762 25.29 51.4795C25.29 50.39 26.035 49.8452 27.5171 49.8452C28.158 49.8452 28.6387 49.9894 28.9511 50.2858C29.2715 50.5742 29.4638 50.9988 29.5439 51.5596L28.5425 51.7038C28.4704 51.0949 28.1179 50.7905 27.477 50.7905C26.8361 50.7905 26.5237 51.0068 26.5237 51.4474C26.5237 51.6237 26.5878 51.7599 26.708 51.856C26.8362 51.9521 27.0845 52.0402 27.469 52.1284L27.9657 52.2565C28.5345 52.4007 28.9511 52.593 29.1994 52.8494C29.4558 53.1057 29.5759 53.4662 29.5759 53.9469H29.6Z" fill="black"/>
<path id="Vector_64" d="M31.5547 49.3325C31.074 49.3325 30.8337 49.0841 30.8337 48.5874C30.8337 48.0907 31.074 47.8424 31.5547 47.8424C32.0353 47.8424 32.2917 48.0907 32.2917 48.5874C32.2917 49.0841 32.0434 49.3325 31.5547 49.3325ZM30.9138 49.9894H32.2036V55.485H30.9138V49.9894Z" fill="black"/>
<path id="Vector_65" d="M35.3039 55.6212C34.0702 55.6212 33.4453 54.6598 33.4453 52.7372C33.4453 50.8145 34.1984 49.8532 35.6964 49.8532C36.121 49.8532 36.5376 49.9333 36.9462 50.0855V48.259L38.2359 48.1628V55.485H37.4028L37.0503 54.804C36.5216 55.3488 35.9367 55.6212 35.3119 55.6212H35.3039ZM35.8166 54.6278C36.2171 54.6278 36.5937 54.4195 36.9542 54.0109V51.0308C36.6417 50.9026 36.3293 50.8385 36.0329 50.8385C35.5682 50.8385 35.2398 50.9988 35.0395 51.3192C34.8392 51.6397 34.7431 52.1123 34.7431 52.7292C34.7431 53.9949 35.1036 54.6198 35.8166 54.6198V54.6278Z" fill="black"/>
<path id="Vector_66" d="M41.9771 49.8531C43.3711 49.8531 44.076 50.494 44.076 51.7678V55.4849H43.2429L42.8744 54.812C42.3617 55.3488 41.7608 55.6211 41.0799 55.6211C40.5912 55.6211 40.2227 55.4849 39.9664 55.2126C39.71 54.9402 39.5898 54.5717 39.5898 54.1151C39.5898 53.6584 39.734 53.2899 40.0224 53.0015C40.3108 52.7211 40.8476 52.5208 41.6407 52.4087L42.7943 52.2324V51.7678C42.7943 51.1429 42.4979 50.8385 41.9131 50.8385C41.3523 50.8385 41.0238 51.1189 40.9197 51.6877L39.9183 51.3913C40.1586 50.3659 40.8476 49.8531 41.9852 49.8531H41.9771ZM41.4885 54.6758C41.9211 54.6758 42.3537 54.4595 42.7863 54.0349V53.0416L41.865 53.2018C41.4484 53.2739 41.176 53.386 41.0398 53.5383C40.9037 53.6905 40.8396 53.8667 40.8396 54.059C40.8396 54.2512 40.8956 54.4034 41.0158 54.5076C41.128 54.6197 41.2882 54.6678 41.4965 54.6678L41.4885 54.6758Z" fill="black"/>
<path id="Vector_67" d="M47.0802 55.6212C45.8465 55.6212 45.2216 54.6598 45.2216 52.7372C45.2216 50.8145 45.9747 49.8532 47.4727 49.8532C47.8973 49.8532 48.3139 49.9333 48.7225 50.0855V48.259L50.0122 48.1628V55.485H49.1791L48.8266 54.804C48.2979 55.3488 47.7131 55.6212 47.0882 55.6212H47.0802ZM47.5929 54.6278C47.9934 54.6278 48.37 54.4195 48.7305 54.0109V51.0308C48.418 50.9026 48.1056 50.8385 47.8092 50.8385C47.3446 50.8385 47.0161 50.9988 46.8158 51.3192C46.6155 51.6397 46.5194 52.1123 46.5194 52.7292C46.5194 53.9949 46.8799 54.6198 47.5929 54.6198V54.6278Z" fill="black"/>
<path id="Vector_68" d="M5.71892 64.4895H7.54545L7.7297 71.5072H6.43991L6.33577 66.1077L4.7656 70.6741H3.62803L2.21807 66.2599L2.12194 71.5072H0.832153L1.0084 64.4895H2.84293L4.22084 68.9196L5.71892 64.4895Z" fill="black"/>
<path id="Vector_69" d="M11.3427 71.6433C10.4615 71.6433 9.82863 71.403 9.45211 70.9304C9.07559 70.4497 8.88333 69.7287 8.88333 68.7594C8.88333 66.8367 9.69245 65.8754 11.3027 65.8754C12.232 65.8754 12.8648 66.1638 13.2093 66.7406C13.5057 67.2373 13.6499 67.8781 13.6499 68.6632V69.0077H10.1331C10.1331 69.6085 10.2372 70.0331 10.4295 70.2815C10.6217 70.5298 10.9422 70.65 11.3828 70.65C12.0958 70.65 12.4723 70.3936 12.5204 69.8809L13.5778 69.921C13.4737 71.0666 12.7287 71.6433 11.3507 71.6433H11.3427ZM12.0797 67.1812C11.9195 66.9729 11.6552 66.8687 11.2947 66.8687C10.9342 66.8687 10.6618 66.9729 10.4936 67.1732C10.3253 67.3734 10.2132 67.6939 10.1651 68.1425H12.3842C12.3441 67.7099 12.248 67.3975 12.0878 67.1892L12.0797 67.1812Z" fill="black"/>
<path id="Vector_70" d="M14.3629 66.9088V66.0035H18.4405V66.7886L15.8049 70.5939H18.5286V71.4991H14.2667V70.7141L16.9184 66.9088H14.3629Z" fill="black"/>
<path id="Vector_71" d="M20.7157 67.3254C20.5554 67.6298 20.4673 68.1105 20.4673 68.7594C20.4673 69.4083 20.5474 69.881 20.7157 70.1934C20.8759 70.4978 21.1643 70.658 21.5728 70.658C21.9814 70.658 22.2698 70.5779 22.4461 70.4097C22.6223 70.2415 22.7184 69.9771 22.7264 69.6246L23.7358 69.6727C23.6958 70.3296 23.5035 70.8183 23.1671 71.1547C22.8226 71.4912 22.2618 71.6514 21.4767 71.6514C20.5635 71.6514 19.9386 71.355 19.6021 70.7542C19.4419 70.4658 19.3297 70.1614 19.2737 69.8489C19.2096 69.5365 19.1855 69.168 19.1855 68.7594C19.1855 68.3508 19.2176 67.9823 19.2737 67.6619C19.3378 67.3414 19.4419 67.045 19.6021 66.7646C19.9306 66.1718 20.5554 65.8834 21.4767 65.8834C22.2538 65.8834 22.8066 66.0437 23.151 66.3561C23.4875 66.6765 23.6798 67.1492 23.7278 67.774L22.7264 67.9102C22.7104 67.5497 22.6223 67.2854 22.4461 67.1251C22.2698 66.9569 21.9814 66.8768 21.5728 66.8768C21.1643 66.8768 20.8839 67.029 20.7157 67.3414V67.3254Z" fill="black"/>
<path id="Vector_72" d="M26.1872 71.5072H24.8975V64.2812L26.1872 64.105V71.5072Z" fill="black"/>
<path id="Vector_73" d="M29.9204 65.8754C31.3143 65.8754 32.0193 66.5163 32.0193 67.79V71.5072H31.1861L30.8176 70.8342C30.3049 71.371 29.7041 71.6433 29.0231 71.6433C28.5345 71.6433 28.166 71.5072 27.9096 71.2348C27.6532 70.9624 27.5331 70.5939 27.5331 70.1373C27.5331 69.6806 27.6773 69.3121 27.9657 69.0237C28.2541 68.7433 28.7908 68.5431 29.5839 68.4309L30.7375 68.2547V67.79C30.7375 67.1652 30.4411 66.8607 29.8563 66.8607C29.2955 66.8607 28.9671 67.1411 28.8629 67.7099L27.8615 67.4135C28.1019 66.3881 28.7908 65.8754 29.9284 65.8754H29.9204ZM29.4317 70.698C29.8643 70.698 30.2969 70.4817 30.7295 70.0572V69.0638L29.8082 69.224C29.3917 69.2961 29.1193 69.4083 28.9831 69.5605C28.8469 69.7127 28.7828 69.8889 28.7828 70.0812C28.7828 70.2735 28.8389 70.4257 28.9591 70.5298C29.0712 70.642 29.2314 70.69 29.4397 70.69L29.4317 70.698Z" fill="black"/>
<path id="Vector_74" d="M5.74296 86.5921C5.53467 86.9366 5.23826 87.2009 4.85373 87.3852C4.46919 87.5694 4.02057 87.6576 3.50786 87.6576C2.99515 87.6576 2.57056 87.5935 2.2341 87.4733C1.89763 87.3451 1.61725 87.1849 1.40896 86.9766C1.20067 86.7683 1.02443 86.504 0.896248 86.1835C0.671938 85.6227 0.559784 84.9017 0.559784 84.0205C0.559784 83.4758 0.599842 82.9951 0.687964 82.5865C0.768075 82.178 0.912269 81.8015 1.12056 81.449C1.52912 80.728 2.29819 80.3755 3.42775 80.3755C4.70953 80.3755 5.5587 80.8722 5.96727 81.8656C6.19158 82.4263 6.30373 83.1393 6.30373 84.0205C6.30373 84.5733 6.26367 85.054 6.17555 85.4625C6.09544 85.8711 5.95125 86.2476 5.74296 86.6001V86.5921ZM3.42775 86.6001C4.01256 86.6001 4.42112 86.3758 4.64543 85.9192C4.87775 85.4625 4.98991 84.8296 4.98991 84.0125C4.98991 83.1954 4.87775 82.5625 4.64543 82.1059C4.41311 81.6492 4.00455 81.4249 3.42775 81.4249C2.8109 81.4249 2.39432 81.6733 2.17001 82.178C1.96973 82.6346 1.8736 83.2435 1.8736 84.0125C1.8736 85.2943 2.12996 86.0954 2.65068 86.4078C2.85897 86.536 3.12333 86.6001 3.42775 86.6001Z" fill="black"/>
<path id="Vector_75" d="M9.03554 87.5294H7.74576V82.0338H8.3546L8.86731 82.891C9.30792 82.2661 9.93278 81.9296 10.7419 81.8976V83.0031C9.98885 83.0191 9.42007 83.2515 9.04355 83.6921V87.5294H9.03554Z" fill="black"/>
<path id="Vector_76" d="M11.7032 81.5691L11.2706 80.8802L13.1452 79.5984L13.722 80.5197L11.7032 81.5691ZM11.6551 82.0338H12.9449V87.5294H11.6551V82.0338Z" fill="black"/>
<path id="Vector_77" d="M18.3845 85.2542C18.2323 85.4625 18.0079 85.6227 17.7035 85.7429C17.3991 85.8631 17.0466 85.9192 16.638 85.9192C16.2295 85.9192 15.893 85.8711 15.6206 85.7749L15.3483 86.0633C15.2361 86.1755 15.188 86.2797 15.188 86.3838C15.188 86.536 15.2922 86.6161 15.5085 86.6161H17.5593C18.064 86.6161 18.4646 86.7523 18.753 87.0327C19.0414 87.3131 19.1936 87.6335 19.1936 88.002C19.1936 88.3705 19.1135 88.667 18.9613 88.8833C18.8091 89.0996 18.5847 89.2598 18.2963 89.3639C17.8077 89.5402 17.1828 89.6203 16.4298 89.6203C15.6767 89.6203 15.0839 89.5322 14.6753 89.3479C14.2668 89.1636 14.0585 88.8512 14.0585 88.4106C14.0585 88.2023 14.1226 88.01 14.2427 87.8418C14.3629 87.6736 14.5151 87.5454 14.6914 87.4493C14.2988 87.3291 14.1065 87.0407 14.1065 86.5921C14.1065 86.2957 14.2187 86.0233 14.451 85.7749L14.8916 85.3103C14.5872 84.9658 14.443 84.4932 14.443 83.9084C14.443 83.3876 14.5872 82.939 14.8676 82.5625C15.188 82.1219 15.7728 81.8976 16.614 81.8976C16.9825 81.8976 17.295 81.9456 17.5673 82.0338H19.1695V82.7948H18.5367C18.7129 83.1073 18.793 83.4357 18.793 83.7802C18.793 84.1247 18.761 84.405 18.6969 84.6213C18.6328 84.8376 18.5287 85.054 18.3764 85.2542H18.3845ZM15.2361 88.1222C15.2361 88.3465 15.3402 88.4987 15.5485 88.5628C15.7568 88.6269 16.1013 88.6589 16.582 88.6589C17.0626 88.6589 17.4071 88.6189 17.6074 88.5468C17.8077 88.4747 17.9118 88.3145 17.9118 88.0741C17.9118 87.7136 17.6635 87.5374 17.1588 87.5374H15.5165C15.3322 87.7056 15.2361 87.8979 15.2361 88.1302V88.1222ZM16.622 82.7548C15.9892 82.7548 15.6767 83.1393 15.6767 83.9084C15.6767 84.6774 15.9892 85.062 16.622 85.062C17.2549 85.062 17.5673 84.6774 17.5673 83.9084C17.5673 83.1393 17.2549 82.7548 16.622 82.7548Z" fill="black"/>
<path id="Vector_78" d="M22.2138 87.6656C21.3326 87.6656 20.6997 87.4252 20.3232 86.9526C19.9467 86.4719 19.7544 85.7509 19.7544 84.7816C19.7544 82.8589 20.5635 81.8976 22.1737 81.8976C23.103 81.8976 23.7359 82.186 24.0804 82.7628C24.3768 83.2595 24.521 83.9004 24.521 84.6854V85.0299H21.0041C21.0041 85.6308 21.1083 86.0553 21.3005 86.3037C21.4928 86.552 21.8133 86.6722 22.2539 86.6722C22.9668 86.6722 23.3434 86.4158 23.3914 85.9031L24.4489 85.9432C24.3447 87.0888 23.5997 87.6656 22.2218 87.6656H22.2138ZM22.9508 83.2034C22.7906 82.9951 22.5262 82.891 22.1657 82.891C21.8052 82.891 21.5329 82.9951 21.3646 83.1954C21.1964 83.3957 21.0842 83.7161 21.0362 84.1647H23.2552C23.2152 83.7321 23.1191 83.4197 22.9588 83.2114L22.9508 83.2034Z" fill="black"/>
<path id="Vector_79" d="M26.74 82.5305C27.3408 82.1059 27.9577 81.8976 28.5906 81.8976C29.2234 81.8976 29.6801 82.0498 29.9605 82.3622C30.2408 82.6747 30.385 83.0993 30.385 83.644V87.5294H29.0953V83.7802C29.0953 83.4517 29.0392 83.2194 28.919 83.0912C28.7988 82.9551 28.5906 82.891 28.3022 82.891C27.8375 82.891 27.4129 83.0352 27.0124 83.3236V87.5374H25.7226V82.0418H26.3314L26.748 82.5385L26.74 82.5305Z" fill="black"/>
<path id="Vector_80" d="M33.998 87.6656C33.1168 87.6656 32.4839 87.4252 32.1074 86.9526C31.7309 86.4719 31.5386 85.7509 31.5386 84.7816C31.5386 82.8589 32.3478 81.8976 33.958 81.8976C34.8873 81.8976 35.5201 82.186 35.8646 82.7628C36.161 83.2595 36.3052 83.9004 36.3052 84.6854V85.0299H32.7884C32.7884 85.6308 32.8925 86.0553 33.0848 86.3037C33.277 86.552 33.5975 86.6722 34.0381 86.6722C34.7511 86.6722 35.1276 86.4158 35.1757 85.9031L36.2331 85.9432C36.129 87.0888 35.384 87.6656 34.0061 87.6656H33.998ZM34.7351 83.2034C34.5748 82.9951 34.3105 82.891 33.95 82.891C33.5895 82.891 33.3171 82.9951 33.1489 83.1954C32.9806 83.3957 32.8685 83.7161 32.8204 84.1647H35.0395C34.9994 83.7321 34.9033 83.4197 34.7431 83.2114L34.7351 83.2034Z" fill="black"/>
<path id="Vector_81" d="M41.4404 85.9912C41.4404 87.0887 40.6713 87.6335 39.1332 87.6335C38.4602 87.6335 37.9636 87.4893 37.6351 87.1929C37.3067 86.8965 37.1064 86.4799 37.0182 85.9191L38.0196 85.7669C38.0917 86.3837 38.4763 86.6882 39.1652 86.6882C39.8542 86.6882 40.2067 86.4719 40.2067 86.0313C40.2067 85.855 40.1346 85.7188 39.9984 85.6307C39.8622 85.5426 39.5818 85.4464 39.1652 85.3503L38.7246 85.2462C38.1558 85.11 37.7473 84.9177 37.4989 84.6533C37.2506 84.397 37.1304 84.0205 37.1304 83.5238C37.1304 82.4343 37.8754 81.8895 39.3575 81.8895C39.9984 81.8895 40.479 82.0337 40.7915 82.3301C41.1119 82.6185 41.3042 83.0431 41.3843 83.6039L40.3829 83.7481C40.3108 83.1392 39.9583 82.8348 39.3174 82.8348C38.6765 82.8348 38.3641 83.0511 38.3641 83.4917C38.3641 83.668 38.4282 83.8042 38.5484 83.9003C38.6765 83.9964 38.9249 84.0846 39.3094 84.1727L39.8061 84.3009C40.3749 84.4451 40.7915 84.6373 41.0398 84.8937C41.2962 85.15 41.4163 85.5105 41.4163 85.9912H41.4404Z" fill="black"/>
<path id="Vector_82" d="M5.09406 96.5338H6.39986V103.552H5.01394L2.23409 98.7849V103.552H0.928284V96.5338H2.31421L5.09406 101.308V96.5338Z" fill="black"/>
<path id="Vector_83" d="M12.6485 100.804C12.6485 102.726 11.8153 103.688 10.149 103.688C8.48273 103.688 7.64957 102.726 7.64957 100.804C7.64957 98.881 8.48273 97.9197 10.149 97.9197C11.8153 97.9197 12.6485 98.881 12.6485 100.804ZM9.18771 102.214C9.35594 102.534 9.67638 102.694 10.149 102.694C10.6217 102.694 10.9421 102.534 11.1104 102.214C11.2786 101.893 11.3587 101.421 11.3587 100.804C11.3587 100.187 11.2786 99.7142 11.1104 99.3937C10.9421 99.0733 10.6217 98.9131 10.149 98.9131C9.67638 98.9131 9.35594 99.0733 9.18771 99.3937C9.01947 99.7142 8.93935 100.187 8.93935 100.804C8.93935 101.421 9.01947 101.893 9.18771 102.214Z" fill="black"/>
<path id="Vector_84" d="M13.0811 98.8891V98.0559H13.9623V97.0545L15.2521 96.7261V98.0559H16.3016V98.8891H15.2521V101.997C15.2521 102.27 15.2922 102.47 15.3723 102.582C15.4524 102.694 15.5726 102.758 15.7248 102.758C15.877 102.758 16.0532 102.734 16.2375 102.678L16.3977 103.479C16.0212 103.624 15.6847 103.688 15.3803 103.688C15.0759 103.688 14.8436 103.656 14.6673 103.584C14.4911 103.511 14.3549 103.431 14.2668 103.335C14.1786 103.239 14.1065 103.119 14.0665 102.959C13.9944 102.734 13.9623 102.454 13.9623 102.126V98.8971H13.0811V98.8891Z" fill="black"/>
<path id="Vector_85" d="M19.2897 97.9197C20.6836 97.9197 21.3886 98.5606 21.3886 99.8343V103.551H20.5555L20.187 102.879C19.6742 103.415 19.0734 103.688 18.3925 103.688C17.9038 103.688 17.5353 103.551 17.2789 103.279C17.0226 103.007 16.9024 102.638 16.9024 102.182C16.9024 101.725 17.0466 101.356 17.335 101.068C17.6234 100.788 18.1601 100.587 18.9532 100.475L20.1068 100.299V99.8343C20.1068 99.2095 19.8104 98.905 19.2256 98.905C18.6649 98.905 18.3364 99.1854 18.2322 99.7542L17.2309 99.4578C17.4712 98.4324 18.1601 97.9197 19.2977 97.9197H19.2897ZM18.801 102.742C19.2336 102.742 19.6662 102.526 20.0988 102.101V101.108L19.1776 101.268C18.761 101.34 18.4886 101.453 18.3524 101.605C18.2162 101.757 18.1521 101.933 18.1521 102.125C18.1521 102.318 18.2082 102.47 18.3284 102.574C18.4405 102.686 18.6008 102.734 18.809 102.734L18.801 102.742Z" fill="black"/>
<path id="Vector_86" d="M27.0284 102.013C27.0284 103.111 26.2594 103.656 24.7212 103.656C24.0483 103.656 23.5516 103.511 23.2232 103.215C22.8947 102.919 22.6944 102.502 22.6063 101.941L23.6077 101.789C23.6798 102.406 24.0643 102.71 24.7533 102.71C25.4422 102.71 25.7947 102.494 25.7947 102.053C25.7947 101.877 25.7226 101.741 25.5864 101.653C25.4502 101.565 25.1699 101.469 24.7533 101.373L24.3127 101.268C23.7439 101.132 23.3353 100.94 23.087 100.676C22.8386 100.419 22.7185 100.043 22.7185 99.546C22.7185 98.4565 23.4635 97.9117 24.9456 97.9117C25.5864 97.9117 26.0671 98.0559 26.3795 98.3524C26.7 98.6408 26.8923 99.0653 26.9724 99.6261L25.971 99.7703C25.8989 99.1615 25.5464 98.857 24.9055 98.857C24.2646 98.857 23.9522 99.0734 23.9522 99.514C23.9522 99.6902 24.0163 99.8264 24.1364 99.9225C24.2646 100.019 24.513 100.107 24.8975 100.195L25.3942 100.323C25.963 100.467 26.3795 100.66 26.6279 100.916C26.8842 101.172 27.0044 101.533 27.0044 102.013H27.0284Z" fill="black"/>
</g>
<g id="Group_4">
<path id="Vector_87" d="M58.7042 66.3801H59.5454L61.2678 71.6434H60.6429L60.1302 70.0572H58.1274L57.6147 71.6434H56.9899L58.7042 66.3801ZM59.1288 66.9409L58.2877 69.5525H59.97L59.1368 66.9409H59.1288Z" fill="black"/>
<path id="Vector_88" d="M62.7819 71.6434H62.165V66.1798L62.7819 66.0917V71.6434Z" fill="black"/>
<path id="Vector_89" d="M63.6952 67.9422V67.5176H64.4002V66.7646L65.017 66.5162V67.5096H65.8902V67.9342H65.017V70.666C65.017 70.8823 65.0491 71.0345 65.1051 71.1226C65.1692 71.2107 65.2493 71.2588 65.3695 71.2588C65.4897 71.2588 65.6259 71.2428 65.7941 71.2027L65.8662 71.6193C65.6098 71.6994 65.3855 71.7314 65.2093 71.7314C65.033 71.7314 64.8808 71.6994 64.7687 71.6433C64.6565 71.5872 64.5684 71.4991 64.5203 71.387C64.4402 71.2107 64.4002 70.9784 64.4002 70.69V67.9342H63.6952V67.9422Z" fill="black"/>
<path id="Vector_90" d="M67.9411 71.7395C67.5165 71.7395 67.2041 71.6354 67.0118 71.4191C66.8195 71.2028 66.7234 70.8824 66.7234 70.4578V67.5177H67.3402V70.4177C67.3402 70.6981 67.4043 70.9064 67.5245 71.0426C67.6447 71.1788 67.8369 71.2429 68.1013 71.2429C68.5659 71.2429 68.9985 71.0025 69.4071 70.5299V67.5257H70.024V71.6514H69.6154L69.4231 71.0426C68.9745 71.5152 68.4858 71.7556 67.9411 71.7556V71.7395Z" fill="black"/>
<path id="Vector_91" d="M72.1709 71.6433H71.554V67.5176H71.9225L72.1468 68.2547C72.4833 67.7179 72.972 67.4455 73.6209 67.4215V67.9903C72.972 68.0143 72.4913 68.2867 72.1709 68.8154V71.6514V71.6433Z" fill="black"/>
<path id="Vector_92" d="M76.7773 67.6938C77.0657 67.9021 77.2099 68.2867 77.2099 68.8635V71.6433H76.8013L76.6411 71.0024C76.1765 71.4991 75.6717 71.7475 75.119 71.7475C74.7505 71.7475 74.4861 71.6513 74.3179 71.4591C74.1496 71.2668 74.0615 71.0104 74.0615 70.682C74.0615 70.3535 74.1657 70.0892 74.3659 69.8889C74.5662 69.6886 74.9507 69.5444 75.5195 69.4483L76.593 69.272V68.8635C76.593 68.511 76.5209 68.2626 76.3687 68.1264C76.2165 67.9902 76.0082 67.9262 75.7438 67.9262C75.2151 67.9262 74.9027 68.1825 74.7985 68.6952L74.2938 68.543C74.374 68.1905 74.5342 67.9101 74.7745 67.7099C75.0229 67.5096 75.3513 67.4135 75.7759 67.4135C76.2005 67.4135 76.5289 67.5016 76.7853 67.6858L76.7773 67.6938ZM75.2952 71.2668C75.7278 71.2668 76.1604 71.0345 76.593 70.5698V69.7046L75.5756 69.8809C75.2311 69.945 74.9988 70.0411 74.8706 70.1693C74.7425 70.2974 74.6784 70.4657 74.6784 70.6499C74.6784 70.8342 74.7264 70.9864 74.8306 71.0986C74.9347 71.2107 75.0869 71.2668 75.2952 71.2668Z" fill="black"/>
<path id="Vector_93" d="M82.6254 67.4135C83.1861 67.4135 83.5546 67.6057 83.7469 67.9822C83.9232 67.822 84.1395 67.6858 84.3878 67.5817C84.6361 67.4695 84.8925 67.4135 85.1569 67.4135C85.99 67.4135 86.4146 67.8461 86.4146 68.7032V71.6353H85.7977V68.7353C85.7977 68.4629 85.7417 68.2626 85.6215 68.1264C85.5093 67.9902 85.3171 67.9182 85.0607 67.9182C84.6361 67.9182 84.2356 68.0784 83.8751 68.4068C83.8911 68.503 83.8991 68.5991 83.8991 68.7032V71.6353H83.2823V68.7353C83.2823 68.4629 83.2262 68.2626 83.106 68.1264C82.9939 67.9902 82.8016 67.9182 82.5372 67.9182C82.1207 67.9182 81.7361 68.0704 81.3836 68.3748V71.6433H80.7668V67.5176H81.1513L81.3115 67.9262C81.7121 67.5817 82.1607 67.4135 82.6414 67.4135H82.6254Z" fill="black"/>
<path id="Vector_94" d="M89.2425 71.7394C88.6096 71.7394 88.161 71.5632 87.8966 71.2027C87.6243 70.8422 87.4961 70.3055 87.4961 69.5764C87.4961 68.1344 88.0729 67.4135 89.2185 67.4135C90.3641 67.4135 90.9168 68.1024 90.9168 69.4883V69.6405H88.1049C88.1049 70.2093 88.193 70.6179 88.3613 70.8662C88.5295 71.1146 88.8259 71.2347 89.2425 71.2347C89.9234 71.2347 90.292 70.9624 90.34 70.4016L90.8527 70.4336C90.7646 71.3068 90.2279 71.7394 89.2425 71.7394ZM90.0196 68.2466C89.8594 68.0303 89.595 67.9182 89.2185 67.9182C88.842 67.9182 88.5776 68.0303 88.4094 68.2546C88.2411 68.4789 88.145 68.7914 88.1129 69.1839H90.292C90.2679 68.7834 90.1798 68.4709 90.0196 68.2466Z" fill="black"/>
<path id="Vector_95" d="M92.9837 71.7395C92.1025 71.7395 91.6539 71.0185 91.6539 69.5765C91.6539 68.1345 92.1906 67.4135 93.2641 67.4135C93.6326 67.4135 94.0171 67.5097 94.4017 67.6939V66.1718L95.0185 66.0997V71.6354H94.61L94.4337 71.0105C93.9931 71.4992 93.5124 71.7395 92.9837 71.7395ZM93.184 71.2348C93.6166 71.2348 94.0252 71.0025 94.4017 70.5459V68.1906C94.0572 68.0064 93.7127 67.9102 93.3843 67.9102C92.9837 67.9102 92.6953 68.0544 92.5271 68.3508C92.3589 68.6473 92.2707 69.0558 92.2707 69.5846C92.2707 70.6901 92.5752 71.2428 93.176 71.2428L93.184 71.2348Z" fill="black"/>
<path id="Vector_96" d="M96.8691 66.8287C96.6207 66.8287 96.5005 66.6925 96.5005 66.4281C96.5005 66.1638 96.6207 66.0276 96.8691 66.0276C97.1174 66.0276 97.2536 66.1638 97.2536 66.4281C97.2536 66.6925 97.1254 66.8287 96.8691 66.8287ZM96.5566 67.5177H97.1735V71.6434H96.5566V67.5177Z" fill="black"/>
<path id="Vector_97" d="M101.043 67.6938C101.331 67.9021 101.475 68.2867 101.475 68.8635V71.6433H101.067L100.907 71.0024C100.442 71.4991 99.9373 71.7475 99.3846 71.7475C99.016 71.7475 98.7517 71.6513 98.5834 71.4591C98.4152 71.2668 98.3271 71.0104 98.3271 70.682C98.3271 70.3535 98.4312 70.0892 98.6315 69.8889C98.8318 69.6886 99.2163 69.5444 99.7851 69.4483L100.859 69.272V68.8635C100.859 68.511 100.786 68.2626 100.634 68.1264C100.482 67.9902 100.274 67.9262 100.009 67.9262C99.4807 67.9262 99.1683 68.1825 99.0641 68.6952L98.5594 68.543C98.6395 68.1905 98.7998 67.9101 99.0401 67.7099C99.2884 67.5096 99.6169 67.4135 100.041 67.4135C100.466 67.4135 100.794 67.5016 101.051 67.6858L101.043 67.6938ZM99.5608 71.2668C99.9934 71.2668 100.426 71.0345 100.859 70.5698V69.7046L99.8412 69.8809C99.4967 69.945 99.2644 70.0411 99.1362 70.1693C99.008 70.2974 98.9439 70.4657 98.9439 70.6499C98.9439 70.8342 98.992 70.9864 99.0961 71.0986C99.2003 71.2107 99.3525 71.2668 99.5608 71.2668Z" fill="black"/>
<path id="Vector_98" d="M103.358 71.4671C103.35 71.5232 103.31 71.5712 103.246 71.6193C103.182 71.6674 103.094 71.6914 102.982 71.6914C102.869 71.6914 102.781 71.6674 102.725 71.6193C102.661 71.5712 102.629 71.5232 102.621 71.4671C102.613 71.411 102.605 71.3469 102.605 71.2748C102.605 71.2027 102.605 71.1386 102.613 71.0986C102.621 71.0585 102.637 71.0105 102.661 70.9624C102.701 70.8582 102.805 70.8102 102.982 70.8102C103.158 70.8102 103.262 70.8502 103.31 70.9303C103.358 71.0105 103.382 71.1066 103.382 71.2187C103.382 71.3309 103.382 71.419 103.366 71.4671H103.358Z" fill="black"/>
<path id="Vector_99" d="M59.1769 85.7108H58.2636V87.6655H57.6307V82.4022H59.1769C60.2664 82.4022 60.8031 82.955 60.8031 84.0605C60.8031 85.166 60.2584 85.7188 59.1769 85.7188V85.7108ZM58.2636 85.2061H59.1448C59.8338 85.2061 60.1783 84.8216 60.1783 84.0525C60.1783 83.2834 59.8338 82.8989 59.1448 82.8989H58.2636V85.1981V85.2061Z" fill="black"/>
<path id="Vector_100" d="M63.2546 87.7617C62.6217 87.7617 62.1731 87.5854 61.9087 87.2249C61.6364 86.8644 61.5082 86.3277 61.5082 85.5987C61.5082 84.1567 62.085 83.4357 63.2306 83.4357C64.3761 83.4357 64.9289 84.1246 64.9289 85.5105V85.6628H62.117C62.117 86.2315 62.2051 86.6401 62.3734 86.8884C62.5416 87.1368 62.838 87.257 63.2546 87.257C63.9355 87.257 64.304 86.9846 64.3521 86.4238L64.8648 86.4559C64.7767 87.3291 64.24 87.7617 63.2546 87.7617ZM64.0317 84.2688C63.8714 84.0525 63.6071 83.9404 63.2306 83.9404C62.854 83.9404 62.5897 84.0525 62.4214 84.2768C62.2532 84.5011 62.1571 84.8136 62.125 85.2061H64.304C64.28 84.8056 64.1919 84.4931 64.0317 84.2688Z" fill="black"/>
<path id="Vector_101" d="M66.6673 87.6656H66.0504V83.5399H66.4189L66.6432 84.2769C66.9797 83.7401 67.4684 83.4678 68.1173 83.4437V84.0125C67.4684 84.0365 66.9877 84.3089 66.6673 84.8376V87.6736V87.6656Z" fill="black"/>
<path id="Vector_102" d="M70.08 87.7617C69.6554 87.7617 69.343 87.6576 69.1507 87.4413C68.9584 87.225 68.8623 86.9045 68.8623 86.4799V83.5399H69.4792V86.4399C69.4792 86.7203 69.5432 86.9286 69.6634 87.0647C69.7836 87.2009 69.9758 87.265 70.2402 87.265C70.7049 87.265 71.1375 87.0247 71.546 86.552V83.5479H72.1629V87.6736H71.7543L71.562 87.0647C71.1134 87.5374 70.6247 87.7777 70.08 87.7777V87.7617ZM70.3764 83.1553L70.096 82.8269L71.3057 81.7053L71.6982 82.17L70.3764 83.1633V83.1553Z" fill="black"/>
<path id="Vector_103" d="M74.1256 87.4893C74.1176 87.5454 74.0775 87.5934 74.0134 87.6415C73.9494 87.6896 73.8612 87.7136 73.7491 87.7136C73.6369 87.7136 73.5488 87.6896 73.4927 87.6415C73.4286 87.5934 73.3966 87.5454 73.3886 87.4893C73.3806 87.4332 73.3726 87.3691 73.3726 87.297C73.3726 87.2249 73.3726 87.1609 73.3806 87.1208C73.3886 87.0807 73.4046 87.0327 73.4286 86.9846C73.4687 86.8805 73.5728 86.8324 73.7491 86.8324C73.9253 86.8324 74.0295 86.8724 74.0775 86.9526C74.1256 87.0327 74.1496 87.1288 74.1496 87.241C74.1496 87.3531 74.1496 87.4412 74.1336 87.4893H74.1256Z" fill="black"/>
<path id="Vector_104" d="M57.6307 98.4244H60.2824V98.9291H58.2636V100.764H60.1142V101.268H58.2636V103.688H57.6307V98.4244Z" fill="black"/>
<path id="Vector_105" d="M61.9888 103.688H61.3719V98.2241L61.9888 98.136V103.688Z" fill="black"/>
<path id="Vector_106" d="M66.7153 101.621C66.7153 103.063 66.1225 103.784 64.9289 103.784C63.7352 103.784 63.1424 103.063 63.1424 101.621C63.1424 100.179 63.7352 99.4579 64.9289 99.4579C66.1225 99.4579 66.7153 100.179 66.7153 101.621ZM64.328 103.143C64.4883 103.231 64.6885 103.279 64.9289 103.279C65.1692 103.279 65.3695 103.231 65.5297 103.143C65.6899 103.055 65.8101 102.927 65.8902 102.758C65.9703 102.59 66.0184 102.422 66.0504 102.238C66.0825 102.061 66.0985 101.853 66.0985 101.613C66.0985 101.373 66.0825 101.172 66.0504 100.988C66.0184 100.804 65.9623 100.636 65.8902 100.467C65.8101 100.299 65.6979 100.171 65.5297 100.083C65.3615 99.9946 65.1692 99.9466 64.9289 99.9466C64.6885 99.9466 64.4883 99.9866 64.328 100.083C64.1678 100.171 64.0476 100.299 63.9675 100.467C63.8874 100.636 63.8313 100.804 63.8073 100.98C63.7753 101.156 63.7673 101.365 63.7673 101.605C63.7673 101.845 63.7833 102.053 63.8073 102.23C63.8394 102.406 63.8874 102.582 63.9675 102.742C64.0476 102.903 64.1678 103.039 64.328 103.127V103.143Z" fill="black"/>
<path id="Vector_107" d="M68.4858 103.688H67.869V99.5619H68.2375L68.4618 100.299C68.7982 99.7622 69.2869 99.4899 69.9358 99.4658V100.035C69.2869 100.059 68.8062 100.331 68.4858 100.86V103.696V103.688Z" fill="black"/>
<path id="Vector_108" d="M73.0922 99.7383C73.3806 99.9466 73.5248 100.331 73.5248 100.908V103.688H73.1162L72.956 103.047C72.4913 103.544 71.9866 103.792 71.4339 103.792C71.0654 103.792 70.801 103.696 70.6328 103.503C70.4645 103.311 70.3764 103.055 70.3764 102.726C70.3764 102.398 70.4806 102.134 70.6808 101.933C70.8811 101.733 71.2656 101.589 71.8344 101.493L72.9079 101.316V100.908C72.9079 100.555 72.8358 100.307 72.6836 100.171C72.5314 100.035 72.3231 99.9706 72.0587 99.9706C71.53 99.9706 71.2176 100.227 71.1134 100.74L70.6087 100.587C70.6888 100.235 70.8491 99.9546 71.0894 99.7543C71.3377 99.554 71.6662 99.4579 72.0908 99.4579C72.5154 99.4579 72.8438 99.546 73.1002 99.7303L73.0922 99.7383ZM71.6101 103.311C72.0427 103.311 72.4753 103.079 72.9079 102.614V101.749L71.8905 101.925C71.546 101.989 71.3137 102.086 71.1855 102.214C71.0574 102.342 70.9933 102.51 70.9933 102.694C70.9933 102.879 71.0413 103.031 71.1455 103.143C71.2496 103.255 71.4018 103.311 71.6101 103.311Z" fill="black"/>
<path id="Vector_109" d="M75.6076 103.688H74.9908V98.2241L75.6076 98.136V103.688Z" fill="black"/>
<path id="Vector_110" d="M76.8494 103.551C76.8173 103.439 76.8013 103.343 76.8013 103.263C76.8013 103.183 76.8013 103.119 76.8173 103.071C76.8253 103.023 76.8654 102.975 76.9215 102.927C76.9775 102.879 77.0657 102.854 77.1778 102.854C77.29 102.854 77.3781 102.879 77.4342 102.927C77.4902 102.975 77.5303 103.023 77.5383 103.071C77.5463 103.119 77.5543 103.207 77.5543 103.335C77.5543 103.463 77.5223 103.608 77.4582 103.76C77.3941 103.912 77.306 104.048 77.2018 104.168C77.0416 104.345 76.9054 104.481 76.7853 104.569L76.601 104.353C76.6651 104.288 76.7212 104.24 76.7532 104.2C76.8494 104.088 76.8974 103.952 76.8974 103.784C76.8974 103.736 76.8814 103.656 76.8494 103.543V103.551Z" fill="black"/>
<path id="Vector_111" d="M82.1527 98.5846C81.7761 98.5846 81.5919 98.8009 81.5919 99.2415V99.562H82.5452V99.9866H81.5919V103.688H80.975V99.9866H80.5024V99.562H80.975V99.2415C80.975 98.4805 81.3516 98.0959 82.1126 98.0959C82.393 98.0959 82.6494 98.136 82.8737 98.2161L82.7134 98.6808C82.5532 98.6167 82.361 98.5766 82.1527 98.5766V98.5846Z" fill="black"/>
<path id="Vector_112" d="M83.9071 103.688H83.2903V99.5619H83.6588L83.8831 100.299C84.2196 99.7622 84.7082 99.4899 85.3571 99.4658V100.035C84.7082 100.059 84.2276 100.331 83.9071 100.86V103.696V103.688Z" fill="black"/>
<path id="Vector_113" d="M87.3279 103.784C86.9033 103.784 86.5908 103.68 86.3986 103.463C86.2063 103.247 86.1102 102.927 86.1102 102.502V99.562H86.727V102.462C86.727 102.742 86.7911 102.951 86.9113 103.087C87.0314 103.223 87.2237 103.287 87.4881 103.287C87.9527 103.287 88.3853 103.047 88.7939 102.574V99.57H89.4107V103.696H89.0022L88.8099 103.087C88.3613 103.56 87.8726 103.8 87.3279 103.8V103.784Z" fill="black"/>
<path id="Vector_114" d="M90.324 99.9865V99.5619H91.029V98.8089L91.6459 98.5605V99.5539H92.5191V99.9785H91.6459V102.71C91.6459 102.927 91.6779 103.079 91.734 103.167C91.7981 103.255 91.8782 103.303 91.9983 103.303C92.1185 103.303 92.2547 103.287 92.4229 103.247L92.495 103.664C92.2387 103.744 92.0144 103.776 91.8381 103.776C91.6619 103.776 91.5097 103.744 91.3975 103.688C91.2854 103.632 91.1972 103.543 91.1492 103.431C91.0691 103.255 91.029 103.023 91.029 102.734V99.9785H90.324V99.9865Z" fill="black"/>
<path id="Vector_115" d="M95.7635 99.7383C96.0519 99.9466 96.1961 100.331 96.1961 100.908V103.688H95.7876L95.6274 103.047C95.1627 103.544 94.658 103.792 94.1053 103.792C93.7367 103.792 93.4724 103.696 93.3042 103.503C93.1359 103.311 93.0478 103.055 93.0478 102.726C93.0478 102.398 93.1519 102.134 93.3522 101.933C93.5525 101.733 93.937 101.589 94.5058 101.493L95.5793 101.316V100.908C95.5793 100.555 95.5072 100.307 95.355 100.171C95.2028 100.035 94.9945 99.9706 94.7301 99.9706C94.2014 99.9706 93.889 100.227 93.7848 100.74L93.2801 100.587C93.3602 100.235 93.5204 99.9546 93.7608 99.7543C94.0091 99.554 94.3376 99.4579 94.7622 99.4579C95.1868 99.4579 95.5152 99.546 95.7716 99.7303L95.7635 99.7383ZM94.2815 103.311C94.7141 103.311 95.1467 103.079 95.5793 102.614V101.749L94.5619 101.925C94.2174 101.989 93.9851 102.086 93.8569 102.214C93.7287 102.342 93.6646 102.51 93.6646 102.694C93.6646 102.879 93.7127 103.031 93.8169 103.143C93.921 103.255 94.0732 103.311 94.2815 103.311Z" fill="black"/>
<path id="Vector_116" d="M101.612 99.4579C102.172 99.4579 102.541 99.6502 102.733 100.027C102.909 99.8665 103.126 99.7303 103.374 99.6261C103.622 99.514 103.879 99.4579 104.143 99.4579C104.976 99.4579 105.401 99.8905 105.401 100.748V103.68H104.784V100.78C104.784 100.507 104.728 100.307 104.608 100.171C104.496 100.035 104.303 99.9626 104.047 99.9626C103.622 99.9626 103.222 100.123 102.861 100.451C102.877 100.547 102.885 100.644 102.885 100.748V103.68H102.269V100.78C102.269 100.507 102.212 100.307 102.092 100.171C101.98 100.035 101.788 99.9626 101.523 99.9626C101.107 99.9626 100.722 100.115 100.37 100.419V103.688H99.7531V99.562H100.138L100.298 99.9706C100.698 99.6261 101.147 99.4579 101.628 99.4579H101.612Z" fill="black"/>
<path id="Vector_117" d="M109.19 99.7383C109.479 99.9466 109.623 100.331 109.623 100.908V103.688H109.214L109.054 103.047C108.589 103.544 108.085 103.792 107.532 103.792C107.163 103.792 106.899 103.696 106.731 103.503C106.562 103.311 106.474 103.055 106.474 102.726C106.474 102.398 106.579 102.134 106.779 101.933C106.979 101.733 107.364 101.589 107.932 101.493L109.006 101.316V100.908C109.006 100.555 108.934 100.307 108.782 100.171C108.629 100.035 108.421 99.9706 108.157 99.9706C107.628 99.9706 107.316 100.227 107.211 100.74L106.707 100.587C106.787 100.235 106.947 99.9546 107.187 99.7543C107.436 99.554 107.764 99.4579 108.189 99.4579C108.613 99.4579 108.942 99.546 109.198 99.7303L109.19 99.7383ZM107.708 103.311C108.141 103.311 108.573 103.079 109.006 102.614V101.749L107.988 101.925C107.644 101.989 107.412 102.086 107.283 102.214C107.155 102.342 107.091 102.51 107.091 102.694C107.091 102.879 107.139 103.031 107.243 103.143C107.348 103.255 107.5 103.311 107.708 103.311Z" fill="black"/>
<path id="Vector_118" d="M112.026 103.784C111.145 103.784 110.696 103.063 110.696 101.621C110.696 100.179 111.233 99.4579 112.306 99.4579C112.675 99.4579 113.059 99.554 113.444 99.7383V98.2161L114.061 98.144V103.68H113.652L113.476 103.055C113.035 103.544 112.555 103.784 112.026 103.784ZM112.226 103.279C112.659 103.279 113.067 103.047 113.444 102.59V100.235C113.099 100.051 112.755 99.9546 112.427 99.9546C112.026 99.9546 111.738 100.099 111.569 100.395C111.401 100.692 111.313 101.1 111.313 101.629C111.313 102.734 111.617 103.287 112.218 103.287L112.226 103.279Z" fill="black"/>
<path id="Vector_119" d="M116.745 103.784C116.32 103.784 116.008 103.68 115.815 103.463C115.623 103.247 115.527 102.927 115.527 102.502V99.562H116.144V102.462C116.144 102.742 116.208 102.951 116.328 103.087C116.448 103.223 116.64 103.287 116.905 103.287C117.369 103.287 117.802 103.047 118.211 102.574V99.57H118.827V103.696H118.419L118.227 103.087C117.778 103.56 117.289 103.8 116.745 103.8V103.784Z" fill="black"/>
<path id="Vector_120" d="M120.974 103.688H120.358V99.5619H120.726L120.95 100.299C121.287 99.7622 121.776 99.4899 122.424 99.4658V100.035C121.776 100.059 121.295 100.331 120.974 100.86V103.696V103.688Z" fill="black"/>
<path id="Vector_121" d="M125.581 99.7383C125.869 99.9466 126.013 100.331 126.013 100.908V103.688H125.605L125.445 103.047C124.98 103.544 124.475 103.792 123.923 103.792C123.554 103.792 123.29 103.696 123.121 103.503C122.953 103.311 122.865 103.055 122.865 102.726C122.865 102.398 122.969 102.134 123.169 101.933C123.37 101.733 123.754 101.589 124.323 101.493L125.397 101.316V100.908C125.397 100.555 125.324 100.307 125.172 100.171C125.02 100.035 124.812 99.9706 124.547 99.9706C124.019 99.9706 123.706 100.227 123.602 100.74L123.097 100.587C123.177 100.235 123.338 99.9546 123.578 99.7543C123.826 99.554 124.155 99.4579 124.579 99.4579C125.004 99.4579 125.332 99.546 125.589 99.7303L125.581 99.7383ZM124.099 103.311C124.531 103.311 124.964 103.079 125.397 102.614V101.749L124.379 101.925C124.035 101.989 123.802 102.086 123.674 102.214C123.546 102.342 123.482 102.51 123.482 102.694C123.482 102.879 123.53 103.031 123.634 103.143C123.738 103.255 123.89 103.311 124.099 103.311Z" fill="black"/>
<path id="Vector_122" d="M58.4639 114.262L57.9032 114.158L58.536 112.524L56.9819 108.374H57.6228L58.8405 111.715L60.0261 108.374H60.659L58.4639 114.262Z" fill="black"/>
<path id="Vector_123" d="M63.8794 110.433C63.8794 110.665 63.8954 110.882 63.9195 111.058C63.9515 111.242 63.9996 111.41 64.0797 111.579C64.2399 111.923 64.5363 112.091 64.9769 112.091C65.3374 112.091 65.5938 112.019 65.754 111.875C65.9142 111.731 65.9943 111.523 66.0104 111.242L66.5151 111.266C66.483 111.691 66.3468 112.019 66.1145 112.252C65.8822 112.484 65.4977 112.596 64.9609 112.596C64.2079 112.596 63.7032 112.292 63.4629 111.675C63.3267 111.338 63.2626 110.97 63.2626 110.569C63.2626 110.169 63.2866 109.848 63.3347 109.616C63.3827 109.376 63.4709 109.151 63.583 108.935C63.8314 108.494 64.296 108.27 64.9609 108.27C65.4977 108.27 65.8822 108.382 66.1145 108.598C66.3468 108.815 66.483 109.135 66.5151 109.544L66.0184 109.616C66.0024 109.336 65.9223 109.127 65.762 108.983C65.6018 108.839 65.3455 108.775 64.985 108.775C64.5443 108.775 64.2399 108.943 64.0877 109.287C63.9515 109.568 63.8874 109.952 63.8874 110.433H63.8794Z" fill="black"/>
<path id="Vector_124" d="M69.9358 108.55C70.2242 108.759 70.3684 109.143 70.3684 109.72V112.5H69.9598L69.7996 111.859C69.335 112.356 68.8303 112.604 68.2775 112.604C67.909 112.604 67.6446 112.508 67.4764 112.316C67.3082 112.123 67.22 111.867 67.22 111.539C67.22 111.21 67.3242 110.946 67.5245 110.745C67.7247 110.545 68.1093 110.401 68.6781 110.305L69.7515 110.129V109.72C69.7515 109.368 69.6794 109.119 69.5272 108.983C69.375 108.847 69.1667 108.783 68.9024 108.783C68.3736 108.783 68.0612 109.039 67.9571 109.552L67.4524 109.4C67.5325 109.047 67.6927 108.767 67.933 108.566C68.1814 108.366 68.5098 108.27 68.9344 108.27C69.359 108.27 69.6875 108.358 69.9438 108.542L69.9358 108.55ZM68.4537 112.123C68.8863 112.123 69.3189 111.891 69.7515 111.426V110.561L68.7341 110.737C68.3896 110.802 68.1573 110.898 68.0292 111.026C67.901 111.154 67.8369 111.322 67.8369 111.507C67.8369 111.691 67.885 111.843 67.9891 111.955C68.0932 112.067 68.2455 112.123 68.4537 112.123Z" fill="black"/>
<path id="Vector_125" d="M72.0747 110.433C72.0747 110.665 72.0908 110.882 72.1148 111.058C72.1468 111.242 72.1949 111.41 72.275 111.579C72.4352 111.923 72.7316 112.091 73.1723 112.091C73.5328 112.091 73.7891 112.019 73.9493 111.875C74.1096 111.731 74.1897 111.523 74.2057 111.242L74.7104 111.266C74.6783 111.691 74.5422 112.019 74.3098 112.252C74.0775 112.484 73.693 112.596 73.1562 112.596C72.4032 112.596 71.8985 112.292 71.6582 111.675C71.522 111.338 71.4579 110.97 71.4579 110.569C71.4579 110.169 71.4819 109.848 71.53 109.616C71.578 109.376 71.6662 109.151 71.7783 108.935C72.0267 108.494 72.4913 108.27 73.1562 108.27C73.693 108.27 74.0775 108.382 74.3098 108.598C74.5422 108.815 74.6783 109.135 74.7104 109.544L74.2137 109.616C74.1977 109.336 74.1176 109.127 73.9573 108.983C73.7971 108.839 73.5408 108.775 73.1803 108.775C72.7397 108.775 72.4352 108.943 72.283 109.287C72.1468 109.568 72.0827 109.952 72.0827 110.433H72.0747Z" fill="black"/>
<path id="Vector_126" d="M78.1312 108.55C78.4196 108.759 78.5638 109.143 78.5638 109.72V112.5H78.1552L77.995 111.859C77.5303 112.356 77.0256 112.604 76.4729 112.604C76.1044 112.604 75.84 112.508 75.6718 112.316C75.5035 112.123 75.4154 111.867 75.4154 111.539C75.4154 111.21 75.5195 110.946 75.7198 110.745C75.9201 110.545 76.3046 110.401 76.8734 110.305L77.9469 110.129V109.72C77.9469 109.368 77.8748 109.119 77.7226 108.983C77.5704 108.847 77.3621 108.783 77.0977 108.783C76.569 108.783 76.2566 109.039 76.1524 109.552L75.6477 109.4C75.7278 109.047 75.8881 108.767 76.1284 108.566C76.3767 108.366 76.7052 108.27 77.1298 108.27C77.5544 108.27 77.8828 108.358 78.1392 108.542L78.1312 108.55ZM76.6491 112.123C77.0817 112.123 77.5143 111.891 77.9469 111.426V110.561L76.9295 110.737C76.585 110.802 76.3527 110.898 76.2245 111.026C76.0963 111.154 76.0323 111.322 76.0323 111.507C76.0323 111.691 76.0803 111.843 76.1845 111.955C76.2886 112.067 76.4408 112.123 76.6491 112.123Z" fill="black"/>
<path id="Vector_127" d="M83.2182 110.433C83.2182 111.875 82.6254 112.596 81.4317 112.596C80.2381 112.596 79.6453 111.875 79.6453 110.433C79.6453 108.991 80.2381 108.27 81.4317 108.27C82.6254 108.27 83.2182 108.991 83.2182 110.433ZM80.8309 111.955C80.9911 112.043 81.1914 112.091 81.4317 112.091C81.6721 112.091 81.8723 112.043 82.0326 111.955C82.1928 111.867 82.3129 111.739 82.3931 111.571C82.4732 111.402 82.5212 111.234 82.5533 111.05C82.5853 110.874 82.6014 110.665 82.6014 110.425C82.6014 110.185 82.5853 109.984 82.5533 109.8C82.5212 109.616 82.4652 109.448 82.3931 109.279C82.3129 109.111 82.2008 108.983 82.0326 108.895C81.8643 108.807 81.6721 108.759 81.4317 108.759C81.1914 108.759 80.9911 108.799 80.8309 108.895C80.6707 108.983 80.5505 109.111 80.4704 109.279C80.3903 109.448 80.3342 109.616 80.3102 109.792C80.2781 109.968 80.2701 110.177 80.2701 110.417C80.2701 110.657 80.2862 110.866 80.3102 111.042C80.3422 111.218 80.3903 111.394 80.4704 111.555C80.5505 111.715 80.6707 111.851 80.8309 111.939V111.955Z" fill="black"/>
<path id="Vector_128" d="M84.8044 112.324C84.7964 112.38 84.7564 112.428 84.6923 112.476C84.6282 112.524 84.5401 112.548 84.4279 112.548C84.3158 112.548 84.2276 112.524 84.1716 112.476C84.1075 112.428 84.0754 112.38 84.0674 112.324C84.0594 112.268 84.0514 112.203 84.0514 112.131C84.0514 112.059 84.0514 111.995 84.0594 111.955C84.0674 111.915 84.0834 111.867 84.1075 111.819C84.1475 111.715 84.2517 111.667 84.4279 111.667C84.6042 111.667 84.7083 111.707 84.7564 111.787C84.8044 111.867 84.8285 111.963 84.8285 112.075C84.8285 112.187 84.8285 112.276 84.8124 112.324H84.8044Z" fill="black"/>
</g>
</g>
</svg>
