<svg width="50" height="50" viewBox="0 0 50 50" fill="none" xmlns="http://www.w3.org/2000/svg">
<g id="Capa_1" clip-path="url(#clip0_1_173)">
<path id="Vector" d="M24.69 49.38C38.3259 49.38 49.38 38.3259 49.38 24.69C49.38 11.0541 38.3259 0 24.69 0C11.0541 0 0 11.0541 0 24.69C0 38.3259 11.0541 49.38 24.69 49.38Z" fill="#602E3E"/>
<path id="Vector_2" d="M23.98 9.76999C24.56 9.76999 25.13 9.76999 25.71 9.76999C26.2 9.82999 26.7 9.87999 27.19 9.95999C30.25 10.47 32.93 11.78 35.13 13.97C38.48 17.29 39.95 21.34 39.53 26.02C39.25 29.13 38.05 31.9 35.96 34.23C32.44 38.14 28.04 39.78 22.82 39.16C20.71 38.91 18.76 38.16 16.97 37.02C16.79 36.91 16.64 36.89 16.44 36.95C14.74 37.5 13.04 38.04 11.34 38.59C11.25 38.62 11.17 38.64 11.05 38.66C11.09 38.54 11.11 38.46 11.14 38.38C11.68 36.77 12.22 35.16 12.77 33.55C12.86 33.3 12.84 33.12 12.69 32.89C11.46 31.13 10.67 29.19 10.3 27.08C10.19 26.47 10.14 25.85 10.07 25.23C10.07 24.71 10.07 24.19 10.07 23.67C10.09 23.59 10.11 23.5 10.12 23.42C10.29 21.13 10.94 18.99 12.13 17.03C14.47 13.19 17.86 10.83 22.29 9.99999C22.84 9.89999 23.41 9.84999 23.97 9.76999H23.98ZM29.6 32.86C30.08 32.77 30.5 32.74 30.88 32.61C32.97 31.9 33.68 30.89 33.74 28.96C33.74 28.65 33.64 28.45 33.36 28.32C32.27 27.8 31.18 27.26 30.09 26.75C29.5 26.47 29.17 26.58 28.78 27.12C28.51 27.49 28.24 27.87 27.95 28.23C27.48 28.83 27.17 28.9 26.48 28.62C24.07 27.63 22.27 25.95 20.92 23.75C20.61 23.25 20.63 23.08 21.02 22.63C21.29 22.32 21.58 22.02 21.84 21.7C22.08 21.4 22.3 21.08 22.13 20.67C21.62 19.44 21.1 18.21 20.57 16.99C20.5 16.84 20.34 16.67 20.19 16.63C19.4 16.45 18.59 16.41 17.94 16.96C16.54 18.14 16.09 19.7 16.37 21.47C16.57 22.73 17.16 23.83 17.87 24.87C19.02 26.54 20.31 28.08 21.86 29.4C23.58 30.87 25.57 31.81 27.72 32.44C28.36 32.63 29.03 32.73 29.63 32.87L29.6 32.86Z" fill="#EFECE7"/>
</g>
<defs>
<clipPath id="clip0_1_173">
<rect width="49.38" height="49.38" fill="white"/>
</clipPath>
</defs>
</svg>
