<svg width="19" height="19" viewBox="0 0 19 19" fill="none" xmlns="http://www.w3.org/2000/svg">
<g id="Capa_1" clip-path="url(#clip0_1_189)">
<path id="Vector" d="M14.1366 19H4.86063C4.66615 18.969 4.47026 18.9493 4.27859 18.9056C2.12661 18.421 0.745513 17.1192 0.155022 14.9932C0.0775108 14.7156 0.0507343 14.4254 0 14.1408C0 11.0498 0 7.96011 0 4.86905C0.0112743 4.80284 0.0183207 4.73521 0.0352322 4.6704C0.163477 4.17589 0.224077 3.65038 0.435469 3.19391C1.3811 1.14682 3.00883 0.0521303 5.26791 0.0211351C8.08789 -0.0183132 10.9079 0.0098642 13.7279 0.0126819C14.8201 0.0126819 15.8333 0.308544 16.724 0.942535C18.2348 2.01891 18.9915 3.49963 18.9958 5.3537C19.0028 8.12213 19.0014 10.892 18.993 13.6604C18.993 14.0168 18.9732 14.3817 18.8971 14.7283C18.4222 16.8782 17.113 18.2533 14.9906 18.8436C14.713 18.9211 14.4212 18.9493 14.1366 19ZM9.51268 1.69487C8.1344 1.69487 6.75471 1.69487 5.37643 1.69487C4.94237 1.69487 4.51394 1.73995 4.10102 1.88789C2.59731 2.42607 1.68833 3.71942 1.68551 5.35229C1.68128 8.12072 1.67564 10.8891 1.69255 13.6576C1.69537 14.0704 1.75456 14.5029 1.88563 14.8932C2.39579 16.4049 3.70783 17.3122 5.33838 17.315C8.10763 17.3206 10.8783 17.3249 13.6475 17.308C14.0604 17.3051 14.4931 17.2474 14.8835 17.1163C16.39 16.6092 17.3032 15.3088 17.3089 13.6858C17.3187 10.899 17.3159 8.11227 17.3089 5.32412C17.306 4.08009 16.8043 3.07697 15.7911 2.34436C15.147 1.87943 14.4156 1.69205 13.6292 1.69346C12.2566 1.69628 10.8839 1.69346 9.51127 1.69346L9.51268 1.69487Z" fill="#E9E6E1"/>
<path id="Vector_2" d="M14.3945 9.51691C14.3804 12.2135 12.1621 14.4184 9.48309 14.3986C6.78008 14.3789 4.57736 12.1599 4.60414 9.48451C4.63092 6.78652 6.82658 4.60278 9.50705 4.61123C12.2016 4.61968 14.41 6.83583 14.3959 9.5155L14.3945 9.51691ZM9.50141 6.30046C7.73557 6.29765 6.29528 7.73469 6.29246 9.50282C6.28965 11.2681 7.72712 12.7066 9.49718 12.7108C11.263 12.7136 12.7033 11.2766 12.7061 9.50705C12.7089 7.74174 11.2715 6.30328 9.50141 6.30046Z" fill="#E9E6E1"/>
<path id="Vector_3" d="M14.6087 5.651C13.9294 5.65522 13.3629 5.0959 13.3629 4.41964C13.3629 3.74902 13.9139 3.19675 14.5903 3.1897C15.271 3.18266 15.8362 3.74198 15.8347 4.41964C15.8347 5.08886 15.2795 5.64536 14.6073 5.651H14.6087Z" fill="#E9E6E1"/>
</g>
<defs>
<clipPath id="clip0_1_189">
<rect width="19" height="19" fill="white"/>
</clipPath>
</defs>
</svg>
